<svg width="32" height="32" viewBox="0 0 32 32" fill="none" xmlns="http://www.w3.org/2000/svg">
<path opacity="0.1" fill-rule="evenodd" clip-rule="evenodd" d="M0 16C0 7.16344 7.16344 0 16 0C24.8366 0 32 7.16344 32 16C32 24.8366 24.8366 32 16 32C7.16344 32 0 24.8366 0 16Z" fill="black"/>
<path d="M13.5528 26V16.6154H11V13.2365H13.5528V10.3505C13.5528 8.08264 15.0607 6 18.5353 6C19.9421 6 20.9824 6.1311 20.9824 6.1311L20.9004 9.28642C20.9004 9.28642 19.8395 9.27638 18.6818 9.27638C17.4288 9.27638 17.228 9.83768 17.228 10.7693V13.2365H21L20.8359 16.6154H17.228V26H13.5528Z" fill="#374151"/>
</svg>
