<svg width="32" height="32" viewBox="0 0 32 32" fill="none" xmlns="http://www.w3.org/2000/svg">
<path opacity="0.1" fill-rule="evenodd" clip-rule="evenodd" d="M0 16C0 7.16344 7.16344 0 16 0C24.8366 0 32 7.16344 32 16C32 24.8366 24.8366 32 16 32C7.16344 32 0 24.8366 0 16Z" fill="black"/>
<path fill-rule="evenodd" clip-rule="evenodd" d="M13.9432 13.5752H16.9144V15.0552C17.3424 14.204 18.44 13.4392 20.0888 13.4392C23.2496 13.4392 24 15.1336 24 18.2424V24H20.8V18.9504C20.8 17.18 20.372 16.1816 19.2824 16.1816C17.7712 16.1816 17.1432 17.2576 17.1432 18.9496V24H13.9432V13.5752V13.5752ZM8.456 23.864H11.656V13.4392H8.456V23.864V23.864ZM12.1144 10.04C12.1145 10.3082 12.0613 10.5738 11.9579 10.8213C11.8545 11.0688 11.7029 11.2932 11.512 11.4816C11.1251 11.8661 10.6014 12.0813 10.056 12.08C9.51151 12.0796 8.98905 11.865 8.6016 11.4824C8.41137 11.2934 8.26031 11.0687 8.15707 10.8211C8.05384 10.5736 8.00046 10.3082 8 10.04C8 9.4984 8.216 8.98 8.6024 8.5976C8.98951 8.21453 9.51219 7.99976 10.0568 8C10.6024 8 11.1256 8.2152 11.512 8.5976C11.8976 8.98 12.1144 9.4984 12.1144 10.04Z" fill="#374151"/>
</svg>
