<svg width="32" height="32" viewBox="0 0 32 32" fill="none" xmlns="http://www.w3.org/2000/svg">
<path opacity="0.1" fill-rule="evenodd" clip-rule="evenodd" d="M0 16C0 7.16344 7.16344 0 16 0C24.8366 0 32 7.16344 32 16C32 24.8366 24.8366 32 16 32C7.16344 32 0 24.8366 0 16Z" fill="black"/>
<path d="M21.4693 10H11.5307C9.58074 10 8 11.5807 8 13.5307V18.4989C8 20.4489 9.58074 22.0296 11.5307 22.0296H21.4693C23.4193 22.0296 25 20.4489 25 18.4989V13.5307C25 11.5807 23.4193 10 21.4693 10ZM19.0815 16.2565L14.4329 18.4737C14.3091 18.5327 14.166 18.4424 14.166 18.3052V13.7324C14.166 13.5932 14.3128 13.503 14.4369 13.5659L19.0856 15.9216C19.2238 15.9917 19.2214 16.1899 19.0815 16.2565Z" fill="#374151"/>
</svg>
