<?xml version="1.0" encoding="utf-8"?>
<!-- Generator: Adobe Illustrator 26.5.0, SVG Export Plug-In . SVG Version: 6.00 Build 0)  -->
<svg version="1.1" id="Camada_1" xmlns="http://www.w3.org/2000/svg" xmlns:xlink="http://www.w3.org/1999/xlink" x="0px" y="0px"
	 viewBox="0 0 709 209" style="enable-background:new 0 0 709 209;" xml:space="preserve">
<style type="text/css">
	.st0{fill:#F5F5F5;}
</style>
<g>
	<path class="st0" d="M55,95.6H33.4V37.5H55V95.6z"/>
	<path class="st0" d="M132.4,66.5v29.1h-19.9v-21c0-8.5-3.1-12.2-12-12.2c-5.9,0-12.1,2.6-16,6.3v26.9H64.5V45.8h19.9v6.6
		c6-4.1,13.6-7.5,24.1-7.5C119.7,45,132.4,48.5,132.4,66.5z"/>
	<path class="st0" d="M161,78.4c0,2.8,2.7,3.9,14.7,3.9c11.1,0,13-0.5,13-2.7c0-2.5-1.9-2.2-13.9-2.7c-22.9-0.9-32.9-2.7-32.9-15.4
		c0-14.2,15.4-16.6,33.8-16.6S207,47.4,207,61.8H187c0-2.7-3.3-2.7-12.2-2.7c-10.1,0-13,0-13,1.9c0,2.1,2.1,2,14.7,2.7
		c19.6,1,32.1,2.2,32.1,15.2c0,15.2-13.3,17.6-32.1,17.6c-18.8,0-35.4-2.4-35.4-18H161z"/>
	<path class="st0" d="M250.4,45c19.7,0,32,6.3,33.7,22h-20.3c-1.6-4.2-6.2-5.4-13.4-5.4c-8.9,0-13.9,1.8-13.9,9.1
		c0,7.3,5.1,9.1,13.9,9.1c7.1,0,11.8-1.2,13.4-5.4H284c-1.7,15.7-14,22-33.7,22c-21.2,0-33.9-7.3-33.9-25.7S229.2,45,250.4,45z"/>
	<path class="st0" d="M345.2,46.7v16.6c-4.6-1.2-8.4-1.7-12-1.7c-7.1,0-14.8,0.8-20.5,7.1v26.9h-19.9V45.8h19.9v8.3
		c4.4-6.6,11.2-9.1,19.3-9.1C337.8,45,341.9,45.8,345.2,46.7z"/>
	<path class="st0" d="M373.8,29.2v13.3h-19.9V29.2H373.8z M373.8,45.8v49.8h-19.9V45.8H373.8z"/>
	<path class="st0" d="M429.7,74.5h20.3c-1.5,14.3-11.9,20.7-28.5,21.8l-1.3,3.2c5.1-1.5,14.5-2.2,14.5,5.8c0,9.5-13.4,11-26.2,9.5
		v-7.6c10.9,1.6,14.6,0,14.6-2.7c0-2-2.2-2.7-8.6-1.2l-4.9-4.8l1.2-2.2c-17.8-1.2-28.3-8.8-28.3-25.6c0-18.4,12.7-25.7,33.9-25.7
		c19.7,0,32,6.3,33.7,22h-20.3c-1.6-4.2-6.2-5.4-13.4-5.4c-8.9,0-13.9,1.8-13.9,9.1c0,7.3,5.1,9.1,13.9,9.1
		C423.5,79.8,428.2,78.7,429.7,74.5z"/>
	<path class="st0" d="M457.9,70.7c0-18.4,12.7-25.7,33.9-25.7s33.9,7.3,33.9,25.7S513,96.4,491.8,96.4S457.9,89.1,457.9,70.7z
		 M479.3,22.6c8.5,0,10.5,5.8,17.4,5.8c3.1,0,4.1-1.7,4.1-5h14.9c0,8.3-2.7,17.4-11.6,17.4c-8.5,0-10.5-5.8-17.4-5.8
		c-3.1,0-4.1,1.7-4.1,5h-14.9C467.7,31.7,470.5,22.6,479.3,22.6z M505.7,70.7c0-7.3-5.1-9.1-13.9-9.1s-13.9,1.8-13.9,9.1
		c0,7.3,5.1,9.1,13.9,9.1S505.7,78,505.7,70.7z"/>
	<path class="st0" d="M580.7,76.9h19.5c-2.5,13.2-13.2,19.5-33.7,19.5c-19.5,0-33-7.3-33-25.7S547.1,45,567.4,45
		c20.5,0,33.7,7.3,33.7,29h-47.2c1.7,5.3,7.2,6.6,12.7,6.6C573.8,80.7,576.7,80.2,580.7,76.9z M554.8,64.1h25.1
		c-2.2-4.5-7.2-5-12.5-5S557,59.6,554.8,64.1z"/>
	<path class="st0" d="M628,78.4c0,2.8,2.7,3.9,14.7,3.9c11.1,0,13-0.5,13-2.7c0-2.5-1.9-2.2-13.9-2.7c-22.9-0.9-32.9-2.7-32.9-15.4
		c0-14.2,15.4-16.6,33.8-16.6S674,47.4,674,61.8h-19.9c0-2.7-3.3-2.7-12.2-2.7c-10.1,0-13,0-13,1.9c0,2.1,2.1,2,14.7,2.7
		c19.6,1,32.1,2.2,32.1,15.2c0,15.2-13.3,17.6-32.1,17.6s-35.4-2.4-35.4-18H628z"/>
	<path class="st0" d="M53.8,148.1v4.9h36v12.8h-36v4.9h36v15H34.3v-52.5h55.5v15H53.8z"/>
	<path class="st0" d="M159,159.3v26.3h-18v-19c0-7.7-2.8-11-10.9-11c-5.3,0-10.9,2.3-14.5,5.7v24.3h-18v-45h18v6
		c5.4-3.8,12.3-6.8,21.7-6.8C147.5,139.9,159,143,159,159.3z"/>
	<path class="st0" d="M196.7,139.9c17.8,0,28.9,5.7,30.4,19.9h-18.4c-1.4-3.8-5.6-4.9-12.1-4.9c-8,0-12.6,1.7-12.6,8.2
		s4.6,8.2,12.6,8.2c6.4,0,10.6-1.1,12.1-4.9h18.4c-1.5,14.2-12.7,19.9-30.4,19.9c-19.1,0-30.6-6.6-30.6-23.2
		S177.6,139.9,196.7,139.9z"/>
	<path class="st0" d="M277,168.7h17.6c-2.2,11.9-11.9,17.6-30.4,17.6c-17.6,0-29.8-6.6-29.8-23.2s12.2-23.2,30.6-23.2
		c18.5,0,30.4,6.6,30.4,26.2h-42.7c1.5,4.8,6.5,6,11.5,6C270.7,172.1,273.3,171.7,277,168.7z M253.5,157.1h22.6
		c-2-4-6.5-4.5-11.3-4.5S255.5,153.1,253.5,157.1z"/>
	<path class="st0" d="M350.6,141.4v15c-4.2-1-7.6-1.5-10.9-1.5c-6.4,0-13.3,0.8-18.5,6.5v24.3h-18v-45h18v7.5
		c4-5.9,10.1-8.2,17.5-8.2C343.9,139.9,347.6,140.6,350.6,141.4z"/>
	<path class="st0" d="M405.9,141.4v15c-4.2-1-7.6-1.5-10.9-1.5c-6.4,0-13.3,0.8-18.5,6.5v24.3h-18v-45h18v7.5
		c4-5.9,10.1-8.2,17.5-8.2C399.2,139.9,402.9,140.6,405.9,141.4z"/>
	<path class="st0" d="M469.9,163.3v22.3h-18v-5.5c-7,5.1-14.8,6.2-22.6,6.2c-10.3,0-19.3-3.7-19.3-13.4c0-11.7,13.5-14.8,26.6-14.8
		c6.3,0,11.1,0.8,15.2,2.3c0-5.4-5.7-5.6-11.7-5.6c-5.8,0-12.4,0.5-20.6,2.3l-5.8-12.7c9-2.9,18.7-4.6,27.1-4.6
		C459.2,139.9,469.7,146.2,469.9,163.3z M451.9,169c-2.9-0.8-6.8-1.1-11.9-1.1c-8.3,0-11.9,0.8-11.9,3.6c0,2.5,2.1,2.8,6.7,2.8
		c6.1,0,12.7-1.5,17.2-3.4V169z"/>
	<path class="st0" d="M538.2,125.6v60h-18v-6.1c-4.7,4.8-11.6,6.9-18.6,6.9c-11.6,0-24.6-5.1-24.6-23.2s13-23.2,24.6-23.2
		c7,0,13.9,2.1,18.6,6.9v-21.1H538.2z M520.2,163.1c0-6.6-4.6-8.2-12.6-8.2s-12.6,1.7-12.6,8.2s4.6,8.2,12.6,8.2
		S520.2,169.7,520.2,163.1z"/>
	<path class="st0" d="M605.9,163.3v22.3h-18v-5.5c-7,5.1-14.8,6.2-22.6,6.2c-10.3,0-19.3-3.7-19.3-13.4c0-11.7,13.5-14.8,26.6-14.8
		c6.3,0,11.1,0.8,15.2,2.3c0-5.4-5.7-5.6-11.7-5.6c-5.8,0-12.4,0.5-20.6,2.3l-5.8-12.7c9-2.9,18.7-4.6,27.1-4.6
		C595.3,139.9,605.8,146.2,605.9,163.3z M587.9,169c-2.9-0.8-6.8-1.1-11.9-1.1c-8.3,0-11.9,0.8-11.9,3.6c0,2.5,2.1,2.8,6.7,2.8
		c6.1,0,12.7-1.5,17.2-3.4V169z"/>
	<path class="st0" d="M631,170.1c0,2.5,2.4,3.5,13.3,3.5c10,0,11.8-0.4,11.8-2.4c0-2.2-1.7-2-12.5-2.5c-20.7-0.8-29.8-2.4-29.8-13.9
		c0-12.8,13.9-15,30.5-15s28.3,2.2,28.3,15.1h-18c0-2.4-3-2.4-11-2.4c-9.1,0-11.8,0-11.8,1.7c0,1.9,1.9,1.8,13.3,2.4
		c17.7,0.9,29,2,29,13.7c0,13.7-12,15.9-29,15.9s-32-2.2-32-16.3H631z"/>
</g>
</svg>
