<svg width="198" height="39" viewBox="0 0 198 39" fill="none" xmlns="http://www.w3.org/2000/svg">
<g clip-path="url(#clip0_2182_15071)">
<path d="M26.8971 19.5099H21.8674C19.3069 19.5099 17.0996 17.4021 17.0715 14.8338C17.0306 11.4914 16.9885 8.14787 17.0832 4.80782C17.1686 1.84898 19.5466 -0.00233565 21.9504 0.0209806C25.1379 0.0524576 28.3289 0.111915 31.514 0.00349413C34.2347 -0.089771 36.7309 1.73706 36.7777 5.14007C36.8186 8.21899 36.828 11.3002 36.7777 14.3792C36.7297 17.0022 35.422 18.8186 33.0896 19.3665C32.0298 19.6148 30.8777 19.4831 29.7676 19.5064C28.8038 19.5239 27.8504 19.5099 26.8971 19.5099ZM26.931 2.38992C25.3215 2.38992 23.7085 2.45637 22.1025 2.37126C20.5584 2.28966 19.4332 3.64433 19.4308 4.98735C19.4227 8.1642 19.4145 11.3422 19.4308 14.5191C19.4414 16.1092 20.4953 17.1398 22.0873 17.1456C25.3071 17.1565 28.5269 17.1565 31.7468 17.1456C33.2955 17.1456 34.2324 16.3039 34.2511 14.7779C34.2909 11.4359 34.2909 8.09386 34.2511 4.75186C34.2324 3.21648 33.3001 2.38992 31.762 2.38642C30.1513 2.38642 28.5429 2.38992 26.931 2.38992Z" fill="#5A1187"/>
<path d="M21.0143 29.1465C21.0143 30.753 20.9546 32.3619 21.0283 33.9648C21.157 36.7978 18.9228 38.8939 16.126 38.9522C12.9035 39.021 9.67857 39.0093 6.45718 38.9522C3.48845 38.8974 1.46718 36.7593 1.46484 33.7981C1.46484 30.6831 1.46484 27.5684 1.46484 24.4541C1.46484 21.4673 3.5832 19.3304 6.56831 19.3187C9.72575 19.3071 12.884 19.3071 16.043 19.3187C18.8714 19.3269 20.978 21.4044 21.0178 24.2326C21.04 25.8718 21.0178 27.5109 21.0178 29.15L21.0143 29.1465ZM18.655 29.2515C18.655 27.547 18.6725 25.8426 18.655 24.1382C18.6362 22.7858 17.6022 21.6993 16.2301 21.69C12.976 21.6573 9.72107 21.6573 6.46537 21.69C4.98919 21.7075 3.85925 22.7987 3.84755 24.1848C3.8187 27.4631 3.8187 30.741 3.84755 34.0185C3.86159 35.4105 4.78332 36.448 6.13317 36.4737C9.5499 36.5378 12.9701 36.5483 16.3869 36.4865C17.8291 36.4609 18.6339 35.5107 18.655 34.0721C18.6748 32.4644 18.6561 30.8579 18.655 29.2515Z" fill="#CB305A"/>
<path d="M8.41567 17.9162C7.26701 17.9162 6.11602 17.9442 4.96853 17.9092C3.09698 17.8521 1.59741 16.5615 1.49682 14.6974C1.36113 12.1862 1.31901 9.65992 1.41844 7.14759C1.49681 5.17154 3.05604 3.78189 5.0621 3.72943C7.39217 3.6688 9.72263 3.66453 12.0535 3.7166C13.0031 3.74317 13.9058 4.13368 14.5738 4.80684C15.2418 5.48 15.6236 6.38397 15.6398 7.33063C15.6921 9.6537 15.6921 11.9779 15.6398 14.3034C15.593 16.3295 14.0209 17.8439 11.9634 17.9174C10.7832 17.9582 9.59942 17.9244 8.41684 17.9244L8.41567 17.9162ZM13.2325 10.8409H13.1904C13.1904 9.85694 13.1975 8.87416 13.1904 7.89021C13.1799 6.67194 12.6804 6.12984 11.4756 6.11468C9.50351 6.09137 7.53059 6.09137 5.55689 6.11468C4.30646 6.131 3.80232 6.68477 3.80232 7.95783C3.80232 9.89231 3.80505 11.8264 3.81051 13.7601C3.81636 14.9434 4.17663 15.4307 5.344 15.4657C7.47639 15.531 9.61462 15.5193 11.7482 15.4657C12.7682 15.4377 13.194 14.9282 13.2302 13.8907C13.2606 12.8729 13.2325 11.8563 13.2325 10.8409Z" fill="#FFD105"/>
<path d="M22.5503 28.0891C22.5503 26.9117 22.5187 25.7342 22.5573 24.5579C22.6181 22.6926 24.1469 21.1327 26.0231 21.0977C28.4522 21.0511 30.8825 21.0511 33.314 21.0977C35.1855 21.1339 36.7389 22.7649 36.774 24.7001C36.8153 26.9905 36.8153 29.2833 36.774 31.5784C36.7365 33.5976 35.2077 35.1435 33.1245 35.2076C30.8283 35.2787 28.5251 35.2892 26.2231 35.2076C23.9937 35.1318 22.5584 33.5451 22.5491 31.3278C22.5491 30.2471 22.5491 29.1675 22.5491 28.088L22.5503 28.0891ZM29.6925 32.8981V32.8911C30.7453 32.8911 31.798 32.9133 32.8414 32.8911C33.914 32.862 34.4158 32.377 34.4275 31.3173C34.4525 29.1916 34.4525 27.0656 34.4275 24.9391C34.4182 23.926 33.9292 23.4235 32.9209 23.4119C30.7882 23.38 28.6558 23.3703 26.5238 23.3827C25.3845 23.3897 24.8639 23.8106 24.8242 24.9578C24.7517 27.0795 24.7474 29.2037 24.8113 31.3301C24.8441 32.4318 25.4219 32.8795 26.5401 32.8993C27.5917 32.9086 28.6421 32.8981 29.6925 32.8981Z" fill="#1BD7B4"/>
</g>
<path d="M45.8951 14.7775C46.097 17.5289 47.4193 18.9046 49.8619 18.9046C51.3393 18.806 52.3353 18.3129 52.8499 17.4254C52.9794 17.1693 53.1792 16.9556 53.4259 16.8095C53.6726 16.6634 53.9559 16.5909 54.2424 16.6007H55.7899C55.066 19.606 53.0211 21.1087 49.6551 21.1087C45.6045 21.1087 43.5436 18.7012 43.4722 13.8863C43.5042 9.07139 45.6169 6.66271 49.8102 6.66025C54.2104 6.66025 56.2726 9.36109 55.9968 14.7628L45.8951 14.7775ZM49.7843 8.86061C47.5017 8.86061 46.2053 10.1673 45.8951 12.7806H53.6256C53.3473 10.1574 52.0669 8.84583 49.7843 8.84583V8.86061Z" fill="#571086"/>
<path d="M69.2785 12.1482V20.8683H66.8039V12.2C66.8039 9.92934 65.6367 8.79404 63.3025 8.79404C60.9682 8.79404 59.8171 9.97989 59.8491 12.3516V20.8572H57.4262V12.6031C57.3942 8.61407 59.3701 6.61957 63.3542 6.61957C65.6183 6.61957 67.1843 7.21866 68.0412 8.42423C69.0065 7.25564 70.57 6.67011 72.7319 6.66764C76.6716 6.63559 78.6415 8.60791 78.6415 12.5846V20.8424H77.7735C76.7394 20.8424 76.226 20.3432 76.226 19.3447V12.3183C76.226 9.94414 75.0576 8.75829 72.7208 8.76075C70.3841 8.76322 69.2367 9.89238 69.2785 12.1482Z" fill="#571086"/>
<path d="M86.7525 6.68612C90.771 6.68612 92.7642 9.11206 92.7322 13.964C92.7322 16.4047 92.2595 18.2106 91.3139 19.3817C90.3684 20.5527 88.7272 21.1284 86.3905 21.1087C84.0192 21.1087 82.388 20.5071 81.4966 19.304C80.5647 17.9783 80.0936 16.3827 80.1559 14.7627V2.91037H81.0312C82.0605 2.91037 82.5763 3.40963 82.5788 4.40811V8.84581C83.4037 7.40603 84.7949 6.68612 86.7525 6.68612ZM90.361 13.9122C90.361 10.5395 89.0547 8.85443 86.4422 8.8569C83.8297 8.85936 82.5246 10.5444 82.5271 13.9122C82.5271 17.2848 83.8321 18.9699 86.4422 18.9675C89.0523 18.965 90.3585 17.2762 90.361 13.9011V13.9122Z" fill="#571086"/>
<path d="M101.323 12.4214C102.554 12.2143 103.169 11.6115 103.169 10.613C103.169 9.44444 102.087 8.89467 99.9227 8.9637C98.0316 8.99575 97.0861 9.63182 97.0861 10.8719H94.6151C94.6151 8.32762 96.4016 7.03698 99.9744 7C103.688 7 105.56 8.11806 105.592 10.3542V16.2563C105.592 18.0141 105.1 19.322 104.115 20.18C103.13 21.0379 101.46 21.4558 99.1064 21.4336C95.6346 21.4336 93.9331 19.9889 94.002 17.0995C94.0734 14.8289 95.5164 13.4359 98.3308 12.9206C99.2246 12.7986 100.222 12.6248 101.323 12.4214ZM102.043 14.1225C101.227 14.3105 100.401 14.4488 99.5681 14.5367C97.5983 14.8104 96.6133 15.6955 96.6133 17.1919C96.6133 18.6884 97.5748 19.4367 99.4979 19.4367C101.941 19.4367 103.161 18.3704 103.158 16.2378V13.6085C102.827 13.8567 102.447 14.0319 102.043 14.1225Z" fill="#571086"/>
<path d="M109.471 4.97391H107.048V2.91037H107.923C108.952 2.91037 109.468 3.40963 109.471 4.40811V4.97391ZM109.471 20.8757H107.048V6.88213H107.923C108.952 6.88213 109.468 7.38137 109.471 8.37985V20.8757Z" fill="#571086"/>
<path d="M110.52 20.8683L115.366 13.3427L111.303 6.89323H114.136L116.921 11.6416L119.805 6.63806C119.983 6.32077 120.246 6.06011 120.565 5.88608C120.884 5.71205 121.245 5.63173 121.608 5.65438H123.362L118.465 13.2946L123.362 20.8794H120.407L116.925 14.9846L113.419 20.8683H110.52Z" fill="#571086"/>
<path d="M130.538 12.0964C131.77 11.8893 132.385 11.2865 132.385 10.2881C132.385 9.11946 131.303 8.56969 129.138 8.63872C127.252 8.67077 126.308 9.30683 126.306 10.5469H123.831C123.831 8.00264 125.617 6.712 129.19 6.67502C132.901 6.67502 134.774 7.79308 134.808 10.0292V15.9313C134.808 17.6892 134.316 18.997 133.331 19.855C132.337 20.713 130.668 21.1419 128.333 21.1419C124.861 21.1419 123.161 19.6972 123.233 16.8078C123.299 14.5372 124.742 13.1442 127.561 12.6289C128.44 12.4736 129.438 12.2998 130.538 12.0964ZM131.277 13.7975C130.463 13.9856 129.637 14.1239 128.806 14.2117C126.836 14.4854 125.851 15.3705 125.851 16.867C125.851 18.3635 126.814 19.1117 128.74 19.1117C131.177 19.1117 132.396 18.0454 132.396 15.9128V13.2835C132.058 13.5346 131.67 13.7099 131.259 13.7975H131.277Z" fill="#571086"/>
<path d="M148.855 4.40811V14.7627C148.917 16.3827 148.446 17.9783 147.514 19.304C146.62 20.5096 144.989 21.1111 142.62 21.1087C140.251 21.1062 138.61 20.5219 137.697 19.3558C136.751 18.1872 136.278 16.3813 136.278 13.9381C136.244 9.08617 138.237 6.66023 142.258 6.66023C144.228 6.66023 145.619 7.38382 146.432 8.83101V2.91037H147.307C148.339 2.91037 148.855 3.40963 148.855 4.40811ZM142.576 18.9564C145.186 18.9564 146.491 17.2713 146.491 13.9011C146.491 10.5309 145.186 8.84581 142.576 8.84581C139.963 8.84581 138.657 10.5309 138.657 13.9011C138.657 17.2713 139.961 18.9564 142.568 18.9564H142.576Z" fill="#571086"/>
<path d="M162.723 13.9011C162.723 18.716 160.593 21.1234 156.334 21.1234C152.222 21.1136 150.166 18.7061 150.166 13.9011C150.166 9.09605 152.258 6.69106 156.444 6.68613C160.63 6.68613 162.723 9.09112 162.723 13.9011ZM156.444 18.8898C159.057 18.8578 160.362 17.1899 160.36 13.8863C160.36 10.4791 159.054 8.79403 156.444 8.83101C153.834 8.86799 152.528 10.5531 152.526 13.8863C152.531 17.222 153.837 18.8898 156.444 18.8898Z" fill="#571086"/>
<path d="M164.098 13.18C164.098 8.9888 166.19 6.89322 170.376 6.89322H171.252V9.31916H170.17C167.766 9.31916 166.546 10.489 166.509 12.8286V20.8794H164.086L164.098 13.18Z" fill="#571086"/>
<path d="M174.48 14.7775C174.684 17.5289 176.006 18.9046 178.447 18.9046C179.924 18.806 180.92 18.3129 181.435 17.4254C181.564 17.1693 181.764 16.9556 182.011 16.8095C182.257 16.6634 182.541 16.5909 182.827 16.6007H184.375C183.651 19.606 181.605 21.1087 178.236 21.1087C174.183 21.1087 172.122 18.7012 172.053 13.8863C172.085 9.07139 174.198 6.66271 178.391 6.66025C182.789 6.66025 184.851 9.36109 184.578 14.7628L174.48 14.7775ZM178.369 8.86061C176.086 8.86061 174.79 10.1673 174.48 12.7806H182.21C181.935 10.1574 180.654 8.84583 178.369 8.84583V8.86061Z" fill="#571086"/>
<path d="M198 16.6377C198 19.6306 195.907 21.1259 191.721 21.1234C187.666 21.1234 185.696 19.5209 185.811 16.3159H188.209C188.312 18.2044 189.543 19.1499 191.902 19.1524C194.261 19.1548 195.437 18.5015 195.429 17.1924C195.501 16.3295 194.865 15.7452 193.523 15.4395C193.043 15.3359 191.721 14.9748 189.557 14.356C187.392 13.7371 186.293 12.5155 186.258 10.6912C186.258 8.14441 188.079 6.802 191.721 6.66394C195.124 6.66394 197.048 7.97182 197.494 10.5876H195.791C195.547 10.624 195.298 10.5779 195.084 10.4567C194.869 10.3355 194.701 10.146 194.606 9.91825C194.262 9.08988 193.265 8.6794 191.618 8.6794C189.727 8.71392 188.781 9.31547 188.781 10.4841C188.781 11.2434 189.323 11.7771 190.406 12.0853C191.49 12.3935 192.958 12.8052 194.812 13.3205C196.94 13.9492 198.002 15.0549 198 16.6377Z" fill="#571086"/>
<path d="M132.108 25.2468V30.757C132.142 31.6179 131.893 32.466 131.399 33.1718C130.924 33.8128 130.062 34.1333 128.814 34.1333C127.565 34.1333 126.694 33.8227 126.199 33.2014C125.697 32.5764 125.46 31.6186 125.46 30.3206C125.443 27.7443 126.502 26.4549 128.637 26.4524C129.678 26.4524 130.417 26.837 130.853 27.6062V24.4369H131.318C131.427 24.4239 131.537 24.4361 131.64 24.4725C131.743 24.5089 131.836 24.5685 131.913 24.6468C131.989 24.7251 132.046 24.8199 132.08 24.924C132.114 25.028 132.124 25.1385 132.108 25.2468ZM128.784 32.9795C130.171 32.9795 130.864 32.0834 130.864 30.291C130.864 28.4987 130.171 27.6037 128.784 27.6062C127.396 27.6062 126.701 28.5012 126.701 30.291C126.701 32.0809 127.391 32.9771 128.77 32.9795H128.784Z" fill="#3D3D3D"/>
<path d="M136.666 29.3332C137.324 29.2222 137.652 28.9042 137.652 28.3717C137.652 27.7504 137.08 27.4583 135.927 27.4953C134.923 27.515 134.421 27.8527 134.421 28.5085H133.106C133.106 27.16 134.056 26.4746 135.957 26.4524C137.927 26.4524 138.922 27.0466 138.941 28.2349V31.3634C138.941 32.2954 138.677 32.9894 138.147 33.4455C137.615 33.904 136.733 34.1333 135.492 34.1333C133.645 34.1333 132.74 33.3653 132.777 31.8294C132.814 30.6214 133.581 29.8817 135.078 29.6105C135.554 29.5329 136.083 29.4441 136.666 29.3332ZM137.036 30.2392C136.602 30.3375 136.163 30.4103 135.721 30.4574C134.679 30.6016 134.162 31.075 134.162 31.8701C134.162 32.6652 134.672 33.0609 135.695 33.0609C136.992 33.0609 137.64 32.4951 137.638 31.3634V29.9619C137.464 30.0955 137.264 30.19 137.05 30.2392H137.036Z" fill="#3D3D3D"/>
<path d="M146.989 25.5464H145.7V24.437H146.166C146.716 24.437 146.989 24.6995 146.989 25.232V25.5464ZM146.989 33.9965H145.7V26.5633H146.166C146.716 26.5633 146.989 26.8296 146.989 27.3584V33.9965Z" fill="#3D3D3D"/>
<path d="M149.135 29.47V33.9965H147.85V29.6142C147.833 27.4915 148.883 26.4314 151 26.4339C153.118 26.4364 154.167 27.4965 154.147 29.6142V34.0039H153.656C153.546 34.0213 153.434 34.013 153.329 33.9797C153.223 33.9463 153.126 33.8889 153.046 33.8118C152.966 33.7347 152.906 33.6401 152.868 33.5355C152.831 33.4309 152.819 33.319 152.832 33.2088V29.47C152.832 28.2102 152.217 27.5791 150.986 27.5766C149.754 27.5741 149.138 28.2053 149.135 29.47Z" fill="#3D3D3D"/>
<path d="M161.615 30.291C161.615 32.8526 160.483 34.1333 158.217 34.1333C156.028 34.1333 154.933 32.8526 154.93 30.291C154.928 27.7295 156.036 26.4499 158.254 26.4524C160.495 26.4524 161.615 27.7319 161.615 30.291ZM158.291 32.9536C159.68 32.9364 160.373 32.0488 160.371 30.291C160.371 28.4839 159.678 27.5889 158.291 27.6062C156.905 27.6235 156.211 28.5184 156.208 30.291C156.193 32.0587 156.88 32.9425 158.269 32.9425L158.291 32.9536Z" fill="#3D3D3D"/>
<path d="M161.512 26.5634H162.853L164.77 32.2658L166.443 27.3843C166.502 27.1388 166.645 26.9219 166.848 26.7717C167.05 26.6215 167.299 26.5477 167.551 26.5634H168.072L165.486 33.9965H164.142L161.512 26.5634Z" fill="#3D3D3D"/>
<path d="M171.931 29.3332C172.589 29.2222 172.917 28.9042 172.917 28.3717C172.917 27.7504 172.342 27.4583 171.193 27.4953C170.188 27.515 169.686 27.8527 169.686 28.5085H168.371C168.371 27.16 169.32 26.4746 171.218 26.4524C173.188 26.4524 174.184 27.0466 174.206 28.2349V31.3634C174.206 32.2954 173.942 32.9894 173.412 33.4455C172.883 33.9016 171.996 34.1308 170.753 34.1333C168.911 34.1333 168.007 33.3653 168.042 31.8294C168.079 30.6214 168.846 29.8817 170.343 29.6105C170.816 29.5329 171.348 29.4441 171.931 29.3332ZM172.301 30.2392C171.867 30.3375 171.428 30.4103 170.986 30.4574C169.944 30.6016 169.423 31.075 169.423 31.8701C169.423 32.6652 169.937 33.0609 170.956 33.0609C172.256 33.0609 172.903 32.4951 172.903 31.3634V29.9619C172.732 30.0934 172.536 30.1878 172.326 30.2392H172.301Z" fill="#3D3D3D"/>
<path d="M181.531 28.9227H180.242C180.134 28.523 179.891 28.1731 179.554 27.933C179.217 27.6928 178.808 27.5773 178.395 27.6062C177.006 27.6062 176.293 28.5011 176.257 30.291C176.257 32.0661 176.969 32.9536 178.395 32.9536C179.178 32.8982 179.71 32.6319 179.983 32.1585C180.052 32.0222 180.157 31.9084 180.288 31.8304C180.419 31.7524 180.57 31.7136 180.722 31.7185H181.546C181.161 33.3259 180.074 34.1308 178.284 34.1333C176.095 34.1333 175 32.8525 174.997 30.291C174.995 27.7295 176.103 26.4499 178.321 26.4524C180.185 26.4524 181.255 27.2758 181.531 28.9227ZM176.271 35.2095C176.271 34.4403 176.7 34.2023 177.557 34.4957C178.908 34.9913 179.751 35.1984 180.079 35.1281C180.207 35.0835 180.331 35.0279 180.449 34.9617V35.3315C180.449 35.8049 180.275 36.0526 179.928 36.0711C179.682 36.1254 179.161 36.0021 178.366 35.7013C177.527 35.4461 176.988 35.3315 176.751 35.3981C176.572 35.4228 176.407 35.5106 176.286 35.6458L176.271 35.2095Z" fill="#3D3D3D"/>
<path d="M185.992 29.3332C186.65 29.2223 186.978 28.9042 186.978 28.3717C186.978 27.7504 186.406 27.4583 185.253 27.4953C184.249 27.515 183.747 27.8527 183.747 28.5085H182.432C182.432 27.16 183.382 26.4746 185.283 26.4524C187.253 26.4524 188.248 27.0466 188.267 28.2349V31.3634C188.267 32.2954 188.003 32.9894 187.473 33.4455C186.944 33.9016 186.059 34.1308 184.818 34.1333C182.971 34.1333 182.07 33.3641 182.103 31.8294C182.14 30.6214 182.907 29.8818 184.404 29.6106C184.884 29.5329 185.42 29.4441 185.992 29.3332ZM186.362 30.2392C185.928 30.3375 185.489 30.4103 185.047 30.4574C184.009 30.6017 183.488 31.075 183.488 31.8701C183.488 32.6652 183.998 33.0609 185.021 33.0609C186.316 33.0609 186.964 32.4951 186.964 31.3634V29.9619C186.793 30.094 186.597 30.1886 186.387 30.2392H186.362ZM183.776 24.8622C183.753 24.7407 183.779 24.615 183.848 24.5126C183.918 24.4101 184.024 24.3391 184.145 24.3149C184.597 24.2693 185.052 24.3499 185.46 24.5479C185.852 24.7372 186.285 24.8261 186.72 24.8067C186.823 24.7911 186.919 24.7433 186.993 24.6699V24.9732C186.993 25.3208 186.845 25.5131 186.554 25.5464C186.146 25.5362 185.745 25.4431 185.375 25.2727C184.981 25.0912 184.549 25.0075 184.116 25.0286C183.993 25.0647 183.88 25.1293 183.787 25.2172L183.776 24.8622Z" fill="#3D3D3D"/>
<path d="M195.74 30.291C195.74 32.8526 194.608 34.1333 192.345 34.1333C190.151 34.1333 189.056 32.8526 189.058 30.291C189.061 27.7295 190.169 26.4499 192.382 26.4524C194.623 26.4524 195.742 27.7319 195.74 30.291ZM192.397 32.9536C193.786 32.9364 194.48 32.0488 194.48 30.291C194.48 28.4839 193.786 27.5889 192.397 27.6062C191.008 27.6235 190.315 28.5184 190.318 30.291C190.318 32.0587 191.011 32.9425 192.397 32.9425V32.9536Z" fill="#3D3D3D"/>
<defs>
<clipPath id="clip0_2182_15071">
<rect width="35.4423" height="39" fill="white" transform="translate(1.36328)"/>
</clipPath>
</defs>
</svg>
