<svg width="520" height="435" viewBox="0 0 520 435" fill="none" xmlns="http://www.w3.org/2000/svg">
<path d="M185.24 57.9162C185.24 57.9162 117.271 92.5421 83.3719 145.898C49.4727 199.254 52.1548 267.896 93.347 318.848C134.539 369.8 213.272 363.108 279.196 395.383C345.12 427.659 417.852 421.012 449.024 352.63C480.196 284.249 433.191 258.692 425.118 179.555C417.044 100.418 345.703 -15.4618 185.24 57.9162Z" fill="#7E57C2"/>
<path opacity="0.7" d="M185.24 57.9162C185.24 57.9162 117.271 92.5421 83.3719 145.898C49.4727 199.254 52.1548 267.896 93.347 318.848C134.539 369.8 213.272 363.108 279.196 395.383C345.12 427.659 417.852 421.012 449.024 352.63C480.196 284.249 433.191 258.692 425.118 179.555C417.044 100.418 345.703 -15.4618 185.24 57.9162Z" fill="white"/>
<path d="M424.597 385.11C443.27 377.141 451.948 355.544 443.979 336.871C436.011 318.198 414.413 309.52 395.74 317.488C377.067 325.457 368.389 347.055 376.358 365.728C384.326 384.401 405.924 393.079 424.597 385.11Z" stroke="#263238" stroke-linecap="round" stroke-linejoin="round"/>
<path d="M410.155 384.968C428.728 384.968 443.785 369.912 443.785 351.338C443.785 332.765 428.728 317.708 410.155 317.708C391.582 317.708 376.525 332.765 376.525 351.338C376.525 369.912 391.582 384.968 410.155 384.968Z" stroke="#263238" stroke-linecap="round" stroke-linejoin="round"/>
<path d="M412.245 351.32C412.247 351.736 412.125 352.143 411.895 352.49C411.666 352.836 411.338 353.107 410.954 353.267C410.57 353.427 410.147 353.469 409.739 353.388C409.331 353.308 408.956 353.108 408.662 352.814C408.368 352.519 408.168 352.145 408.087 351.737C408.007 351.329 408.049 350.906 408.209 350.522C408.369 350.138 408.639 349.81 408.986 349.58C409.332 349.35 409.739 349.228 410.155 349.23C410.71 349.23 411.241 349.45 411.633 349.842C412.025 350.234 412.245 350.766 412.245 351.32Z" stroke="#263238" stroke-linecap="round" stroke-linejoin="round"/>
<path d="M410.155 353.429V375.613" stroke="#263238" stroke-linecap="round" stroke-linejoin="round"/>
<path d="M408.056 351.338H396.87" stroke="#263238" stroke-linecap="round" stroke-linejoin="round"/>
<path d="M335.593 234.481V215.49L315.804 213.239C315.217 209.419 314.295 205.658 313.05 201.999L329.538 189.934L319.904 173.482L301.604 181.295C299.155 178.281 296.454 175.481 293.531 172.926L301.694 154.339L285 144.839L273.123 160.618C269.476 159.209 265.716 158.11 261.883 157.335L259.524 137.241H240.256L237.995 156.752C234.128 157.322 230.316 158.223 226.603 159.443L214.34 143.207L197.628 152.715L205.558 170.755C202.509 173.162 199.67 175.824 197.072 178.712L178.234 170.638L168.6 187.162L184.603 198.823C183.169 202.415 182.052 206.125 181.266 209.911L160.849 212.279V231.278L180.638 233.53C181.228 237.347 182.152 241.105 183.401 244.761L166.949 256.781L176.583 273.278L194.883 265.465C197.332 268.478 200.033 271.278 202.957 273.834L194.793 292.421L211.478 301.92L223.355 286.141C227.003 287.559 230.767 288.658 234.604 289.425L236.954 309.518H256.223L258.51 290.017C262.38 289.441 266.193 288.541 269.912 287.326L282.147 303.571L298.832 294.071L290.92 275.969C293.972 273.565 296.811 270.903 299.406 268.012L318.244 276.086L327.879 259.634L311.884 247.892C313.312 244.299 314.426 240.589 315.212 236.804L335.593 234.481ZM248.239 268.568C222.934 268.568 202.418 248.349 202.418 223.393C202.418 198.438 222.934 178.191 248.239 178.191C273.545 178.191 294.069 198.42 294.069 223.366C294.069 248.313 273.554 268.532 248.239 268.532V268.568Z" fill="#7E57C2"/>
<path d="M420.911 139.619V127.329L408.128 125.876C407.743 123.409 407.143 120.981 406.334 118.619L416.991 110.824L410.774 100.149L398.942 105.199C397.362 103.259 395.619 101.458 393.73 99.8168L399.005 87.8055L388.24 81.6697L380.562 91.8691C378.205 90.9527 375.774 90.2414 373.296 89.7431L371.771 76.7539H359.302L357.822 89.3843C355.32 89.7685 352.856 90.3688 350.457 91.1783L342.554 80.674L331.79 86.8097L336.912 98.4713C334.943 100.027 333.109 101.746 331.431 103.611L319.222 98.3547L312.997 108.994L323.331 116.556C322.405 118.88 321.685 121.282 321.178 123.732L308.009 125.266V137.546L320.801 139C321.184 141.467 321.785 143.895 322.595 146.257L311.947 154.061L318.173 164.691L329.996 159.641C331.579 161.581 333.325 163.381 335.216 165.023L329.942 177.034L340.706 183.17L348.385 172.98C350.743 173.89 353.173 174.598 355.651 175.097L357.167 188.059H369.618L371.098 175.5C373.601 175.118 376.065 174.518 378.463 173.706L386.375 184.211L397.139 178.075L392.017 166.413C393.991 164.861 395.828 163.141 397.507 161.273L409.689 166.476L415.914 155.846L405.571 148.275C406.497 145.95 407.217 143.549 407.724 141.099L420.911 139.619ZM364.478 161.614C358.72 161.534 353.113 159.754 348.365 156.496C343.616 153.239 339.936 148.65 337.789 143.306C335.641 137.963 335.122 132.104 336.296 126.466C337.47 120.828 340.285 115.663 344.387 111.621C348.488 107.579 353.694 104.84 359.348 103.749C365.003 102.657 370.854 103.262 376.165 105.488C381.477 107.713 386.011 111.46 389.199 116.256C392.387 121.052 394.085 126.683 394.08 132.442C394.019 140.235 390.866 147.684 385.316 153.154C379.765 158.624 372.27 161.667 364.478 161.614Z" fill="#7E57C2"/>
<path d="M271.033 51.87C265.893 49.0622 263.552 51.4035 261.686 49.0622C259.82 46.721 266.826 40.648 252.796 34.575C252.796 34.575 251.899 21.4782 232.693 21.0117C213.488 20.5453 218.673 34.1086 213.524 37.3558C208.375 40.6031 206.984 35.49 201.862 38.7642C196.74 42.0384 199.054 48.5778 194.847 49.5287C190.64 50.4796 185.034 45.3216 179.894 48.6317C174.754 51.9417 174.745 54.7136 172.412 54.7136C170.08 54.7136 165.397 52.8388 162.545 54.7136C159.692 56.5884 156.489 58.8849 156.489 58.8849H274.774C274.774 58.8849 276.173 54.6777 271.033 51.87Z" stroke="#263238" stroke-linecap="round" stroke-linejoin="round"/>
<path d="M201.055 49.9144C200.386 50.2933 199.69 50.6231 198.974 50.9012" stroke="#263238" stroke-linecap="round" stroke-linejoin="round"/>
<path d="M226.334 28.1073C225.173 28.6276 224.153 29.4176 223.359 30.4114C222.564 31.4053 222.019 32.5744 221.768 33.8215C220.915 38.1003 218.915 40.9529 216.637 41.24C214.358 41.527 205.791 40.6659 204.365 43.8055C203.988 44.725 203.72 45.6853 203.567 46.6671" stroke="#263238" stroke-linecap="round" stroke-linejoin="round"/>
<path d="M306.646 79.131C303.802 77.5881 302.519 78.8798 301.488 77.5881C300.456 76.2963 304.322 72.9414 296.581 69.5865C296.581 69.5865 296.069 62.3653 285.493 62.1051C274.917 61.845 277.752 69.3353 274.917 71.1383C272.082 72.9414 271.329 70.1067 268.467 71.9098C265.606 73.7128 266.916 77.292 264.592 77.8482C262.269 78.4044 259.21 75.5249 256.339 77.3279C253.469 79.131 253.505 80.6829 252.213 80.6829C250.921 80.6829 248.338 79.6513 246.831 80.6829C245.324 81.7145 243.476 83.0062 243.476 83.0062H308.745C308.745 83.0062 309.48 80.6829 306.646 79.131Z" stroke="#263238" stroke-linecap="round" stroke-linejoin="round"/>
<path d="M268.037 78.0725C267.664 78.2824 267.278 78.4653 266.879 78.6197" stroke="#263238" stroke-linecap="round" stroke-linejoin="round"/>
<path d="M281.995 66.0613C281.354 66.348 280.792 66.7832 280.354 67.3308C279.915 67.8784 279.614 68.5225 279.474 69.2099C279.007 71.5691 277.904 73.1479 276.639 73.3004C275.374 73.4529 270.665 72.9864 269.876 74.7177C269.666 75.2242 269.518 75.7544 269.436 76.2965" stroke="#263238" stroke-linecap="round" stroke-linejoin="round"/>
<path d="M156.535 141.87C152.946 139.897 151.278 141.538 149.968 139.897C148.659 138.255 153.556 133.994 143.689 129.724C143.689 129.724 143.034 120.53 129.569 120.198C116.105 119.866 119.702 129.392 116.114 131.689C112.526 133.985 111.512 130.379 107.924 132.676C104.336 134.972 105.95 139.574 102.999 140.229C100.048 140.883 96.1009 137.277 92.4858 139.574C88.8707 141.87 88.8976 143.844 87.2381 143.844C85.5786 143.844 82.3134 142.525 80.3399 143.844C78.3664 145.162 76.0879 146.795 76.0879 146.795H159.163C159.163 146.795 160.141 143.844 156.535 141.87Z" stroke="#263238" stroke-linecap="round" stroke-linejoin="round"/>
<path d="M107.395 140.516C106.92 140.778 106.429 141.009 105.924 141.206" stroke="#263238" stroke-linecap="round" stroke-linejoin="round"/>
<path d="M125.165 125.185C124.349 125.55 123.632 126.104 123.074 126.801C122.515 127.499 122.131 128.319 121.953 129.195C121.352 132.2 119.953 134.2 118.365 134.398C116.777 134.595 110.758 134.003 109.754 136.192C109.49 136.841 109.3 137.518 109.188 138.21" stroke="#263238" stroke-linecap="round" stroke-linejoin="round"/>
<path d="M421.79 259.383C418.201 257.409 416.533 259.051 415.223 257.409C413.914 255.768 418.811 251.498 408.989 247.237C408.989 247.237 408.325 238.042 394.869 237.71C381.414 237.378 385.002 246.905 381.414 249.201C377.826 251.498 376.821 247.892 373.206 250.188C369.591 252.484 371.232 257.086 368.281 257.741C365.33 258.396 361.383 254.781 357.777 257.086C354.171 259.392 354.189 261.347 352.52 261.347C350.852 261.347 347.595 260.037 345.622 261.347C343.648 262.657 341.361 264.307 341.361 264.307H424.427C424.427 264.307 425.405 261.347 421.79 259.383Z" stroke="#263238" stroke-linecap="round" stroke-linejoin="round"/>
<path d="M372.65 258.028C372.181 258.298 371.692 258.532 371.188 258.728" stroke="#263238" stroke-linecap="round" stroke-linejoin="round"/>
<path d="M390.42 242.698C389.606 243.061 388.891 243.613 388.334 244.309C387.777 245.005 387.394 245.824 387.218 246.698C386.617 249.712 385.209 251.713 383.63 251.91C382.051 252.107 376.014 251.515 375.009 253.704C374.744 254.352 374.557 255.03 374.453 255.723" stroke="#263238" stroke-linecap="round" stroke-linejoin="round"/>
<path d="M441.211 194.338C441.195 193.879 441.062 193.431 440.825 193.038C440.587 192.644 440.253 192.318 439.854 192.09C439.454 191.863 439.003 191.741 438.544 191.738C438.084 191.734 437.631 191.848 437.228 192.069L399.175 214.288C398.784 214.529 398.461 214.866 398.237 215.268C398.012 215.669 397.895 216.121 397.895 216.58C397.895 217.04 398.012 217.492 398.237 217.893C398.461 218.294 398.784 218.631 399.175 218.872L413.053 226.793L363.976 309.061L315.751 294.349C314.417 293.949 312.989 294.004 311.69 294.504C310.391 295.004 309.295 295.921 308.574 297.112L254.752 386.269L196.614 342.87C195.809 342.268 194.87 341.868 193.877 341.704C192.884 341.54 191.866 341.617 190.909 341.928L72.4995 380.501C71.7106 380.753 70.9793 381.158 70.3476 381.693C69.7158 382.229 69.1962 382.884 68.8187 383.621C68.4411 384.358 68.213 385.162 68.1476 385.987C68.0821 386.813 68.1806 387.643 68.4373 388.43C68.694 389.218 69.1039 389.946 69.6433 390.575C70.1828 391.203 70.8412 391.718 71.5806 392.091C72.32 392.464 73.1258 392.686 73.9517 392.746C74.7775 392.807 75.6071 392.703 76.3927 392.441L191.69 354.909L252.769 400.505C253.855 401.315 255.173 401.753 256.528 401.752C256.931 401.754 257.334 401.715 257.73 401.636C258.59 401.468 259.406 401.121 260.124 400.619C260.842 400.117 261.448 399.47 261.901 398.72L316.782 307.823L365.034 322.534C366.375 322.944 367.815 322.893 369.124 322.389C370.433 321.885 371.535 320.957 372.255 319.754L423.979 233.046L437.434 240.751C437.84 240.967 438.294 241.076 438.753 241.067C439.213 241.058 439.662 240.931 440.059 240.699C440.455 240.467 440.786 240.137 441.019 239.741C441.252 239.345 441.38 238.896 441.39 238.437L441.211 194.338Z" fill="#263238"/>
<path d="M183.894 265.438C183.894 265.438 176.063 281.647 174.386 293.112C172.708 304.576 163.209 324.983 163.209 324.983C163.209 324.983 154.821 328.338 154.543 331.137C154.265 333.936 152.022 342.592 152.022 342.592L153.422 343.436L157.055 334.77C157.055 334.77 158.732 340.915 159.288 343.436C159.485 344.605 159.864 345.737 160.41 346.791C160.41 346.791 167.676 350.424 169.38 350.98C171.085 351.536 173.578 351.267 172.457 349.024C171.336 346.782 167.147 342.036 167.147 342.036L169.658 327.217C169.658 327.217 205.163 267.393 206.285 264.873C207.406 262.352 199.018 255.095 199.018 255.095L183.894 265.438Z" fill="white"/>
<path opacity="0.2" d="M163.989 332.483C163.989 332.483 195.843 272.255 195.385 266.102C195.224 263.904 193.798 261.733 192.048 259.822L183.894 265.411C183.894 265.411 176.063 281.62 174.386 293.085C172.708 304.549 163.209 324.956 163.209 324.956C163.209 324.956 154.821 328.311 154.543 331.11C154.265 333.909 152.022 342.565 152.022 342.565L153.422 343.409L157.055 334.743C157.055 334.743 158.732 340.888 159.288 343.409C159.485 344.578 159.864 345.71 160.41 346.764C160.41 346.764 162.204 347.661 164.168 348.611C163.738 342.198 163.989 332.483 163.989 332.483Z" fill="black"/>
<path d="M183.894 265.438C183.894 265.438 176.063 281.647 174.386 293.112C172.708 304.576 163.209 324.984 163.209 324.984C163.209 324.984 154.821 328.338 154.543 331.137C154.265 333.936 152.022 342.592 152.022 342.592L153.422 343.436L157.055 334.77C157.055 334.77 158.732 340.915 159.288 343.436C159.485 344.606 159.864 345.737 160.41 346.791C160.41 346.791 167.676 350.424 169.38 350.98C171.085 351.536 173.578 351.267 172.457 349.024C171.336 346.782 167.147 342.036 167.147 342.036L169.658 327.217C169.658 327.217 205.163 267.393 206.285 264.873C207.406 262.352 199.018 255.095 199.018 255.095L183.894 265.438Z" stroke="#263238" stroke-linecap="round" stroke-linejoin="round"/>
<path d="M167.954 343.005C164.805 344.422 163.469 342.476 162.087 338.403C161.002 335.156 158.759 329.926 157.799 327.71C156.113 328.769 154.651 329.998 154.543 331.137C154.256 333.927 152.022 342.592 152.022 342.592L153.422 343.435L157.055 334.77C157.055 334.77 158.732 340.915 159.288 343.435C159.485 344.605 159.864 345.737 160.41 346.79C160.41 346.79 167.676 350.423 169.38 350.979C171.085 351.536 173.578 351.267 172.457 349.024C171.136 346.889 169.629 344.875 167.954 343.005Z" fill="#263238" stroke="#263238" stroke-linecap="round" stroke-linejoin="round"/>
<path d="M119.586 164.736L112.185 172.89C111.436 173.715 111.021 174.79 111.021 175.904C111.021 177.018 111.436 178.093 112.185 178.918L123.174 191.225L130.969 175.124L119.586 164.736Z" fill="#BABABA" stroke="#263238" stroke-linecap="round" stroke-linejoin="round"/>
<path d="M141.877 142.417L115.396 165.005L128.852 176.666L143.393 146.032C143.393 146.032 143.958 142.929 141.877 142.417Z" fill="#7E57C2"/>
<path opacity="0.2" d="M141.877 142.417L115.396 165.005L128.852 176.666L143.393 146.032C143.393 146.032 143.958 142.929 141.877 142.417Z" fill="black"/>
<path d="M141.877 142.417L115.396 165.005L128.852 176.666L143.393 146.032C143.393 146.032 143.958 142.929 141.877 142.417Z" stroke="#263238" stroke-linecap="round" stroke-linejoin="round"/>
<path d="M176.924 80.3599C176.924 80.3599 182.118 84.2531 182.639 85.2937C183.159 86.3342 184.72 90.7477 185.491 91.268C186.263 91.7882 190.945 91.0078 190.945 93.062C190.945 95.1163 188.873 98.2559 188.873 98.2559C188.873 98.2559 190.667 103.97 190.667 106.823C190.667 109.675 191.448 114.896 188.075 115.91C184.702 116.923 176.413 118.511 176.413 118.511L168.627 142.139L155.171 131.751L156.732 120.09C156.732 120.09 153.144 116.197 149.717 106.078C146.29 95.9595 148.686 86.3432 154.911 82.9703C161.137 79.5974 176.924 80.3599 176.924 80.3599Z" fill="white" stroke="#263238" stroke-linecap="round" stroke-linejoin="round"/>
<path d="M182.558 92.4521C182.971 93.3492 182.926 94.2462 182.468 94.4884C182.011 94.7306 181.311 94.1116 180.898 93.1877C180.486 92.2637 180.54 91.3936 180.997 91.1604C181.455 90.9272 182.154 91.5371 182.558 92.4521Z" fill="#263238"/>
<path d="M177.705 91.0078C177.705 91.0078 180.306 87.8951 182.378 88.9267" stroke="#263238" stroke-linecap="round" stroke-linejoin="round"/>
<path opacity="0.2" d="M169.972 110.249C169.972 110.249 190.201 114.797 187.671 114.797C185.141 114.797 174.78 117.578 174.78 117.578L165.675 138.82L157.073 130.478L157.585 120.108L169.972 110.249Z" fill="black"/>
<path d="M177.965 79.0593C177.965 79.0593 171.479 112.555 166.806 118.529C162.132 124.503 153.816 123.203 146.29 119.57C138.764 115.937 136.683 116.448 136.683 112.555C136.683 108.662 147.07 82.9524 149.143 81.4005C151.215 79.8487 174.592 73.6142 177.965 79.0593Z" fill="#263238" stroke="#263238" stroke-linecap="round" stroke-linejoin="round"/>
<path d="M140.316 104.248C140.316 104.248 134.611 99.3145 129.677 101.136C124.744 102.957 123.963 111.254 124.744 113.856C125.524 116.457 132.53 119.83 135.643 119.83C138.755 119.83 141.877 115.668 142.137 112.295C142.315 109.493 141.683 106.7 140.316 104.248Z" fill="#263238" stroke="#263238" stroke-linecap="round" stroke-linejoin="round"/>
<path d="M126.555 281.351C126.555 281.351 96.7014 329.379 95.1585 331.46C93.6156 333.541 89.4533 335.353 87.3721 336.394C85.291 337.434 74.374 346.997 74.374 346.997L75.4146 347.777L83.9813 343.364C84.5927 345.838 84.5927 348.424 83.9813 350.899C82.9408 354.792 82.9408 357.124 83.9813 358.685C85.0219 360.246 91.7677 366.211 93.3285 364.911C94.8894 363.61 92.8082 356.344 92.8082 356.344C92.8082 356.344 98.7825 342.583 99.3028 341.031C99.8231 339.479 101.375 335.317 101.375 335.317C101.375 335.317 142.639 296.116 146.81 290.923C150.981 285.729 151.224 284.688 152.004 281.055C152.508 278.315 152.769 275.535 152.784 272.749L126.555 281.351Z" fill="white"/>
<path opacity="0.2" d="M139.32 277.144L126.555 281.351C126.555 281.351 96.7014 329.379 95.1585 331.46C93.6156 333.541 89.4533 335.353 87.3721 336.393C85.291 337.434 74.374 346.996 74.374 346.996L75.4146 347.777L83.9813 343.363C84.5927 345.838 84.5927 348.424 83.9813 350.899C82.9408 354.792 82.9408 357.124 83.9813 358.685C85.4931 360.466 87.23 362.043 89.1483 363.376C88.5746 361.201 88.4013 358.94 88.637 356.702C89.534 351.32 93.5707 338.762 93.5707 338.762L139.32 277.763V277.144Z" fill="black"/>
<path d="M126.555 281.351C126.555 281.351 96.7014 329.379 95.1585 331.46C93.6156 333.541 89.4533 335.353 87.3721 336.394C85.291 337.434 74.374 346.997 74.374 346.997L75.4146 347.777L83.9813 343.364C84.5927 345.838 84.5927 348.424 83.9813 350.899C82.9408 354.792 82.9408 357.124 83.9813 358.685C85.0219 360.246 91.7677 366.211 93.3285 364.911C94.8894 363.61 92.8082 356.344 92.8082 356.344C92.8082 356.344 98.7825 342.583 99.3028 341.031C99.8231 339.479 101.375 335.317 101.375 335.317C101.375 335.317 142.639 296.116 146.81 290.923C150.981 285.729 151.224 284.688 152.004 281.055C152.508 278.315 152.769 275.535 152.784 272.749L126.555 281.351Z" stroke="#263238" stroke-linecap="round" stroke-linejoin="round"/>
<path d="M87.3542 354.012C86.2778 352.289 88.0449 339.937 88.6908 335.703L87.3542 336.358C85.282 337.398 74.374 346.997 74.374 346.997L75.4146 347.777L83.9813 343.364C84.5927 345.838 84.5927 348.424 83.9813 350.899C82.9408 354.792 82.9408 357.124 83.9813 358.685C85.0219 360.246 91.7677 366.211 93.3285 364.911C94.8894 363.61 92.8082 356.344 92.8082 356.344C92.8082 356.344 88.6549 356.084 87.3542 354.012Z" fill="#263238" stroke="#263238" stroke-linecap="round" stroke-linejoin="round"/>
<path d="M123.174 191.225C123.174 191.225 113.307 207.839 112.795 214.593C112.284 221.348 119.021 240.294 119.021 240.294L125.515 282.616C125.515 282.616 163.191 274.04 176.395 269.115C189.6 264.191 201.324 254.835 201.324 254.835L163.415 214.333L161.863 202.672L123.174 191.225Z" fill="#263238" stroke="#263238" stroke-linecap="round" stroke-linejoin="round"/>
<path d="M142.011 217.661L159.889 251.686" stroke="#808080" stroke-linecap="round" stroke-linejoin="round"/>
<path d="M129.901 208.431C129.901 208.431 135.086 209.014 140.854 214.199" stroke="#808080" stroke-linecap="round" stroke-linejoin="round"/>
<path d="M150.443 132.029C150.443 132.029 141.114 140.336 139.32 145.27C137.526 150.203 119.585 187.592 119.065 189.404C118.544 191.216 126.08 200.312 131.013 201.604C135.947 202.896 161.648 207.058 164.5 204.726C167.353 202.393 174.368 182.138 174.628 177.985C174.888 173.831 169.434 146.05 169.434 146.05L150.443 132.029Z" fill="#7E57C2"/>
<path opacity="0.2" d="M146.963 156.528C146.963 156.528 157.324 185.35 157.584 187.377C157.844 189.404 149.744 195.45 143.671 197.747C137.598 200.043 135.329 194.966 132.297 194.158C129.713 193.513 123.326 193.782 121.442 193.88C123.963 197.056 127.955 200.77 130.978 201.559C135.068 202.636 153.404 205.676 161.217 205.354C165.481 199.56 168.621 193.018 170.475 186.067C173.767 173.975 146.963 156.528 146.963 156.528Z" fill="black"/>
<path d="M150.443 132.029C150.443 132.029 141.114 140.336 139.32 145.27C137.526 150.203 119.585 187.592 119.065 189.404C118.544 191.216 126.08 200.312 131.013 201.604C135.947 202.896 161.648 207.058 164.5 204.726C167.353 202.393 174.368 182.138 174.628 177.985C174.888 173.831 169.434 146.05 169.434 146.05L150.443 132.029Z" stroke="#263238" stroke-linecap="round" stroke-linejoin="round"/>
<path d="M153.046 125.275L174.072 142.157L170.439 151.504L149.144 131.769L153.046 125.275Z" fill="#7E57C2" stroke="#263238" stroke-linecap="round" stroke-linejoin="round"/>
<path d="M187.312 176.398L188.128 176.084L224.288 162.942C224.288 162.942 226.62 155.416 227.401 153.074C227.599 152.355 227.996 151.705 228.547 151.201C229.098 150.696 229.779 150.357 230.514 150.222C231.715 150.031 232.93 149.944 234.147 149.962H236.488C236.488 149.962 240.901 148.661 241.942 150.222C242.982 151.783 241.942 155.936 241.942 155.936C241.942 155.936 241.942 162.161 240.901 163.722C239.861 165.283 236.488 166.575 234.622 167.355C233.191 167.914 231.714 168.349 230.209 168.656C230.209 168.656 190.38 193.576 187.527 194.877C184.675 196.177 184.154 197.209 181.813 195.397C180.03 193.897 178.379 192.247 176.879 190.463L182.854 174.882L187.312 176.398Z" fill="white"/>
<path opacity="0.2" d="M229.653 165.373C227.123 166.135 184.89 181.815 184.89 181.815L180.333 181.564L176.925 190.445C178.424 192.228 180.075 193.879 181.858 195.379C184.2 197.173 184.72 196.159 187.572 194.858C190.425 193.558 230.254 168.638 230.254 168.638C231.759 168.331 233.236 167.896 234.667 167.337C236.461 166.557 239.861 165.265 240.946 163.704C242.032 162.143 241.987 155.918 241.987 155.918C241.54 157.554 240.71 159.061 239.565 160.313C237.744 162.089 232.182 164.619 229.653 165.373Z" fill="black"/>
<path d="M187.312 176.398L188.128 176.084L224.288 162.942C224.288 162.942 226.62 155.416 227.401 153.074C227.599 152.355 227.996 151.705 228.547 151.201C229.098 150.696 229.779 150.357 230.514 150.222C231.715 150.031 232.93 149.944 234.147 149.962H236.488C236.488 149.962 240.901 148.661 241.942 150.222C242.982 151.783 241.942 155.936 241.942 155.936C241.942 155.936 241.942 162.161 240.901 163.722C239.861 165.283 236.488 166.575 234.622 167.355C233.191 167.914 231.714 168.349 230.209 168.656C230.209 168.656 190.38 193.576 187.527 194.877C184.675 196.177 184.154 197.209 181.813 195.397C180.03 193.897 178.379 192.247 176.879 190.463L182.854 174.882L187.312 176.398Z" stroke="#263238" stroke-linecap="round" stroke-linejoin="round"/>
<path d="M189.393 175.124C189.393 175.124 160.006 147.755 155.852 146.723C151.699 145.692 147.026 149.836 146.765 155.55C146.505 161.264 176.153 199.792 176.153 199.792L189.393 175.124Z" fill="#7E57C2"/>
<path opacity="0.2" d="M180.441 191.791L177.561 188.642L185.401 171.446L175.785 186.875L148.981 150.455L148.165 150.742C147.318 152.208 146.837 153.858 146.765 155.55C146.505 161.255 176.153 199.792 176.153 199.792L180.441 191.791Z" fill="black"/>
<path d="M189.393 175.124C189.393 175.124 160.006 147.755 155.852 146.723C151.699 145.692 147.026 149.836 146.765 155.55C146.505 161.264 176.153 199.792 176.153 199.792L189.393 175.124Z" stroke="#263238" stroke-linecap="round" stroke-linejoin="round"/>
</svg>
