<svg width="520" height="435" viewBox="0 0 520 435" fill="none" xmlns="http://www.w3.org/2000/svg">
<g clip-path="url(#clip0_21_2301)">
<path d="M286.772 407.178C303.795 406.758 320.478 402.316 335.457 394.216C428.48 344.444 495.509 224.079 448.684 121.944C427.019 74.7372 383.663 25.0176 328.397 21.6792C283.572 18.9754 240.086 41.2314 202.155 62.5398C178.308 75.9717 155.209 92.1595 129.875 102.679C96.978 116.372 56.8997 137.176 56.0304 177.993C54.8219 233.633 89.8839 282.814 124.642 323.014C162.346 366.63 213.092 403.179 272.357 406.926C277.147 407.23 281.964 407.317 286.772 407.178Z" fill="#7E57C2"/>
<path opacity="0.7" d="M286.772 407.178C303.795 406.758 320.478 402.316 335.457 394.216C428.48 344.444 495.509 224.079 448.684 121.944C427.019 74.7372 383.663 25.0176 328.397 21.6792C283.572 18.9754 240.086 41.2314 202.155 62.5398C178.308 75.9717 155.209 92.1595 129.875 102.679C96.978 116.372 56.8997 137.176 56.0304 177.993C54.8219 233.633 89.8839 282.814 124.642 323.014C162.346 366.63 213.092 403.179 272.357 406.926C277.147 407.23 281.964 407.317 286.772 407.178Z" fill="white"/>
<g opacity="0.3">
<path d="M187.454 25.3653C187.454 25.3653 186.037 15.0892 176.821 13.3157C167.606 11.5422 164.415 17.567 163.355 23.2353C162.294 28.9036 158.034 27.1388 153.792 25.7217C149.55 24.3046 143.873 27.4605 141.386 32.8071C138.9 38.1538 138.908 38.8319 131.823 38.1277C124.738 37.4235 122.608 37.7713 120.521 42.0225C118.435 46.2738 118.565 45.7434 118.565 45.7434H208.545C208.545 45.7434 209.041 36.3803 204.824 33.1897C200.608 29.999 194.548 33.5461 191.357 31.7726C188.167 29.999 187.454 25.3653 187.454 25.3653Z" stroke="black" stroke-miterlimit="10"/>
</g>
<g opacity="0.3">
<path d="M367.528 52.3161C367.528 52.3161 366.806 47.0476 362.077 46.1435C357.348 45.2393 355.722 48.3256 355.174 51.2293C354.626 54.133 352.488 53.1854 350.271 52.4638C348.054 51.7423 345.185 53.3332 343.916 56.0978C342.646 58.8625 342.646 59.1841 339.012 58.819C335.378 58.4538 334.283 58.6451 333.196 60.8185C332.11 62.992 332.196 62.7312 332.196 62.7312H378.334C378.334 62.7312 378.612 57.9148 376.43 56.2804C374.248 54.646 371.162 56.463 369.527 55.5501C367.893 54.6373 367.528 52.3161 367.528 52.3161Z" stroke="black" stroke-miterlimit="10"/>
</g>
<g opacity="0.3">
<path d="M187.176 123.814C187.176 123.814 186.454 118.545 181.733 117.632C177.013 116.719 175.37 119.814 174.831 122.727C174.292 125.639 172.101 124.718 169.919 123.996C167.737 123.274 164.833 124.865 163.564 127.63C162.294 130.395 162.294 130.716 158.66 130.351C155.026 129.986 153.939 130.169 152.844 132.351C151.748 134.533 151.844 134.255 151.844 134.255H197.991C197.991 134.255 198.26 129.447 196.078 127.813C193.896 126.178 190.81 127.987 189.175 127.082C187.541 126.178 187.176 123.814 187.176 123.814Z" stroke="black" stroke-miterlimit="10"/>
</g>
<g opacity="0.3">
<path d="M431.357 174.029C431.357 174.029 430.627 168.76 425.906 167.847C421.186 166.934 419.551 170.029 419.004 172.933C418.456 175.837 416.282 174.933 414.1 174.202C411.918 173.472 409.014 175.115 407.745 177.836C406.476 180.558 406.467 180.931 402.833 180.566C399.199 180.201 398.112 180.384 397.026 182.566C395.939 184.748 396.026 184.47 396.026 184.47H442.164C442.164 184.47 442.442 179.653 440.26 178.019C438.078 176.385 434.991 178.202 433.357 177.297C431.723 176.393 431.357 174.029 431.357 174.029Z" stroke="black" stroke-miterlimit="10"/>
</g>
<g opacity="0.3">
<path d="M123.72 179.349C123.72 179.349 122.381 169.682 113.687 167.943C104.994 166.204 101.977 171.96 100.968 177.306C99.96 182.653 95.9521 180.992 91.9356 179.654C87.9191 178.315 82.5638 181.323 80.2251 186.348C77.8865 191.373 77.8778 192.034 71.1923 191.364C64.5068 190.695 62.4986 191.025 60.4816 195.042C58.4646 199.058 58.6385 198.519 58.6385 198.519H143.629C143.629 198.519 144.133 189.651 140.151 186.643C136.169 183.635 130.449 186.982 127.441 185.305C124.433 183.627 123.72 179.349 123.72 179.349Z" stroke="black" stroke-miterlimit="10"/>
</g>
<g opacity="0.3">
<path d="M425.133 107.8H375.726V158.789H425.133V107.8Z" stroke="black" stroke-linecap="round" stroke-linejoin="round"/>
<path d="M420.925 115.685H379.925V121.996H420.925V115.685Z" stroke="black" stroke-linecap="round" stroke-linejoin="round"/>
<path d="M387.089 131.429H379.925V138.593H387.089V131.429Z" stroke="black" stroke-linecap="round" stroke-linejoin="round"/>
<path d="M398.547 131.429H391.384V138.593H398.547V131.429Z" stroke="black" stroke-linecap="round" stroke-linejoin="round"/>
<path d="M410.006 131.429H402.842V138.593H410.006V131.429Z" stroke="black" stroke-linecap="round" stroke-linejoin="round"/>
<path d="M421.455 131.429H414.292V138.593H421.455V131.429Z" stroke="black" stroke-linecap="round" stroke-linejoin="round"/>
<path d="M387.089 144.044H379.925V151.207H387.089V144.044Z" stroke="black" stroke-linecap="round" stroke-linejoin="round"/>
<path d="M398.547 144.044H391.384V151.207H398.547V144.044Z" stroke="black" stroke-linecap="round" stroke-linejoin="round"/>
<path d="M410.006 144.044H402.842V151.207H410.006V144.044Z" stroke="black" stroke-linecap="round" stroke-linejoin="round"/>
<path d="M421.455 144.044H414.292V151.207H421.455V144.044Z" stroke="black" stroke-linecap="round" stroke-linejoin="round"/>
<path d="M382.532 107.799V99.749H386.949V107.539" stroke="black" stroke-linecap="round" stroke-linejoin="round"/>
<path d="M415.266 107.799V99.749H419.682V107.539" stroke="black" stroke-linecap="round" stroke-linejoin="round"/>
<path d="M397.859 107.799V99.749H402.276V107.539" stroke="black" stroke-linecap="round" stroke-linejoin="round"/>
</g>
<g opacity="0.3">
<path d="M78.2952 119.979H67.2715V148.634H78.2952V119.979Z" stroke="black" stroke-miterlimit="10"/>
<path d="M92.2228 122.179H81.1992V148.634H92.2228V122.179Z" stroke="black" stroke-miterlimit="10"/>
<path d="M106.15 115.572H95.126V148.643H106.15V115.572Z" stroke="black" stroke-miterlimit="10"/>
<path d="M120.077 97.9321H109.054V148.634H120.077V97.9321Z" stroke="black" stroke-miterlimit="10"/>
</g>
<g opacity="0.3">
<path d="M266.655 234.941C277.836 232.274 284.737 221.047 282.069 209.866C279.401 198.686 268.175 191.785 256.994 194.452C245.813 197.12 238.912 208.347 241.58 219.527C244.248 230.708 255.474 237.609 266.655 234.941Z" stroke="black" stroke-miterlimit="10"/>
<path d="M279.956 224.913C281.746 221.746 282.674 218.165 282.649 214.527C282.624 210.889 281.645 207.322 279.812 204.18C277.978 201.038 275.352 198.432 272.197 196.621C269.042 194.81 265.467 193.858 261.829 193.859V214.68L279.956 224.913Z" stroke="black" stroke-miterlimit="10"/>
<path d="M275.878 202.692L286.815 192.703H302.985" stroke="black" stroke-miterlimit="10"/>
<path d="M292.527 197.936H302.038" stroke="black" stroke-miterlimit="10"/>
<path d="M292.527 200.788H302.038" stroke="black" stroke-miterlimit="10"/>
<path d="M292.527 203.639H302.038" stroke="black" stroke-miterlimit="10"/>
</g>
<path d="M238.999 89.0558H225.037V117.71H238.999V89.0558Z" fill="#7E57C2" stroke="#263238" stroke-linecap="round" stroke-linejoin="round"/>
<path d="M256.639 91.2639H242.677V117.719H256.639V91.2639Z" fill="#7E57C2" stroke="#263238" stroke-linecap="round" stroke-linejoin="round"/>
<path d="M274.27 84.6479H260.308V117.719H274.27V84.6479Z" fill="#7E57C2" stroke="#263238" stroke-linecap="round" stroke-linejoin="round"/>
<path d="M291.909 67.0083H277.947V117.71H291.909V67.0083Z" fill="#7E57C2" stroke="#263238" stroke-linecap="round" stroke-linejoin="round"/>
<path d="M228.714 80.9706L248.554 85.8478L267.663 76.8932L283.824 50.1165" stroke="#263238" stroke-width="5" stroke-linecap="round" stroke-linejoin="round"/>
<path d="M275.748 51.8118L286.137 46.4391L285.78 56.8281" stroke="#263238" stroke-width="5" stroke-linecap="round" stroke-linejoin="round"/>
<path d="M248.554 87.8822C249.677 87.8822 250.588 86.9713 250.588 85.8478C250.588 84.7243 249.677 83.8135 248.554 83.8135C247.43 83.8135 246.519 84.7243 246.519 85.8478C246.519 86.9713 247.43 87.8822 248.554 87.8822Z" fill="#7E57C2" stroke="#263238" stroke-linecap="round" stroke-linejoin="round"/>
<path d="M269.488 76.5281C269.488 76.1258 269.369 75.7324 269.145 75.3979C268.922 75.0633 268.604 74.8026 268.232 74.6486C267.861 74.4947 267.452 74.4544 267.057 74.5329C266.662 74.6114 266.3 74.8051 266.015 75.0896C265.731 75.3741 265.537 75.7366 265.459 76.1312C265.38 76.5259 265.42 76.9349 265.574 77.3066C265.728 77.6783 265.989 77.9961 266.324 78.2196C266.658 78.4431 267.052 78.5625 267.454 78.5625C267.994 78.5625 268.511 78.3481 268.892 77.9666C269.274 77.5851 269.488 77.0677 269.488 76.5281Z" fill="#7E57C2" stroke="#263238" stroke-linecap="round" stroke-linejoin="round"/>
<path d="M234.505 81.5792C234.506 81.1748 234.388 80.7789 234.164 80.4418C233.941 80.1047 233.623 79.8415 233.249 79.6855C232.876 79.5295 232.465 79.4878 232.068 79.5657C231.671 79.6435 231.307 79.8374 231.02 80.1228C230.733 80.4082 230.538 80.7722 230.458 81.1687C230.379 81.5653 230.419 81.9765 230.573 82.3503C230.728 82.7241 230.989 83.0437 231.326 83.2686C231.662 83.4935 232.057 83.6135 232.462 83.6135C233.002 83.6135 233.52 83.3995 233.903 83.0182C234.286 82.637 234.502 82.1195 234.505 81.5792Z" fill="#7E57C2" stroke="#263238" stroke-linecap="round" stroke-linejoin="round"/>
<path d="M287.58 47.0996C287.571 46.6992 287.445 46.3103 287.216 45.9815C286.987 45.6527 286.667 45.3988 286.294 45.2514C285.922 45.1041 285.514 45.07 285.123 45.1533C284.731 45.2366 284.373 45.4337 284.092 45.7199C283.812 46.0061 283.623 46.3685 283.548 46.7619C283.473 47.1553 283.515 47.5621 283.671 47.9313C283.826 48.3005 284.086 48.6157 284.42 48.8374C284.754 49.0591 285.145 49.1774 285.546 49.1774C285.816 49.1775 286.085 49.1235 286.334 49.0185C286.584 48.9136 286.81 48.7598 287 48.5663C287.189 48.3728 287.338 48.1434 287.438 47.8915C287.537 47.6396 287.586 47.3704 287.58 47.0996Z" fill="#7E57C2" stroke="#263238" stroke-linecap="round" stroke-linejoin="round"/>
<path d="M68.0456 336.515C70.3668 337.524 76.0352 337.384 76.0439 337.384C76.0526 337.384 74.8181 333.672 74.7137 333.455C73.4705 330.847 69.4975 326.552 66.3329 326.987C65.8036 327.073 65.2985 327.271 64.8506 327.565C64.4026 327.86 64.0218 328.246 63.7331 328.698C63.4444 329.15 63.2541 329.658 63.1748 330.189C63.0955 330.719 63.1288 331.26 63.2727 331.777C63.803 333.994 66.0721 335.646 68.0456 336.515Z" fill="#263238"/>
<path d="M70.0016 352.929C72.4097 353.286 77.4695 351.816 77.8259 351.695C78.6604 354.59 79.6856 357.428 80.8948 360.188C81.5903 361.797 82.3467 363.396 83.1204 364.996C82.651 364.318 82.2511 363.718 82.1728 363.64C80.2863 361.458 75.3569 358.354 72.3836 359.615C71.8955 359.838 71.4598 360.162 71.105 360.565C70.7502 360.968 70.4842 361.441 70.3243 361.953C70.1644 362.466 70.1142 363.006 70.1769 363.54C70.2396 364.073 70.4139 364.587 70.6884 365.048C71.7838 367.048 74.418 368.03 76.548 368.343C78.6779 368.656 83.0509 367.474 84.1898 367.17C84.4941 367.778 84.7896 368.395 85.0591 369.004C86.5284 371.916 87.9976 374.82 89.406 377.698C89.8842 378.715 90.2754 379.741 90.7536 380.758C90.345 380.158 89.9972 379.662 89.9364 379.584C88.0498 377.402 83.1204 374.298 80.1472 375.559C79.6553 375.778 79.2153 376.099 78.856 376.5C78.4967 376.901 78.2261 377.374 78.062 377.887C77.8978 378.4 77.8438 378.941 77.9035 379.477C77.9633 380.012 78.1353 380.528 78.4084 380.993C79.5038 382.992 82.138 383.983 84.268 384.288C86.398 384.592 90.3537 383.549 91.7099 383.175C92.1272 384.235 92.5793 385.296 92.9009 386.339C93.127 387.052 93.3965 387.73 93.5877 388.469L94.1876 390.617C94.518 391.999 94.8657 393.416 95.1613 394.772C95.37 395.711 95.5438 396.615 95.7351 397.519C95.2656 396.502 94.3093 394.52 94.2137 394.364C92.6836 391.921 88.2758 388.104 85.1461 388.904C84.6303 389.051 84.1513 389.306 83.7402 389.65C83.329 389.995 82.995 390.422 82.7597 390.904C82.5244 391.386 82.3931 391.912 82.3744 392.448C82.3556 392.984 82.4499 393.519 82.651 394.016C83.4334 396.155 85.8851 397.493 87.9455 398.163C90.2145 398.85 95.2309 398.224 95.8568 398.163C96.1611 399.667 96.4393 401.127 96.7262 402.51C96.9088 403.536 97.0739 404.518 97.2217 405.466H99.23C99.0387 404.414 98.8388 403.309 98.604 402.162C98.3084 400.632 97.952 399.015 97.5782 397.346C99.0908 396.742 100.566 396.049 101.995 395.268C103.646 397.059 107.889 399.154 108.437 399.423C107.854 400.84 107.28 402.214 106.698 403.501L105.829 405.466H107.959C108.124 405.057 108.298 404.666 108.463 404.248C109.054 402.805 109.663 401.258 110.262 399.667C110.871 399.789 115.844 400.806 118.165 400.275C120.26 399.806 122.808 398.615 123.746 396.537C123.984 396.056 124.118 395.531 124.139 394.995C124.16 394.459 124.068 393.925 123.869 393.427C123.669 392.929 123.367 392.479 122.982 392.105C122.597 391.732 122.138 391.444 121.634 391.26C118.574 390.225 113.905 393.703 112.192 396.024C112.088 396.163 111.158 397.763 110.593 398.797C110.836 398.137 111.08 397.511 111.323 396.833C111.81 395.502 112.253 394.155 112.74 392.712C112.957 392.008 113.166 391.295 113.383 390.582C113.601 389.869 113.766 389.086 113.957 388.339C114.375 386.6 114.714 384.8 115.009 382.992C116.183 383.409 120.347 384.861 122.503 384.731C124.659 384.6 127.346 383.792 128.589 381.879C128.898 381.44 129.11 380.941 129.213 380.414C129.316 379.887 129.307 379.344 129.187 378.821C129.066 378.298 128.837 377.806 128.514 377.377C128.19 376.949 127.781 376.593 127.311 376.333C124.433 374.855 119.295 377.585 117.244 379.619C117.122 379.749 115.818 381.358 115.122 382.279C115.287 381.184 115.47 380.097 115.6 378.984C116 375.785 116.305 372.534 116.618 369.291C116.713 368.291 116.826 367.3 116.931 366.318C117.339 366.465 122.26 368.3 124.677 368.126C126.824 367.978 129.519 367.187 130.762 365.274C131.07 364.835 131.281 364.337 131.383 363.811C131.485 363.285 131.476 362.743 131.355 362.221C131.235 361.699 131.006 361.208 130.684 360.78C130.362 360.352 129.953 359.996 129.484 359.736C126.607 358.258 121.46 360.988 119.417 363.023C119.269 363.17 117.391 365.518 116.948 366.135C117.183 363.953 117.426 361.788 117.765 359.649C118.196 356.769 118.817 353.919 119.626 351.121C119.817 351.19 124.937 353.12 127.45 352.947C129.597 352.799 132.292 352.008 133.536 350.104C133.844 349.664 134.056 349.164 134.159 348.637C134.261 348.109 134.251 347.567 134.13 347.043C134.008 346.52 133.778 346.028 133.454 345.6C133.13 345.172 132.719 344.816 132.249 344.557C129.38 343.079 124.233 345.809 122.19 347.843C122.034 348 120.017 350.521 119.686 350.999C119.739 350.843 119.765 350.669 119.817 350.504C120.703 347.72 121.835 345.02 123.199 342.436C123.929 341.001 124.711 339.662 125.503 338.384C126.424 338.845 130.632 340.888 132.884 340.993C135.135 341.097 137.796 340.584 139.247 338.828C139.613 338.427 139.889 337.952 140.057 337.436C140.224 336.92 140.281 336.374 140.222 335.835C140.162 335.296 139.989 334.775 139.713 334.308C139.437 333.84 139.065 333.437 138.621 333.125C135.926 331.334 130.519 333.481 128.259 335.281C128.137 335.376 126.998 336.507 126.181 337.35C126.555 336.776 126.92 336.176 127.276 335.611C128.632 333.577 129.989 331.795 131.214 330.23C131.91 329.36 132.562 328.561 133.179 327.83C134.309 327.83 138.882 327.665 140.882 326.735C142.881 325.805 145.064 324.127 145.533 321.875C145.661 321.354 145.678 320.812 145.583 320.284C145.488 319.756 145.283 319.254 144.981 318.811C144.679 318.367 144.288 317.992 143.832 317.71C143.376 317.427 142.865 317.244 142.334 317.172C139.126 316.824 135.309 321.223 134.135 323.857C134.04 324.092 132.858 327.83 132.918 327.83H132.988C132.379 328.517 131.736 329.265 131.049 330.099C129.789 331.638 128.389 333.394 126.989 335.411C125.454 337.561 124.046 339.799 122.773 342.114C121.34 344.706 120.136 347.417 119.174 350.217V350.321C119.174 349.373 119.174 346.73 119.121 346.522C118.756 343.662 116.357 338.358 113.175 337.767C112.644 337.685 112.103 337.715 111.585 337.856C111.067 337.997 110.584 338.245 110.169 338.584C109.753 338.924 109.413 339.347 109.172 339.826C108.93 340.306 108.792 340.83 108.767 341.366C108.585 343.636 110.228 345.913 111.836 347.348C113.653 348.965 118.678 350.53 119.078 350.651C118.154 353.538 117.422 356.483 116.887 359.467C116.574 361.206 116.322 362.944 116.087 364.683C116.087 363.866 116.087 363.127 116.087 363.031C115.713 360.171 113.323 354.859 110.141 354.277C109.611 354.193 109.069 354.222 108.551 354.362C108.033 354.501 107.551 354.749 107.135 355.087C106.719 355.426 106.379 355.849 106.138 356.328C105.896 356.807 105.758 357.331 105.733 357.867C105.55 360.136 107.194 362.414 108.802 363.848C110.41 365.283 114.696 366.726 115.826 367.091C115.739 367.761 115.653 368.439 115.574 369.117C115.183 372.351 114.809 375.594 114.348 378.75C114.183 379.871 113.983 380.958 113.792 382.053C113.792 381.323 113.792 380.714 113.792 380.619C113.418 377.759 111.027 372.455 107.846 371.864C107.315 371.782 106.773 371.812 106.256 371.953C105.738 372.094 105.255 372.342 104.839 372.681C104.424 373.021 104.084 373.444 103.843 373.923C103.601 374.402 103.463 374.927 103.438 375.463C103.255 377.732 104.898 380.01 106.507 381.445C108.115 382.879 111.984 384.183 113.331 384.618C113.097 385.731 112.862 386.843 112.584 387.913C112.375 388.634 112.227 389.347 111.975 390.069C111.723 390.79 111.514 391.486 111.288 392.19C110.81 393.52 110.315 394.903 109.81 396.189C109.463 397.059 109.115 397.928 108.776 398.797C108.95 397.693 109.245 395.52 109.245 395.32C109.21 392.784 108.524 390.299 107.254 388.104C107.265 387.813 107.247 387.522 107.202 387.235C107.136 386.702 106.958 386.19 106.681 385.731C106.404 385.272 106.033 384.877 105.592 384.571C105.152 384.265 104.652 384.055 104.125 383.955C103.598 383.856 103.056 383.868 102.534 383.992C99.4126 384.818 97.4304 390.295 97.3174 393.181C97.3174 393.346 97.4217 395.198 97.5086 396.372C97.3521 395.694 97.2043 395.033 97.0392 394.338C96.7088 392.955 96.3437 391.59 95.9524 390.112C95.7438 389.408 95.5264 388.695 95.3091 387.974C95.0918 387.252 94.8049 386.531 94.5527 385.792C93.9355 384.105 93.2313 382.427 92.4749 380.749C93.6834 380.462 97.9607 379.367 99.6734 378.054C101.386 376.741 103.203 374.577 103.151 372.316C103.165 371.78 103.066 371.247 102.86 370.751C102.655 370.256 102.347 369.809 101.958 369.44C101.568 369.071 101.106 368.788 100.6 368.61C100.094 368.431 99.5561 368.361 99.0213 368.404C95.8133 368.752 93.0226 373.864 92.4402 376.689C92.4402 376.872 92.2141 378.941 92.1272 380.08C91.6751 379.08 91.2578 378.071 90.7188 377.072C89.2843 374.185 87.7455 371.299 86.2154 368.421C85.746 367.552 85.2939 366.683 84.8331 365.77C85.2678 365.674 90.371 364.483 92.3011 363.014C94.0398 361.701 95.7786 359.536 95.7786 357.276C95.7925 356.74 95.6934 356.207 95.4879 355.711C95.2823 355.216 94.9748 354.769 94.5854 354.4C94.196 354.031 93.7333 353.748 93.2274 353.57C92.7215 353.391 92.1838 353.321 91.649 353.364C88.441 353.712 85.6503 358.824 85.0678 361.649C85.0244 361.858 84.7549 364.848 84.7201 365.605C83.7116 363.657 82.7205 361.71 81.8251 359.754C80.5909 357.129 79.5252 354.429 78.6345 351.669C78.8431 351.625 84.1811 350.408 86.1459 348.904C87.8846 347.591 89.6234 345.426 89.6234 343.166C89.6387 342.629 89.5405 342.096 89.3355 341.599C89.1304 341.103 88.8229 340.656 88.4332 340.287C88.0434 339.918 87.5802 339.635 87.0737 339.457C86.5672 339.279 86.0289 339.21 85.4938 339.254C82.2858 339.602 79.5038 344.714 78.9214 347.539C78.8692 347.765 78.5823 350.973 78.5736 351.556C78.5214 351.399 78.4519 351.234 78.4084 351.069C77.6097 348.26 77.0627 345.385 76.774 342.479C76.5914 340.871 76.5132 339.332 76.461 337.828C77.4782 337.698 82.1207 337.08 84.0507 335.924C85.9807 334.768 87.9281 332.873 88.1628 330.604C88.2363 330.071 88.1969 329.53 88.0472 329.014C87.8975 328.498 87.6408 328.02 87.2939 327.61C86.947 327.2 86.5176 326.867 86.0337 326.634C85.5498 326.401 85.0222 326.272 84.4854 326.257C81.26 326.257 77.9303 331.03 77.0348 333.777C77.0348 333.925 76.661 335.516 76.4436 336.646C76.4436 335.968 76.4436 335.263 76.4436 334.611C76.4436 332.168 76.6001 329.934 76.7479 327.952C76.8522 326.83 76.9566 325.813 77.0696 324.866C78.0085 324.222 81.7381 321.588 82.8857 319.702C84.0333 317.815 84.9287 315.207 84.0941 313.086C83.9134 312.58 83.6283 312.118 83.2573 311.73C82.8863 311.342 82.4378 311.036 81.9408 310.833C81.4438 310.629 80.9096 310.533 80.3729 310.549C79.8362 310.566 79.3091 310.696 78.8257 310.93C75.9568 312.408 75.2004 318.189 75.6786 321.032C75.6786 321.275 76.8001 325.048 76.8522 325.013C76.9044 324.979 76.8957 325.013 76.9131 325.013C76.7827 325.883 76.661 326.9 76.548 327.969C76.348 329.952 76.1394 332.186 76.0872 334.637C75.9942 337.279 76.058 339.924 76.2785 342.557C76.5136 345.5 77.0111 348.415 77.7651 351.269C77.7651 351.269 77.7651 351.329 77.7651 351.364C77.2608 350.564 75.7655 348.382 75.6264 348.226C73.7399 346.052 68.8105 342.94 65.8372 344.209C65.3489 344.433 64.9131 344.756 64.5584 345.159C64.2038 345.563 63.9382 346.036 63.779 346.549C63.6198 347.062 63.5706 347.602 63.6347 348.136C63.6987 348.669 63.8745 349.182 64.1507 349.643C65.2461 351.634 67.8716 352.625 70.0016 352.929Z" fill="#263238"/>
<path d="M125.39 337.758C125.442 337.758 126.424 333.994 126.459 333.742C126.85 330.89 125.946 325.135 123.034 323.727C122.543 323.505 122.012 323.389 121.473 323.386C120.935 323.384 120.403 323.495 119.91 323.712C119.418 323.93 118.977 324.248 118.616 324.648C118.256 325.047 117.983 325.518 117.817 326.03C117.035 328.178 118.026 330.803 119.2 332.612C120.591 334.733 125.39 337.758 125.39 337.758Z" fill="#263238"/>
<path d="M373.674 336.515C375.987 337.524 381.655 337.384 381.664 337.384C381.673 337.384 380.448 333.672 380.335 333.455C379.092 330.847 375.161 326.552 371.962 326.987C371.432 327.074 370.927 327.271 370.479 327.566C370.031 327.86 369.649 328.246 369.36 328.698C369.071 329.15 368.88 329.657 368.8 330.188C368.719 330.718 368.75 331.26 368.893 331.777C369.423 333.994 371.701 335.646 373.674 336.515Z" fill="#263238"/>
<path d="M375.63 352.929C378.03 353.285 383.09 351.816 383.498 351.694C384.325 354.592 385.35 357.43 386.567 360.188C387.263 361.796 388.01 363.396 388.784 364.996C388.323 364.317 387.915 363.718 387.837 363.639C385.95 361.457 381.021 358.353 378.047 359.614C377.56 359.839 377.125 360.163 376.771 360.566C376.417 360.969 376.152 361.442 375.992 361.954C375.832 362.466 375.782 363.006 375.844 363.539C375.906 364.072 376.079 364.586 376.352 365.048C377.456 367.047 380.082 368.03 382.212 368.343C384.342 368.656 388.715 367.473 389.862 367.169C390.166 367.778 390.462 368.395 390.732 369.003C392.192 371.916 393.67 374.819 395.026 377.697C395.504 378.714 395.896 379.74 396.382 380.757C395.974 380.157 395.617 379.662 395.557 379.584C393.67 377.402 388.741 374.298 385.767 375.558C385.28 375.783 384.846 376.107 384.492 376.51C384.137 376.913 383.872 377.386 383.712 377.898C383.552 378.411 383.502 378.951 383.564 379.483C383.626 380.016 383.799 380.53 384.072 380.992C385.176 382.992 387.802 383.983 389.932 384.287C392.062 384.591 396.017 383.548 397.374 383.174C397.791 384.235 398.243 385.295 398.573 386.339C398.799 387.052 399.069 387.73 399.251 388.469C399.434 389.208 399.66 389.903 399.851 390.616C400.182 391.998 400.538 393.415 400.825 394.772C401.034 395.711 401.216 396.615 401.399 397.519C400.929 396.502 399.982 394.52 399.886 394.363C398.347 391.92 393.948 388.104 390.818 388.903C390.302 389.05 389.822 389.303 389.41 389.647C388.998 389.992 388.664 390.419 388.428 390.902C388.193 391.384 388.062 391.911 388.044 392.447C388.026 392.984 388.121 393.518 388.323 394.015C389.106 396.154 391.549 397.493 393.609 398.162C395.878 398.849 400.903 398.223 401.529 398.162C401.825 399.666 402.112 401.127 402.346 402.509C402.529 403.535 402.694 404.517 402.842 405.465H404.859C404.668 404.413 404.459 403.309 404.233 402.161C403.929 400.631 403.581 399.014 403.207 397.345C404.718 396.738 406.193 396.045 407.624 395.267C409.275 397.058 413.509 399.153 414.057 399.423C413.483 400.84 412.909 402.214 412.318 403.5C412.023 404.178 411.736 404.822 411.449 405.465H413.57L414.083 404.248C414.674 402.805 415.274 401.257 415.883 399.666C416.491 399.788 421.455 400.805 423.777 400.275C425.88 399.805 428.419 398.614 429.358 396.536C429.597 396.057 429.733 395.531 429.755 394.996C429.777 394.46 429.686 393.925 429.487 393.427C429.289 392.929 428.987 392.478 428.602 392.105C428.217 391.731 427.758 391.443 427.254 391.259C424.194 390.225 419.517 393.702 417.804 396.024C417.708 396.163 416.778 397.762 416.204 398.797C416.448 398.136 416.691 397.51 416.935 396.832C417.421 395.502 417.873 394.154 418.36 392.711C418.569 392.007 418.786 391.294 418.995 390.581C419.204 389.868 419.378 389.086 419.577 388.338C419.986 386.6 420.325 384.8 420.629 382.992C421.794 383.409 425.959 384.861 428.115 384.73C430.271 384.6 432.966 383.791 434.2 381.879C434.509 381.439 434.721 380.939 434.823 380.412C434.926 379.885 434.916 379.342 434.795 378.818C434.673 378.295 434.443 377.803 434.119 377.375C433.795 376.947 433.384 376.591 432.914 376.332C430.045 374.854 424.898 377.584 422.855 379.618C422.725 379.749 421.421 381.357 420.725 382.279C420.899 381.183 421.073 380.097 421.212 378.984C421.612 375.784 421.907 372.533 422.229 369.29C422.325 368.29 422.429 367.299 422.533 366.317C422.951 366.465 427.863 368.299 430.279 368.125C432.427 367.977 435.131 367.186 436.365 365.274C436.673 364.835 436.885 364.335 436.988 363.809C437.09 363.282 437.08 362.74 436.959 362.217C436.837 361.695 436.607 361.204 436.283 360.776C435.959 360.349 435.549 359.994 435.078 359.736C432.209 358.258 427.063 360.988 425.02 363.022C424.863 363.17 422.994 365.517 422.542 366.134C422.777 363.952 423.029 361.788 423.359 359.649C423.794 356.769 424.416 353.92 425.22 351.12C425.411 351.19 430.532 353.12 433.044 352.946C435.191 352.798 437.887 352.007 439.13 350.103C439.438 349.663 439.65 349.163 439.753 348.636C439.855 348.109 439.845 347.566 439.724 347.043C439.603 346.519 439.372 346.028 439.048 345.599C438.724 345.171 438.314 344.816 437.843 344.556C434.974 343.079 429.827 345.808 427.784 347.843C427.619 347.999 425.611 350.52 425.281 350.999C425.281 350.842 425.359 350.668 425.402 350.503C426.289 347.719 427.42 345.019 428.784 342.435C429.523 341.001 430.306 339.662 431.088 338.384C432.01 338.845 436.226 340.888 438.469 340.992C440.712 341.096 443.39 340.583 444.833 338.827C445.187 338.424 445.452 337.951 445.612 337.438C445.771 336.926 445.821 336.386 445.758 335.853C445.695 335.32 445.52 334.806 445.245 334.345C444.971 333.884 444.602 333.486 444.163 333.176C441.477 331.385 436.061 333.533 433.809 335.332C433.679 335.428 432.549 336.558 431.731 337.402C432.096 336.828 432.462 336.228 432.827 335.663C434.174 333.628 435.539 331.846 436.756 330.281C437.461 329.412 438.104 328.612 438.721 327.882C439.86 327.882 444.433 327.717 446.424 326.786C448.415 325.856 450.605 324.178 451.075 321.927C451.204 321.406 451.223 320.864 451.129 320.337C451.035 319.809 450.831 319.306 450.53 318.863C450.229 318.419 449.838 318.044 449.382 317.761C448.926 317.479 448.416 317.295 447.884 317.223C444.668 316.876 440.851 321.275 439.677 323.909C439.582 324.144 438.408 327.882 438.46 327.882H438.556C437.947 328.569 437.304 329.316 436.617 330.151C435.365 331.69 433.957 333.446 432.557 335.463C431.022 337.611 429.617 339.849 428.349 342.166C426.91 344.754 425.705 347.465 424.75 350.268C424.754 350.303 424.754 350.338 424.75 350.373C424.75 349.425 424.75 346.782 424.707 346.573C424.333 343.713 421.933 338.41 418.76 337.819C418.23 337.736 417.688 337.767 417.17 337.907C416.652 338.048 416.17 338.296 415.754 338.636C415.338 338.975 414.999 339.398 414.757 339.878C414.516 340.357 414.378 340.882 414.353 341.418C414.161 343.687 415.813 345.965 417.421 347.399C419.23 349.016 424.263 350.581 424.663 350.703C423.758 353.576 423.046 356.507 422.533 359.475C422.229 361.214 421.968 362.952 421.734 364.691C421.734 363.874 421.734 363.135 421.69 363.039C421.325 360.179 418.925 354.867 415.752 354.285C415.222 354.2 414.68 354.228 414.162 354.367C413.643 354.506 413.16 354.753 412.744 355.092C412.327 355.431 411.988 355.855 411.746 356.334C411.505 356.814 411.368 357.339 411.344 357.875C411.153 360.144 412.805 362.422 414.405 363.857C416.004 365.291 420.299 366.734 421.429 367.099C421.351 367.769 421.255 368.447 421.177 369.125C420.786 372.359 420.421 375.602 419.951 378.758C419.795 379.879 419.595 380.966 419.395 382.061C419.395 381.331 419.395 380.723 419.351 380.627C418.986 377.767 416.587 372.463 413.414 371.872C412.883 371.79 412.341 371.82 411.824 371.961C411.306 372.102 410.823 372.35 410.407 372.689C409.992 373.029 409.652 373.452 409.411 373.931C409.169 374.411 409.031 374.935 409.006 375.471C408.815 377.741 410.466 380.018 412.075 381.453C413.683 382.887 417.552 384.191 418.891 384.626C418.656 385.739 418.421 386.852 418.143 387.921C417.934 388.643 417.787 389.355 417.543 390.077C417.3 390.799 417.082 391.494 416.856 392.198C416.369 393.528 415.874 394.911 415.37 396.197C415.031 397.067 414.683 397.936 414.335 398.806C414.509 397.701 414.805 395.528 414.813 395.328C414.774 392.793 414.088 390.309 412.822 388.112C412.833 387.821 412.816 387.53 412.77 387.243C412.703 386.71 412.524 386.198 412.246 385.739C411.968 385.28 411.596 384.884 411.155 384.579C410.713 384.273 410.213 384.063 409.685 383.963C409.158 383.864 408.615 383.876 408.093 384C404.972 384.826 402.99 390.303 402.877 393.189C402.877 393.355 402.981 395.206 403.068 396.38C402.912 395.702 402.772 395.041 402.599 394.346C402.277 392.963 401.903 391.598 401.512 390.12C401.303 389.416 401.086 388.703 400.868 387.982C400.651 387.26 400.364 386.539 400.112 385.8C399.495 384.113 398.791 382.435 398.043 380.757C399.251 380.47 403.52 379.375 405.241 378.062C406.963 376.749 408.762 374.585 408.719 372.324C408.733 371.788 408.634 371.255 408.428 370.759C408.223 370.264 407.915 369.817 407.526 369.448C407.136 369.079 406.674 368.796 406.168 368.618C405.662 368.439 405.124 368.369 404.589 368.412C401.381 368.76 398.591 373.872 398.008 376.697C398.008 376.88 397.782 378.949 397.704 380.088C397.243 379.088 396.791 378.08 396.296 377.08C394.861 374.194 393.314 371.307 391.792 368.43C391.323 367.56 390.862 366.691 390.41 365.778C390.836 365.682 395.948 364.491 397.869 363.022C399.608 361.709 401.39 359.545 401.347 357.284C401.361 356.748 401.262 356.215 401.056 355.719C400.85 355.224 400.543 354.777 400.153 354.408C399.764 354.039 399.301 353.756 398.795 353.578C398.29 353.399 397.752 353.329 397.217 353.372C394.009 353.72 391.227 358.832 390.636 361.657C390.592 361.866 390.323 364.856 390.297 365.613C389.288 363.665 388.297 361.718 387.393 359.762C386.175 357.115 385.124 354.394 384.246 351.616C384.446 351.572 389.784 350.355 391.749 348.851C393.487 347.538 395.278 345.374 395.226 343.113C395.24 342.577 395.141 342.044 394.936 341.548C394.73 341.053 394.423 340.606 394.033 340.237C393.644 339.868 393.181 339.585 392.675 339.407C392.169 339.228 391.631 339.158 391.097 339.201C387.889 339.549 385.098 344.661 384.516 347.486C384.472 347.712 384.185 350.92 384.168 351.503C384.124 351.346 384.055 351.181 384.003 351.016C383.204 348.207 382.657 345.333 382.368 342.427C382.186 340.818 382.107 339.279 382.064 337.775C383.081 337.645 387.724 337.028 389.645 335.871C391.566 334.715 393.522 332.82 393.757 330.551C393.83 330.019 393.791 329.479 393.642 328.963C393.493 328.448 393.237 327.97 392.891 327.56C392.545 327.15 392.117 326.818 391.634 326.584C391.151 326.35 390.624 326.221 390.088 326.204C386.854 326.204 383.524 330.977 382.638 333.724C382.585 333.872 382.264 335.463 382.046 336.593C382.046 335.915 382.046 335.211 382.046 334.559C382.046 332.116 382.203 329.881 382.359 327.899C382.455 326.778 382.559 325.761 382.672 324.813C383.611 324.17 387.35 321.535 388.497 319.649C389.645 317.762 390.532 315.154 389.697 313.033C389.517 312.528 389.233 312.066 388.863 311.678C388.493 311.289 388.045 310.984 387.549 310.78C387.052 310.577 386.519 310.48 385.983 310.497C385.447 310.514 384.92 310.643 384.437 310.877C381.568 312.355 380.812 318.136 381.281 320.979C381.325 321.222 382.412 324.996 382.455 324.961H382.516C382.386 325.83 382.264 326.847 382.151 327.917C381.951 329.899 381.751 332.133 381.69 334.585C381.601 337.226 381.665 339.871 381.881 342.505C382.109 345.458 382.6 348.385 383.351 351.251V351.346C382.846 350.546 381.351 348.364 381.221 348.208C379.334 346.034 374.405 342.922 371.431 344.191C370.943 344.413 370.506 344.735 370.151 345.137C369.795 345.539 369.528 346.012 369.368 346.524C369.208 347.036 369.158 347.577 369.222 348.109C369.285 348.642 369.46 349.156 369.736 349.616C370.866 351.633 373.501 352.624 375.63 352.929Z" fill="#263238"/>
<path d="M431.01 337.758C431.062 337.758 432.044 333.994 432.079 333.742C432.479 330.89 431.566 325.135 428.654 323.727C428.163 323.505 427.632 323.389 427.094 323.386C426.555 323.384 426.023 323.495 425.53 323.712C425.038 323.93 424.597 324.248 424.236 324.648C423.876 325.047 423.604 325.518 423.437 326.03C422.664 328.178 423.646 330.803 424.82 332.612C426.211 334.733 431.01 337.758 431.01 337.758Z" fill="#263238"/>
<path d="M199.686 276.163H404.381C405.596 276.163 406.761 276.646 407.62 277.505C408.479 278.364 408.962 279.53 408.962 280.745V399.98C408.962 401.266 408.451 402.5 407.541 403.41C406.632 404.32 405.398 404.831 404.111 404.831H199.955C198.673 404.824 197.446 404.31 196.542 403.401C195.638 402.492 195.13 401.262 195.13 399.98V280.753C195.128 279.541 195.606 278.378 196.46 277.517C197.314 276.657 198.474 276.17 199.686 276.163Z" fill="white" stroke="#263238" stroke-linecap="round" stroke-linejoin="round"/>
<path d="M324.824 256.194H279.243C278.532 256.194 277.829 256.333 277.173 256.605C276.517 256.877 275.921 257.275 275.419 257.777C274.917 258.28 274.518 258.876 274.247 259.532C273.975 260.188 273.835 260.891 273.835 261.601V279.362H280.138C279.766 278.568 279.573 277.701 279.573 276.824V268.391C279.573 266.795 280.207 265.265 281.335 264.137C282.463 263.009 283.993 262.375 285.589 262.375H318.478C320.073 262.375 321.603 263.009 322.732 264.137C323.86 265.265 324.494 266.795 324.494 268.391V276.824C324.493 277.701 324.3 278.568 323.929 279.362H330.232V261.601C330.232 260.891 330.092 260.188 329.82 259.532C329.548 258.876 329.15 258.28 328.648 257.777C328.146 257.275 327.549 256.877 326.893 256.605C326.237 256.333 325.534 256.194 324.824 256.194Z" fill="#263238" stroke="#263238" stroke-linecap="round" stroke-linejoin="round"/>
<path d="M195.131 307.269L302.064 340.497L408.997 308.33V280.753C408.995 279.537 408.51 278.37 407.65 277.51C406.79 276.65 405.623 276.165 404.407 276.163H199.686C198.47 276.165 197.305 276.65 196.446 277.511C195.587 278.371 195.104 279.537 195.104 280.753L195.131 307.269Z" fill="white" stroke="#263238" stroke-linecap="round" stroke-linejoin="round"/>
<path d="M367.676 316.972L405.911 305.522V280.51" stroke="#263238" stroke-linecap="round" stroke-linejoin="round"/>
<path d="M310.871 333.994L363.372 318.267" stroke="#263238" stroke-linecap="round" stroke-linejoin="round"/>
<path d="M264.411 325.309L209.293 308.208" stroke="#263238" stroke-linecap="round" stroke-linejoin="round"/>
<path d="M292.405 333.994L269.167 326.787" stroke="#263238" stroke-linecap="round" stroke-linejoin="round"/>
<path d="M308.993 330.934H295.083V350.06H308.993V330.934Z" fill="#263238" stroke="#263238" stroke-linecap="round" stroke-linejoin="round"/>
<path d="M374.744 401.327H367.432" stroke="#263238" stroke-linecap="round" stroke-linejoin="round"/>
<path d="M404.755 337.072V395.72C404.756 396.452 404.612 397.178 404.333 397.855C404.053 398.532 403.643 399.147 403.125 399.666C402.608 400.184 401.993 400.595 401.317 400.876C400.64 401.157 399.914 401.301 399.182 401.301H378.204" stroke="#263238" stroke-linecap="round" stroke-linejoin="round"/>
<path d="M404.754 323.214V330.916" stroke="#263238" stroke-linecap="round" stroke-linejoin="round"/>
<path d="M331.883 329.647C331.883 329.647 334.639 351.025 336.474 358.797C338.308 366.569 345.089 394.511 345.168 397.198C345.246 399.884 338.752 405.7 335.9 407.361C333.048 409.021 336.665 410.247 339.569 409.916C342.473 409.586 347.098 407.865 347.75 407.178C348.37 406.62 349.053 406.136 349.784 405.735L350.149 405.526L349.984 407.1L353.314 406.309C353.467 403.698 353.377 401.078 353.044 398.484C352.496 395.589 352.175 393.138 352.175 393.138C352.175 393.138 351.305 348.426 351.166 344.626C351.027 340.827 350.871 335.933 350.871 335.933L331.883 329.647Z" fill="white" stroke="#263238" stroke-linecap="round" stroke-linejoin="round"/>
<path d="M339.586 409.916C342.481 409.595 347.115 407.864 347.767 407.178C348.387 406.62 349.07 406.136 349.801 405.734L350.166 405.526L350.001 407.099L353.331 406.308C353.484 403.697 353.394 401.078 353.061 398.484C350.697 401.475 344.368 405.048 342.559 405.335C342.094 405.442 341.61 405.445 341.143 405.344C340.675 405.244 340.236 405.041 339.856 404.752L339.49 404.674C338.376 405.664 337.181 406.56 335.917 407.352C333.066 409.029 336.682 410.247 339.586 409.916Z" fill="#263238" stroke="#263238" stroke-linecap="round" stroke-linejoin="round"/>
<path d="M356.461 335.28C356.461 335.28 357.93 358.275 360.156 364.465C362.381 370.655 364.833 396.067 364.833 396.067C364.111 399.047 363.241 401.99 362.225 404.883C360.442 409.49 361.842 413.176 364.52 412.864C367.198 412.551 370.605 407.499 370.692 403.7C370.81 400.842 371.083 397.992 371.51 395.163C371.51 395.163 374.248 370.69 374.857 362.388C375.465 354.085 373.77 344.078 373.744 343.183C373.718 342.288 374.466 331.751 374.466 331.751L356.209 334.168L356.461 335.28Z" fill="white" stroke="#263238" stroke-linecap="round" stroke-linejoin="round"/>
<path d="M370.832 401.084C369.493 403.388 367.424 406.3 365.407 406.343C363.624 406.404 363.051 404.605 362.903 402.979C362.677 403.657 362.451 404.309 362.225 404.883C360.442 409.491 361.842 413.177 364.52 412.864C367.198 412.551 370.605 407.5 370.692 403.701C370.745 402.849 370.745 401.962 370.832 401.084Z" fill="#263238" stroke="#263238" stroke-linecap="round" stroke-linejoin="round"/>
<path d="M330.284 258.062C326.338 265.814 323.6 274.122 322.164 282.701C319.808 296.88 329.919 331.02 329.919 331.02C329.919 331.02 337.995 338.123 352.522 338.288C367.05 338.454 374.805 335.506 374.805 335.506C374.805 335.506 381.847 299.227 380.212 283.431C379.065 273.708 374.983 264.565 368.51 257.219L331.71 255.628L330.284 258.062Z" fill="#263238" stroke="#263238" stroke-linecap="round" stroke-linejoin="round"/>
<path d="M305.168 257.95C305.168 257.95 297.656 259.688 296.387 260.114C295.118 260.54 292.388 262.236 291.84 263.305C291.292 264.374 289.067 267.478 289.154 270.034C289.241 272.59 289.284 273.642 290.023 273.624C290.762 273.607 291.579 271.468 292.275 271.216C292.97 270.964 298.256 269.138 299.186 269.112C300.83 269.099 302.45 268.725 303.933 268.017C305.569 267.096 307.092 265.987 308.471 264.713L306.376 257.758L305.168 257.95Z" fill="white" stroke="#263238" stroke-linecap="round" stroke-linejoin="round"/>
<path d="M298.639 261.088C297.362 261.771 296.141 262.553 294.987 263.426C294.657 263.905 289.988 270.382 291.379 270.312C292.77 270.242 296.709 266.043 296.709 266.043L301.829 265.869C303.229 265.826 304.568 264.131 304.568 264.131" fill="white"/>
<path d="M298.639 261.088C297.362 261.771 296.141 262.553 294.987 263.426C294.657 263.905 289.988 270.382 291.379 270.312C292.77 270.242 296.709 266.043 296.709 266.043L301.829 265.869C303.229 265.826 304.568 264.131 304.568 264.131" stroke="#263238" stroke-linecap="round" stroke-linejoin="round"/>
<path d="M351.462 194.103C351.462 194.103 330.945 201.371 330.206 203.857C329.467 206.344 322.616 245.109 322.616 245.109L305.011 257.489L308.071 266.948L327.745 259.123L321.912 280.093C321.912 280.093 333.318 285.709 345.906 286.37C358.495 287.03 372.562 282.718 374.457 282.101C376.352 281.484 381.742 279.389 381.742 279.389L375.239 241.632C375.239 241.632 382.933 211.308 383.124 208.839C383.316 206.37 384.176 199.78 384.15 198.963C384.124 198.145 366.763 194.259 366.763 194.259L351.462 194.103Z" fill="#7E57C2" stroke="#263238" stroke-linecap="round" stroke-linejoin="round"/>
<path d="M338.969 277.093L338.091 281.736" stroke="#263238" stroke-linecap="round" stroke-linejoin="round"/>
<path d="M342.89 198.615L343.298 226.626L338.621 233.624L342.255 259.732L339.586 273.859" stroke="#263238" stroke-linecap="round" stroke-linejoin="round"/>
<path d="M341.186 232.277C341.186 232.277 361.416 213.151 367.502 207.204C370.775 204.093 373.766 200.698 376.439 197.058" stroke="#263238" stroke-linecap="round" stroke-linejoin="round"/>
<path d="M334.013 211.099C334.013 211.099 329.049 225.756 330.266 229.269C331.483 232.781 332.709 244.483 332.709 244.483L327.745 259.14" stroke="#263238" stroke-linecap="round" stroke-linejoin="round"/>
<path d="M352.688 164.587C352.688 164.587 348.854 167.004 348.263 168.821C347.671 170.638 347.393 172.438 346.141 173.298C344.889 174.159 342.073 173.759 342.281 174.898C342.49 176.037 344.194 178.419 344.194 178.419C344.194 178.419 343.324 186.113 343.377 187.739C343.429 189.364 345.915 190.425 347.054 190.347C348.036 190.27 349.012 190.128 349.975 189.921L350.497 195.607L344.672 225.165L366.763 194.233L365.328 190.695L365.824 185.948C366.97 182.28 367.061 178.363 366.085 174.646C365.537 172.44 364.559 170.364 363.207 168.536C361.856 166.709 360.157 165.166 358.208 163.996C357.364 163.435 356.349 163.188 355.341 163.295C354.333 163.403 353.394 163.86 352.688 164.587Z" fill="white" stroke="#263238" stroke-linecap="round" stroke-linejoin="round"/>
<path d="M349.975 189.964L353.505 188.556L350.497 194.372L349.975 189.964Z" fill="#263238" stroke="#263238" stroke-linecap="round" stroke-linejoin="round"/>
<path d="M348.88 173.377C348.68 174.072 348.271 174.559 347.967 174.472C347.663 174.385 347.584 173.75 347.793 173.055C348.002 172.359 348.402 171.881 348.662 171.968C348.923 172.055 349.088 172.69 348.88 173.377Z" fill="#263238"/>
<path d="M348.471 169.951C348.471 169.951 350.054 168.595 350.297 170.873" stroke="#263238" stroke-linecap="round" stroke-linejoin="round"/>
<path d="M344.472 181.853C344.904 181.864 345.333 181.773 345.723 181.589C346.114 181.405 346.457 181.132 346.724 180.792" stroke="#263238" stroke-linecap="round" stroke-linejoin="round"/>
<path d="M348.471 205.943L344.672 225.208L357.782 206.847L348.471 205.943Z" stroke="#263238" stroke-linecap="round" stroke-linejoin="round"/>
<path d="M367.389 155.015C367.389 155.015 364.39 148.817 358.095 148.817C351.801 148.817 347.576 154.302 347.724 158.484C347.871 162.666 353.07 165.057 354.027 165.717C354.983 166.378 351.331 168.604 353.079 172.038C354.156 174.133 355.74 175.926 357.687 177.254C357.687 177.254 360.599 173.889 363.007 176.385C365.415 178.88 363.19 181.505 361.355 182.47C360.369 183.041 359.272 183.396 358.139 183.513C359.706 184.553 361.163 185.75 362.486 187.087C364.416 189.112 368.31 187.356 369.658 185.904C371.005 184.452 371.657 183.044 374.196 182.496C376.735 181.949 382.203 178.254 382.438 171.733C382.672 165.213 380.438 160.858 375.674 157.763C370.91 154.668 367.389 155.015 367.389 155.015Z" fill="#263238" stroke="#263238" stroke-linecap="round" stroke-linejoin="round"/>
<path d="M375.222 265.548L372.214 269.495C372.214 269.495 367.067 272.103 367.093 273.05C367.119 273.998 364.911 277.206 364.807 277.554C364.974 279.28 365.305 280.986 365.798 282.648C366.041 283.109 365.798 285.1 367.537 285.5C369.275 285.9 370.414 284.587 370.884 284.57C371.353 284.552 373.927 284.935 375.413 284.178C376.9 283.422 378.343 274.528 378.543 273.589C378.743 272.65 381.412 268.947 381.412 268.947L375.222 265.548Z" fill="white" stroke="#263238" stroke-linecap="round" stroke-linejoin="round"/>
<path d="M365.407 278.006C365.407 278.006 365.641 278.111 366.033 279.267C366.424 280.423 365.798 282.649 365.798 282.649" stroke="#263238" stroke-linecap="round" stroke-linejoin="round"/>
<path d="M375.961 215.116C375.961 215.116 373.301 221.34 373.605 222.149C373.909 222.957 383.368 239.728 383.368 239.728L374.439 266L382.264 270.921C382.264 270.921 397.513 237.598 398.026 236.763C398.539 235.928 386.793 203.796 386.793 203.796C386.793 203.796 386.072 199.189 384.185 198.98C382.422 198.701 380.68 198.306 378.969 197.798" fill="#7E57C2"/>
<path d="M375.961 215.116C375.961 215.116 373.301 221.34 373.605 222.149C373.909 222.957 383.368 239.728 383.368 239.728L374.439 266L382.264 270.921C382.264 270.921 397.513 237.598 398.026 236.763C398.539 235.928 386.793 203.796 386.793 203.796C386.793 203.796 386.072 199.189 384.185 198.98C382.422 198.701 380.68 198.306 378.969 197.798" stroke="#263238" stroke-linecap="round" stroke-linejoin="round"/>
<path d="M234.487 402.744C234.487 402.744 242.503 407.256 245.007 407.96C247.805 408.712 250.652 409.27 253.527 409.63C254.691 409.63 255.526 410.125 255.526 411.299C255.415 412.451 254.879 413.52 254.022 414.298C253.527 414.637 241.338 417.141 238.165 417.141C234.991 417.141 224.637 420.81 221.968 420.479C219.299 420.149 218.299 419.314 217.96 417.976C217.621 416.637 218.465 410.629 218.465 410.629L234.487 402.744Z" fill="white" stroke="#263238" stroke-linecap="round" stroke-linejoin="round"/>
<path d="M254.022 414.263C254.879 413.485 255.415 412.416 255.526 411.264C255.545 410.998 255.49 410.732 255.369 410.495C255.248 410.258 255.065 410.057 254.839 409.916C253.97 411.238 252.735 412.89 251.692 413.098C250.014 413.429 233.157 416.437 228.81 416.767L217.908 417.636C217.908 417.758 217.926 417.862 217.96 417.949C218.299 419.288 219.299 420.123 221.968 420.453C224.637 420.783 235.009 417.115 238.165 417.115C241.321 417.115 253.527 414.602 254.022 414.263Z" fill="white" stroke="#263238" stroke-linecap="round" stroke-linejoin="round"/>
<path d="M155.183 408.412C155.119 409.77 155.29 411.129 155.687 412.429C156.356 414.767 159.165 418.61 159.025 420.609C158.886 422.609 158.026 423.278 152.679 422.948C147.332 422.618 141.664 422.618 139.638 418.601C137.613 414.585 142.316 407.412 142.316 407.412L155.183 408.412Z" fill="white" stroke="#263238" stroke-linecap="round" stroke-linejoin="round"/>
<path d="M159.025 420.61C159.043 420.194 158.984 419.779 158.851 419.384C158.057 420.374 156.935 421.047 155.687 421.279C152.844 421.783 146.993 421.783 143.333 419.94C141.896 419.204 140.534 418.331 139.265 417.332C139.335 417.769 139.467 418.193 139.656 418.593C141.664 422.601 147.341 422.601 152.697 422.94C158.052 423.279 158.86 422.618 159.025 420.61Z" fill="white" stroke="#263238" stroke-linecap="round" stroke-linejoin="round"/>
<path d="M146.932 275.667L153.757 349.008L143.837 396.189L141.847 401.023V407.56C141.847 407.56 142.412 407.273 145.541 408.699C148.671 410.125 154.07 408.699 154.07 408.699L155.209 408.412L158.052 400.171L158.617 394.198C158.617 394.198 175.952 345.878 176.804 342.183C177.656 338.488 179.482 307.043 179.482 307.043L179.099 299.097L205.181 346.148L216.265 399.579L214.526 402.709L218.221 411.803L234.992 402.996L233.853 397.31L231.297 392.477C231.297 392.477 225.611 333.637 224.759 332.49C223.907 331.342 199.747 275.641 199.747 275.641L196.617 263.131L146.932 275.667Z" fill="#263238" stroke="#263238" stroke-linecap="round" stroke-linejoin="round"/>
<path d="M196.382 193.025L203.337 212.281L176.969 196.633L186.246 227.061C186.246 227.061 219.569 228.799 220.438 226.478C221.064 224.809 210.736 202.231 204.92 189.747L196.382 193.025Z" fill="white" stroke="#263238" stroke-linecap="round" stroke-linejoin="round"/>
<path d="M198.408 197.562L207.058 194.633" stroke="#263238" stroke-linecap="round" stroke-linejoin="round"/>
<path d="M134.048 203.587L112.888 223.296L141.003 263.574C141.003 263.574 142.446 273.424 144.481 275.459C145.004 276.087 145.675 276.575 146.434 276.878C147.193 277.182 148.016 277.291 148.828 277.197C149.697 277.197 193.166 267.339 196.348 266.182C199.53 265.026 200.408 262.705 199.825 260.384C199.243 258.062 192.87 249.377 192.87 249.377L176.935 196.632H157.521L140.421 200.692L134.048 203.587Z" fill="white" stroke="#263238" stroke-linecap="round" stroke-linejoin="round"/>
<path d="M148.314 211.412L155.921 217.063L160.921 266.4L170.701 273.138L174.613 262.27L158.313 216.411L157.226 204.457L151.792 202.501L148.314 211.412Z" fill="#7E57C2" stroke="#263238" stroke-linecap="round" stroke-linejoin="round"/>
<path d="M136.708 193.155C135.215 194.481 134.192 196.257 133.796 198.215C133.187 201.432 132.874 204.5 132.874 204.5L142.968 218.862C142.968 218.862 148.792 211.195 149.244 210.734C149.738 210.381 150.301 210.138 150.896 210.021C152.309 209.158 153.647 208.178 154.895 207.091C155.53 206.291 156.756 204.909 160.738 205.831C164.72 206.752 167.641 207.674 167.641 207.674C167.641 207.674 162.885 198.015 160.286 195.259C157.687 192.503 153.383 191.886 151.392 191.886C149.401 191.886 140.664 193.729 140.664 193.729L136.708 193.155Z" fill="white" stroke="#263238" stroke-linecap="round" stroke-linejoin="round"/>
<path d="M145.333 159.98C145.333 159.98 153.322 169.299 154.896 169.299C156.469 169.299 160.486 168.76 160.486 170.63C160.519 171.631 160.335 172.627 159.947 173.551C159.947 173.551 163.424 183.401 164.207 186.331C164.989 189.26 157.817 190.86 157.817 190.86L154.339 191.921C154.339 191.921 155.939 204.7 154.878 207.091C153.818 209.482 150.879 210.021 150.879 210.021L137.082 194.894L136.821 191.416C136.821 191.416 122.181 178.376 122.442 176.507C122.703 174.637 145.333 159.98 145.333 159.98Z" fill="white" stroke="#263238" stroke-linecap="round" stroke-linejoin="round"/>
<path d="M150.462 170.482C150.966 171.151 151.14 171.873 150.862 172.081C150.584 172.29 149.993 171.907 149.445 171.212C148.897 170.516 148.767 169.83 149.045 169.621C149.323 169.412 149.967 169.812 150.462 170.482Z" fill="#263238"/>
<path d="M146.055 169.056C146.586 168.462 147.257 168.01 148.007 167.741C148.757 167.472 149.562 167.395 150.349 167.517" fill="#263238"/>
<path d="M146.055 169.056C146.586 168.462 147.257 168.01 148.007 167.741C148.757 167.472 149.562 167.395 150.349 167.517" stroke="#263238" stroke-width="2" stroke-linecap="round" stroke-linejoin="round"/>
<path d="M161.686 179.932L159.391 181.01" stroke="#263238" stroke-linecap="round" stroke-linejoin="round"/>
<path d="M159.973 173.55C159.973 173.55 153.409 178.245 153.105 179.932C152.801 181.618 153.722 186.217 153.722 186.217C153.722 186.217 148.045 185.452 146.515 185.452C144.985 185.452 137.63 177.48 138.395 176.558C139.16 175.637 142.072 172.733 141.612 171.194C141.151 169.656 137.013 169.056 139.925 166.448C142.838 163.839 155.713 159.24 156.322 156.485C156.93 153.729 147.741 153.268 146.054 154.954C145.231 155.827 144.306 156.598 143.298 157.25C143.298 157.25 144.22 151.164 138.543 153.572C131.902 156.522 126.526 161.736 123.372 168.282C120.155 175.333 118.008 175.793 121.842 179.471C125.676 183.148 134.1 191.277 135.752 191.581C137.404 191.886 138.36 193.111 138.36 191.886C138.36 190.66 134.987 186.217 135.752 184.374C136.517 182.531 137.134 181.618 138.665 183.609C140.195 185.6 142.646 190.051 145.411 191.433C148.175 192.816 155.217 191.738 155.217 191.738C155.217 191.738 164.407 189.599 165.65 187.452C166.893 185.304 164.876 181.931 164.111 181.47C163.346 181.01 162.738 181.166 162.425 182.548C162.112 183.931 159.817 185.304 159.208 183.774C158.599 182.244 157.374 179.48 158.286 179.019C159.199 178.558 161.355 177.949 161.355 176.106C161.355 174.263 161.025 173.307 159.973 173.55Z" fill="#263238" stroke="#263238" stroke-linecap="round" stroke-linejoin="round"/>
<path d="M140.082 183.461C140.082 183.461 136.865 180.088 134.562 180.236C132.258 180.384 131.345 182.383 133.953 185.6C136.561 188.817 139.769 188.973 140.691 187.904C141.612 186.834 140.691 184.835 140.691 184.835" fill="white"/>
<path d="M140.082 183.461C140.082 183.461 136.865 180.088 134.562 180.236C132.258 180.384 131.345 182.383 133.953 185.6C136.561 188.817 139.769 188.973 140.691 187.904C141.612 186.834 140.691 184.835 140.691 184.835" stroke="#263238" stroke-linecap="round" stroke-linejoin="round"/>
<path d="M186.193 190.982L113.209 292.603" stroke="#263238" stroke-width="14" stroke-linecap="round" stroke-linejoin="round"/>
<path d="M224.872 137.141L186.193 190.981" stroke="#263238" stroke-width="8" stroke-linecap="round" stroke-linejoin="round"/>
<path d="M261.551 25.3652C248.999 25.3652 236.729 29.0874 226.292 36.0609C215.855 43.0345 207.721 52.9463 202.917 64.5429C198.114 76.1395 196.857 88.9001 199.306 101.211C201.755 113.522 207.799 124.83 216.675 133.706C225.55 142.582 236.859 148.626 249.17 151.075C261.48 153.523 274.241 152.267 285.838 147.463C297.434 142.66 307.346 134.525 314.32 124.089C321.293 113.652 325.015 101.382 325.015 88.8297C325.015 71.9979 318.329 55.8554 306.427 43.9535C294.525 32.0517 278.383 25.3652 261.551 25.3652ZM261.551 143.6C250.718 143.6 240.129 140.388 231.122 134.37C222.115 128.352 215.095 119.798 210.949 109.79C206.804 99.7815 205.719 88.7689 207.833 78.1445C209.946 67.52 215.162 57.7608 222.822 50.101C230.482 42.4411 240.241 37.2247 250.866 35.1114C261.49 32.9981 272.503 34.0827 282.511 38.2282C292.519 42.3736 301.073 49.3937 307.091 58.4007C313.109 67.4077 316.322 77.9971 316.322 88.8297C316.322 103.356 310.551 117.287 300.28 127.558C290.008 137.83 276.077 143.6 261.551 143.6Z" fill="#263238" stroke="#263238" stroke-linecap="round" stroke-linejoin="round"/>
<path d="M196.382 193.024L204.885 189.747C202.625 184.913 201.051 181.592 201.051 181.592C201.051 181.592 208.815 172.898 208.815 171.16C208.815 169.421 206.206 164.205 204.172 163.04C202.138 161.875 199.251 166.517 198.669 167.969C198.086 169.421 199.538 176.08 199.538 176.08L193.453 184.844L196.382 193.024Z" fill="white" stroke="#263238" stroke-linecap="round" stroke-linejoin="round"/>
<path d="M199.582 166.935L202.225 174.994" stroke="#263238" stroke-linecap="round" stroke-linejoin="round"/>
<path d="M201.338 164.144L205.007 172.942" stroke="#263238" stroke-linecap="round" stroke-linejoin="round"/>
<path d="M203.537 162.823L207.502 171.621" stroke="#263238" stroke-linecap="round" stroke-linejoin="round"/>
<path d="M112.948 223.157C112.948 223.157 117.182 283.37 119.112 284.457C121.042 285.543 127.319 281.266 127.319 281.266L133.031 252.046L112.948 223.157Z" fill="white" stroke="#263238" stroke-linecap="round" stroke-linejoin="round"/>
<path d="M120.06 267.652L145.898 244.517L145.759 237.797L151.844 232.633C151.844 232.633 153.122 228.982 153.826 230.512C154.531 232.042 155.018 232.981 154.313 234.068C153.609 235.154 151.601 237.545 151.601 237.545L160.243 235.858C160.243 235.858 162.416 237.267 161.72 238.354C161.015 239.203 160.146 239.9 159.165 240.405L158.017 242.909C158.017 242.909 157.382 246.039 156.365 247.386C155.348 248.734 150.227 250.221 150.227 250.221C150.227 250.221 131.405 278.493 128.98 282.014C126.554 285.535 122.599 289.777 119.721 289.464C116.843 289.151 116.887 273.137 116.887 273.137" fill="white"/>
<path d="M120.06 267.652L145.898 244.517L145.759 237.797L151.844 232.633C151.844 232.633 153.122 228.982 153.826 230.512C154.531 232.042 155.018 232.981 154.313 234.068C153.609 235.154 151.601 237.545 151.601 237.545L160.243 235.858C160.243 235.858 162.416 237.267 161.72 238.354C161.015 239.203 160.146 239.9 159.165 240.405L158.017 242.909C158.017 242.909 157.382 246.039 156.365 247.386C155.348 248.734 150.227 250.221 150.227 250.221C150.227 250.221 131.405 278.493 128.98 282.014C126.554 285.535 122.599 289.777 119.721 289.464C116.843 289.151 116.887 273.137 116.887 273.137" stroke="#263238" stroke-linecap="round" stroke-linejoin="round"/>
<path d="M160.251 235.876L151.609 237.562C151.609 237.562 153.618 235.154 154.322 234.085C155.026 233.015 154.539 232.068 153.835 230.529C153.131 228.99 151.853 232.65 151.853 232.65L145.767 237.814L145.906 244.535L142.177 247.882L148.262 253.263L150.271 250.255C150.271 250.255 155.383 248.769 156.409 247.421C157.434 246.074 158.06 242.944 158.06 242.944L159.208 240.44C160.189 239.935 161.059 239.237 161.764 238.388C162.425 237.284 160.251 235.876 160.251 235.876Z" fill="white" stroke="#263238" stroke-linecap="round" stroke-linejoin="round"/>
<path d="M139.116 250.881L145.819 256.541" stroke="#263238" stroke-linecap="round" stroke-linejoin="round"/>
</g>
<defs>
<clipPath id="clip0_21_2301">
<rect width="408" height="412" fill="white" transform="translate(56 12)"/>
</clipPath>
</defs>
</svg>
