<svg width="520" height="435" viewBox="0 0 520 435" fill="none" xmlns="http://www.w3.org/2000/svg">
<path d="M457.844 245.449C462.441 215.244 459.153 184.143 451.132 154.833C443.928 128.532 434.843 101.526 413.699 83.0557C388.08 60.6813 356.097 57.7615 323.632 61.5539C259.382 69.0382 241.035 41.5176 193.501 43.1845C145.967 44.8514 104.272 64.8654 90.9261 105.732C77.5797 146.599 98.4327 189.133 88.4201 213.308C78.4076 237.484 50.0592 261.682 66.7393 296.709C83.4194 331.736 120.113 359.257 205.236 365.924C290.36 372.592 364.52 375.937 412.893 331.736C439.049 307.784 452.944 277.601 457.844 245.449Z" fill="#7E57C2"/>
<path opacity="0.7" d="M457.844 245.449C462.441 215.244 459.153 184.143 451.132 154.833C443.928 128.532 434.843 101.526 413.699 83.0557C388.08 60.6813 356.097 57.7615 323.632 61.5539C259.382 69.0382 241.035 41.5176 193.501 43.1845C145.967 44.8514 104.272 64.8654 90.9261 105.732C77.5797 146.599 98.4327 189.133 88.4201 213.308C78.4076 237.484 50.0592 261.682 66.7393 296.709C83.4194 331.736 120.113 359.257 205.236 365.924C290.36 372.592 364.52 375.937 412.893 331.736C439.049 307.784 452.944 277.601 457.844 245.449Z" fill="white"/>
<path d="M415.612 344.467L415.69 335.294L301.525 307.549L102.728 374.068V383.622C102.719 384.082 102.874 384.53 103.164 384.886C103.512 385.294 103.965 385.6 104.473 385.77L216.233 431.895C217.148 432.252 218.102 432.496 219.075 432.622C221.247 432.932 223.455 432.875 225.608 432.454C226.594 432.271 227.555 431.975 228.472 431.571L414.28 346.705C414.666 346.569 414.997 346.309 415.22 345.966C415.525 345.529 415.664 344.997 415.612 344.467Z" fill="white"/>
<path opacity="0.2" d="M415.22 345.989C415.522 345.554 415.661 345.027 415.611 344.501L415.69 335.327L301.524 307.549L224.601 333.28V432.578C224.937 432.578 225.284 432.488 225.608 432.421C226.593 432.238 227.554 431.941 228.472 431.537L414.28 346.705C414.663 346.575 414.993 346.323 415.22 345.989Z" fill="black"/>
<path opacity="0.2" d="M221.524 432.992V417.587H217.631V432.511C218.895 432.878 220.209 433.041 221.524 432.992Z" fill="black"/>
<path d="M415.612 344.467L415.69 335.294L301.525 307.549L102.728 374.068V383.622C102.719 384.082 102.874 384.53 103.164 384.886C103.512 385.294 103.965 385.6 104.473 385.77L216.233 431.895C217.148 432.252 218.102 432.496 219.075 432.622C221.247 432.932 223.455 432.875 225.608 432.454C226.594 432.271 227.555 431.975 228.472 431.571L414.28 346.705C414.666 346.569 414.997 346.309 415.22 345.966C415.525 345.529 415.664 344.997 415.612 344.467Z" stroke="#263238" stroke-miterlimit="10"/>
<path d="M357.203 323.894L342.581 320.191C342.365 320.135 342.144 320.097 341.921 320.079C341.687 320.079 341.44 320.079 341.205 320.079C340.981 320.086 340.757 320.104 340.534 320.135C340.348 320.164 340.165 320.209 339.986 320.269C339.862 320.307 339.75 320.376 339.662 320.471C339.644 320.503 339.635 320.54 339.635 320.577C339.635 320.614 339.644 320.651 339.662 320.683C339.714 320.778 339.797 320.853 339.897 320.896C340.051 320.98 340.217 321.04 340.389 321.075L355.01 324.811C355.236 324.861 355.464 324.899 355.693 324.923H356.42C356.649 324.913 356.876 324.891 357.102 324.856C357.289 324.83 357.473 324.785 357.651 324.722C357.769 324.679 357.876 324.61 357.964 324.52C357.985 324.487 357.996 324.448 357.996 324.409C357.996 324.369 357.985 324.33 357.964 324.297C357.904 324.201 357.819 324.123 357.718 324.073C357.557 323.996 357.388 323.936 357.214 323.894" fill="white"/>
<path d="M400.039 336.524L375.371 330.237H371.332C370.885 330.237 370.449 330.237 370.012 330.237C369.576 330.237 369.141 330.181 368.727 330.125C368.313 330.069 367.887 330.013 367.484 329.946C367.081 329.879 366.712 329.79 366.365 329.7L323.35 318.658L322.478 318.39C322.209 318.289 321.974 318.189 321.762 318.088C321.574 317.99 321.395 317.878 321.225 317.752C321.096 317.654 320.983 317.537 320.889 317.405L320.029 316.152L297.944 310.559L129.768 368.52L235.911 409.163L400.039 336.524Z" fill="#7E57C2" stroke="white" stroke-width="3" stroke-miterlimit="10"/>
<path d="M416.014 334.544C415.738 334.205 415.385 333.937 414.985 333.761C414.376 333.464 413.734 333.239 413.072 333.09L305.351 306.241C304.673 306.078 303.985 305.962 303.292 305.894C302.548 305.829 301.801 305.802 301.055 305.816C300.328 305.824 299.603 305.88 298.884 305.983C298.262 306.067 297.648 306.205 297.05 306.397L105.301 371.44C104.593 371.664 103.92 371.984 103.298 372.391C102.877 372.634 102.542 373.001 102.336 373.442C102.264 373.61 102.239 373.794 102.262 373.975C102.286 374.156 102.358 374.328 102.471 374.471C102.812 374.884 103.261 375.194 103.768 375.366L216.244 420.909C217.158 421.27 218.112 421.518 219.086 421.648C221.258 421.957 223.466 421.901 225.619 421.48C226.605 421.297 227.566 421 228.483 420.596L415.164 336.066C415.552 335.923 415.885 335.66 416.115 335.316C416.169 335.19 416.189 335.052 416.171 334.916C416.153 334.78 416.099 334.652 416.014 334.544ZM235.9 409.163L129.767 368.52L297.933 310.469L320.017 316.063L320.878 317.316C320.972 317.448 321.085 317.565 321.214 317.663C321.384 317.789 321.563 317.901 321.751 317.998C321.964 318.099 322.199 318.2 322.467 318.3L323.34 318.569L366.332 329.655C366.69 329.745 367.07 329.834 367.451 329.902C367.831 329.969 368.267 330.036 368.693 330.081C369.118 330.125 369.543 330.17 369.979 330.192C370.415 330.215 370.852 330.192 371.299 330.192H375.338L400.006 336.48L235.9 409.163ZM339.651 320.437C339.739 320.343 339.851 320.273 339.975 320.236C340.153 320.175 340.337 320.13 340.523 320.102C340.746 320.071 340.97 320.052 341.194 320.046C341.429 320.046 341.675 320.046 341.91 320.046C342.133 320.064 342.354 320.101 342.57 320.157L357.192 323.86C357.366 323.902 357.534 323.962 357.695 324.039C357.797 324.09 357.882 324.167 357.942 324.263C357.962 324.297 357.973 324.336 357.973 324.375C357.973 324.415 357.962 324.453 357.942 324.487C357.854 324.577 357.747 324.645 357.628 324.688C357.451 324.751 357.267 324.796 357.08 324.823C356.854 324.857 356.626 324.879 356.398 324.89H355.671C355.441 324.865 355.213 324.828 354.988 324.778L340.367 321.041C340.194 321.007 340.029 320.946 339.874 320.862C339.775 320.819 339.692 320.745 339.639 320.65C339.625 320.615 339.62 320.578 339.624 320.541C339.627 320.503 339.641 320.468 339.662 320.437H339.651ZM176.899 391.073C176.637 391.284 176.342 391.45 176.026 391.565C175.617 391.718 175.194 391.831 174.762 391.901C174.301 391.989 173.833 392.037 173.364 392.046C172.908 392.059 172.452 392.036 171.999 391.979C171.617 391.923 171.242 391.825 170.88 391.688C170.607 391.59 170.359 391.434 170.153 391.23C170.087 391.16 170.037 391.077 170.006 390.987C169.975 390.896 169.964 390.799 169.974 390.704C170.029 390.487 170.16 390.296 170.343 390.167C170.603 389.953 170.898 389.786 171.216 389.675C171.625 389.522 172.049 389.41 172.48 389.339C172.939 389.26 173.402 389.215 173.867 389.205C174.32 389.193 174.772 389.215 175.221 389.272C175.603 389.325 175.978 389.419 176.34 389.552C176.613 389.643 176.862 389.797 177.067 389.999C177.139 390.065 177.193 390.147 177.226 390.239C177.26 390.33 177.27 390.429 177.257 390.525C177.209 390.746 177.082 390.941 176.899 391.073Z" fill="#263238"/>
<path d="M176.328 389.552C175.966 389.419 175.591 389.325 175.21 389.272C174.761 389.215 174.308 389.193 173.856 389.205C173.391 389.215 172.927 389.26 172.469 389.339C172.037 389.409 171.614 389.522 171.204 389.675C170.887 389.786 170.591 389.952 170.332 390.167C170.149 390.296 170.018 390.487 169.963 390.704C169.953 390.799 169.963 390.896 169.994 390.986C170.025 391.077 170.075 391.16 170.142 391.23C170.348 391.434 170.596 391.59 170.869 391.688C171.23 391.825 171.605 391.923 171.988 391.979C172.44 392.036 172.896 392.059 173.352 392.046C173.822 392.037 174.29 391.989 174.751 391.901C175.182 391.83 175.606 391.718 176.015 391.565C176.331 391.45 176.625 391.283 176.888 391.073C177.066 390.939 177.189 390.744 177.234 390.525C177.247 390.428 177.237 390.33 177.204 390.239C177.171 390.147 177.116 390.065 177.044 389.999C176.839 389.796 176.59 389.643 176.317 389.552" fill="white"/>
<path d="M138.997 341.044L142.197 346.459" stroke="#263238" stroke-miterlimit="10"/>
<path d="M91.9883 261.536L135.383 334.924" stroke="#263238" stroke-miterlimit="10"/>
<path d="M175.702 325.36L177.526 329.723" stroke="#263238" stroke-miterlimit="10"/>
<path d="M163.273 295.624L173.666 320.482" stroke="#263238" stroke-miterlimit="10"/>
<path d="M379.891 257.42L357.024 313.602" stroke="#263238" stroke-miterlimit="10"/>
<path d="M385.54 243.559L382.71 250.483" stroke="#263238" stroke-miterlimit="10"/>
<path d="M398.226 312.45L393.236 317.943" stroke="#263238" stroke-miterlimit="10"/>
<path d="M430.423 277.031L403.216 306.957" stroke="#263238" stroke-miterlimit="10"/>
<path d="M155.834 332.821L174.427 368.766" stroke="#263238" stroke-miterlimit="10"/>
<path d="M383.941 310.503L363.479 338.393" stroke="#263238" stroke-miterlimit="10"/>
<path d="M253.151 310.503L258.107 335.294" stroke="#263238" stroke-miterlimit="10"/>
<path d="M163.262 86.8817C169.985 86.8817 175.434 81.4322 175.434 74.71C175.434 67.9878 169.985 62.5383 163.262 62.5383C156.54 62.5383 151.091 67.9878 151.091 74.71C151.091 81.4322 156.54 86.8817 163.262 86.8817Z" fill="white" stroke="white" stroke-width="0.5" stroke-miterlimit="10"/>
<path d="M167.301 73.8823H159.369C158.624 73.8823 157.91 74.1782 157.383 74.7048C156.856 75.2314 156.561 75.9456 156.561 76.6903V83.4026C158.5 84.9137 160.893 85.7259 163.352 85.7076C165.811 85.6893 168.192 84.8417 170.109 83.3019V76.7462C170.116 76.3728 170.049 76.0016 169.911 75.6545C169.773 75.3073 169.568 74.9911 169.306 74.7244C169.045 74.4577 168.733 74.2459 168.388 74.1013C168.044 73.9567 167.674 73.8822 167.301 73.8823Z" fill="#7E57C2"/>
<path d="M163.196 72.6628C165.426 72.6628 167.234 70.8547 167.234 68.6243C167.234 66.3938 165.426 64.5857 163.196 64.5857C160.965 64.5857 159.157 66.3938 159.157 68.6243C159.157 70.8547 160.965 72.6628 163.196 72.6628Z" fill="#7E57C2"/>
<path d="M197.553 296.406C199.999 290.144 196.906 283.085 190.645 280.639C184.384 278.193 177.325 281.286 174.879 287.547C172.432 293.808 175.525 300.867 181.786 303.314C188.048 305.76 195.107 302.667 197.553 296.406Z" fill="white" stroke="white" stroke-width="0.5" stroke-miterlimit="10"/>
<path d="M190.257 291.16H182.314C181.572 291.16 180.861 291.455 180.336 291.979C179.812 292.504 179.517 293.215 179.517 293.957V300.613C181.455 302.123 183.846 302.935 186.303 302.917C188.76 302.898 191.138 302.051 193.054 300.512V293.957C193.054 293.215 192.759 292.504 192.234 291.979C191.71 291.455 190.999 291.16 190.257 291.16Z" fill="#7E57C2"/>
<path d="M186.151 289.93C186.95 289.93 187.731 289.693 188.395 289.249C189.059 288.805 189.577 288.175 189.883 287.437C190.188 286.699 190.268 285.887 190.112 285.103C189.957 284.32 189.572 283.6 189.007 283.035C188.442 282.471 187.723 282.086 186.939 281.93C186.156 281.774 185.344 281.854 184.606 282.16C183.868 282.466 183.237 282.983 182.793 283.647C182.35 284.312 182.113 285.092 182.113 285.891C182.113 286.421 182.217 286.947 182.42 287.437C182.623 287.927 182.921 288.372 183.296 288.747C183.671 289.122 184.116 289.419 184.606 289.622C185.096 289.825 185.621 289.93 186.151 289.93Z" fill="#7E57C2"/>
<path d="M345.177 258.892C392.654 211.415 392.654 134.441 345.177 86.9641C297.701 39.4876 220.726 39.4876 173.25 86.9641C125.773 134.441 125.773 211.415 173.25 258.892C220.726 306.368 297.701 306.368 345.177 258.892Z" fill="white"/>
<path opacity="0.18" d="M345.177 258.892C392.654 211.415 392.654 134.441 345.177 86.9641C297.701 39.4876 220.726 39.4876 173.25 86.9641C125.773 134.441 125.773 211.415 173.25 258.892C220.726 306.368 297.701 306.368 345.177 258.892Z" fill="black"/>
<path opacity="0.86" d="M259.215 224.864C233.047 224.862 207.577 216.42 186.588 200.79C165.6 185.161 150.213 163.178 142.712 138.108C137.302 156.253 136.206 175.411 139.509 194.055C142.813 212.699 150.426 230.314 161.741 245.495C173.057 260.677 187.762 273.005 204.685 281.498C221.608 289.991 240.281 294.414 259.215 294.414C278.15 294.414 296.823 289.991 313.746 281.498C330.669 273.005 345.374 260.677 356.689 245.495C368.005 230.314 375.618 212.699 378.922 194.055C382.226 175.411 381.129 156.253 375.719 138.108C368.217 163.177 352.829 185.159 331.841 200.788C310.853 216.417 285.384 224.861 259.215 224.864Z" fill="white"/>
<path d="M254.84 116.651L266.386 121.842L269.552 127.033L274.754 129.057L275.324 134.539L273.311 137.716L269.272 138.578L260.613 135.11V133.991L265.513 131.977L263.779 125.914L255.948 123.028L252.491 118.418L254.84 116.651ZM327.557 249.946L318.328 246.199L307.04 242.16H298.09L289.756 240.426L280.515 242.451L275.324 242.731H272.147L266.095 246.199L260.322 248.503L252.491 243.603L254.505 235.526L249.605 233.501H243.832L242.971 230.906L243.541 225.715L241.528 222.829L237.489 223.399L236.37 226.285L231.47 226.576L227.141 221.408L225.373 214.461L229.703 206.383L238.071 206.954L240.375 208.979H243.843L248.173 206.383L251.921 207.502L257.111 216.452L259.136 216.172L258.555 209.527L256.832 206.07L257.402 200.588L268.075 195.968L269.518 185.296L274.138 181.548L277.886 174.914L280.772 174.332L287.406 170.003L287.697 167.698L283.077 167.989L282.216 165.673H279.072L274.172 166.792L276.477 163.044L286.545 160.158L288.85 157.562L292.888 163.906L295.495 166.512L299.533 165.394L297.799 161.646L291.736 157.316L284.811 149.485L277.595 144.574L270.67 143.455L267.214 139.999L262.593 138.88L262.023 139.999L261.441 148.367L262.56 151.253L260.054 160.505L254.281 155.884L255.154 151.846L249.09 148.96L246.495 145.794L247.938 138.578L256.306 132.514L256.888 125.589L253.711 125.88L251.686 123.285L250.824 118.955L248.799 118.665L247.681 123.285L244.515 123.867L243.072 113.798L240.756 112.355L236.717 110.621L232.086 112.892L237.847 118.385L238.966 123.285L228.584 115.454L221.368 107.623L220.798 99.7917L213.291 97.4872L207.474 101.358C206.075 102.207 204.63 102.976 203.144 103.663C200.867 104.205 198.552 104.579 196.22 104.781L195.101 109.692L188.467 109.983L189.049 113.149L199.721 114.883L205.203 120.947V131.015L202.026 139.965L202.607 149.485L194.53 163.626L192.796 184.68L195.392 196.807L199.139 206.037L203.469 206.618L202.026 201.998L199.721 198.53L198.278 192.187L200.873 191.605L204.912 201.998L207.809 211.339V218.846L213.291 225.48L223.136 232.595L238.138 236.634L242.758 240.963L246.215 245.572L251.406 248.749L257.76 250.483L264.103 250.193C264.103 250.193 263.813 253.079 263.813 254.522C263.813 255.965 259.774 260.865 259.774 260.865L256.608 266.638L258.913 272.981L265.256 275.587L274.206 284.817L278.244 286.551V290.869L278.748 292.894C301.193 289.264 322.163 279.389 339.259 264.4L339.416 262.308L347.247 248.168L343.499 245.572L327.557 249.946ZM357.573 135.982L354.395 130.501L350.357 124.146L349.238 115.499L354.429 116.36L354.72 113.474L350.961 113.183L354.138 111.74L357.606 109.726V106.84L354.138 102.219L353.4 96.0105C336.623 75.4874 313.604 61.004 287.841 54.7623C262.079 48.5207 234.983 50.8622 210.673 61.4308L217.33 66.1406L213.291 71.3427L207.809 72.4614L207.228 80.2924L204.923 81.1539L202.037 84.331L202.328 89.5219L207.228 90.1036L205.236 94.9924H210.136L218.504 84.3198L219.377 79.7107L227.454 79.129L229.468 75.6609L237.836 74.7995L238.709 69.8995L244.761 69.6087C244.761 69.6087 249.09 67.3041 249.963 67.3041C251.628 67.6631 253.266 68.1416 254.863 68.7361L259.192 72.2041H265.245L270.447 69.0269L277.081 69.6087C278.035 70.2293 279.125 70.6129 280.258 70.7274C281.701 70.7274 286.019 68.7025 286.019 68.7025L294.387 73.9046L297.855 76.5V80.8294L302.185 81.4L303.628 78.8045L307.376 80.5386L307.085 82.8431L298.426 85.1589L303.337 91.502L313.719 97.2746L318.048 103.047L324.403 103.618L325.846 100.731L328.15 100.161L320.644 94.3883L315.99 93.8737L319.737 92.755L316.269 87.855L321.181 87.5641L327.524 91.021L328.967 97.9459L332.144 101.705L334.74 110.073L341.083 114.682V124.202L347.728 128.532L347.437 131.709L346.564 135.457L348.298 140.647L348.88 143.254L353.78 144.115L356.096 139.204L357.573 135.982ZM361.32 106.896V108.551L359.877 113.16L360.739 117.199L363.916 118.318V123.799L360.448 122.356L359.62 137.996L356.163 144.35L358.468 152.428L362.215 155.884V171.468L365.963 183.584L370.013 192.825L376.647 194.547L378.951 188.775L379.891 188.048C380.515 183.034 380.829 177.986 380.831 172.934C380.854 149.502 374.072 126.568 361.309 106.918L361.32 106.896ZM294.656 105.061L275.637 96.6929L267.269 96.9837L265.245 102.465L261.788 98.7178L255.445 100.161L254.863 109.681L260.054 113.429L263.801 107.947L268.131 112.277L277.081 120.108L278.815 128.476L286.31 137.996L298.426 135.982L298.146 131.653L295.551 126.742L294.969 115.208L297.855 110.297L294.656 105.061ZM310.24 111.415L305.91 110.297L302.162 113.474L304.176 121.842H307.935L310.24 111.415ZM337.089 116.897L327.266 111.773L325.242 108.316L322.937 109.178L324.951 114.95L326.685 122.457L331.014 124.18L331.876 123.061L329.28 118.732L336.787 121.618L337.089 116.897ZM252.838 221.05L251.719 222.169L260.378 224.764L263.835 228.803L269.328 229.384L271.342 226.207L264.708 225.088L252.838 221.05ZM278.569 226.532L272.505 228.266L273.378 230.57H280.873L282.316 228.266L279.721 228.556L278.569 226.532Z" fill="#7E57C2"/>
<path opacity="0.65" d="M259.215 224.864C233.047 224.862 207.577 216.42 186.588 200.79C165.6 185.161 150.213 163.178 142.712 138.108C137.302 156.253 136.206 175.411 139.509 194.055C142.813 212.699 150.426 230.314 161.741 245.495C173.057 260.677 187.762 273.005 204.685 281.498C221.608 289.991 240.281 294.414 259.215 294.414C278.15 294.414 296.823 289.991 313.746 281.498C330.669 273.005 345.374 260.677 356.689 245.495C368.005 230.314 375.618 212.699 378.922 194.055C382.226 175.411 381.129 156.253 375.719 138.108C368.217 163.177 352.829 185.159 331.841 200.788C310.853 216.417 285.384 224.861 259.215 224.864Z" fill="white"/>
<path d="M254.84 116.651L266.386 121.842L269.552 127.033L274.754 129.057L275.324 134.539L273.311 137.716L269.272 138.578L260.613 135.11V133.991L265.513 131.977L263.779 125.914L255.948 123.028L252.491 118.418L254.84 116.651ZM327.557 249.946L318.328 246.199L307.04 242.16H298.09L289.756 240.426L280.515 242.451L275.324 242.731H272.147L266.095 246.199L260.322 248.503L252.491 243.603L254.505 235.526L249.605 233.501H243.832L242.971 230.906L243.541 225.715L241.528 222.829L237.489 223.399L236.37 226.285L231.47 226.576L227.141 221.408L225.373 214.461L229.703 206.383L238.071 206.954L240.375 208.979H243.843L248.173 206.383L251.921 207.502L257.111 216.452L259.136 216.172L258.555 209.527L256.832 206.07L257.402 200.588L268.075 195.968L269.518 185.296L274.138 181.548L277.886 174.914L280.772 174.332L287.406 170.003L287.697 167.698L283.077 167.989L282.216 165.673H279.072L274.172 166.792L276.477 163.044L286.545 160.158L288.85 157.562L292.888 163.906L295.495 166.512L299.533 165.394L297.799 161.646L291.736 157.316L284.811 149.485L277.595 144.574L270.67 143.455L267.214 139.999L262.593 138.88L262.023 139.999L261.441 148.367L262.56 151.253L260.054 160.505L254.281 155.884L255.154 151.846L249.09 148.96L246.495 145.794L247.938 138.578L256.306 132.514L256.888 125.589L253.711 125.88L251.686 123.285L250.824 118.955L248.799 118.665L247.681 123.285L244.515 123.867L243.072 113.798L240.756 112.355L236.717 110.621L232.086 112.892L237.847 118.385L238.966 123.285L228.584 115.454L221.368 107.623L220.798 99.7917L213.291 97.4872L207.474 101.358C206.075 102.207 204.63 102.976 203.144 103.663C200.867 104.205 198.552 104.579 196.22 104.781L195.101 109.692L188.467 109.983L189.049 113.149L199.721 114.883L205.203 120.947V131.015L202.026 139.965L202.607 149.485L194.53 163.626L192.796 184.68L195.392 196.807L199.139 206.037L203.469 206.618L202.026 201.998L199.721 198.53L198.278 192.187L200.873 191.605L204.912 201.998L207.809 211.339V218.846L213.291 225.48L223.136 232.595L238.138 236.634L242.758 240.963L246.215 245.572L251.406 248.749L257.76 250.483L264.103 250.193C264.103 250.193 263.813 253.079 263.813 254.522C263.813 255.965 259.774 260.865 259.774 260.865L256.608 266.638L258.913 272.981L265.256 275.587L274.206 284.817L278.244 286.551V290.869L278.748 292.894C301.193 289.264 322.163 279.389 339.259 264.4L339.416 262.308L347.247 248.168L343.499 245.572L327.557 249.946ZM357.573 135.982L354.395 130.501L350.357 124.146L349.238 115.499L354.429 116.36L354.72 113.474L350.961 113.183L354.138 111.74L357.606 109.726V106.84L354.138 102.219L353.4 96.0105C336.623 75.4874 313.604 61.004 287.841 54.7623C262.079 48.5207 234.983 50.8622 210.673 61.4308L217.33 66.1406L213.291 71.3427L207.809 72.4614L207.228 80.2924L204.923 81.1539L202.037 84.331L202.328 89.5219L207.228 90.1036L205.236 94.9924H210.136L218.504 84.3198L219.377 79.7107L227.454 79.129L229.468 75.6609L237.836 74.7995L238.709 69.8995L244.761 69.6087C244.761 69.6087 249.09 67.3041 249.963 67.3041C251.628 67.6631 253.266 68.1416 254.863 68.7361L259.192 72.2041H265.245L270.447 69.0269L277.081 69.6087C278.035 70.2293 279.125 70.6129 280.258 70.7274C281.701 70.7274 286.019 68.7025 286.019 68.7025L294.387 73.9046L297.855 76.5V80.8294L302.185 81.4L303.628 78.8045L307.376 80.5386L307.085 82.8431L298.426 85.1589L303.337 91.502L313.719 97.2746L318.048 103.047L324.403 103.618L325.846 100.731L328.15 100.161L320.644 94.3883L315.99 93.8737L319.737 92.755L316.269 87.855L321.181 87.5641L327.524 91.021L328.967 97.9459L332.144 101.705L334.74 110.073L341.083 114.682V124.202L347.728 128.532L347.437 131.709L346.564 135.457L348.298 140.647L348.88 143.254L353.78 144.115L356.096 139.204L357.573 135.982ZM361.32 106.896V108.551L359.877 113.16L360.739 117.199L363.916 118.318V123.799L360.448 122.356L359.62 137.996L356.163 144.35L358.468 152.428L362.215 155.884V171.468L365.963 183.584L370.013 192.825L376.647 194.547L378.951 188.775L379.891 188.048C380.515 183.034 380.829 177.986 380.831 172.934C380.854 149.502 374.072 126.568 361.309 106.918L361.32 106.896ZM294.656 105.061L275.637 96.6929L267.269 96.9838L265.245 102.465L261.788 98.7178L255.445 100.161L254.863 109.681L260.054 113.429L263.801 107.947L268.131 112.277L277.081 120.108L278.815 128.476L286.31 137.996L298.426 135.982L298.146 131.653L295.551 126.742L294.969 115.208L297.855 110.297L294.656 105.061ZM310.24 111.415L305.91 110.297L302.162 113.474L304.176 121.842H307.935L310.24 111.415ZM337.089 116.897L327.266 111.773L325.242 108.316L322.937 109.178L324.951 114.95L326.685 122.457L331.014 124.18L331.876 123.061L329.28 118.732L336.787 121.618L337.089 116.897ZM252.838 221.05L251.719 222.169L260.378 224.764L263.835 228.803L269.328 229.384L271.342 226.207L264.708 225.088L252.838 221.05ZM278.569 226.532L272.505 228.266L273.378 230.57H280.873L282.316 228.266L279.721 228.556L278.569 226.532Z" stroke="#263238" stroke-miterlimit="10"/>
<path d="M345.177 258.892C392.654 211.415 392.654 134.441 345.177 86.9641C297.701 39.4876 220.726 39.4876 173.25 86.9641C125.773 134.441 125.773 211.415 173.25 258.892C220.726 306.368 297.701 306.368 345.177 258.892Z" stroke="#263238" stroke-miterlimit="10"/>
<path d="M411.512 123.316C418.147 122.236 422.649 115.981 421.569 109.346C420.488 102.711 414.234 98.2088 407.599 99.2893C400.964 100.37 396.461 106.624 397.542 113.259C398.623 119.894 404.877 124.397 411.512 123.316Z" fill="white" stroke="white" stroke-width="0.5" stroke-miterlimit="10"/>
<path d="M413.587 110.487H405.644C405.276 110.487 404.912 110.559 404.572 110.701C404.232 110.842 403.923 111.049 403.663 111.31C403.403 111.571 403.197 111.88 403.057 112.221C402.917 112.562 402.846 112.926 402.848 113.295V119.951C404.786 121.461 407.177 122.273 409.633 122.255C412.09 122.236 414.469 121.389 416.384 119.85V113.295C416.386 112.926 416.314 112.562 416.175 112.221C416.035 111.88 415.829 111.571 415.569 111.31C415.309 111.049 415 110.842 414.66 110.701C414.32 110.559 413.956 110.487 413.587 110.487Z" fill="#7E57C2"/>
<path d="M409.481 109.256C410.28 109.256 411.061 109.019 411.725 108.575C412.389 108.132 412.907 107.501 413.213 106.763C413.518 106.025 413.598 105.213 413.442 104.43C413.287 103.646 412.902 102.927 412.337 102.362C411.772 101.797 411.053 101.412 410.269 101.257C409.486 101.101 408.674 101.181 407.936 101.486C407.198 101.792 406.567 102.31 406.123 102.974C405.68 103.638 405.443 104.419 405.443 105.218C405.443 105.748 405.547 106.273 405.75 106.763C405.953 107.253 406.251 107.698 406.626 108.073C407.001 108.448 407.446 108.746 407.936 108.949C408.426 109.152 408.951 109.256 409.481 109.256Z" fill="#7E57C2"/>
<path d="M323.776 74.6319C330.498 74.6319 335.948 69.1825 335.948 62.4602C335.948 55.738 330.498 50.2886 323.776 50.2886C317.054 50.2886 311.604 55.738 311.604 62.4602C311.604 69.1825 317.054 74.6319 323.776 74.6319Z" fill="white" stroke="white" stroke-width="0.5" stroke-miterlimit="10"/>
<path d="M327.804 61.6322H319.872C319.135 61.6439 318.432 61.945 317.915 62.4703C317.398 62.9956 317.109 63.7031 317.109 64.4402V71.1525C319.049 72.6636 321.442 73.4757 323.9 73.4575C326.359 73.4392 328.74 72.5916 330.657 71.0518V64.4402C330.657 64.0676 330.583 63.6988 330.439 63.3552C330.295 63.0115 330.084 62.7 329.818 62.4386C329.553 62.1773 329.238 61.9714 328.892 61.833C328.546 61.6945 328.176 61.6263 327.804 61.6322Z" fill="#7E57C2"/>
<path d="M323.697 60.4016C325.928 60.4016 327.736 58.5935 327.736 56.363C327.736 54.1326 325.928 52.3245 323.697 52.3245C321.467 52.3245 319.659 54.1326 319.659 56.363C319.659 58.5935 321.467 60.4016 323.697 60.4016Z" fill="#7E57C2"/>
<path d="M105.533 148.499C112.168 147.418 116.671 141.164 115.59 134.529C114.51 127.894 108.255 123.392 101.62 124.472C94.9855 125.553 90.4829 131.807 91.5634 138.442C92.644 145.077 98.8985 149.58 105.533 148.499Z" fill="white" stroke="white" stroke-width="0.5" stroke-miterlimit="10"/>
<path d="M107.618 135.658H99.6748C99.3065 135.658 98.9419 135.73 98.6019 135.872C98.2618 136.013 97.953 136.22 97.6932 136.481C97.4333 136.742 97.2275 137.051 97.0876 137.392C96.9477 137.733 96.8765 138.097 96.878 138.466V145.122C98.8159 146.632 101.207 147.444 103.664 147.426C106.12 147.407 108.499 146.56 110.414 145.021V138.466C110.416 138.097 110.345 137.733 110.205 137.392C110.065 137.051 109.859 136.742 109.599 136.481C109.339 136.22 109.031 136.013 108.691 135.872C108.35 135.73 107.986 135.658 107.618 135.658Z" fill="#7E57C2"/>
<path d="M103.511 134.427C104.31 134.427 105.091 134.19 105.755 133.747C106.419 133.303 106.937 132.672 107.242 131.934C107.548 131.196 107.628 130.384 107.472 129.601C107.316 128.817 106.932 128.098 106.367 127.533C105.802 126.968 105.082 126.584 104.299 126.428C103.516 126.272 102.704 126.352 101.966 126.658C101.228 126.963 100.597 127.481 100.153 128.145C99.7095 128.809 99.4727 129.59 99.4727 130.389C99.4727 131.46 99.8981 132.487 100.655 133.244C101.413 134.002 102.44 134.427 103.511 134.427Z" fill="#7E57C2"/>
<path d="M113.376 225.124C120.011 224.044 124.514 217.789 123.433 211.155C122.353 204.52 116.098 200.017 109.463 201.098C102.828 202.178 98.3257 208.433 99.4062 215.068C100.487 221.702 106.741 226.205 113.376 225.124Z" fill="white" stroke="white" stroke-width="0.5" stroke-miterlimit="10"/>
<path d="M115.448 212.29H107.505C107.137 212.29 106.772 212.363 106.432 212.504C106.092 212.645 105.783 212.852 105.523 213.113C105.263 213.374 105.058 213.684 104.918 214.024C104.778 214.365 104.707 214.73 104.708 215.098V221.754C106.646 223.265 109.037 224.076 111.494 224.058C113.951 224.04 116.329 223.193 118.245 221.654V215.098C118.246 214.73 118.175 214.365 118.035 214.024C117.895 213.684 117.689 213.374 117.429 213.113C117.17 212.852 116.861 212.645 116.521 212.504C116.181 212.363 115.816 212.29 115.448 212.29Z" fill="#7E57C2"/>
<path d="M111.343 211.06C112.142 211.06 112.923 210.823 113.587 210.379C114.251 209.935 114.769 209.304 115.074 208.567C115.38 207.829 115.46 207.017 115.304 206.233C115.148 205.45 114.764 204.73 114.199 204.165C113.634 203.6 112.915 203.216 112.131 203.06C111.348 202.904 110.536 202.984 109.798 203.29C109.06 203.596 108.429 204.113 107.985 204.777C107.542 205.441 107.305 206.222 107.305 207.021C107.305 208.092 107.73 209.119 108.488 209.877C109.245 210.634 110.272 211.06 111.343 211.06Z" fill="#7E57C2"/>
<path d="M172.373 156.036C174.836 149.781 171.762 142.714 165.507 140.251C159.252 137.788 152.185 140.863 149.722 147.118C147.26 153.373 150.334 160.439 156.589 162.902C162.844 165.365 169.911 162.29 172.373 156.036Z" fill="white" stroke="white" stroke-width="0.5" stroke-miterlimit="10"/>
<path d="M165.086 150.76H157.132C156.39 150.76 155.679 151.055 155.154 151.58C154.63 152.104 154.335 152.816 154.335 153.557V160.27C156.273 161.78 158.664 162.592 161.121 162.573C163.578 162.555 165.956 161.708 167.871 160.169V153.613C167.879 153.242 167.812 152.873 167.676 152.528C167.539 152.183 167.336 151.869 167.076 151.603C166.817 151.338 166.508 151.127 166.166 150.982C165.824 150.837 165.457 150.762 165.086 150.76Z" fill="#7E57C2"/>
<path d="M160.981 149.53C161.779 149.53 162.56 149.293 163.224 148.85C163.888 148.406 164.406 147.775 164.712 147.037C165.017 146.299 165.097 145.487 164.941 144.704C164.786 143.92 164.401 143.201 163.836 142.636C163.271 142.071 162.552 141.687 161.768 141.531C160.985 141.375 160.173 141.455 159.435 141.761C158.697 142.066 158.067 142.584 157.623 143.248C157.179 143.912 156.942 144.693 156.942 145.492C156.942 146.022 157.047 146.547 157.25 147.037C157.453 147.527 157.75 147.972 158.125 148.347C158.5 148.722 158.945 149.02 159.435 149.223C159.925 149.426 160.451 149.53 160.981 149.53Z" fill="#7E57C2"/>
<path d="M241.338 283.172C248.06 283.172 253.509 277.723 253.509 271.001C253.509 264.278 248.06 258.829 241.338 258.829C234.615 258.829 229.166 264.278 229.166 271.001C229.166 277.723 234.615 283.172 241.338 283.172Z" fill="white" stroke="white" stroke-width="0.5" stroke-miterlimit="10"/>
<path d="M245.376 270.184H237.445C236.7 270.184 235.986 270.48 235.459 271.007C234.933 271.533 234.637 272.247 234.637 272.992V279.648C236.576 281.16 238.969 281.972 241.428 281.953C243.887 281.935 246.267 281.088 248.184 279.548V272.992C248.184 272.247 247.889 271.533 247.362 271.007C246.835 270.48 246.121 270.184 245.376 270.184Z" fill="#7E57C2"/>
<path d="M241.271 268.954C243.501 268.954 245.309 267.146 245.309 264.915C245.309 262.685 243.501 260.876 241.271 260.876C239.04 260.876 237.232 262.685 237.232 264.915C237.232 267.146 239.04 268.954 241.271 268.954Z" fill="#7E57C2"/>
<path d="M328.856 306.576C335.578 306.576 341.027 301.126 341.027 294.404C341.027 287.682 335.578 282.232 328.856 282.232C322.134 282.232 316.684 287.682 316.684 294.404C316.684 301.126 322.134 306.576 328.856 306.576Z" fill="white" stroke="white" stroke-width="0.5" stroke-miterlimit="10"/>
<path d="M332.882 293.588H324.939C324.197 293.588 323.484 293.882 322.958 294.406C322.431 294.93 322.134 295.642 322.131 296.384V303.097C324.071 304.608 326.464 305.42 328.923 305.402C331.381 305.383 333.762 304.536 335.679 302.996V296.362C335.673 295.624 335.376 294.919 334.852 294.399C334.328 293.879 333.62 293.588 332.882 293.588Z" fill="#7E57C2"/>
<path d="M328.777 292.357C331.007 292.357 332.815 290.549 332.815 288.318C332.815 286.088 331.007 284.28 328.777 284.28C326.546 284.28 324.738 286.088 324.738 288.318C324.738 290.549 326.546 292.357 328.777 292.357Z" fill="#7E57C2"/>
<path d="M401.815 228.491C404.134 222.181 400.899 215.186 394.59 212.867C388.28 210.548 381.285 213.783 378.966 220.093C376.647 226.403 379.883 233.397 386.192 235.716C392.502 238.035 399.496 234.8 401.815 228.491Z" fill="white" stroke="white" stroke-width="0.5" stroke-miterlimit="10"/>
<path d="M394.424 223.477H386.47C385.728 223.477 385.017 223.772 384.492 224.296C383.968 224.821 383.673 225.532 383.673 226.274V232.986C385.611 234.497 388.002 235.308 390.459 235.29C392.915 235.272 395.294 234.425 397.209 232.886V226.33C397.217 225.959 397.15 225.59 397.014 225.245C396.877 224.9 396.673 224.586 396.414 224.32C396.155 224.055 395.845 223.843 395.504 223.699C395.162 223.554 394.795 223.479 394.424 223.477Z" fill="#7E57C2"/>
<path d="M390.318 222.247C391.117 222.247 391.897 222.01 392.562 221.566C393.226 221.123 393.743 220.492 394.049 219.754C394.355 219.016 394.435 218.204 394.279 217.421C394.123 216.637 393.738 215.918 393.174 215.353C392.609 214.788 391.889 214.403 391.106 214.248C390.322 214.092 389.51 214.172 388.772 214.477C388.034 214.783 387.404 215.301 386.96 215.965C386.516 216.629 386.279 217.41 386.279 218.209C386.279 219.28 386.705 220.307 387.462 221.064C388.22 221.822 389.247 222.247 390.318 222.247Z" fill="#7E57C2"/>
<path d="M366.176 114.726C383.359 128.655 393.551 146.051 393.551 164.823C393.551 210.69 332.95 247.899 258.185 247.899C183.421 247.899 122.82 210.701 122.82 164.823C122.82 144.753 134.421 126.35 153.731 111.986" stroke="white" stroke-width="0.5" stroke-miterlimit="10"/>
<path d="M180.625 80.1694C192.808 60.2003 209.935 46.8875 230.229 43.9229C277.909 37.0539 325.018 90.3162 335.467 162.888C345.916 235.459 315.744 299.853 268.075 306.722C246.372 309.843 224.781 300.513 206.714 282.568" stroke="white" stroke-width="0.5" stroke-miterlimit="10"/>
<path d="M363.697 256.237C379.541 230.301 340.38 177.508 276.228 138.319C212.077 99.1301 147.228 88.3863 131.384 114.322C115.541 140.258 154.702 193.052 218.853 232.24C283.005 271.429 347.853 282.173 363.697 256.237Z" stroke="white" stroke-width="0.5" stroke-miterlimit="10"/>
<path d="M286.194 226.145C352.027 185.929 392.552 132.302 376.708 106.366C360.864 80.4306 294.652 92.0073 228.819 132.224C162.986 172.44 122.462 226.067 138.306 252.003C154.149 277.938 220.361 266.362 286.194 226.145Z" stroke="white" stroke-width="0.5" stroke-miterlimit="10"/>
<path d="M314.949 96.1112C314.949 95.6687 314.818 95.2361 314.572 94.8682C314.326 94.5002 313.977 94.2134 313.568 94.0441C313.159 93.8748 312.709 93.8304 312.275 93.9168C311.841 94.0031 311.442 94.2162 311.129 94.5291C310.817 94.842 310.603 95.2407 310.517 95.6747C310.431 96.1087 310.475 96.5586 310.644 96.9675C310.814 97.3763 311.101 97.7257 311.469 97.9716C311.836 98.2174 312.269 98.3487 312.712 98.3487C313.305 98.3487 313.874 98.1129 314.294 97.6933C314.713 97.2737 314.949 96.7046 314.949 96.1112Z" fill="white" stroke="white" stroke-width="0.5" stroke-miterlimit="10"/>
<path d="M339.561 187.701C339.561 187.258 339.43 186.826 339.184 186.458C338.938 186.09 338.588 185.803 338.18 185.634C337.771 185.464 337.321 185.42 336.887 185.506C336.453 185.593 336.054 185.806 335.741 186.119C335.428 186.432 335.215 186.83 335.129 187.264C335.043 187.698 335.087 188.148 335.256 188.557C335.426 188.966 335.712 189.315 336.08 189.561C336.448 189.807 336.881 189.938 337.323 189.938C337.917 189.938 338.486 189.703 338.906 189.283C339.325 188.863 339.561 188.294 339.561 187.701Z" fill="white" stroke="white" stroke-width="0.5" stroke-miterlimit="10"/>
<path d="M334.638 234.228C334.638 233.786 334.507 233.353 334.261 232.985C334.016 232.617 333.666 232.331 333.257 232.161C332.848 231.992 332.399 231.948 331.965 232.034C331.53 232.12 331.132 232.333 330.819 232.646C330.506 232.959 330.293 233.358 330.207 233.792C330.12 234.226 330.165 234.676 330.334 235.085C330.503 235.493 330.79 235.843 331.158 236.089C331.526 236.335 331.959 236.466 332.401 236.466C332.994 236.466 333.564 236.23 333.983 235.811C334.403 235.391 334.638 234.822 334.638 234.228Z" fill="white" stroke="white" stroke-width="0.5" stroke-miterlimit="10"/>
<path d="M320.364 269.669C320.364 269.227 320.232 268.794 319.986 268.426C319.741 268.058 319.391 267.772 318.982 267.602C318.573 267.433 318.124 267.389 317.69 267.475C317.256 267.561 316.857 267.774 316.544 268.087C316.231 268.4 316.018 268.799 315.932 269.233C315.845 269.667 315.89 270.117 316.059 270.526C316.228 270.934 316.515 271.284 316.883 271.53C317.251 271.776 317.684 271.907 318.126 271.907C318.72 271.907 319.289 271.671 319.708 271.251C320.128 270.832 320.364 270.263 320.364 269.669Z" fill="white" stroke="white" stroke-width="0.5" stroke-miterlimit="10"/>
<path d="M362.976 219.171C362.976 218.728 362.845 218.295 362.599 217.927C362.353 217.56 362.004 217.273 361.595 217.103C361.186 216.934 360.736 216.89 360.302 216.976C359.868 217.062 359.47 217.276 359.157 217.588C358.844 217.901 358.631 218.3 358.544 218.734C358.458 219.168 358.502 219.618 358.672 220.027C358.841 220.436 359.128 220.785 359.496 221.031C359.864 221.277 360.296 221.408 360.739 221.408C361.332 221.408 361.901 221.172 362.321 220.753C362.741 220.333 362.976 219.764 362.976 219.171Z" fill="white" stroke="white" stroke-width="0.5" stroke-miterlimit="10"/>
<path d="M247.994 247.273C247.994 246.83 247.863 246.397 247.617 246.03C247.371 245.662 247.022 245.375 246.613 245.205C246.204 245.036 245.754 244.992 245.32 245.078C244.886 245.164 244.487 245.378 244.174 245.69C243.861 246.003 243.648 246.402 243.562 246.836C243.476 247.27 243.52 247.72 243.689 248.129C243.859 248.538 244.145 248.887 244.513 249.133C244.881 249.379 245.314 249.51 245.756 249.51C246.35 249.51 246.919 249.274 247.339 248.855C247.758 248.435 247.994 247.866 247.994 247.273Z" fill="white" stroke="white" stroke-width="0.5" stroke-miterlimit="10"/>
<path d="M146.089 210.109C146.089 209.666 145.958 209.233 145.712 208.865C145.466 208.498 145.117 208.211 144.708 208.041C144.299 207.872 143.849 207.828 143.415 207.914C142.981 208 142.583 208.214 142.27 208.526C141.957 208.839 141.744 209.238 141.657 209.672C141.571 210.106 141.615 210.556 141.785 210.965C141.954 211.374 142.241 211.723 142.609 211.969C142.977 212.215 143.409 212.346 143.852 212.346C144.445 212.346 145.014 212.11 145.434 211.691C145.853 211.271 146.089 210.702 146.089 210.109Z" fill="white" stroke="white" stroke-width="0.5" stroke-miterlimit="10"/>
<path d="M163.318 186.962C163.318 186.52 163.187 186.087 162.941 185.719C162.695 185.351 162.346 185.065 161.937 184.895C161.528 184.726 161.078 184.682 160.645 184.768C160.211 184.854 159.812 185.067 159.499 185.38C159.186 185.693 158.973 186.092 158.887 186.526C158.8 186.96 158.845 187.41 159.014 187.819C159.183 188.227 159.47 188.577 159.838 188.823C160.206 189.069 160.639 189.2 161.081 189.2C161.674 189.2 162.243 188.964 162.663 188.544C163.082 188.125 163.318 187.556 163.318 186.962Z" fill="white" stroke="white" stroke-width="0.5" stroke-miterlimit="10"/>
<path d="M248.24 122.233C248.24 121.791 248.109 121.358 247.863 120.99C247.617 120.622 247.268 120.335 246.859 120.166C246.45 119.997 246 119.952 245.566 120.039C245.132 120.125 244.733 120.338 244.42 120.651C244.108 120.964 243.894 121.363 243.808 121.797C243.722 122.231 243.766 122.68 243.935 123.089C244.105 123.498 244.392 123.848 244.76 124.093C245.127 124.339 245.56 124.47 246.003 124.47C246.596 124.47 247.165 124.235 247.585 123.815C248.004 123.396 248.24 122.826 248.24 122.233Z" fill="white" stroke="white" stroke-width="0.5" stroke-miterlimit="10"/>
<path d="M381.156 127.894C381.156 127.451 381.024 127.019 380.778 126.651C380.533 126.283 380.183 125.996 379.774 125.827C379.366 125.657 378.916 125.613 378.482 125.699C378.048 125.786 377.649 125.999 377.336 126.312C377.023 126.625 376.81 127.023 376.724 127.457C376.637 127.891 376.682 128.341 376.851 128.75C377.02 129.159 377.307 129.508 377.675 129.754C378.043 130 378.476 130.131 378.918 130.131C379.512 130.131 380.081 129.896 380.5 129.476C380.92 129.056 381.156 128.487 381.156 127.894Z" fill="white" stroke="white" stroke-width="0.5" stroke-miterlimit="10"/>
<path d="M132.061 138.723C132.061 138.281 131.93 137.848 131.684 137.48C131.438 137.112 131.088 136.826 130.68 136.656C130.271 136.487 129.821 136.442 129.387 136.529C128.953 136.615 128.554 136.828 128.241 137.141C127.928 137.454 127.715 137.853 127.629 138.287C127.543 138.721 127.587 139.171 127.756 139.58C127.926 139.988 128.212 140.338 128.58 140.584C128.948 140.83 129.381 140.961 129.823 140.961C130.417 140.961 130.986 140.725 131.406 140.305C131.825 139.886 132.061 139.317 132.061 138.723Z" fill="white" stroke="white" stroke-width="0.5" stroke-miterlimit="10"/>
<path d="M381.133 127.01L398.72 117.546" stroke="white" stroke-width="0.5" stroke-miterlimit="10"/>
<path d="M127.631 138.723L115.75 136.486" stroke="white" stroke-width="0.5" stroke-miterlimit="10"/>
<path d="M161.103 184.747V163.749" stroke="white" stroke-width="0.5" stroke-miterlimit="10"/>
<path d="M141.66 210.109L123.581 213.118" stroke="white" stroke-width="0.5" stroke-miterlimit="10"/>
<path d="M245.276 249.454L243.62 259.187" stroke="white" stroke-width="0.5" stroke-miterlimit="10"/>
<path d="M318.988 271.806L324.167 283.083" stroke="white" stroke-width="0.5" stroke-miterlimit="10"/>
<path d="M362.942 219.215L377.978 222.437" stroke="white" stroke-width="0.5" stroke-miterlimit="10"/>
<path d="M330.634 232.606L316.035 218.555" stroke="white" stroke-width="0.5" stroke-miterlimit="10"/>
<path d="M313.63 94.12L320.286 74.3298" stroke="white" stroke-width="0.5" stroke-miterlimit="10"/>
<path d="M172.1 83.7493L174.919 85.8636" stroke="white" stroke-width="0.5" stroke-miterlimit="10"/>
<path d="M193.602 282.166L196.768 277.937" stroke="white" stroke-width="0.5" stroke-miterlimit="10"/>
<path d="M318.434 214.595C320.804 208.305 317.625 201.284 311.334 198.914C305.043 196.545 298.023 199.724 295.653 206.014C293.284 212.305 296.462 219.326 302.753 221.695C309.044 224.065 316.065 220.886 318.434 214.595Z" fill="white" stroke="white" stroke-width="0.5" stroke-miterlimit="10"/>
<path d="M311.079 209.493H303.136C302.394 209.493 301.683 209.788 301.158 210.313C300.634 210.837 300.339 211.548 300.339 212.29V219.003C302.277 220.513 304.668 221.324 307.125 221.306C309.581 221.288 311.96 220.441 313.875 218.902V212.346C313.883 211.974 313.816 211.604 313.679 211.259C313.542 210.913 313.337 210.598 313.076 210.332C312.816 210.067 312.505 209.856 312.162 209.712C311.819 209.567 311.451 209.493 311.079 209.493Z" fill="#7E57C2"/>
<path d="M306.973 208.263C307.772 208.263 308.553 208.026 309.217 207.583C309.881 207.139 310.399 206.508 310.704 205.77C311.01 205.032 311.09 204.22 310.934 203.437C310.778 202.653 310.394 201.934 309.829 201.369C309.264 200.804 308.544 200.419 307.761 200.264C306.978 200.108 306.166 200.188 305.428 200.493C304.69 200.799 304.059 201.317 303.615 201.981C303.171 202.645 302.935 203.426 302.935 204.225C302.935 205.296 303.36 206.323 304.117 207.08C304.875 207.838 305.902 208.263 306.973 208.263Z" fill="#7E57C2"/>
<path d="M345.863 156.969C348.216 150.672 345.019 143.66 338.722 141.307C332.425 138.954 325.413 142.151 323.059 148.448C320.706 154.745 323.904 161.757 330.2 164.11C336.497 166.463 343.51 163.266 345.863 156.969Z" fill="white" stroke="white" stroke-width="0.5" stroke-miterlimit="10"/>
<path d="M338.487 151.879H330.533C329.791 151.879 329.08 152.174 328.555 152.698C328.031 153.223 327.736 153.934 327.736 154.676V161.388C329.674 162.898 332.065 163.71 334.522 163.692C336.979 163.674 339.358 162.826 341.273 161.288V154.732C341.28 154.361 341.214 153.992 341.077 153.647C340.941 153.302 340.737 152.987 340.478 152.722C340.218 152.456 339.909 152.245 339.567 152.101C339.225 151.956 338.858 151.881 338.487 151.879Z" fill="#7E57C2"/>
<path d="M334.382 150.649C335.181 150.649 335.961 150.412 336.626 149.968C337.29 149.524 337.807 148.894 338.113 148.156C338.419 147.418 338.499 146.606 338.343 145.822C338.187 145.039 337.802 144.319 337.238 143.754C336.673 143.19 335.953 142.805 335.17 142.649C334.386 142.493 333.574 142.573 332.836 142.879C332.098 143.185 331.468 143.702 331.024 144.366C330.58 145.031 330.343 145.811 330.343 146.61C330.343 147.681 330.769 148.708 331.526 149.466C332.284 150.223 333.311 150.649 334.382 150.649Z" fill="#7E57C2"/>
</svg>
