<svg width="520" height="435" viewBox="0 0 520 435" fill="none" xmlns="http://www.w3.org/2000/svg">
<g clip-path="url(#clip0_21_1722)">
<path d="M463.673 365.511H65.6702C65.6702 365.511 49.8463 370.73 41.1178 329.582C32.3893 288.433 77.312 277.475 87.9936 241.988C98.6753 206.5 52.0754 213.97 55.9927 165.406C59.9101 116.842 123.912 115.904 154.975 122.448C186.038 128.991 182.154 106.569 218.072 69.2047C253.99 31.8409 308.358 35.5817 335.526 64.537C362.694 93.4923 353.976 123.375 387.952 123.375C421.929 123.375 452.992 129.918 473.373 192.485C493.754 255.053 456.501 283.655 457.174 311.86C457.743 329.901 459.918 347.856 463.673 365.511Z" fill="#7E57C2"/>
<path opacity="0.7" d="M463.673 365.511H65.6702C65.6702 365.511 49.8463 370.73 41.1178 329.582C32.3893 288.433 77.312 277.475 87.9936 241.988C98.6753 206.5 52.0754 213.97 55.9927 165.406C59.9101 116.842 123.912 115.904 154.975 122.448C186.038 128.991 182.154 106.569 218.072 69.2047C253.99 31.8409 308.358 35.5817 335.526 64.537C362.694 93.4923 353.976 123.375 387.952 123.375C421.929 123.375 452.992 129.918 473.373 192.485C493.754 255.053 456.501 283.655 457.174 311.86C457.743 329.901 459.918 347.856 463.673 365.511Z" fill="white"/>
<path opacity="0.07" d="M136.47 107.694V365.5H126.76V96.251L136.47 107.694ZM272.783 215.018L269.285 211.267V365.5H278.996V212.834L272.783 215.018ZM212.268 150.112V365.5H221.99V160.529L212.268 150.112ZM183.766 148.688V365.5H193.476V145.621L183.766 148.688ZM155.263 129.764V365.5H164.973V141.207L155.263 129.764ZM240.782 180.689V365.5H250.493V191.15L240.782 180.689ZM411.822 245.552V365.5H421.532V254.457L411.822 245.552ZM383.319 219.41V365.5H393.029V228.315L383.319 219.41ZM297.81 206.235V365.5H307.521V202.814L297.81 206.235ZM354.816 193.258V365.5H364.526V202.185L354.816 193.258ZM326.313 196.215V365.5H336.024V192.805L326.313 196.215Z" fill="black"/>
<path d="M443.667 274.32L349.232 188.16L268.335 219.863L204.676 141.957L174.043 151.822L124.1 91.6274" stroke="#7E57C2" stroke-width="3" stroke-linecap="round" stroke-linejoin="round"/>
<path d="M135.146 86.8492L113.484 78.8269L117.369 101.603L135.146 86.8492Z" fill="#7E57C2"/>
<path d="M161.122 331.391L165.117 329.571L164.267 324.782L159.853 324.44C159.29 322.961 158.549 321.556 157.646 320.257L159.919 316.428L156.476 312.985L152.614 315.281C150.39 313.773 147.876 312.747 145.232 312.268L144.128 307.854H139.262L138.159 312.268C136.637 312.555 135.156 313.022 133.745 313.659L130.258 310.646L126.285 313.46L127.929 317.775C126.871 318.87 125.949 320.089 125.182 321.405L120.591 320.93L118.881 325.488L122.677 328.07C122.495 329.135 122.403 330.212 122.401 331.292C122.401 331.756 122.401 332.208 122.401 332.66L118.406 334.867L119.675 339.579L124.189 339.513C124.853 340.926 125.686 342.252 126.671 343.464L124.773 347.557L128.503 350.691L132.123 348.098C133.491 348.887 134.951 349.506 136.47 349.941L137.199 354.355L142.043 354.785L143.51 350.647C145.102 350.508 146.67 350.171 148.178 349.643L151.235 352.755L155.45 350.316L154.347 346.123C155.564 345.082 156.65 343.896 157.58 342.592L161.861 343.386L163.925 338.972L160.614 336.192C160.98 334.618 161.151 333.006 161.122 331.391ZM153.916 331.303C153.916 333.704 153.204 336.051 151.871 338.047C150.537 340.043 148.641 341.599 146.423 342.518C144.205 343.436 141.764 343.677 139.41 343.208C137.055 342.74 134.893 341.584 133.195 339.886C131.497 338.189 130.341 336.026 129.873 333.671C129.405 331.317 129.645 328.876 130.564 326.658C131.482 324.44 133.038 322.544 135.034 321.211C137.03 319.877 139.377 319.165 141.778 319.165C144.99 319.177 148.066 320.461 150.332 322.736C152.599 325.011 153.872 328.092 153.872 331.303H153.916Z" fill="white"/>
<path d="M131.493 286.458L135.488 284.637L134.638 279.837L130.224 279.495C129.664 278.018 128.922 276.617 128.017 275.324L130.29 271.484L126.847 268.041L122.974 270.314C120.75 268.807 118.235 267.781 115.592 267.301L114.488 262.887H109.622L108.519 267.301C106.996 267.584 105.514 268.051 104.105 268.692L100.618 265.679L96.6341 268.471L98.2783 272.775C97.2048 273.871 96.264 275.089 95.4755 276.405L90.9733 275.986L89.307 280.565L93.103 283.136C92.9212 284.204 92.8289 285.286 92.8271 286.369C92.8271 286.833 92.8271 287.285 92.8823 287.738L88.8877 289.945L90.1457 294.646L94.6699 294.59C95.3367 295.998 96.1703 297.321 97.1528 298.53L95.1996 302.591L98.9294 305.713L102.549 303.131C103.916 303.921 105.376 304.537 106.896 304.963L107.625 309.377L112.469 309.796L113.937 305.669C115.529 305.526 117.097 305.185 118.604 304.654L121.661 307.766L125.876 305.327L124.718 301.134C125.941 300.1 127.031 298.918 127.962 297.614L132.243 298.397L134.307 293.984L130.941 291.214C131.318 289.657 131.503 288.06 131.493 286.458ZM124.287 286.369C124.287 288.77 123.575 291.117 122.242 293.113C120.908 295.109 119.012 296.665 116.794 297.584C114.576 298.503 112.136 298.743 109.781 298.275C107.426 297.806 105.264 296.65 103.566 294.953C101.868 293.255 100.712 291.092 100.244 288.738C99.7756 286.383 100.016 283.942 100.935 281.724C101.853 279.506 103.409 277.611 105.405 276.277C107.401 274.943 109.748 274.231 112.149 274.231C115.368 274.231 118.456 275.51 120.732 277.786C123.008 280.063 124.287 283.15 124.287 286.369Z" fill="white"/>
<path d="M193.962 209.192L203.639 204.778L201.587 193.148L190.905 192.32C189.55 188.739 187.756 185.34 185.564 182.201L191.082 172.899L182.728 164.545L173.349 170.063C167.956 166.408 161.86 163.92 155.45 162.758L152.736 152.054H140.928L138.214 162.835C134.552 163.523 130.987 164.653 127.598 166.201L119.157 158.896L109.479 165.671L113.474 176.11C110.87 178.773 108.592 181.737 106.687 184.938L95.5754 183.834L91.5367 194.869L100.74 201.115C100.296 203.706 100.071 206.331 100.067 208.96C100.067 210.064 100.067 211.167 100.199 212.271L90.5215 217.678L93.5781 229.088L104.536 228.944C106.145 232.366 108.164 235.578 110.55 238.512L105.827 248.344L114.864 255.936L123.692 249.657C127.017 251.557 130.564 253.039 134.252 254.071L136.007 264.642L147.77 265.679L151.312 255.66C155.174 255.319 158.977 254.496 162.634 253.21L170.06 260.758L180.279 254.854L177.476 244.68C180.436 242.158 183.074 239.283 185.332 236.117L195.716 238.037L200.704 227.333L192.494 220.657C193.449 216.91 193.941 213.059 193.962 209.192ZM176.494 208.993C176.494 214.825 174.764 220.526 171.524 225.374C168.285 230.223 163.68 234.002 158.292 236.234C152.904 238.466 146.976 239.05 141.256 237.912C135.537 236.774 130.283 233.966 126.16 229.843C122.036 225.719 119.228 220.465 118.09 214.746C116.952 209.026 117.536 203.098 119.768 197.71C122 192.322 125.779 187.717 130.628 184.478C135.476 181.238 141.177 179.509 147.009 179.509C150.881 179.507 154.716 180.269 158.294 181.75C161.872 183.231 165.123 185.403 167.861 188.141C170.599 190.879 172.771 194.13 174.252 197.708C175.733 201.286 176.495 205.121 176.494 208.993Z" fill="white"/>
<path d="M437.665 174.09L441.659 172.27L440.776 167.47L436.363 167.127C435.798 165.653 435.057 164.252 434.156 162.956L436.418 159.127L433.052 155.684L429.19 157.98C426.968 156.467 424.453 155.441 421.808 154.967L420.704 150.553H415.838L414.734 154.967C413.212 155.249 411.729 155.716 410.32 156.358L406.822 153.345L402.828 156.137L404.472 160.451C403.402 161.544 402.465 162.759 401.68 164.071L397.101 163.596L395.434 168.176L399.23 170.747C399.049 171.815 398.957 172.897 398.955 173.98C398.955 174.444 398.955 174.896 398.955 175.348L394.96 177.555L396.218 182.256L400.742 182.201C401.402 183.613 402.232 184.94 403.214 186.151L401.272 190.201L405.002 193.335L408.61 190.742C409.999 191.537 411.482 192.156 413.024 192.585L413.741 196.999L418.596 197.418L420.053 193.291C421.645 193.152 423.213 192.814 424.721 192.287L427.788 195.388L432.004 192.96L430.845 188.767C432.066 187.726 433.156 186.54 434.089 185.236L438.371 186.019L440.423 181.605L437.113 178.824C437.493 177.276 437.679 175.685 437.665 174.09ZM430.47 174.002C430.47 176.403 429.758 178.75 428.424 180.746C427.09 182.742 425.195 184.298 422.977 185.216C420.759 186.135 418.318 186.376 415.964 185.907C413.609 185.439 411.446 184.283 409.749 182.585C408.051 180.888 406.895 178.725 406.427 176.37C405.958 174.016 406.199 171.575 407.117 169.357C408.036 167.139 409.592 165.243 411.588 163.91C413.584 162.576 415.931 161.864 418.332 161.864C421.551 161.864 424.638 163.143 426.915 165.419C429.191 167.695 430.47 170.783 430.47 174.002Z" fill="white"/>
<path d="M355.909 278.91C353.702 284.427 351.362 280.013 351.726 256.785C351.892 245.905 352.664 223.681 364.692 228.569C376.257 233.27 361.018 266.088 361.018 266.088L355.909 278.91ZM372.461 282.22C372.461 282.22 397.554 256.079 388.141 247.88C378.353 239.339 370.408 260.118 366.712 270.347C358.822 292.196 359.55 297.151 363.478 292.637L372.461 282.22ZM377.758 305.68C377.758 305.68 400.721 289.327 394.718 281.691C388.461 273.746 379.38 288.477 375.076 295.771C365.884 311.33 365.719 315.226 369.371 312.323L377.758 305.68ZM383.97 329.063C383.97 329.063 406.934 312.721 400.931 305.085C394.685 297.139 385.603 311.871 381.289 319.165C372.097 334.713 371.942 338.619 375.584 335.717L383.97 329.063ZM343.859 282.044C343.859 282.044 311.725 265.315 306.495 276.648C301.055 288.444 323.235 290.232 334.082 290.894C357.255 292.328 361.812 290.232 356.383 287.738L343.859 282.044ZM348.383 300.45C348.383 300.45 313.568 290.452 310.699 302.591C307.709 315.237 329.8 312.577 340.57 311.076C363.567 307.865 367.617 304.908 361.801 303.551L348.383 300.45ZM356.361 320.533C356.361 320.533 326.677 312.875 324.537 323.215C322.33 333.974 340.912 331.215 349.994 329.692C369.371 326.448 372.726 323.855 367.771 322.84L356.361 320.533ZM361.007 337.085C361.007 337.085 332.316 326.315 329.072 336.368C325.762 346.829 344.521 346.068 353.702 345.516C373.31 344.346 376.875 342.128 372.108 340.583L361.007 337.085ZM341.784 253.122C341.784 253.122 328.686 212.403 313.822 219.797C298.373 227.521 316.216 245.861 325.166 254.644C344.256 273.404 350.159 274.717 347.644 268.173L341.784 253.122Z" fill="white"/>
<path d="M320.001 234.318C320.001 234.318 352.907 274.463 360.83 294.557C369.867 317.653 376.036 343.662 377.249 365.18" stroke="#CCCCCC" stroke-width="1.25197" stroke-linecap="round" stroke-linejoin="round"/>
<path d="M354.231 281.448L358.811 243.168" stroke="#CCCCCC" stroke-width="1.25197" stroke-linecap="round" stroke-linejoin="round"/>
<path d="M360.786 294.557L377.338 262.38" stroke="#CCCCCC" stroke-width="1.25197" stroke-linecap="round" stroke-linejoin="round"/>
<path d="M358.37 289.79L323.698 282.728" stroke="#CCCCCC" stroke-width="1.25197" stroke-linecap="round" stroke-linejoin="round"/>
<path d="M367.297 312.82L387.678 289.592" stroke="#CCCCCC" stroke-width="1.25197" stroke-linecap="round" stroke-linejoin="round"/>
<path d="M364.45 305.173L338.275 304.941" stroke="#CCCCCC" stroke-width="1.25197" stroke-linecap="round" stroke-linejoin="round"/>
<path d="M369.481 324.164L349.409 324.958" stroke="#CCCCCC" stroke-width="1.25197" stroke-linecap="round" stroke-linejoin="round"/>
<path d="M373.608 336.291L384.356 321.968" stroke="#CCCCCC" stroke-width="1.25197" stroke-linecap="round" stroke-linejoin="round"/>
<path d="M374.392 341.621L350.921 340.451" stroke="#CCCCCC" stroke-width="1.25197" stroke-linecap="round" stroke-linejoin="round"/>
<path d="M439.784 310.624C435.734 312.147 436.981 308.737 449.505 297.515C455.376 292.262 467.58 281.746 470.891 290.552C474.069 299.004 449.097 307.104 449.097 307.104L439.784 310.624ZM446.162 321.03C446.162 321.03 472.392 321.526 472.127 312.489C471.862 303.087 456.899 309.068 449.638 312.136C434.189 318.679 431.872 321.504 436.197 321.372L446.162 321.03ZM436.231 335.375C436.231 335.375 456.226 339.557 457.329 332.605C458.433 325.377 446.184 327.794 440.192 329.085C427.392 331.833 425.24 333.665 428.572 334.194L436.231 335.375ZM426.851 350.184C426.851 350.184 446.835 354.355 447.95 347.414C449.053 340.186 436.793 342.592 430.801 343.883C418.012 346.642 415.86 348.473 419.182 349.003L426.851 350.184ZM432.148 305.725C432.148 305.725 425.251 280.411 416.699 283.202C407.75 286.105 417.703 298.784 422.68 304.886C433.306 317.918 436.661 319.308 435.326 315.192L432.148 305.725ZM424.578 317.19C424.578 317.19 412.782 293.752 404.914 298.188C396.726 302.822 408.997 313.261 415.088 318.249C428.098 328.909 431.64 329.604 429.532 325.841L424.578 317.19ZM417.813 331.292C417.813 331.292 407.297 311.75 400.754 315.689C393.923 319.783 404.55 328.335 409.813 332.418C421.069 341.124 424.092 341.632 422.205 338.498L417.813 331.292ZM411.281 341.908C411.281 341.908 402.905 321.361 395.965 324.583C388.748 327.893 398.403 337.56 403.214 342.172C413.466 352.038 416.456 352.854 414.878 349.544L411.281 341.908ZM446.504 290.419C446.504 290.419 461.721 263.439 450.476 259.169C438.769 254.755 437.797 273.249 437.522 282.342C436.926 301.719 439.122 305.515 441.373 300.946L446.504 290.419Z" fill="white"/>
<path d="M445.865 269.607C445.865 269.607 440.678 306.839 433.859 320.908C426.024 337.063 414.206 354.266 403.348 365.5" stroke="#CCCCCC" stroke-width="1.25197" stroke-linecap="round" stroke-linejoin="round"/>
<path d="M437.61 310.977L460.232 294.59" stroke="#CCCCCC" stroke-width="1.25197" stroke-linecap="round" stroke-linejoin="round"/>
<path d="M433.858 320.909L459.117 313.89" stroke="#CCCCCC" stroke-width="1.25197" stroke-linecap="round" stroke-linejoin="round"/>
<path d="M435.205 317.278L421.93 295.363" stroke="#CCCCCC" stroke-width="1.25197" stroke-linecap="round" stroke-linejoin="round"/>
<path d="M427.348 333.345L449.726 332.771" stroke="#CCCCCC" stroke-width="1.25197" stroke-linecap="round" stroke-linejoin="round"/>
<path d="M430.019 328.07L417.273 314.034" stroke="#CCCCCC" stroke-width="1.25197" stroke-linecap="round" stroke-linejoin="round"/>
<path d="M422.393 340.087L412.098 329.802" stroke="#CCCCCC" stroke-width="1.25197" stroke-linecap="round" stroke-linejoin="round"/>
<path d="M417.969 348.242L430.868 346.917" stroke="#CCCCCC" stroke-width="1.25197" stroke-linecap="round" stroke-linejoin="round"/>
<path d="M415.518 351.276L404.604 338.222" stroke="#CCCCCC" stroke-width="1.25197" stroke-linecap="round" stroke-linejoin="round"/>
<path d="M276.678 393.904C316.468 393.904 348.724 388.528 348.724 381.898C348.724 375.267 316.468 369.892 276.678 369.892C236.888 369.892 204.632 375.267 204.632 381.898C204.632 388.528 236.888 393.904 276.678 393.904Z" fill="#7E57C2"/>
<path opacity="0.5" d="M276.678 393.904C316.468 393.904 348.724 388.528 348.724 381.898C348.724 375.267 316.468 369.892 276.678 369.892C236.888 369.892 204.632 375.267 204.632 381.898C204.632 388.528 236.888 393.904 276.678 393.904Z" fill="white"/>
<path d="M270.454 119.137C262.313 134.038 260.128 151.473 264.341 167.922C271.414 195.575 291.045 227.576 291.045 227.576L315.498 219.852C315.498 219.852 313.567 173.87 303.272 152.12C292.976 130.371 273.996 118.508 270.454 119.137Z" fill="#263238" stroke="#263238" stroke-linecap="round" stroke-linejoin="round"/>
<path d="M287.183 117.515C279.026 133.041 276.851 151.02 281.07 168.043C288.154 196.734 307.785 229.838 307.785 229.838L332.238 221.761C332.238 221.761 330.307 174.146 320.011 151.613C309.716 129.08 290.703 116.93 287.183 117.515Z" fill="#7E57C2"/>
<path opacity="0.29" d="M286.288 130.172C279.054 143.941 277.126 159.887 280.87 174.984C287.149 200.364 304.562 229.783 304.562 229.783L326.256 222.655C326.256 222.655 324.546 180.402 315.409 160.429C306.272 140.456 289.4 129.631 286.288 130.172Z" fill="black"/>
<path d="M287.183 117.515C279.026 133.041 276.851 151.02 281.07 168.043C288.154 196.734 307.785 229.838 307.785 229.838L332.238 221.761C332.238 221.761 330.307 174.146 320.011 151.613C309.716 129.08 290.703 116.93 287.183 117.515Z" stroke="#263238" stroke-linecap="round" stroke-linejoin="round"/>
<path d="M287.183 117.515C282.101 127.06 279.309 137.657 279.028 148.467C283.693 148.667 288.365 148.334 292.954 147.474C300.15 146.206 307.039 143.585 313.258 139.75C302.963 124.875 290.041 116.996 287.183 117.515Z" fill="#263238" stroke="#263238" stroke-linecap="round" stroke-linejoin="round"/>
<path d="M331.941 216.453L305.402 225.645C306.881 228.293 307.786 229.816 307.786 229.816L332.239 221.761C332.239 221.761 332.151 219.785 331.941 216.453Z" fill="#263238" stroke="#263238" stroke-linecap="round" stroke-linejoin="round"/>
<path d="M226.117 367.784C226.117 367.784 216.848 374.526 209.267 376.612C201.686 378.697 206.74 382.924 212.632 382.924C218.525 382.924 228.225 380.816 232.859 380.816C237.494 380.816 241.687 382.504 243.397 378.289C245.108 374.074 243.817 371.547 243.817 371.547C243.817 371.547 232.02 368.203 226.117 367.784Z" fill="white" stroke="#263238" stroke-linecap="round" stroke-linejoin="round"/>
<path d="M233.675 378.146C226.359 378.146 223.269 380.463 215.755 381.037C212.226 381.428 208.673 380.548 205.735 378.554C204.323 380.618 208.251 382.968 212.632 382.968C218.535 382.968 228.224 380.86 232.859 380.86C237.493 380.86 241.686 382.549 243.397 378.334C243.782 377.389 244.045 376.399 244.18 375.387C240.907 377.023 237.33 377.962 233.675 378.146Z" fill="white" stroke="#263238" stroke-linecap="round" stroke-linejoin="round"/>
<path d="M297.104 369.859C297.104 369.859 291.52 379.117 288.276 381.81C285.031 384.502 282.88 387.592 286.532 387.79C290.185 387.989 297.721 385.859 304.662 382.968C311.603 380.077 318.345 372.562 318.345 371.404C318.345 370.245 314.881 365.037 314.881 365.037C314.881 365.037 301.926 367.166 297.104 369.859Z" fill="white" stroke="#263238" stroke-linecap="round" stroke-linejoin="round"/>
<path d="M317.595 369.627C313.061 374.558 307.522 378.46 301.352 381.07C292.833 384.723 287.272 385.716 284.7 385.992C284.358 387.007 284.789 387.735 286.499 387.823C290.163 388.011 297.688 385.892 304.629 383.001C311.57 380.11 318.312 372.595 318.312 371.437C318.184 370.795 317.941 370.182 317.595 369.627Z" fill="white" stroke="#263238" stroke-linecap="round" stroke-linejoin="round"/>
<path d="M245.924 224.95L240.87 241.38C240.87 241.38 222.287 281.404 218.535 291.942C214.783 302.48 223.589 321.019 224.439 332.771C225.289 344.523 224.858 360.578 224.858 360.578C224.391 360.929 224.001 361.371 223.71 361.877C223.42 362.384 223.236 362.944 223.17 363.525V369.042L245.074 374.096C245.074 374.096 245.924 363.569 245.074 358.095C244.224 352.622 243.397 318.481 243.397 313.427C243.397 308.373 241.708 298.265 241.708 298.265L257.72 277.199C257.72 277.199 253.085 302.05 254.774 306.684C256.462 311.319 271.204 329.019 274.989 332.384C278.774 335.75 298.162 361.88 298.162 361.88C298.162 361.88 295.216 364.407 295.216 366.515C295.338 368.502 295.618 370.476 296.055 372.419L315.862 366.901C315.862 366.901 313.335 358.901 309.12 348.363C304.905 337.825 281.312 300.759 281.312 300.759C281.312 300.759 300.27 253.563 300.27 243.036C300.27 232.508 300.689 224.917 300.689 224.917C300.689 224.917 267.828 233.8 245.924 224.95Z" fill="#263238" stroke="#263238" stroke-linecap="round" stroke-linejoin="round"/>
<path d="M257.721 277.2L262.774 252.338L256.032 243.488" stroke="white" stroke-linecap="round" stroke-linejoin="round"/>
<path d="M225.874 219.157C225.446 219.244 225.002 219.166 224.63 218.938C224.258 218.71 223.986 218.349 223.87 217.929C223.754 217.509 223.801 217.06 224.003 216.673C224.205 216.286 224.546 215.991 224.958 215.846L268.755 199.294C268.966 199.214 269.192 199.177 269.417 199.184C269.643 199.192 269.866 199.243 270.072 199.337C270.278 199.43 270.463 199.563 270.618 199.728C270.772 199.893 270.893 200.086 270.973 200.298C271.052 200.51 271.09 200.735 271.082 200.961C271.075 201.187 271.023 201.409 270.93 201.615C270.837 201.821 270.704 202.007 270.539 202.161C270.374 202.316 270.18 202.436 269.969 202.516L226.183 219.068C226.082 219.107 225.979 219.136 225.874 219.157Z" fill="#263238" stroke="#263238" stroke-linecap="round" stroke-linejoin="round"/>
<path d="M227.717 197.484C227.717 197.484 232.418 198.897 245.03 191.779L248.495 205.407C248.495 205.407 239.546 209.269 226.315 207.449L227.717 197.484Z" fill="white"/>
<path opacity="0.15" d="M227.717 197.484C227.717 197.484 232.418 198.897 245.03 191.779L248.495 205.407C248.495 205.407 239.546 209.269 226.315 207.449L227.717 197.484Z" fill="black"/>
<path d="M227.717 197.484C227.717 197.484 232.418 198.897 245.03 191.779L248.495 205.407C248.495 205.407 239.546 209.269 226.315 207.449L227.717 197.484Z" stroke="#263238" stroke-linecap="round" stroke-linejoin="round"/>
<path d="M227.143 216.155C226.519 216.152 225.913 215.945 225.418 215.564C224.924 215.183 224.568 214.65 224.406 214.047L217.664 188.667C217.568 188.305 217.545 187.928 217.595 187.556C217.645 187.185 217.768 186.827 217.957 186.503C218.145 186.18 218.396 185.896 218.694 185.669C218.992 185.442 219.332 185.276 219.694 185.18C220.057 185.085 220.434 185.061 220.805 185.112C221.177 185.162 221.534 185.285 221.858 185.473C222.182 185.662 222.466 185.912 222.693 186.211C222.92 186.509 223.086 186.849 223.181 187.211L229.924 212.591C230.02 212.95 230.045 213.325 229.996 213.694C229.947 214.063 229.826 214.419 229.639 214.741C229.453 215.063 229.204 215.345 228.909 215.57C228.613 215.796 228.275 215.961 227.915 216.056C227.664 216.125 227.404 216.159 227.143 216.155Z" fill="#7E57C2" stroke="#263238" stroke-miterlimit="10"/>
<path d="M229.747 192.265C226.525 190.874 224.119 200.728 228.246 203.631C230.453 205.175 231.844 202.24 232.053 200.32C232.263 198.4 232.197 195.068 231.104 193.49C230.771 192.966 230.302 192.543 229.747 192.265Z" fill="white" stroke="#263238" stroke-linecap="round" stroke-linejoin="round"/>
<path d="M228.698 206.963C228.698 206.963 223.92 206.786 222.077 208.387C220.235 209.987 221.603 211.896 222.695 211.697C223.788 211.498 228.864 211.024 229.868 209.976C230.872 208.927 230.883 208.342 228.698 206.963Z" fill="white" stroke="#263238" stroke-linecap="round" stroke-linejoin="round"/>
<path d="M227.408 202.571C227.408 202.571 221.89 202.262 219.761 204.171C217.631 206.08 219.275 208.464 220.544 208.287C221.813 208.111 227.706 207.581 228.853 206.312C230.001 205.043 230.012 204.293 227.408 202.571Z" fill="white" stroke="#263238" stroke-linecap="round" stroke-linejoin="round"/>
<path d="M226.9 198.08C226.9 198.08 220.169 196.844 217.322 198.853C214.475 200.861 216.064 204.006 217.642 203.995C219.22 203.984 226.47 204.237 228.07 202.891C229.67 201.545 229.758 200.585 226.9 198.08Z" fill="white" stroke="#263238" stroke-linecap="round" stroke-linejoin="round"/>
<path d="M226.537 192.728C226.537 192.728 219.816 191.492 216.958 193.501C214.1 195.509 215.711 198.643 217.289 198.632C218.867 198.621 226.117 198.875 227.717 197.528C229.317 196.182 229.395 195.277 226.537 192.728Z" fill="white" stroke="#263238" stroke-linecap="round" stroke-linejoin="round"/>
<path d="M244.125 144.627C244.125 144.627 235.871 159.789 237.438 172.501C239.005 185.213 244.125 197.881 245.46 203.487C246.796 209.093 242.558 222.246 243.452 226.219C244.346 230.191 263.072 232.244 279.128 232.917C295.183 233.59 302.301 229.342 303.205 224.884C304.11 220.425 304.541 221.099 303.868 212.845C303.194 204.591 295.845 160.904 291.387 152.429C286.929 143.954 265.753 136.605 262.178 135.689C258.603 134.773 248.771 136.164 244.125 144.627Z" fill="white"/>
<path opacity="0.15" d="M284.259 155.143L275.796 168.385C275.796 168.385 275.067 174.642 278.378 179.42C280.313 182.243 282.402 184.958 284.635 187.553L268.436 179.089C268.436 179.089 279.117 195.641 282.052 198.952C284.988 202.262 289.413 207.779 284.999 214.047C280.728 220.094 261.318 227.874 259.376 231.372C265.456 232.144 272.518 232.652 279.128 232.928C295.173 233.59 302.301 229.352 303.206 224.894C304.111 220.436 304.541 221.109 303.868 212.855C303.239 205.131 296.751 166.333 292.271 154.47C288.927 153.665 286.058 153.698 284.259 155.143Z" fill="black"/>
<path d="M244.125 144.627C244.125 144.627 235.871 159.789 237.438 172.501C239.005 185.213 244.125 197.881 245.46 203.487C246.796 209.093 242.558 222.246 243.452 226.219C244.346 230.191 263.072 232.244 279.128 232.917C295.183 233.59 302.301 229.342 303.205 224.884C304.11 220.425 304.541 221.099 303.868 212.845C303.194 204.591 295.845 160.904 291.387 152.429C286.929 143.954 265.753 136.605 262.178 135.689C258.603 134.773 248.771 136.164 244.125 144.627Z" stroke="#263238" stroke-linecap="round" stroke-linejoin="round"/>
<path d="M261.517 131.033L245.461 151.315L253.991 163.354L268.148 136.804L261.517 131.033Z" fill="white" stroke="#263238" stroke-linecap="round" stroke-linejoin="round"/>
<path d="M239.071 149.968L238.895 159.116L246.211 154.724L239.071 149.968Z" fill="white" stroke="#263238" stroke-linecap="round" stroke-linejoin="round"/>
<path d="M241.642 142.465L239.071 149.968L249.135 158.929L241.642 142.465Z" fill="white" stroke="#263238" stroke-linecap="round" stroke-linejoin="round"/>
<path d="M237.56 132.048C237.56 132.048 245.725 154.46 248.065 153.753C250.404 153.047 259.739 137.201 260.203 134.144C260.666 131.088 257.4 123.871 257.4 123.871C252.959 124.948 248.652 126.513 244.556 128.539C237.317 132.048 237.56 132.048 237.56 132.048Z" fill="white"/>
<path d="M244.556 128.539L244.247 128.693C244.056 129.33 243.773 129.936 243.408 130.492C241.29 133.659 239.491 134.652 238.652 134.961C238.719 135.138 238.785 135.314 238.862 135.502L255.039 144.517C257.643 140.181 259.972 135.689 260.203 134.178C260.667 131.143 257.4 123.904 257.4 123.904C252.961 124.97 248.653 126.525 244.556 128.539Z" fill="#7E57C2"/>
<path opacity="0.5" d="M244.556 128.539L244.247 128.693C244.056 129.33 243.773 129.936 243.408 130.492C241.29 133.659 239.491 134.652 238.652 134.961C238.719 135.138 238.785 135.314 238.862 135.502L255.039 144.517C257.643 140.181 259.972 135.689 260.203 134.178C260.667 131.143 257.4 123.904 257.4 123.904C252.961 124.97 248.653 126.525 244.556 128.539Z" fill="white"/>
<path d="M237.56 132.048C237.56 132.048 245.725 154.46 248.065 153.753C250.404 153.047 259.739 137.201 260.203 134.144C260.666 131.088 257.4 123.871 257.4 123.871C252.959 124.948 248.652 126.513 244.556 128.539C237.317 132.048 237.56 132.048 237.56 132.048Z" stroke="#263238" stroke-linecap="round" stroke-linejoin="round"/>
<path d="M237.438 172.501C237.438 172.501 242.117 178.968 265.522 178.736L269.759 184.982C269.759 184.982 251.254 188.998 238.553 178.294L237.438 172.501Z" fill="#263238" stroke="#263238" stroke-linecap="round" stroke-linejoin="round"/>
<path d="M273.324 139.949C273.324 139.949 265.975 141.284 262.411 155.552C258.846 169.82 267.31 188.546 280.684 193.677C294.059 198.808 300.977 189.66 300.977 189.66L298.969 184.761C298.969 184.761 294.29 193.898 282.693 188.998C271.095 184.099 266.637 172.104 267.531 160.231C268.425 148.357 279.128 142.851 279.128 142.851L273.324 139.949Z" fill="#263238" stroke="#263238" stroke-linecap="round" stroke-linejoin="round"/>
<path d="M250.978 228.525C250.497 228.541 250.028 228.372 249.668 228.053C249.307 227.734 249.082 227.29 249.038 226.811C248.994 226.331 249.135 225.853 249.432 225.475C249.729 225.096 250.16 224.845 250.636 224.773L332.018 196.149C332.512 196.055 333.024 196.162 333.44 196.446C333.856 196.729 334.142 197.166 334.236 197.661C334.329 198.155 334.222 198.667 333.939 199.083C333.655 199.499 333.218 199.785 332.724 199.879L251.331 228.503C251.214 228.521 251.096 228.529 250.978 228.525Z" fill="#263238" stroke="#263238" stroke-linecap="round" stroke-linejoin="round"/>
<path d="M253.781 225.27C253.085 225.27 252.409 225.041 251.856 224.618C251.304 224.195 250.906 223.602 250.724 222.931L243.254 194.648C243.121 194.239 243.073 193.807 243.113 193.379C243.153 192.95 243.28 192.535 243.486 192.157C243.692 191.779 243.973 191.447 244.311 191.182C244.65 190.916 245.039 190.722 245.454 190.612C245.87 190.501 246.304 190.477 246.73 190.54C247.155 190.603 247.564 190.752 247.93 190.978C248.296 191.204 248.612 191.502 248.859 191.854C249.106 192.206 249.279 192.605 249.367 193.026L256.893 221.297C257.109 222.104 256.999 222.963 256.586 223.688C256.173 224.413 255.49 224.946 254.686 225.171C254.39 225.243 254.085 225.276 253.781 225.27Z" fill="#7E57C2" stroke="#263238" stroke-miterlimit="10"/>
<path d="M269.736 209.722C269.736 209.722 259.926 202.152 257.035 200.144C254.144 198.135 247.446 200.806 245.217 200.806C242.988 200.806 240.086 203.013 240.538 204.602C240.977 205.7 241.749 206.634 242.745 207.272C242.745 207.272 241.178 209.953 242.514 211.962C243.254 212.923 243.719 214.067 243.86 215.272C244.405 216.626 245.241 217.843 246.31 218.836C247.645 219.73 250.547 220.172 254.111 220.172C257.675 220.172 263.921 217.722 263.921 217.722L270.167 217.501L269.736 209.722Z" fill="white"/>
<path d="M263.966 217.755L270.212 217.534L270.123 216L269.174 211.454C269.174 211.454 258.504 204.833 254.079 205.197C249.654 205.561 247.094 205.528 246.719 212.193C246.62 213.61 246.823 215.031 247.316 216.363C247.809 217.695 248.58 218.907 249.577 219.918C251.093 220.133 252.624 220.237 254.156 220.227C257.72 220.205 263.966 217.755 263.966 217.755Z" fill="#7E57C2"/>
<path opacity="0.5" d="M263.966 217.755L270.212 217.534L270.123 216L269.174 211.454C269.174 211.454 258.504 204.833 254.079 205.197C249.654 205.561 247.094 205.528 246.719 212.193C246.62 213.61 246.823 215.031 247.316 216.363C247.809 217.695 248.58 218.907 249.577 219.918C251.093 220.133 252.624 220.237 254.156 220.227C257.72 220.205 263.966 217.755 263.966 217.755Z" fill="white"/>
<path d="M269.736 209.722C269.736 209.722 259.926 202.152 257.035 200.144C254.144 198.135 247.446 200.806 245.217 200.806C242.988 200.806 240.086 203.013 240.538 204.602C240.977 205.7 241.749 206.634 242.745 207.272C242.745 207.272 241.178 209.953 242.514 211.962C243.254 212.923 243.719 214.067 243.86 215.272C244.405 216.626 245.241 217.843 246.31 218.836C247.645 219.73 250.547 220.172 254.111 220.172C257.675 220.172 263.921 217.722 263.921 217.722L270.167 217.501L269.736 209.722Z" stroke="#263238" stroke-linecap="round" stroke-linejoin="round"/>
<path d="M276.225 147.088C276.225 147.088 268.203 154.437 271.326 164.247C274.449 174.057 287.393 183.194 290.703 187.652C293.138 190.766 295.825 193.674 298.736 196.348C298.736 196.348 288.695 201.258 281.566 204.381C277.521 206.158 273.349 207.634 269.086 208.795L269.307 217.258C269.307 217.258 293.826 218.362 305.192 213.948C316.558 209.534 324.812 203.917 324.812 197.23C324.812 190.543 310.566 178.074 302.974 166.035C295.382 153.996 289.82 147.75 282.25 146.636" fill="white"/>
<path opacity="0.15" d="M305.203 213.959C316.58 209.545 324.823 203.928 324.823 197.241C324.823 190.554 310.566 178.074 302.974 166.035C297.534 157.384 293.12 151.745 288.254 148.832C290.373 150.95 296.839 157.715 297.148 161.4C297.512 165.814 279.117 163.982 282.428 166.189C285.738 168.396 300.823 173.549 307.454 179.431C314.086 185.313 322.539 190.466 318.864 194.88C315.19 199.294 297.898 204.811 285.374 212.911C283.543 213.972 282.021 215.494 280.96 217.325C288.839 217.17 298.991 216.398 305.203 213.959Z" fill="black"/>
<path d="M276.225 147.088C276.225 147.088 268.203 154.437 271.326 164.247C274.449 174.057 287.393 183.194 290.703 187.652C293.138 190.766 295.825 193.674 298.736 196.348C298.736 196.348 288.695 201.258 281.566 204.381C277.521 206.158 273.349 207.634 269.086 208.795L269.307 217.258C269.307 217.258 293.826 218.362 305.192 213.948C316.558 209.534 324.812 203.917 324.812 197.23C324.812 190.543 310.566 178.074 302.974 166.035C295.382 153.996 289.82 147.75 282.25 146.636" stroke="#263238" stroke-linecap="round" stroke-linejoin="round"/>
<path d="M273.776 207.493L274.67 217.303" stroke="#263238" stroke-linecap="round" stroke-linejoin="round"/>
<path d="M298.748 196.381C298.748 196.381 306.77 191.029 311.902 189.694" stroke="#263238" stroke-linecap="round" stroke-linejoin="round"/>
<path d="M235.077 96.3833C234.199 98.5482 233.436 100.758 232.793 103.004C232.252 105.277 229.372 109.393 227.684 110.442C225.995 111.49 222.056 112.957 223.788 114.855C225.328 116.253 227.083 117.393 228.986 118.232C228.986 118.232 227.628 126.067 228.489 130.58C229.35 135.093 232.528 135.855 235.408 135.811C238.288 135.766 249.157 134.475 252.832 130.061C256.507 125.647 262.421 111.688 259.519 102.618C256.617 93.5473 240.219 87.7651 235.077 96.3833Z" fill="white"/>
<path d="M241.94 112.086C243.408 117.978 246.354 126.067 243.408 130.492C240.461 134.917 238.122 135.104 238.122 135.104L238.85 135.502C243.264 134.917 250.073 133.361 252.831 130.051C256.506 125.637 262.421 111.678 259.519 102.607C259.071 101.265 258.383 100.016 257.488 98.9214L245.251 101.415C245.251 101.415 240.461 106.193 241.94 112.086Z" fill="#7E57C2"/>
<path opacity="0.5" d="M241.94 112.086C243.408 117.978 246.354 126.067 243.408 130.492C240.461 134.917 238.122 135.104 238.122 135.104L238.85 135.502C243.264 134.917 250.073 133.361 252.831 130.051C256.506 125.637 262.421 111.678 259.519 102.607C259.071 101.265 258.383 100.016 257.488 98.9214L245.251 101.415C245.251 101.415 240.461 106.193 241.94 112.086Z" fill="white"/>
<path d="M235.077 96.3833C234.199 98.5482 233.436 100.758 232.793 103.004C232.252 105.277 229.372 109.393 227.684 110.442C225.995 111.49 222.056 112.957 223.788 114.855C225.328 116.253 227.083 117.393 228.986 118.232C228.986 118.232 227.628 126.067 228.489 130.58C229.35 135.093 232.528 135.855 235.408 135.811C238.288 135.766 249.157 134.475 252.832 130.061C256.506 125.647 262.421 111.688 259.519 102.618C256.617 93.5473 240.219 87.7651 235.077 96.3833Z" stroke="#263238" stroke-linecap="round" stroke-linejoin="round"/>
<path d="M249.875 128.461C249.875 128.461 243.254 134.155 238.178 135.082C238.178 135.082 247.006 136.34 256.198 128.759L249.875 128.461Z" fill="#263238" stroke="#263238" stroke-linecap="round" stroke-linejoin="round"/>
<path d="M236.146 104.075C236.146 104.075 238.563 99.7601 241.211 105.266" stroke="#263238" stroke-linecap="round" stroke-linejoin="round"/>
<path d="M231.181 121.134C231.181 121.134 235.517 123.11 238.982 120.572" stroke="#263238" stroke-linecap="round" stroke-linejoin="round"/>
<path d="M237.031 108.477C236.777 109.581 236.225 110.331 235.784 110.221C235.342 110.11 235.188 109.173 235.442 108.102C235.695 107.032 236.247 106.259 236.689 106.359C237.13 106.458 237.284 107.407 237.031 108.477Z" fill="#263238"/>
<path d="M230.542 99.5173C230.542 99.5173 248.562 104.461 248.948 107.915C249.334 111.369 246.156 118.652 247.845 125.99C249.533 133.328 259.53 135.458 267.873 132.611C276.215 129.764 282.218 114.403 281.114 101.713C280.011 89.0232 267.089 81.6189 256.981 79.7098C246.873 77.8008 231.524 85.1169 230.542 99.5173Z" fill="#7E57C2"/>
<path opacity="0.29" d="M264.761 90.0051C263.071 89.7101 261.357 89.5734 259.641 89.5968C260.333 90.2937 260.728 91.2307 260.745 92.2121C260.745 93.3827 260.28 94.5054 259.452 95.3332C258.624 96.161 257.501 96.626 256.331 96.626C255.16 96.626 254.038 96.161 253.21 95.3332C252.382 94.5054 251.917 93.3827 251.917 92.2121C251.916 91.9332 251.949 91.6552 252.016 91.3845C247.492 93.6576 244.292 97.8509 240.981 102.916C245.064 104.494 248.827 106.359 249.004 107.915C249.401 111.369 246.212 118.652 247.9 125.99C249.589 133.328 259.586 135.458 267.928 132.611C275.807 129.929 281.601 116.058 281.303 103.799C279.78 100.477 275.134 91.7817 264.761 90.0051Z" fill="black"/>
<path d="M230.542 99.5173C230.542 99.5173 248.562 104.461 248.948 107.915C249.334 111.369 246.156 118.652 247.845 125.99C249.533 133.328 259.53 135.458 267.873 132.611C276.215 129.764 282.218 114.403 281.114 101.713C280.011 89.0232 267.089 81.6189 256.981 79.7098C246.873 77.8008 231.524 85.1169 230.542 99.5173Z" stroke="#263238" stroke-linecap="round" stroke-linejoin="round"/>
<path d="M252.876 126.508C248.463 119.457 254.19 108.853 251.552 105.807C249.345 103.302 235.883 98.469 230.917 96.7476C230.734 97.6619 230.608 98.587 230.542 99.5173C230.542 99.5173 248.562 104.461 248.948 107.915C249.334 111.369 246.156 118.652 247.845 125.99C249.533 133.328 259.53 135.458 267.873 132.611H267.983C262.068 132.897 255.768 131.132 252.876 126.508Z" fill="#263238" stroke="#263238" stroke-linecap="round" stroke-linejoin="round"/>
</g>
<defs>
<clipPath id="clip0_21_1722">
<rect width="440" height="352" fill="white" transform="translate(40 42)"/>
</clipPath>
</defs>
</svg>
