<svg width="520" height="435" viewBox="0 0 520 435" fill="none" xmlns="http://www.w3.org/2000/svg">
<path d="M450.732 174.218C442.444 142.454 428.655 112.846 414.234 92.5295C379.507 43.7132 298.906 22.268 243.221 42.6772C195.772 60.1027 179.155 112.794 137.715 137.989C99.5796 161.196 64.9772 180.123 51.6335 224.371C23.4647 317.849 134.876 392.369 218.129 368.655C244.402 361.175 266.614 345.427 294.638 345.334C351.494 345.137 371.519 352.939 417.518 322.221C462.843 292.001 465.236 229.831 450.732 174.218Z" fill="#7E57C2"/>
<path opacity="0.8" d="M450.732 174.218C442.444 142.454 428.655 112.846 414.234 92.5295C379.507 43.7132 298.906 22.268 243.221 42.6772C195.772 60.1027 179.155 112.794 137.715 137.989C99.5796 161.196 64.9772 180.123 51.6335 224.371C23.4647 317.849 134.876 392.369 218.129 368.655C244.402 361.175 266.614 345.427 294.638 345.334C351.494 345.137 371.519 352.939 417.518 322.221C462.843 292.001 465.236 229.831 450.732 174.218Z" fill="white"/>
<path d="M340.263 163.672C335.943 161.32 333.985 163.288 332.41 161.32C330.836 159.352 336.731 154.244 324.941 149.137C324.941 149.137 324.154 138.134 308.044 137.741C291.934 137.347 296.264 148.743 291.944 151.499C287.624 154.255 286.443 149.924 282.113 152.68C277.782 155.436 279.761 160.968 276.218 161.714C272.675 162.46 267.93 158.181 263.651 160.926C259.372 163.672 259.331 166.034 257.363 166.034C255.394 166.034 251.468 164.459 249.075 166.034C246.681 167.609 243.957 169.567 243.957 169.567H343.413C343.413 169.567 344.594 166.034 340.263 163.672Z" fill="#7E57C2"/>
<path d="M309.214 104.444C303.102 101.108 300.336 103.884 298.109 101.108C295.881 98.3312 304.221 91.1206 287.562 83.9101C287.562 83.9101 286.454 68.3701 263.734 67.8106C241.015 67.2512 247.086 83.3506 240.942 87.2356C234.799 91.1206 233.172 85.0186 227.07 88.9036C220.968 92.7886 223.745 100.559 218.782 101.667C213.82 102.776 207.127 96.6736 201.025 100.559C194.923 104.444 194.923 107.811 192.146 107.811C189.37 107.811 183.859 105.594 180.492 107.811C177.125 110.028 173.24 112.804 173.24 112.804H313.649C313.649 112.804 315.317 107.769 309.214 104.444Z" fill="#7E57C2"/>
<path opacity="0.4" d="M340.263 163.672C335.943 161.32 333.985 163.288 332.41 161.32C330.836 159.352 336.731 154.244 324.941 149.137C324.941 149.137 324.154 138.134 308.044 137.741C291.934 137.347 296.264 148.743 291.944 151.499C287.624 154.255 286.443 149.924 282.113 152.68C277.782 155.436 279.761 160.968 276.218 161.714C272.675 162.46 267.93 158.181 263.651 160.926C259.372 163.672 259.331 166.034 257.363 166.034C255.394 166.034 251.468 164.459 249.075 166.034C246.681 167.609 243.957 169.567 243.957 169.567H343.413C343.413 169.567 344.594 166.034 340.263 163.672Z" fill="white"/>
<path opacity="0.4" d="M309.214 104.444C303.102 101.108 300.336 103.884 298.109 101.108C295.881 98.3312 304.221 91.1206 287.562 83.9101C287.562 83.9101 286.454 68.3701 263.734 67.8106C241.015 67.2512 247.086 83.3506 240.942 87.2356C234.799 91.1206 233.172 85.0186 227.07 88.9036C220.968 92.7886 223.745 100.559 218.782 101.667C213.82 102.776 207.127 96.6736 201.025 100.559C194.923 104.444 194.923 107.811 192.146 107.811C189.37 107.811 183.859 105.594 180.492 107.811C177.125 110.028 173.24 112.804 173.24 112.804H313.649C313.649 112.804 315.317 107.769 309.214 104.444Z" fill="white"/>
<path d="M389.276 346.536H442.237C441.201 340.061 437.057 341.201 436.508 331.162C436.238 326.106 440.911 319.849 440.507 313.208C440.175 307.738 434.778 302.123 434.363 295.865C433.98 290.219 438.59 283.951 438.145 277.87C437.72 272.11 432.25 266.588 431.763 260.61C431.276 254.632 435.803 248.447 435.275 242.553C434.747 236.658 429.173 231.229 428.582 225.417C427.981 219.439 432.343 212.985 431.69 207.277C430.986 201.206 425.257 195.964 424.438 190.369C423.568 184.153 427.629 177.481 426.676 172.105C425.516 165.516 419.424 160.709 418.098 155.881C415.684 146.826 416.026 138.093 413.146 137.533C410.121 136.922 409.427 145.479 407.127 155.042C405.977 159.849 399.978 164.718 398.994 171.317C398.196 176.653 402.434 183.148 401.74 189.354C401.118 194.907 395.524 200.242 394.985 206.282C394.477 211.97 399.015 218.227 398.569 224.174C398.134 229.945 392.716 235.446 392.353 241.309C391.991 247.173 396.653 253.296 396.342 259.098C396.031 264.899 390.696 270.639 390.416 276.347C390.126 282.387 394.892 288.479 394.664 294.083C394.405 300.299 389.163 305.977 388.966 311.405C388.727 317.994 393.566 324.065 393.42 329.079C393.099 339.968 388.116 337.72 387.93 346.474L389.276 346.536Z" fill="#7E57C2"/>
<path opacity="0.4" d="M389.276 346.536H442.237C441.201 340.061 437.057 341.201 436.508 331.162C436.238 326.106 440.911 319.849 440.507 313.208C440.175 307.738 434.778 302.123 434.363 295.865C433.98 290.219 438.59 283.951 438.145 277.87C437.72 272.11 432.25 266.588 431.763 260.61C431.276 254.632 435.803 248.447 435.275 242.553C434.747 236.658 429.173 231.229 428.582 225.417C427.981 219.439 432.343 212.985 431.69 207.277C430.986 201.206 425.257 195.964 424.438 190.369C423.568 184.153 427.629 177.481 426.676 172.105C425.516 165.516 419.424 160.709 418.098 155.881C415.684 146.826 416.026 138.093 413.146 137.533C410.121 136.922 409.427 145.479 407.127 155.042C405.977 159.849 399.978 164.718 398.994 171.317C398.196 176.653 402.434 183.148 401.74 189.354C401.118 194.907 395.524 200.242 394.985 206.282C394.477 211.97 399.015 218.227 398.569 224.174C398.134 229.945 392.716 235.446 392.353 241.309C391.991 247.173 396.653 253.296 396.342 259.098C396.031 264.899 390.696 270.639 390.416 276.347C390.126 282.387 394.892 288.479 394.664 294.083C394.405 300.299 389.163 305.977 388.966 311.405C388.727 317.994 393.566 324.065 393.42 329.079C393.099 339.968 388.116 337.72 387.93 346.474L389.276 346.536Z" fill="white"/>
<path d="M412.017 154.928V344.081" stroke="#263238" stroke-miterlimit="10"/>
<path d="M420.284 174.757L411.665 182.206L404.609 172.799" stroke="#263238" stroke-miterlimit="10"/>
<path d="M420.284 207.681L411.665 215.13L404.609 205.723" stroke="#263238" stroke-miterlimit="10"/>
<path d="M420.284 238.647L411.665 246.096L404.609 236.678" stroke="#263238" stroke-miterlimit="10"/>
<path d="M420.284 275.487L411.665 282.936L404.609 273.529" stroke="#263238" stroke-miterlimit="10"/>
<path d="M420.284 312.721L411.665 320.17L404.609 310.763" stroke="#263238" stroke-miterlimit="10"/>
<path d="M353.203 346.536H394.083C393.296 341.532 390.084 342.392 389.66 334.663C389.442 330.768 393.058 325.93 392.768 320.812C392.509 316.585 388.344 312.255 388.023 307.427C387.733 303.065 391.286 298.227 390.934 293.534C390.613 289.09 386.396 284.821 386.023 280.211C385.65 275.601 389.131 270.815 388.727 266.267C388.323 261.719 384.013 257.533 383.547 253.037C383.081 248.541 386.448 243.454 385.94 239.04C385.391 234.358 380.968 230.307 380.367 225.987C379.693 221.18 382.831 216.041 382.096 211.887C381.195 206.8 376.461 203.122 375.466 199.372C373.612 192.379 373.84 185.635 371.654 185.2C369.313 184.733 368.784 191.333 367.002 198.719C366.111 202.428 361.491 206.189 360.724 211.276C360.113 215.42 363.387 220.413 362.848 225.2C362.361 229.489 358.051 233.612 357.668 238.274C357.274 242.656 360.776 247.494 360.424 252.084C360.071 256.673 355.907 260.786 355.617 265.313C355.327 269.841 358.942 274.637 358.725 279.051C358.507 283.464 354.363 287.96 354.156 292.363C353.928 297.025 357.606 301.687 357.43 306.049C357.233 310.846 353.182 315.238 353.027 319.424C352.851 324.51 356.58 329.204 356.466 333.068C356.218 341.48 352.374 339.74 352.229 346.536H353.203Z" fill="#7E57C2"/>
<path opacity="0.4" d="M353.203 346.536H394.083C393.296 341.532 390.084 342.392 389.66 334.663C389.442 330.768 393.058 325.93 392.768 320.812C392.509 316.585 388.344 312.255 388.023 307.427C387.733 303.065 391.286 298.227 390.934 293.534C390.613 289.09 386.396 284.821 386.023 280.211C385.65 275.601 389.131 270.815 388.727 266.267C388.323 261.719 384.013 257.533 383.547 253.037C383.081 248.541 386.448 243.454 385.94 239.04C385.391 234.358 380.968 230.307 380.367 225.987C379.693 221.18 382.831 216.041 382.096 211.887C381.195 206.8 376.461 203.122 375.466 199.372C373.612 192.379 373.84 185.635 371.654 185.2C369.313 184.733 368.784 191.333 367.002 198.719C366.111 202.428 361.491 206.189 360.724 211.276C360.113 215.42 363.387 220.413 362.848 225.2C362.361 229.489 358.051 233.612 357.668 238.274C357.274 242.656 360.776 247.494 360.424 252.084C360.071 256.673 355.907 260.786 355.617 265.313C355.327 269.841 358.942 274.637 358.725 279.051C358.507 283.464 354.363 287.96 354.156 292.363C353.928 297.025 357.606 301.687 357.43 306.049C357.233 310.846 353.182 315.238 353.027 319.424C352.851 324.51 356.58 329.204 356.466 333.068C356.218 341.48 352.374 339.74 352.229 346.536H353.203Z" fill="white"/>
<path d="M370.753 198.626V344.64" stroke="#263238" stroke-miterlimit="10"/>
<path d="M377.135 213.938L370.484 219.688L365.034 212.426" stroke="#263238" stroke-miterlimit="10"/>
<path d="M377.135 239.351L370.484 245.101L365.034 237.839" stroke="#263238" stroke-miterlimit="10"/>
<path d="M377.135 263.252L370.484 269.002L365.034 261.739" stroke="#263238" stroke-miterlimit="10"/>
<path d="M377.135 291.69L370.484 297.44L365.034 290.177" stroke="#263238" stroke-miterlimit="10"/>
<path d="M377.135 320.429L370.484 326.179L365.034 318.916" stroke="#263238" stroke-miterlimit="10"/>
<path d="M102.315 325.422H143.196C142.419 320.429 139.207 321.278 138.782 313.56C138.565 309.654 142.17 304.827 141.89 299.698C141.631 295.472 137.477 291.141 137.145 286.313C136.855 281.952 140.409 277.114 140.067 272.421C139.735 267.976 135.519 263.718 135.146 259.098C134.773 254.477 138.254 249.711 137.85 245.153C137.446 240.595 133.146 236.42 132.67 231.934C132.193 227.448 135.571 222.351 135.053 217.927C134.504 213.244 130.08 209.193 129.479 204.873C128.816 200.066 131.945 194.928 131.219 190.784C130.318 185.697 125.584 182.009 124.589 178.259C122.735 171.266 122.963 164.532 120.766 164.086C118.57 163.641 117.886 170.23 116.104 177.668C115.213 181.377 110.582 185.127 109.826 190.224C109.204 194.368 112.478 199.351 111.898 204.148C111.422 208.437 107.112 212.56 106.718 217.222C106.324 221.605 109.826 226.443 109.484 231.022C109.142 235.601 104.967 239.724 104.677 244.252C104.387 248.779 107.992 253.524 107.785 257.989C107.578 262.454 103.424 266.899 103.216 271.312C102.999 275.964 106.677 280.636 106.49 284.998C106.293 289.784 102.243 294.177 102.098 298.362C101.911 303.449 105.651 308.142 105.537 312.016C105.288 320.418 101.393 318.678 101.3 325.484L102.315 325.422Z" fill="#7E57C2"/>
<path opacity="0.4" d="M102.315 325.422H143.196C142.419 320.429 139.207 321.278 138.782 313.56C138.565 309.654 142.17 304.827 141.89 299.698C141.631 295.472 137.477 291.141 137.145 286.313C136.855 281.952 140.409 277.114 140.067 272.421C139.735 267.976 135.519 263.718 135.146 259.098C134.773 254.477 138.254 249.711 137.85 245.153C137.446 240.595 133.146 236.42 132.67 231.934C132.193 227.448 135.571 222.351 135.053 217.927C134.504 213.244 130.08 209.193 129.479 204.873C128.816 200.066 131.945 194.928 131.219 190.784C130.318 185.697 125.584 182.009 124.589 178.259C122.735 171.266 122.963 164.532 120.766 164.086C118.57 163.641 117.886 170.23 116.104 177.668C115.213 181.377 110.582 185.127 109.826 190.224C109.204 194.368 112.478 199.351 111.898 204.148C111.422 208.437 107.112 212.56 106.718 217.222C106.324 221.605 109.826 226.443 109.484 231.022C109.142 235.601 104.967 239.724 104.677 244.252C104.387 248.779 107.992 253.524 107.785 257.989C107.578 262.454 103.424 266.899 103.216 271.312C102.999 275.964 106.677 280.636 106.49 284.998C106.293 289.784 102.243 294.177 102.098 298.362C101.911 303.449 105.651 308.142 105.537 312.016C105.288 320.418 101.393 318.678 101.3 325.484L102.315 325.422Z" fill="white"/>
<path d="M119.864 177.533V323.537" stroke="#263238" stroke-miterlimit="10"/>
<path d="M126.247 192.835L119.596 198.585L114.146 191.323" stroke="#263238" stroke-miterlimit="10"/>
<path d="M126.247 218.248L119.596 223.998L114.146 216.736" stroke="#263238" stroke-miterlimit="10"/>
<path d="M126.247 242.149L119.596 247.898L114.146 240.636" stroke="#263238" stroke-miterlimit="10"/>
<path d="M126.247 270.587L119.596 276.337L114.146 269.074" stroke="#263238" stroke-miterlimit="10"/>
<path d="M126.247 299.336L119.596 305.086L114.146 297.823" stroke="#263238" stroke-miterlimit="10"/>
<path d="M414.534 95.3578L377.238 91.3692V90.0639L414.855 85.6609L414.534 95.3578Z" fill="white" stroke="#263238" stroke-linecap="round" stroke-linejoin="round"/>
<path d="M379.331 87.8054H372.245V97.2537H379.331V87.8054Z" fill="white" stroke="#263238" stroke-linecap="round" stroke-linejoin="round"/>
<path d="M376.782 105.148L379.289 97.3677H372.286L374.793 105.148C374.856 105.363 374.987 105.552 375.166 105.687C375.346 105.821 375.564 105.894 375.788 105.894C376.012 105.894 376.23 105.821 376.409 105.687C376.589 105.552 376.72 105.363 376.782 105.148Z" fill="#263238" stroke="#263238" stroke-linecap="round" stroke-linejoin="round"/>
<path d="M389.971 87.1112C389.971 87.8053 383.578 88.3751 375.694 88.3751C367.81 88.3751 361.429 87.8053 361.429 87.1112C361.429 86.4171 367.821 85.8369 375.694 85.8369C383.568 85.8369 389.971 86.4067 389.971 87.1112Z" stroke="#263238" stroke-linecap="round" stroke-linejoin="round"/>
<path d="M409.043 95.3578L446.339 91.3692V90.0639L408.722 85.6609L409.043 95.3578Z" fill="white" stroke="#263238" stroke-linecap="round" stroke-linejoin="round"/>
<path d="M444.236 97.2538H451.323V87.8054H444.236V97.2538Z" fill="white" stroke="#263238" stroke-linecap="round" stroke-linejoin="round"/>
<path d="M446.795 105.148L444.278 97.3677H451.292L448.774 105.148C448.708 105.359 448.577 105.544 448.399 105.675C448.221 105.806 448.006 105.877 447.785 105.877C447.564 105.877 447.348 105.806 447.17 105.675C446.992 105.544 446.861 105.359 446.795 105.148Z" fill="#263238" stroke="#263238" stroke-linecap="round" stroke-linejoin="round"/>
<path d="M433.607 87.1112C433.607 87.8053 439.989 88.3751 447.873 88.3751C455.757 88.3751 462.149 87.8053 462.149 87.1112C462.149 86.4171 455.757 85.8369 447.873 85.8369C439.989 85.8369 433.607 86.4067 433.607 87.1112Z" stroke="#263238" stroke-linecap="round" stroke-linejoin="round"/>
<path d="M407.894 87.3496L370.276 95.7827V97.0777H407.572L407.894 87.3496Z" fill="white" stroke="#263238" stroke-linecap="round" stroke-linejoin="round"/>
<path d="M418.948 87.3496L456.565 95.7827V97.0777H419.269L418.948 87.3496Z" fill="white" stroke="#263238" stroke-linecap="round" stroke-linejoin="round"/>
<path d="M452.431 99.678H461.185V88.0022H452.431V99.678Z" fill="white" stroke="#263238" stroke-linecap="round" stroke-linejoin="round"/>
<path d="M455.819 110.152L452.473 99.792H461.144L457.798 110.152C457.732 110.363 457.601 110.548 457.423 110.679C457.245 110.81 457.029 110.881 456.808 110.881C456.587 110.881 456.372 110.81 456.194 110.679C456.016 110.548 455.885 110.363 455.819 110.152Z" fill="#263238" stroke="#263238" stroke-linecap="round" stroke-linejoin="round"/>
<path d="M456.917 89.6598C466.661 89.6598 474.56 88.9594 474.56 88.0954C474.56 87.2314 466.661 86.531 456.917 86.531C447.173 86.531 439.274 87.2314 439.274 88.0954C439.274 88.9594 447.173 89.6598 456.917 89.6598Z" stroke="#263238" stroke-linecap="round" stroke-linejoin="round"/>
<path d="M419.569 98.8181H407.572V85.5676C407.572 83.9758 408.204 82.449 409.329 81.3224C410.453 80.1959 411.979 79.5616 413.571 79.5588C415.163 79.5616 416.688 80.1959 417.813 81.3224C418.938 82.449 419.569 83.9758 419.569 85.5676V98.8181Z" fill="white" stroke="#263238" stroke-linecap="round" stroke-linejoin="round"/>
<path d="M407.593 85.0807H419.559C419.477 83.591 418.828 82.189 417.745 81.1623C416.663 80.1356 415.229 79.5619 413.737 79.5589H413.436C411.94 79.5541 410.499 80.1246 409.411 81.1523C408.324 82.1801 407.673 83.5865 407.593 85.0807Z" fill="white" stroke="#263238" stroke-linecap="round" stroke-linejoin="round"/>
<path d="M417.3 91.566C417.3 90.8612 417.091 90.1721 416.7 89.5861C416.308 89 415.751 88.5432 415.1 88.2735C414.449 88.0037 413.732 87.9332 413.041 88.0707C412.35 88.2082 411.715 88.5476 411.216 89.046C410.718 89.5444 410.379 90.1795 410.241 90.8708C410.104 91.5621 410.174 92.2787 410.444 92.9299C410.714 93.5811 411.17 94.1377 411.756 94.5293C412.343 94.9209 413.032 95.1299 413.736 95.1299C414.681 95.1272 415.586 94.7508 416.253 94.0831C416.921 93.4153 417.298 92.5104 417.3 91.566Z" fill="#263238" stroke="#263238" stroke-linecap="round" stroke-linejoin="round"/>
<path d="M371.292 87.9919H362.537V99.6677H371.292V87.9919Z" fill="white" stroke="#263238" stroke-linecap="round" stroke-linejoin="round"/>
<path d="M367.904 110.152L371.25 99.792H362.579L365.925 110.152C365.991 110.363 366.122 110.548 366.3 110.679C366.478 110.81 366.693 110.881 366.915 110.881C367.136 110.881 367.351 110.81 367.529 110.679C367.707 110.548 367.838 110.363 367.904 110.152Z" fill="#263238" stroke="#263238" stroke-linecap="round" stroke-linejoin="round"/>
<path d="M366.806 89.6598C376.55 89.6598 384.449 88.9594 384.449 88.0954C384.449 87.2314 376.55 86.531 366.806 86.531C357.062 86.531 349.163 87.2314 349.163 88.0954C349.163 88.9594 357.062 89.6598 366.806 89.6598Z" stroke="#263238" stroke-linecap="round" stroke-linejoin="round"/>
<path d="M302.708 126.935H293.954V135.731H302.708V126.935Z" fill="white" stroke="#263238" stroke-linecap="round" stroke-linejoin="round"/>
<path d="M298.222 127.629C307.966 127.629 315.866 126.929 315.866 126.065C315.866 125.201 307.966 124.5 298.222 124.5C288.478 124.5 280.579 125.201 280.579 126.065C280.579 126.929 288.478 127.629 298.222 127.629Z" stroke="#263238" stroke-linecap="round" stroke-linejoin="round"/>
<path d="M381.196 126.935H372.441V135.731H381.196V126.935Z" fill="white" stroke="#263238" stroke-linecap="round" stroke-linejoin="round"/>
<path d="M376.71 127.629C386.454 127.629 394.353 126.929 394.353 126.065C394.353 125.201 386.454 124.5 376.71 124.5C366.966 124.5 359.067 125.201 359.067 126.065C359.067 126.929 366.966 127.629 376.71 127.629Z" stroke="#263238" stroke-linecap="round" stroke-linejoin="round"/>
<path d="M325.708 168.955H319.947C319.632 168.957 319.32 168.896 319.028 168.776C318.737 168.656 318.472 168.48 318.249 168.258C318.025 168.036 317.848 167.771 317.727 167.48C317.606 167.189 317.544 166.877 317.544 166.562V138.953C317.544 138.315 317.797 137.704 318.248 137.253C318.699 136.802 319.31 136.549 319.947 136.549C320.585 136.549 321.196 136.802 321.647 137.253C322.098 137.704 322.351 138.315 322.351 138.953V164.2H324.34V141.118C324.34 139.792 324.34 138.714 325.677 138.714C326.314 138.714 326.925 138.968 327.376 139.418C327.827 139.869 328.08 140.48 328.08 141.118V166.562C328.08 167.193 327.831 167.799 327.386 168.247C326.942 168.695 326.339 168.95 325.708 168.955Z" fill="white" stroke="#263238" stroke-linecap="round" stroke-linejoin="round"/>
<path d="M352.312 168.955H358.072C358.387 168.957 358.699 168.896 358.99 168.776C359.281 168.656 359.545 168.48 359.768 168.257C359.99 168.035 360.166 167.77 360.286 167.479C360.406 167.188 360.467 166.877 360.465 166.562V138.953C360.425 138.344 360.155 137.773 359.71 137.356C359.265 136.939 358.677 136.707 358.067 136.707C357.457 136.707 356.87 136.939 356.424 137.356C355.979 137.773 355.709 138.344 355.669 138.953V164.2H353.348V141.118C353.348 139.792 353.7 138.714 352.374 138.714C351.737 138.714 351.125 138.968 350.675 139.418C350.224 139.869 349.971 140.48 349.971 141.118V166.562C349.971 167.188 350.216 167.789 350.653 168.236C351.091 168.684 351.686 168.942 352.312 168.955Z" fill="white" stroke="#263238" stroke-linecap="round" stroke-linejoin="round"/>
<path d="M341.548 146.878H335.311V155.28H341.548V146.878Z" fill="white" stroke="#263238" stroke-linecap="round" stroke-linejoin="round"/>
<path d="M341.216 153.353H335.643C334.001 153.353 332.669 154.684 332.669 156.326V162.625C332.669 164.267 334.001 165.599 335.643 165.599H341.216C342.859 165.599 344.19 164.267 344.19 162.625V156.326C344.19 154.684 342.859 153.353 341.216 153.353Z" fill="white" stroke="#263238" stroke-linecap="round" stroke-linejoin="round"/>
<path d="M376.554 132.136C364.027 130.029 351.359 128.865 338.658 128.655H337.995C325.293 128.865 312.625 130.029 300.098 132.136C298.502 132.405 292.566 132.301 293.084 135.306C293.457 137.492 297.477 137.544 299.072 137.668C306.697 138.238 314.001 138.922 320.942 142.475C326.443 145.293 331.53 150.659 337.932 151.198V151.26H338.326H338.72V151.198C345.133 150.659 350.219 145.293 355.71 142.475C362.651 138.922 369.955 138.238 377.58 137.668C379.176 137.544 383.195 137.492 383.578 135.306C384.096 132.301 378.15 132.405 376.554 132.136Z" fill="white" stroke="#263238" stroke-linecap="round" stroke-linejoin="round"/>
<path d="M382.916 136.705C381.393 135.451 377.735 135.461 376.554 135.265C364.028 133.149 351.36 131.982 338.658 131.773H337.995C325.292 131.982 312.624 133.149 300.098 135.265C299.062 135.441 296.109 135.451 294.379 136.301" stroke="#263238" stroke-linecap="round" stroke-linejoin="round"/>
<path d="M342.149 159.476C342.155 158.739 341.942 158.017 341.537 157.401C341.132 156.786 340.554 156.304 339.875 156.018C339.196 155.731 338.447 155.653 337.723 155.793C337 155.933 336.334 156.285 335.811 156.804C335.288 157.323 334.93 157.985 334.784 158.708C334.638 159.43 334.71 160.179 334.991 160.861C335.271 161.542 335.748 162.125 336.36 162.535C336.972 162.945 337.693 163.164 338.43 163.164C339.411 163.164 340.352 162.777 341.049 162.086C341.745 161.395 342.141 160.457 342.149 159.476Z" fill="#263238" stroke="#263238" stroke-linecap="round" stroke-linejoin="round"/>
<path d="M322.351 164.159V165.588H323.563" stroke="#263238" stroke-linecap="round" stroke-linejoin="round"/>
<path d="M355.71 164.159V165.744H354.291" stroke="#263238" stroke-linecap="round" stroke-linejoin="round"/>
<path d="M275.99 55.3994L300.512 58.0101V58.7457L276.197 60.9316L275.99 55.3994Z" fill="white" stroke="#263238" stroke-linecap="round" stroke-linejoin="round"/>
<path d="M297.218 55.6997H300.823V57.6578V61.2527V65.0134H299.673V61.2527H297.218V55.6997Z" fill="white" stroke="#263238" stroke-linecap="round" stroke-linejoin="round"/>
<path d="M287.676 55.8241C287.676 56.3835 292.856 56.8601 299.176 56.8601C305.495 56.8601 310.675 56.4042 310.675 55.8241C310.675 55.2439 305.495 54.7881 299.176 54.7881C292.856 54.7881 287.676 55.2543 287.676 55.8241Z" stroke="#263238" stroke-linecap="round" stroke-linejoin="round"/>
<path d="M252.234 55.3994L211.654 58.0101V58.7457L252.017 60.9316L252.234 55.3994Z" fill="white" stroke="#263238" stroke-linecap="round" stroke-linejoin="round"/>
<path d="M214.949 55.6997H211.354V57.6578V61.2527V65.0134H212.494V61.2527H214.949V55.6997Z" fill="white" stroke="#263238" stroke-linecap="round" stroke-linejoin="round"/>
<path d="M224.49 55.8241C224.49 56.3835 219.31 56.8601 212.991 56.8601C206.671 56.8601 201.491 56.4042 201.491 55.8241C201.491 55.2439 206.671 54.7881 212.991 54.7881C219.31 54.7881 224.49 55.2543 224.49 55.8241Z" stroke="#263238" stroke-linecap="round" stroke-linejoin="round"/>
<path d="M269.743 52.457H252.235C249.854 52.457 247.925 54.3866 247.925 56.7668V57.637C247.925 60.0172 249.854 61.9468 252.235 61.9468H269.743C272.123 61.9468 274.053 60.0172 274.053 57.637V56.7668C274.053 54.3866 272.123 52.457 269.743 52.457Z" fill="white" stroke="#263238" stroke-linecap="round" stroke-linejoin="round"/>
<path d="M274.509 52.457H257C254.62 52.457 252.69 54.3866 252.69 56.7668V57.637C252.69 60.0172 254.62 61.9468 257 61.9468H274.509C276.889 61.9468 278.818 60.0172 278.818 57.637V56.7668C278.818 54.3866 276.889 52.457 274.509 52.457Z" fill="white" stroke="#263238" stroke-linecap="round" stroke-linejoin="round"/>
<path d="M258.502 46.9351L219.839 50.934V52.0736L258.171 55.4199L258.502 46.9351Z" fill="white" stroke="#263238" stroke-linecap="round" stroke-linejoin="round"/>
<path d="M224.894 47.3911H219.373V50.4059V55.9174V61.6879H221.134V55.9174H224.894V47.3911Z" fill="white" stroke="#263238" stroke-linecap="round" stroke-linejoin="round"/>
<path d="M239.533 47.5878C239.533 48.458 231.628 49.1522 221.921 49.1522C212.214 49.1522 204.309 48.458 204.309 47.5878C204.309 46.7176 212.203 46.0234 221.921 46.0234C231.639 46.0234 239.533 46.7279 239.533 47.5878Z" stroke="#263238" stroke-linecap="round" stroke-linejoin="round"/>
<path d="M280.756 46.9351L318.373 50.934V52.0736L281.077 55.4199L280.756 46.9351Z" fill="white" stroke="#263238" stroke-linecap="round" stroke-linejoin="round"/>
<path d="M313.317 47.3911H318.839V50.4059V55.9174V61.6879H317.078V55.9174H313.317V47.3911Z" fill="white" stroke="#263238" stroke-linecap="round" stroke-linejoin="round"/>
<path d="M298.678 47.5878C298.678 48.458 306.583 49.1522 316.29 49.1522C325.998 49.1522 333.902 48.458 333.902 47.5878C333.902 46.7176 326.008 46.0234 316.29 46.0234C306.573 46.0234 298.678 46.7279 298.678 47.5878Z" stroke="#263238" stroke-linecap="round" stroke-linejoin="round"/>
<path d="M275.513 46.1787H258.005C255.625 46.1787 253.695 48.1083 253.695 50.4885V51.3587C253.695 53.739 255.625 55.6685 258.005 55.6685H275.513C277.894 55.6685 279.823 53.739 279.823 51.3587V50.4885C279.823 48.1083 277.894 46.1787 275.513 46.1787Z" fill="white" stroke="#263238" stroke-linecap="round" stroke-linejoin="round"/>
<path d="M280.279 46.1787H262.771C260.39 46.1787 258.461 48.1083 258.461 50.4885V51.3587C258.461 53.739 260.39 55.6685 262.771 55.6685H280.279C282.659 55.6685 284.589 53.739 284.589 51.3587V50.4885C284.589 48.1083 282.659 46.1787 280.279 46.1787Z" fill="white" stroke="#263238" stroke-linecap="round" stroke-linejoin="round"/>
<path d="M265.288 50.1467C265.288 49.8987 265.215 49.6564 265.077 49.4502C264.939 49.2441 264.743 49.0834 264.514 48.9885C264.285 48.8936 264.033 48.8688 263.79 48.9172C263.547 48.9655 263.323 49.0849 263.148 49.2602C262.973 49.4356 262.853 49.6589 262.805 49.9021C262.757 50.1453 262.782 50.3973 262.876 50.6264C262.971 50.8554 263.132 51.0512 263.338 51.1889C263.544 51.3267 263.787 51.4002 264.035 51.4002C264.367 51.4002 264.686 51.2681 264.921 51.0331C265.156 50.798 265.288 50.4791 265.288 50.1467Z" fill="white" stroke="#263238" stroke-linecap="round" stroke-linejoin="round"/>
<path d="M281.336 50.1468C281.338 49.8964 281.265 49.651 281.128 49.4418C280.99 49.2326 280.793 49.069 280.563 48.9718C280.332 48.8745 280.077 48.848 279.832 48.8956C279.586 48.9432 279.36 49.0627 279.182 49.2391C279.004 49.4154 278.883 49.6406 278.833 49.886C278.783 50.1315 278.808 50.3862 278.903 50.6177C278.998 50.8493 279.16 51.0473 279.369 51.1866C279.577 51.326 279.821 51.4004 280.072 51.4004C280.405 51.4004 280.725 51.2686 280.962 51.0339C281.199 50.7991 281.333 50.4802 281.336 50.1468Z" fill="white" stroke="#263238" stroke-linecap="round" stroke-linejoin="round"/>
<path d="M270.696 56.083H267.505C265.863 56.083 264.532 57.4142 264.532 59.0563V62.817C264.532 64.4591 265.863 65.7903 267.505 65.7903H270.696C272.338 65.7903 273.669 64.4591 273.669 62.817V59.0563C273.669 57.4142 272.338 56.083 270.696 56.083Z" fill="white" stroke="#263238" stroke-linecap="round" stroke-linejoin="round"/>
<path d="M272.053 60.9316C272.053 60.3476 271.88 59.7768 271.556 59.2912C271.231 58.8057 270.77 58.4272 270.23 58.2037C269.691 57.9803 269.097 57.9218 268.525 58.0357C267.952 58.1496 267.426 58.4309 267.013 58.8438C266.6 59.2567 266.319 59.7828 266.205 60.3556C266.091 60.9283 266.149 61.522 266.373 62.0615C266.596 62.601 266.975 63.0621 267.46 63.3866C267.946 63.711 268.517 63.8842 269.101 63.8842C269.884 63.8842 270.635 63.5731 271.188 63.0194C271.742 62.4657 272.053 61.7147 272.053 60.9316Z" fill="#263238" stroke="#263238" stroke-linecap="round" stroke-linejoin="round"/>
<path d="M225.578 373.12C245.793 373.12 262.18 367.865 262.18 361.382C262.18 354.899 245.793 349.644 225.578 349.644C205.363 349.644 188.976 354.899 188.976 361.382C188.976 367.865 205.363 373.12 225.578 373.12Z" fill="#7E57C2"/>
<path opacity="0.6" d="M225.578 373.12C245.793 373.12 262.18 367.865 262.18 361.382C262.18 354.899 245.793 349.644 225.578 349.644C205.363 349.644 188.976 354.899 188.976 361.382C188.976 367.865 205.363 373.12 225.578 373.12Z" fill="white"/>
<path d="M207.096 245.454C207.096 245.454 203.252 277.86 202.289 283.62C201.325 289.38 198.694 327.546 199.647 333.783C200.6 340.02 201.812 354.669 201.812 354.669C201.812 354.669 203.977 354.907 205.417 354.907H206.857C206.857 354.907 216.181 307.862 217.414 302.579C218.647 297.295 224.853 273.053 224.853 273.053C224.853 273.053 231.338 325.381 232.053 330.665C232.768 335.948 235.161 349.385 235.161 349.385C235.702 349.578 236.276 349.659 236.85 349.623C238.01 349.476 239.141 349.154 240.206 348.67L242.371 295.14L242.61 245.692L207.096 245.454Z" fill="#263238" stroke="#263238" stroke-linecap="round" stroke-linejoin="round"/>
<path d="M244.62 190.67C247.018 195.887 249.131 201.23 250.95 206.676C253.115 213.669 259.611 224.827 258.782 227.821C257.953 230.815 248.422 242.149 248.422 242.149L244.754 239.321L248.422 226.992L243.594 217.668C243.594 217.668 243.283 195.674 244.62 190.67Z" fill="#7E57C2" stroke="#263238" stroke-linecap="round" stroke-linejoin="round"/>
<path d="M205.987 184.185C205.987 184.185 197.326 189.841 196.321 190.846C195.317 191.851 196.653 203.164 198.818 209.826C200.983 216.487 205.48 236.762 205.811 239.642C206.143 242.522 206.319 246.303 207.645 246.635C208.971 246.966 222.636 249.152 228.966 249.152C235.296 249.152 241.294 247.484 242.289 246.49C243.283 245.495 244.123 203.185 244.786 201.02C245.449 198.854 245.956 192.524 244.62 190.66C243.283 188.795 234.964 183.998 231.628 183.998C228.292 183.998 216.596 178.849 205.987 184.185Z" fill="#7E57C2" stroke="#263238" stroke-linecap="round" stroke-linejoin="round"/>
<path d="M219.476 174.353C219.476 174.353 214.638 177.347 212.814 177.461C210.991 177.575 208.152 177.968 206.484 180.631C204.817 183.294 203.48 184.298 204.651 185.127C205.821 185.956 210.981 189.458 214.638 190.121C218.295 190.784 224.304 194.265 225.132 195.125C225.961 195.985 227.298 196.948 228.468 195.622C229.639 194.296 233.462 184.796 233.959 184.63C234.456 184.464 234.125 181.967 233.13 180.486C232.136 179.004 227.629 174.156 225.298 173.99C223.351 173.948 221.403 174.069 219.476 174.353Z" fill="#7E57C2" stroke="#263238" stroke-linecap="round" stroke-linejoin="round"/>
<path d="M212.814 177.513C212.814 177.513 210.1 179.585 212.245 182.113C213.826 183.758 215.791 184.986 217.963 185.687" stroke="#263238" stroke-linecap="round" stroke-linejoin="round"/>
<path d="M218.968 167.028C218.968 167.028 218.802 176.518 218.802 179.346C218.868 182.455 219.986 185.45 221.973 187.842C223.972 190.173 225.132 193.509 226.469 192.504C227.805 191.499 228.8 187.013 228.8 184.516C228.8 182.019 227.971 179.512 228.137 178.02C228.303 176.529 228.634 172.84 228.634 172.84C228.634 172.84 222.812 166.78 218.968 167.028Z" fill="white" stroke="#263238" stroke-linecap="round" stroke-linejoin="round"/>
<path d="M213.395 161.092C213.395 161.092 204.848 167.101 203.231 168.251C201.615 169.401 208.08 170.105 212.245 169.411C216.409 168.717 222.408 162.936 223.34 162.708C224.273 162.48 221.03 156.948 213.395 161.092Z" fill="white" stroke="#263238" stroke-linecap="round" stroke-linejoin="round"/>
<path d="M225.184 154.596C225.184 154.596 225.65 161.993 223.34 162.688C221.03 163.382 218.916 165.195 216.088 164.407C213.26 163.62 213.208 161.071 213.674 158.295C214.14 155.518 223.848 154.596 225.184 154.596Z" fill="white" stroke="#263238" stroke-linecap="round" stroke-linejoin="round"/>
<path d="M217.901 168.126C217.901 168.126 219.631 171.711 221.351 172.861C223.071 174.011 231.525 176.301 233.244 175.441C234.964 174.581 235.679 166.842 235.679 161.973C235.679 157.103 234.249 150.939 233.39 151.084C232.339 151.482 231.198 151.578 230.095 151.364C227.795 151.084 222.066 149.364 220.771 152.089C219.476 154.814 222.491 156.534 221.921 158.108C221.351 159.683 219.486 160.688 219.486 161.973C219.486 163.257 216.047 164.418 216.047 164.418L217.901 168.126Z" fill="white" stroke="#263238" stroke-linecap="round" stroke-linejoin="round"/>
<path d="M222.211 158.813L213.861 161.766L215.612 163.257L222.491 163.112L222.211 158.813Z" fill="white" stroke="#263238" stroke-linecap="round" stroke-linejoin="round"/>
<path d="M219.196 165.122C219.196 165.122 217.622 162.014 215.467 162.252C213.312 162.491 214.182 165.36 215.187 167.267C216.192 169.173 219.051 168.562 219.051 168.562" fill="white"/>
<path d="M219.196 165.122C219.196 165.122 217.622 162.014 215.467 162.252C213.312 162.491 214.182 165.36 215.187 167.267C216.192 169.173 219.051 168.562 219.051 168.562" stroke="#263238" stroke-linecap="round" stroke-linejoin="round"/>
<path d="M234.208 157.383C234.208 157.383 226.034 156.088 222.449 157.808C218.865 159.528 220.305 163.547 223.164 163.827C226.024 164.107 232.913 163.972 234.923 163.257C236.933 162.542 237.399 158.243 234.208 157.383Z" fill="white" stroke="#263238" stroke-linecap="round" stroke-linejoin="round"/>
<path d="M236.684 156.658C236.684 156.658 228.51 155.373 224.925 157.093C221.341 158.813 222.781 162.822 225.651 163.112C228.52 163.402 235.399 163.257 237.399 162.542C239.398 161.828 239.844 157.518 236.684 156.658Z" fill="white" stroke="#263238" stroke-linecap="round" stroke-linejoin="round"/>
<path d="M233.389 163.547C233.792 164.197 234.036 164.931 234.104 165.692C234.104 166.728 232.954 167.122 230.665 167.122" stroke="#263238" stroke-linecap="round" stroke-linejoin="round"/>
<path d="M213.395 161.092C213.395 161.092 218.254 155.083 234.892 156.005C234.892 156.005 234.198 152.079 233.503 148.847C232.809 145.614 229.805 144.703 224.49 145.376C219.176 146.049 215.705 146.526 213.395 149.52C211.084 152.514 213.395 161.092 213.395 161.092Z" fill="#263238" stroke="#263238" stroke-linecap="round" stroke-linejoin="round"/>
<path d="M220.471 205.972C220.408 205.968 220.347 205.951 220.29 205.924C220.234 205.896 220.184 205.857 220.142 205.81C220.101 205.763 220.069 205.708 220.049 205.649C220.029 205.589 220.021 205.527 220.025 205.464C220.346 201.051 219.538 190.96 219.528 190.877C219.519 190.751 219.56 190.627 219.641 190.53C219.722 190.434 219.837 190.372 219.963 190.359C220.026 190.353 220.09 190.361 220.151 190.38C220.212 190.399 220.268 190.431 220.316 190.472C220.364 190.514 220.404 190.565 220.432 190.622C220.46 190.679 220.477 190.741 220.481 190.805C220.481 191.219 221.31 201.051 220.978 205.536C220.974 205.599 220.958 205.659 220.93 205.715C220.902 205.771 220.864 205.821 220.816 205.861C220.769 205.902 220.714 205.932 220.655 205.951C220.595 205.97 220.533 205.977 220.471 205.972Z" fill="white" stroke="#263238" stroke-width="0.5" stroke-linecap="round" stroke-linejoin="round"/>
<path d="M231.462 204.314C231.335 204.311 231.214 204.259 231.125 204.168C231.036 204.077 230.986 203.954 230.986 203.827C230.799 199.443 230.301 195.077 229.494 190.763C229.471 190.638 229.498 190.509 229.57 190.404C229.642 190.299 229.752 190.227 229.877 190.204C230.002 190.18 230.132 190.208 230.236 190.279C230.341 190.351 230.413 190.462 230.437 190.587C231.25 194.959 231.752 199.384 231.939 203.827C231.94 203.891 231.929 203.954 231.906 204.013C231.882 204.072 231.847 204.125 231.803 204.171C231.759 204.216 231.706 204.252 231.647 204.277C231.589 204.301 231.526 204.314 231.462 204.314Z" fill="white" stroke="#263238" stroke-width="0.5" stroke-linecap="round" stroke-linejoin="round"/>
<path d="M244.122 238.968C244.122 238.968 239.46 236.14 238.455 236.14C237.45 236.14 237.958 238.637 239.626 240.284C240.293 240.934 240.683 241.816 240.714 242.747C240.745 243.678 240.415 244.585 239.792 245.277C238.756 246.117 231.628 248.448 232.965 249.111C234.301 249.774 240.455 250.613 242.289 250.147C244.122 249.68 247.614 243.154 248.453 242.159C249.292 241.164 244.951 238.305 244.122 238.968Z" fill="white" stroke="#263238" stroke-linecap="round" stroke-linejoin="round"/>
<path d="M242.327 241.717L225.914 243.228L226.463 249.201L242.877 247.69L242.327 241.717Z" fill="white" stroke="#263238" stroke-linecap="round" stroke-linejoin="round"/>
<path d="M225.889 243.237L218.637 242.304L218.968 246.635L226.448 249.204L225.889 243.237Z" fill="white" stroke="#263238" stroke-linecap="round" stroke-linejoin="round"/>
<path d="M218.637 242.304L232.467 240.802L242.309 241.724L225.889 243.237L218.637 242.304Z" fill="white" stroke="#263238" stroke-linecap="round" stroke-linejoin="round"/>
<path d="M215.145 240.802C215.145 240.802 218.637 239.641 220.139 238.968C221.641 238.295 224.138 240.802 224.635 241.133C225.132 241.465 227.039 243.029 226.469 243.133C225.189 243.201 223.905 243.145 222.636 242.967C221.85 242.847 221.071 242.681 220.305 242.47C220.305 242.47 220.968 246.469 221.807 247.298C222.646 248.126 227.422 248.447 226.448 249.204C225.474 249.96 221.475 250.292 219.476 250.633C217.476 250.975 213.146 247.298 212.483 246.8C211.82 246.303 210.483 245.464 210.483 245.464L212.649 240.802H215.145Z" fill="white" stroke="#263238" stroke-linecap="round" stroke-linejoin="round"/>
<path d="M241.128 238.305C241.128 239.134 238.456 240.968 237.461 241.299C236.632 241.512 235.758 241.454 234.964 241.133C234.291 240.968 238.456 236.14 238.456 236.14C238.456 236.14 239.492 235.643 240.787 237.311" fill="white"/>
<path d="M241.128 238.305C241.128 239.134 238.456 240.968 237.461 241.299C236.632 241.512 235.758 241.454 234.964 241.133C234.291 240.968 238.456 236.14 238.456 236.14C238.456 236.14 239.492 235.643 240.787 237.311" stroke="#263238" stroke-linecap="round" stroke-linejoin="round"/>
<path d="M196.321 190.846C196.321 190.846 193.659 191.509 192.488 195.839C191.318 200.17 183.164 231.809 184.335 233.643C185.506 235.477 210.484 245.464 210.484 245.464L212.649 240.802L195.493 226.982C195.493 226.982 203.48 208.831 204.319 204.335" fill="#7E57C2"/>
<path d="M196.321 190.846C196.321 190.846 193.659 191.509 192.488 195.839C191.318 200.17 183.164 231.809 184.335 233.643C185.506 235.477 210.484 245.464 210.484 245.464L212.649 240.802L195.493 226.982C195.493 226.982 203.48 208.831 204.319 204.335" stroke="#263238" stroke-linecap="round" stroke-linejoin="round"/>
<path d="M224.853 273.053L228.22 263.211" stroke="white" stroke-linecap="round" stroke-linejoin="round"/>
<path d="M201.812 354.669C201.812 354.669 196.767 363.785 196.767 366.427C196.767 369.069 199.875 370.986 202.776 367.152C205.676 363.319 206.857 354.907 206.857 354.907L201.812 354.669Z" fill="white" stroke="#263238" stroke-linecap="round" stroke-linejoin="round"/>
<path d="M240.217 348.67C240.217 348.67 251.26 353.229 251.26 355.383C251.26 357.538 244.298 356.824 240.455 355.87C236.611 354.917 234.933 353.943 235.171 349.385C236.879 349.399 238.58 349.158 240.217 348.67Z" fill="white" stroke="#263238" stroke-linecap="round" stroke-linejoin="round"/>
<path d="M157.202 384.868C177.417 384.868 193.804 379.613 193.804 373.13C193.804 366.648 177.417 361.392 157.202 361.392C136.988 361.392 120.601 366.648 120.601 373.13C120.601 379.613 136.988 384.868 157.202 384.868Z" fill="#7E57C2"/>
<path opacity="0.6" d="M157.202 384.868C177.417 384.868 193.804 379.613 193.804 373.13C193.804 366.648 177.417 361.392 157.202 361.392C136.988 361.392 120.601 366.648 120.601 373.13C120.601 379.613 136.988 384.868 157.202 384.868Z" fill="white"/>
<path d="M174.835 187.22C174.835 187.22 178.192 187.697 181.559 194.586C184.926 201.475 190.883 226.132 190.883 230.297C190.839 232.384 190.177 234.41 188.98 236.12C187.783 237.83 186.105 239.146 184.159 239.901C180.16 241.506 177.756 238.461 176.793 235.902C175.83 233.343 175.508 210.116 175.508 210.116L174.835 187.22Z" fill="white" stroke="#263238" stroke-linecap="round" stroke-linejoin="round"/>
<path d="M187.018 211.732C185.205 204.739 183.113 197.766 181.559 194.586C178.192 187.697 174.835 187.22 174.835 187.22L175.467 210.116C175.467 210.116 175.467 211.98 175.56 214.705C177 213.928 182.056 211.525 187.018 211.732Z" fill="white" stroke="#263238" stroke-linecap="round" stroke-linejoin="round"/>
<path d="M136.255 312.348C136.255 312.348 135.333 323.454 135.333 327.888C135.333 332.322 132.794 341.998 132.794 348.473C132.794 354.948 133.022 366.976 133.022 366.976C133.022 366.976 132.1 375.762 132.328 378.538C132.556 381.315 136.721 383.853 138.803 379.688C140.886 375.523 137.415 367.898 138.109 364.2C138.803 360.501 144.325 340.372 145.744 335.057C147.164 329.743 149.888 314.016 149.888 314.016L136.255 312.348Z" fill="white" stroke="#263238" stroke-linecap="round" stroke-linejoin="round"/>
<path d="M138.803 379.605C140.461 376.29 138.596 370.768 138.119 366.79C137.526 365.999 136.722 365.392 135.799 365.039C134.431 364.739 133.468 366.313 132.96 367.443C132.547 371.099 132.336 374.776 132.328 378.455C132.556 381.232 136.721 383.77 138.803 379.605Z" fill="#7E57C2" stroke="#263238" stroke-linecap="round" stroke-linejoin="round"/>
<path d="M164.703 311.157C164.999 315.544 164.999 319.947 164.703 324.335C164.348 332.073 164.813 339.828 166.091 347.468C167.013 351.612 170.028 367.349 170.028 367.349C170.875 367.902 171.816 368.296 172.804 368.51C174.182 368.738 176.037 368.282 177.197 369.204C178.357 370.126 185.982 371.058 186.21 369.67C186.438 368.282 186.904 367.349 180.201 363.879C176.71 362.076 174.421 360.874 174.421 360.874C174.421 360.874 177.653 332.436 177.653 323.64V308.608L164.703 311.157Z" fill="white" stroke="#263238" stroke-linecap="round" stroke-linejoin="round"/>
<path d="M180.201 363.879C176.71 362.076 174.421 360.874 174.421 360.874C174.252 361.453 174.205 362.06 174.283 362.658C174.362 363.255 174.564 363.83 174.876 364.345L169.085 362.459C169.634 365.288 170.028 367.349 170.028 367.349C170.875 367.902 171.816 368.295 172.804 368.51C174.182 368.738 176.037 368.282 177.197 369.204C178.357 370.126 185.982 371.058 186.21 369.67C186.438 368.282 186.904 367.349 180.201 363.879Z" fill="#7E57C2" stroke="#263238" stroke-linecap="round" stroke-linejoin="round"/>
<path d="M176.917 257.191C176.917 257.191 176.917 257.482 176.979 258C177.456 263.48 180.201 295.14 180.201 299.357C180.201 303.988 180.429 309.302 180.429 310.918C180.429 312.535 170.256 312.773 166.091 313.467C163.649 313.907 161.175 314.139 158.694 314.161C158 314.161 157.078 295.658 157.078 295.658C157.078 295.658 153.835 313.933 153.835 314.627C153.835 315.321 154.996 315.549 145.744 315.549C140.017 315.5 134.355 314.321 129.085 312.079L134.876 265.365L136.026 254.498L176.265 253.565L176.917 257.191Z" fill="#263238" stroke="#263238" stroke-linecap="round" stroke-linejoin="round"/>
<path d="M160.538 263.977L159.844 279.932C160.65 279.731 161.371 279.28 161.903 278.643C162.436 278.007 162.752 277.217 162.807 276.389L163.553 264.433" stroke="white" stroke-linecap="round" stroke-linejoin="round"/>
<path d="M157.078 295.658L159.616 282.48" stroke="white" stroke-linecap="round" stroke-linejoin="round"/>
<path d="M132.794 287.101L148.976 289.411L148.52 295.658L133.25 292.882" stroke="white" stroke-linecap="round" stroke-linejoin="round"/>
<path d="M148.521 295.658L147.246 307.8C147.203 308.232 147.071 308.65 146.859 309.029C146.648 309.408 146.361 309.74 146.016 310.004C145.672 310.268 145.277 310.459 144.856 310.564C144.435 310.67 143.997 310.688 143.568 310.618L132.556 308.846" stroke="white" stroke-linecap="round" stroke-linejoin="round"/>
<path d="M179.735 287.567L170.028 289.411L170.95 294.736L177.891 293.814" stroke="white" stroke-linecap="round" stroke-linejoin="round"/>
<path d="M170.95 294.736L172.317 306.702C172.348 306.981 172.434 307.251 172.572 307.495C172.71 307.74 172.895 307.954 173.118 308.124C173.341 308.295 173.596 308.418 173.868 308.487C174.14 308.556 174.423 308.569 174.7 308.525L178.844 307.914" stroke="white" stroke-linecap="round" stroke-linejoin="round"/>
<path d="M145.278 261.201C145.278 261.201 143.424 271.84 135.561 273.229" stroke="white" stroke-linecap="round" stroke-linejoin="round"/>
<path d="M152.737 179.854C152.737 179.854 138.482 184.174 134.753 185.956C131.023 187.738 133.157 211.1 134.431 223.584C135.706 236.067 135.882 258.176 135.882 258.176C135.882 258.176 141.963 260.579 152.696 260.9C163.429 261.222 176.876 257.212 176.876 257.212C176.876 257.212 176.71 207.899 176.71 200.854C176.71 193.809 178.471 191.882 174.793 187.241C171.116 182.599 161.688 178.891 152.737 179.854Z" fill="white" stroke="#263238" stroke-linecap="round" stroke-linejoin="round"/>
<path d="M136.627 215.13L141.62 205.164" stroke="#263238" stroke-linecap="round" stroke-linejoin="round"/>
<path d="M163.625 192.017C165.231 189.302 164.547 183.459 164.154 180.921C160.457 179.849 156.588 179.497 152.758 179.885C152.758 179.885 150.779 180.476 148.106 181.325C147.816 183.936 147.485 190.421 151.152 193.332C155.773 196.989 161.543 195.539 163.625 192.017Z" fill="#263238" stroke="#263238" stroke-linecap="round" stroke-linejoin="round"/>
<path d="M151.131 166.883C151.131 166.883 151.287 177.45 151.287 181.449C151.287 185.448 150.81 191.219 155.938 192.845C161.067 194.472 162.496 189.157 162.496 185.314C162.496 181.47 162.341 176.187 162.341 176.187C162.341 176.187 155.938 168.344 154.654 167.899C153.499 167.495 152.323 167.156 151.131 166.883Z" fill="white" stroke="#263238" stroke-linecap="round" stroke-linejoin="round"/>
<path d="M149.256 166.396C149.256 166.396 146.044 154.234 146.044 151.509C146.044 148.784 154.54 144.941 160.3 144.785C166.06 144.63 170.225 146.381 171.509 149.106C172.794 151.83 171.354 153.426 169.904 154.068C168.453 154.71 158.062 152.151 157.741 154.068C157.42 155.985 159.336 160.47 158.062 162.076C156.788 163.682 151.846 168.158 150.53 168.158C149.215 168.158 149.256 166.396 149.256 166.396Z" fill="#263238" stroke="#263238" stroke-linecap="round" stroke-linejoin="round"/>
<path d="M151.608 169.919C151.608 169.919 153.535 173.928 155.451 175.202C157.368 176.477 166.847 179.046 168.743 178.093C170.639 177.14 171.468 168.479 171.468 163.04C171.468 157.601 169.862 150.732 168.94 150.867C167.764 151.311 166.487 151.422 165.252 151.188C162.693 150.867 156.29 148.94 154.892 151.986C153.493 155.031 156.808 156.948 156.166 158.709C155.524 160.47 153.441 161.6 153.441 163.04C153.441 164.48 149.598 165.754 149.598 165.754L151.608 169.919Z" fill="white" stroke="#263238" stroke-linecap="round" stroke-linejoin="round"/>
<path d="M156.415 159.517L148.406 162.076L149.049 164.48L156.736 164.314L156.415 159.517Z" fill="white" stroke="#263238" stroke-linecap="round" stroke-linejoin="round"/>
<path d="M153.048 166.562C153.048 166.562 151.287 163.04 148.904 163.361C146.521 163.682 147.453 166.883 148.583 168.966C149.712 171.048 152.903 170.406 152.903 170.406" fill="white"/>
<path d="M153.048 166.562C153.048 166.562 151.287 163.04 148.904 163.361C146.521 163.682 147.453 166.883 148.583 168.966C149.712 171.048 152.903 170.406 152.903 170.406" stroke="#263238" stroke-linecap="round" stroke-linejoin="round"/>
<path d="M169.862 157.911C169.862 157.911 160.735 156.471 156.736 158.388C152.737 160.305 154.332 164.801 157.534 165.122C160.735 165.443 168.422 165.277 170.67 164.48C172.918 163.682 173.395 158.875 169.862 157.911Z" fill="white" stroke="#263238" stroke-linecap="round" stroke-linejoin="round"/>
<path d="M172.587 157.114C172.587 157.114 163.46 155.674 159.461 157.59C155.462 159.507 157.057 163.993 160.259 164.314C163.46 164.635 171.147 164.48 173.395 163.672C175.643 162.864 176.109 158.067 172.587 157.114Z" fill="white" stroke="#263238" stroke-linecap="round" stroke-linejoin="round"/>
<path d="M168.94 164.801C169.39 165.529 169.663 166.352 169.738 167.205C169.738 168.323 168.453 168.8 165.894 168.8" stroke="#263238" stroke-linecap="round" stroke-linejoin="round"/>
<path d="M168.836 231.499L175.27 224.195L188.303 224.153L181.704 231.851L168.836 231.499Z" fill="#263238" stroke="#263238" stroke-linecap="round" stroke-linejoin="round"/>
<path d="M175.27 224.195L172.835 220.538L166.05 228.888L168.836 231.499L175.27 224.195Z" fill="white" stroke="#263238" stroke-linecap="round" stroke-linejoin="round"/>
<path d="M172.835 220.538L186.573 220.714L188.303 224.153L175.27 224.195L172.835 220.538Z" fill="white" stroke="#263238" stroke-linecap="round" stroke-linejoin="round"/>
<path d="M187.971 225.935C187.971 225.935 188.666 228.712 187.619 230.287C186.573 231.861 186.583 233.757 184.511 233.757C182.439 233.757 177.549 232.545 178.295 231.499L179 230.463C179 230.463 179.165 230.121 180.388 229.592C181.61 229.064 180.036 228.028 182.46 226.992C184.223 226.327 186.087 225.97 187.971 225.935Z" fill="white" stroke="#263238" stroke-linecap="round" stroke-linejoin="round"/>
<path d="M181.372 222.693C181.184 222.694 181 222.637 180.845 222.53C180.691 222.424 180.572 222.273 180.505 222.097C180.439 221.921 180.428 221.729 180.473 221.547C180.519 221.364 180.619 221.2 180.761 221.077L186.977 216.259C187.019 216.216 187.07 216.181 187.126 216.157C187.182 216.134 187.242 216.122 187.303 216.122C187.364 216.122 187.424 216.134 187.48 216.157C187.536 216.181 187.587 216.216 187.63 216.259C187.715 216.346 187.763 216.463 187.763 216.586C187.763 216.708 187.715 216.825 187.63 216.912L182.066 222.423C181.976 222.515 181.868 222.586 181.748 222.632C181.628 222.679 181.5 222.699 181.372 222.693Z" fill="#263238"/>
<path d="M134.752 185.956C134.752 185.956 127.23 189.323 124.993 195.083C122.755 200.843 126.588 245.205 127.707 247.287C128.826 249.37 132.887 248.251 137.798 247.287C142.708 246.324 160.062 236.875 160.062 236.875C160.062 236.875 169.51 236.554 171.458 235.601C173.405 234.648 174.825 232.555 175.778 232.079C176.731 231.602 178.823 229.033 176.741 229.033C174.659 229.033 167.78 228.867 166.972 229.033C166.328 229.101 165.677 229.045 165.055 228.867L168.733 226.629C168.733 226.629 170.017 224.226 169.375 223.905C168.733 223.584 167.78 224.868 167.303 225.189C166.827 225.511 163.159 225.832 162.185 226.474C161.211 227.116 159.295 231.271 158.818 231.592C158.342 231.913 150.012 235.114 145.05 234.638C142.33 234.329 139.582 234.382 136.876 234.793C136.876 234.793 136.244 211.1 136.72 205.329" fill="white"/>
<path d="M134.752 185.956C134.752 185.956 127.23 189.323 124.993 195.083C122.755 200.843 126.588 245.205 127.707 247.287C128.826 249.37 132.887 248.251 137.798 247.287C142.708 246.324 160.062 236.875 160.062 236.875C160.062 236.875 169.51 236.554 171.458 235.601C173.405 234.648 174.825 232.555 175.778 232.079C176.731 231.602 178.823 229.033 176.741 229.033C174.659 229.033 167.78 228.867 166.972 229.033C166.328 229.101 165.677 229.045 165.055 228.867L168.733 226.629C168.733 226.629 170.017 224.226 169.375 223.905C168.733 223.584 167.78 224.868 167.303 225.189C166.827 225.511 163.159 225.832 162.185 226.474C161.211 227.116 159.295 231.271 158.818 231.592C158.342 231.913 150.012 235.114 145.05 234.638C142.33 234.329 139.582 234.382 136.876 234.793C136.876 234.793 136.244 211.1 136.72 205.329" stroke="#263238" stroke-linecap="round" stroke-linejoin="round"/>
<path d="M136.875 234.772C136.875 234.772 133.767 236.513 133.073 238.999" stroke="#263238" stroke-linecap="round" stroke-linejoin="round"/>
<path d="M188.282 229.012C188.751 229.436 189.122 229.957 189.371 230.538C189.619 231.119 189.739 231.747 189.722 232.379" stroke="#263238" stroke-linecap="round" stroke-linejoin="round"/>
<path d="M137.86 247.267C142.894 246.293 160.124 236.855 160.124 236.855C160.124 236.855 169.572 236.534 171.52 235.581C173.467 234.627 174.887 232.535 175.84 232.058C176.793 231.582 178.886 229.012 176.803 229.012C174.721 229.012 167.842 228.847 167.034 229.012C166.39 229.08 165.74 229.024 165.117 228.847L168.795 226.609C168.795 226.609 170.08 224.205 169.437 223.884C168.795 223.563 167.842 224.848 167.365 225.169C166.889 225.49 163.221 225.811 162.247 226.453C161.274 227.096 159.357 231.25 158.88 231.571C158.404 231.892 150.074 235.094 145.112 234.617C142.392 234.309 139.643 234.361 136.937 234.772C136.937 234.772 136.761 227.976 136.658 220.776C132.768 220.863 128.919 221.584 125.262 222.91C126.08 234.845 127.334 246.241 127.852 247.267C128.867 249.349 132.876 248.23 137.86 247.267Z" stroke="#263238" stroke-linecap="round" stroke-linejoin="round"/>
<path d="M81.222 400.056C101.437 400.056 117.824 394.801 117.824 388.318C117.824 381.835 101.437 376.58 81.222 376.58C61.0073 376.58 44.6201 381.835 44.6201 388.318C44.6201 394.801 61.0073 400.056 81.222 400.056Z" fill="#7E57C2"/>
<path opacity="0.6" d="M81.222 400.056C101.437 400.056 117.824 394.801 117.824 388.318C117.824 381.835 101.437 376.58 81.222 376.58C61.0073 376.58 44.6201 381.835 44.6201 388.318C44.6201 394.801 61.0073 400.056 81.222 400.056Z" fill="white"/>
<path d="M93.0432 379.947C93.0432 379.947 104.636 386.07 103.03 387.997C101.424 389.924 88.6713 386.567 87.8943 381.884C87.5627 379.947 93.0432 379.947 93.0432 379.947Z" fill="#263238" stroke="#263238" stroke-linecap="round" stroke-linejoin="round"/>
<path d="M59.8702 385.749C59.8702 385.749 69.4843 393.156 68.5622 395.404C67.6402 397.652 57.9329 395.725 54.7109 386.391C54.7109 386.391 58.5752 386.07 59.8702 385.749Z" fill="#263238" stroke="#263238" stroke-linecap="round" stroke-linejoin="round"/>
<path d="M105.278 249.152C105.278 249.152 105.092 279.352 104.315 299.077C103.403 322.335 102.243 342.589 99.8081 351.913C98.0469 358.782 93.043 379.937 93.043 379.937L87.863 381.874C87.863 381.874 88.1842 329.37 88.1842 324.21C88.1842 319.051 86.568 291.68 86.568 291.68C86.568 291.68 72.7167 353.208 68.5313 362.863C64.3458 372.519 59.8392 385.738 59.8392 385.738L54.6592 386.381C54.6592 386.381 63.0405 314.234 62.0666 303.604C61.0928 292.975 65.1746 250.385 65.1746 250.385L105.278 249.152Z" fill="#7E57C2" stroke="#263238" stroke-linecap="round" stroke-linejoin="round"/>
<path d="M58.1919 376.943C57.8085 379.636 57.5703 381.242 57.5703 381.242" stroke="#263238" stroke-linecap="round" stroke-linejoin="round"/>
<path d="M67.4117 268.318C67.4117 268.318 67.4117 306.132 65.8577 320.636C64.7492 330.996 60.9781 357.621 58.9268 371.887" stroke="#263238" stroke-linecap="round" stroke-linejoin="round"/>
<path d="M90.2043 295.171C90.7119 304.754 91.4475 319.849 91.779 330.996C92.297 348.608 89.707 373.472 89.707 373.472" stroke="#263238" stroke-linecap="round" stroke-linejoin="round"/>
<path d="M89.6855 285.93C89.6855 285.93 89.7581 287.204 89.872 289.369" stroke="#263238" stroke-linecap="round" stroke-linejoin="round"/>
<path d="M86.5986 291.69L91.4367 276.875" stroke="#263238" stroke-linecap="round" stroke-linejoin="round"/>
<path d="M105.599 195.135C107.99 198.199 109.814 201.665 110.986 205.371C112.778 211.297 119.274 234.814 117.979 237.321C116.684 239.828 113.835 240.004 110.799 239.838C107.764 239.673 107.215 229.427 106.655 226.37C106.096 223.314 105.599 195.135 105.599 195.135Z" fill="#263238" stroke="#263238" stroke-linecap="round" stroke-linejoin="round"/>
<path d="M83.8121 181.905C83.8121 181.905 61.6417 192.265 61.4656 196.979C61.2895 201.693 65.2781 250.395 65.2781 250.395L105.247 250.758C105.247 250.758 104.522 200.616 103.797 195.166C103.071 189.717 89.9867 180.776 83.8121 181.905Z" fill="white" stroke="#263238" stroke-linecap="round" stroke-linejoin="round"/>
<path d="M82.3515 190.991L86.713 266.018C86.713 266.018 81.0876 265.842 76.1769 266.205C71.2663 266.567 61.2792 266.743 61.2792 266.743C61.2792 266.743 57.8294 199.89 58.9172 197.891C60.005 195.891 62.5535 194.441 67.8268 190.442C73.1 186.443 81.8128 182.444 81.8128 182.444L82.3515 190.991Z" fill="#263238" stroke="#263238" stroke-linecap="round" stroke-linejoin="round"/>
<path d="M106.313 231.758C106.313 231.758 108.831 229.603 114.394 229.064C119.958 228.525 121.398 233.208 121.211 236.606C121.025 240.004 117.627 242.17 114.757 242.356C111.887 242.542 105.744 236.244 106.313 231.758Z" fill="white" stroke="#263238" stroke-linecap="round" stroke-linejoin="round"/>
<path d="M107.215 233.374C109.525 232.191 112.091 231.596 114.685 231.644C118.342 231.944 119.958 236.244 118.518 238.896C117.078 241.548 113.68 243.744 110.448 243.206C107.215 242.667 107.039 236.637 107.215 233.374Z" fill="white" stroke="#263238" stroke-linecap="round" stroke-linejoin="round"/>
<path d="M94.1611 190.991L97.984 265.117C97.984 265.117 101.796 264.744 103.796 264.744C105.704 264.582 107.59 264.217 109.421 263.656C109.421 263.656 107.795 201.89 107.432 198.616C107.07 195.342 98.1601 187.531 96.3471 186.267L94.5237 184.993L94.1611 190.991Z" fill="#263238" stroke="#263238" stroke-linecap="round" stroke-linejoin="round"/>
<path d="M108.209 231.478L106.687 209.556" stroke="white" stroke-linecap="round" stroke-linejoin="round"/>
<path d="M82.7236 178.631C82.7236 178.631 77.4504 180.268 76 183.905C74.5496 187.541 74.0005 197.373 74.3631 200.978C74.7257 204.583 74.7257 210.24 74.7257 210.24C74.7257 210.24 80.9417 207.702 82.7236 209.877L82.1746 189.893C82.1746 189.893 83.625 181.356 88.5356 182.993C93.4462 184.63 93.985 192.441 93.985 192.441L95.021 209.339C95.021 209.339 97.0204 207.515 98.4708 207.515H102.294C102.294 207.515 101.019 193.892 98.8334 188.256C96.6475 182.62 90.2036 176.093 82.7236 178.631Z" fill="white" stroke="#263238" stroke-linecap="round" stroke-linejoin="round"/>
<path d="M82.5378 171.732C82.197 174.99 82.0759 178.268 82.1752 181.543C82.3513 186.629 82.1752 192.079 83.6256 195.529C85.076 198.978 92.5352 197.704 93.623 194.617C94.7108 191.53 93.623 179.357 93.623 179.357C91.7912 176.816 89.6549 174.509 87.2619 172.488C83.9882 169.908 82.5378 171.732 82.5378 171.732Z" fill="white" stroke="#263238" stroke-linecap="round" stroke-linejoin="round"/>
<path d="M79.8444 170.095C79.8444 170.095 73.4834 160.647 73.4834 154.835C73.4834 150.825 77.8553 147.707 80.9218 145.915C85.6149 143.19 95.0943 140.051 99.1036 145.2C101.642 148.474 104.739 146.288 107.64 150.473C110.541 154.658 101.279 157.197 98.1919 157.197C95.1047 157.197 84.9312 157.197 86.7442 159.559C88.5572 161.921 88.7436 163.547 86.9306 164.646C85.1176 165.744 79.8444 170.095 79.8444 170.095Z" fill="#263238" stroke="#263238" stroke-linecap="round" stroke-linejoin="round"/>
<path d="M81.2632 171.908C81.2632 171.908 83.9879 177.357 87.0959 179.357C90.2039 181.356 98.9063 182.081 99.818 180.807C100.73 179.533 101.455 168.634 101.631 164.459C101.807 160.284 100.906 157.01 98.523 154.835C96.1402 152.659 86.7126 154.835 84.3505 157.01C81.9884 159.186 86.1739 160.823 85.2622 162.646C84.3505 164.469 80.8799 165.236 80.8799 166.645C80.8799 168.054 81.2632 171.908 81.2632 171.908Z" fill="white" stroke="#263238" stroke-linecap="round" stroke-linejoin="round"/>
<path d="M86.5366 161.558L77.8135 166.821L79.0878 168.272L86.7127 167.008L86.5366 161.558Z" fill="white" stroke="#263238" stroke-linecap="round" stroke-linejoin="round"/>
<path d="M83.0867 168.634C83.0867 168.634 81.0872 164.822 78.9427 165.526C76.7982 166.231 79.1292 171.524 80.217 172.612C81.3048 173.7 83.1281 172.975 83.1281 172.975" fill="white"/>
<path d="M83.0867 168.634C83.0867 168.634 81.0872 164.822 78.9427 165.526C76.7982 166.231 79.1292 171.524 80.217 172.612C81.3048 173.7 83.1281 172.975 83.1281 172.975" stroke="#263238" stroke-linecap="round" stroke-linejoin="round"/>
<path d="M85.625 163.92C85.625 163.92 84.7133 168.634 88.8987 168.821C93.0842 169.007 96.3476 165.909 99.0722 167.184C101.797 168.458 104.335 167.909 105.609 165.909C106.884 163.91 105.972 162.097 105.247 160.646C104.522 159.196 88.1321 157.01 85.625 163.92Z" fill="white" stroke="#263238" stroke-linecap="round" stroke-linejoin="round"/>
<path d="M104.149 158.461C104.149 158.461 92.4214 158.461 88.609 160.284C87.8837 160.563 87.2627 161.06 86.8312 161.706C86.3997 162.352 86.1791 163.116 86.1995 163.893C86.2199 164.67 86.4805 165.421 86.9454 166.044C87.4102 166.667 88.0565 167.13 88.7954 167.37C91.6341 168.272 95.4258 165.733 98.451 165.733C100.658 165.733 104.201 166.904 106.19 165.474C109.132 163.361 106.998 158.647 104.149 158.461Z" fill="white" stroke="#263238" stroke-linecap="round" stroke-linejoin="round"/>
<path d="M98.3474 167.733L99.0726 169.909L97.0732 170.82" stroke="#263238" stroke-linecap="round" stroke-linejoin="round"/>
<path d="M62.3664 195.166C62.3664 195.166 55.6531 197.704 55.6531 200.978C55.6531 204.252 50.3799 238.222 50.3799 238.222C50.3799 238.222 56.5959 236.772 59.103 237.497C61.6101 238.222 67.4117 239.496 67.4117 239.496L67.5982 206.065" fill="#263238"/>
<path d="M62.3664 195.166C62.3664 195.166 55.6531 197.704 55.6531 200.978C55.6531 204.252 50.3799 238.222 50.3799 238.222C50.3799 238.222 56.5959 236.772 59.103 237.497C61.6101 238.222 67.4117 239.496 67.4117 239.496L67.5982 206.065" stroke="#263238" stroke-linecap="round" stroke-linejoin="round"/>
<path d="M66.3652 234.772L68.9241 211.379" stroke="white" stroke-linecap="round" stroke-linejoin="round"/>
<path d="M68.3649 242.584C68.3649 242.584 69.4009 236.585 66.3655 234.772C63.33 232.959 53.1046 232.586 49.6547 234.772C46.2049 236.958 47.2927 245.132 48.6187 246.396C49.9448 247.66 56.4302 248.22 60.0148 247.857C63.5993 247.494 67.6397 246.396 68.3649 242.584Z" fill="white" stroke="#263238" stroke-linecap="round" stroke-linejoin="round"/>
<path d="M94.3477 239.31L101.071 231.685L114.684 231.644L107.795 239.673L94.3477 239.31Z" fill="#263238" stroke="#263238" stroke-linecap="round" stroke-linejoin="round"/>
<path d="M101.071 231.685L98.5227 227.862L91.4365 236.585L94.3477 239.31L101.071 231.685Z" fill="white" stroke="#263238" stroke-linecap="round" stroke-linejoin="round"/>
<path d="M83.4489 238.046C77.8334 239.205 72.1088 239.75 66.3756 239.673C58.5641 239.31 53.6639 238.771 51.3018 241.134C48.9397 243.496 51.6644 248.945 55.6633 250.582C59.6623 252.219 79.0977 244.946 82.1849 244.583C85.2722 244.221 85.8213 244.034 86.7226 244.034C87.6239 244.034 89.8306 245.309 93.0837 245.122C96.3367 244.936 100.17 240.222 100.17 240.222H100.895C100.895 240.222 103.257 238.771 103.081 238.222L102.895 237.673C102.114 237.547 101.324 237.488 100.533 237.497C98.1541 237.338 95.7876 237.033 93.4463 236.585C92.3761 236.419 91.3316 236.116 90.3383 235.684C90.3383 235.684 94.4823 232.773 94.4823 231.685C94.4823 230.597 93.5809 230.224 92.6693 230.597C91.7576 230.97 91.0324 231.499 88.1316 232.949C85.2308 234.399 83.4489 238.046 83.4489 238.046Z" fill="white" stroke="#263238" stroke-linecap="round" stroke-linejoin="round"/>
<path d="M98.5234 227.862L112.882 228.049L114.685 231.644L101.072 231.685L98.5234 227.862Z" fill="white" stroke="#263238" stroke-linecap="round" stroke-linejoin="round"/>
<path d="M114.332 233.498C114.332 233.498 115.058 236.409 113.97 238.046C112.882 239.683 112.934 241.672 110.696 241.672C108.458 241.672 103.444 240.408 104.159 239.31L104.884 238.222C104.884 238.222 105.071 237.86 106.335 237.311C107.598 236.761 105.972 235.684 108.52 234.586C110.381 233.891 112.347 233.523 114.332 233.498Z" fill="white" stroke="#263238" stroke-linecap="round" stroke-linejoin="round"/>
<path d="M107.391 230.121C107.253 230.121 107.117 230.092 106.992 230.034C106.867 229.977 106.756 229.893 106.666 229.789C106.501 229.594 106.421 229.341 106.442 229.087C106.463 228.832 106.585 228.597 106.78 228.432L113.234 223.397C113.325 223.307 113.448 223.257 113.576 223.257C113.704 223.257 113.827 223.307 113.918 223.397C113.964 223.441 114 223.495 114.025 223.553C114.05 223.612 114.062 223.675 114.062 223.739C114.062 223.803 114.05 223.866 114.025 223.925C114 223.983 113.964 224.036 113.918 224.081L108.106 229.841C108.014 229.936 107.902 230.01 107.779 230.059C107.656 230.107 107.523 230.128 107.391 230.121Z" fill="#263238" stroke="white" stroke-width="0.5" stroke-miterlimit="10"/>
</svg>
