<svg width="520" height="435" viewBox="0 0 520 435" fill="none" xmlns="http://www.w3.org/2000/svg">
<g clip-path="url(#clip0_21_2298)">
<path d="M371.906 128.755C389.948 168.689 425.733 194.517 450.844 229.285C473.977 261.241 481.527 305.806 461.207 341.27C437.968 381.728 388.804 376.712 350.795 363.622C330.956 356.788 308.903 343.238 287.428 343.238C257.932 343.238 221.249 382.306 162.3 380.67C119.275 379.525 68.3248 369.643 51.5983 324.052C30.6579 266.888 86.2493 222.708 117.563 182.934C138.718 156.058 152.204 124.199 173.7 97.558C187.86 80.0079 206.768 61.7412 229.42 57.3778C256.071 52.2336 282.723 52.3619 308.454 61.9979C341.234 74.2862 358.014 97.9965 371.906 128.755Z" fill="#7E57C2"/>
<path opacity="0.7" d="M371.906 128.755C389.948 168.689 425.733 194.517 450.844 229.285C473.977 261.241 481.527 305.806 461.207 341.27C437.968 381.728 388.804 376.712 350.795 363.622C330.956 356.788 308.903 343.238 287.428 343.238C257.932 343.238 221.249 382.306 162.3 380.67C119.275 379.525 68.3248 369.643 51.5983 324.052C30.6579 266.888 86.2493 222.708 117.563 182.934C138.718 156.058 152.204 124.199 173.7 97.558C187.86 80.0079 206.768 61.7412 229.42 57.3778C256.071 52.2336 282.723 52.3619 308.454 61.9979C341.234 74.2862 358.014 97.9965 371.906 128.755Z" fill="white"/>
<path d="M276.915 107.247L283.332 104.296L281.963 96.5418L274.829 95.9857C273.922 93.596 272.726 91.3261 271.268 89.2266L274.947 83.0236L269.375 77.4517L263.108 81.1627C259.51 78.7213 255.441 77.0601 251.162 76.2859L249.451 69.1418H241.569L239.761 76.3287C237.316 76.795 234.936 77.5526 232.671 78.5853L226.992 73.7085L220.575 78.2324L223.238 85.1947C221.505 86.9707 219.984 88.9409 218.703 91.0661L211.292 90.3068L208.597 97.7075L214.736 101.879C214.443 103.606 214.296 105.356 214.297 107.108C214.297 107.857 214.297 108.595 214.383 109.322L207.966 112.926L210.009 120.541L217.324 120.445C218.401 122.738 219.751 124.892 221.345 126.861L218.137 133.417L224.179 138.487L230.029 134.294C232.247 135.571 234.614 136.57 237.077 137.267L238.243 144.326L246.093 145.01L248.467 138.326C251.042 138.098 253.579 137.548 256.017 136.69L260.969 141.727L267.792 137.792L265.921 131C267.895 129.319 269.655 127.401 271.161 125.289L278.102 126.562L281.428 119.418L275.984 114.937C276.612 112.422 276.924 109.839 276.915 107.247ZM265.258 107.108C265.258 111 264.104 114.805 261.941 118.041C259.779 121.277 256.706 123.799 253.11 125.289C249.514 126.778 245.557 127.168 241.74 126.408C237.923 125.649 234.417 123.775 231.665 121.023C228.913 118.271 227.038 114.765 226.279 110.947C225.52 107.13 225.909 103.173 227.399 99.5776C228.888 95.9819 231.41 92.9086 234.647 90.7463C237.883 88.584 241.687 87.4299 245.579 87.4299C250.798 87.4299 255.804 89.5031 259.494 93.1935C263.184 96.8839 265.258 101.889 265.258 107.108Z" fill="#263238"/>
<path d="M276.915 103.269L283.332 100.328L281.963 92.5634L274.829 92.0073C273.925 89.6198 272.728 87.3532 271.268 85.2589L274.947 79.0452L269.375 73.4733L263.108 77.1951C259.512 74.7499 255.442 73.0884 251.162 72.3182L249.451 65.1635H241.569L239.761 72.361C237.317 72.8237 234.936 73.5777 232.671 74.6069L226.992 69.7408L220.575 74.254L223.238 81.227C221.5 82.9987 219.978 84.9695 218.703 87.0984L211.292 86.3284L208.597 93.7398L214.736 97.9001C214.444 99.628 214.297 101.377 214.297 103.13C214.297 103.878 214.297 104.616 214.383 105.354L207.966 108.958L209.88 116.573L217.195 116.477C218.272 118.77 219.622 120.925 221.217 122.894L218.008 129.46L224.051 134.519L229.901 130.327C232.116 131.611 234.484 132.614 236.949 133.31L238.114 140.358L245.964 141.053L248.339 134.369C250.914 134.141 253.45 133.591 255.889 132.733L260.841 137.759L267.664 133.824L265.792 127.033C267.769 125.354 269.53 123.435 271.033 121.322L277.974 122.605L281.3 115.461L275.856 110.969C276.529 108.456 276.884 105.87 276.915 103.269ZM265.258 103.13C265.251 107.02 264.092 110.822 261.926 114.054C259.759 117.286 256.684 119.803 253.088 121.287C249.491 122.772 245.536 123.157 241.721 122.394C237.905 121.631 234.402 119.754 231.653 117.001C228.904 114.248 227.033 110.741 226.277 106.925C225.52 103.109 225.912 99.1537 227.402 95.5598C228.892 91.9659 231.415 88.8945 234.65 86.7336C237.885 84.5727 241.689 83.4194 245.579 83.4194C248.166 83.4194 250.728 83.9295 253.117 84.9204C255.507 85.9113 257.678 87.3637 259.505 89.1944C261.333 91.0251 262.782 93.1982 263.769 95.5894C264.756 97.9806 265.262 100.543 265.258 103.13Z" fill="#7E57C2" stroke="#263238" stroke-width="1.08337" stroke-linecap="round" stroke-linejoin="round"/>
<path d="M265.354 216.452L276.851 211.222L274.424 197.426L261.74 196.431C260.125 192.183 257.995 188.15 255.398 184.421L261.932 173.384L252.029 163.48L240.895 170.047C234.498 165.709 227.263 162.758 219.656 161.384L216.447 148.668H202.394L199.186 161.502C194.842 162.327 190.612 163.67 186.587 165.502L176.577 156.839L165.102 164.871L169.829 177.266C166.735 180.41 164.024 183.911 161.754 187.693L148.568 186.335L143.777 199.5L154.696 206.912C154.171 209.986 153.907 213.098 153.904 216.216C153.904 217.542 153.968 218.847 154.065 220.152L142.568 226.569L146.194 240.098L159.209 239.927C161.126 244.003 163.532 247.832 166.374 251.327L160.76 262.984L171.454 271.989L181.85 264.503C185.797 266.771 190.006 268.548 194.384 269.797L196.512 282.342L210.469 283.561L214.683 271.647C219.263 271.238 223.776 270.261 228.115 268.738L236.917 277.69L249.056 270.685L245.719 258.61C249.236 255.623 252.369 252.21 255.045 248.45L267.376 250.728L273.29 238.034L263.665 230.045C264.791 225.601 265.358 221.035 265.354 216.452ZM244.639 216.216C244.639 223.135 242.587 229.899 238.743 235.652C234.899 241.404 229.436 245.888 223.043 248.536C216.651 251.184 209.617 251.876 202.831 250.527C196.045 249.177 189.812 245.845 184.92 240.953C180.027 236.06 176.696 229.827 175.346 223.041C173.996 216.255 174.689 209.221 177.336 202.829C179.984 196.437 184.468 190.973 190.221 187.129C195.974 183.285 202.737 181.234 209.656 181.234C218.933 181.237 227.829 184.923 234.389 191.483C240.949 198.043 244.636 206.939 244.639 216.216Z" fill="#263238"/>
<path d="M265.354 211.072L276.851 205.832L274.423 192.035L261.739 191.051C260.125 186.804 257.995 182.77 255.397 179.041L261.932 168.004L252.028 158.09L240.895 164.7C234.498 160.358 227.263 157.404 219.655 156.026L216.447 143.321H202.394L199.186 156.155C194.841 156.979 190.612 158.322 186.587 160.154L176.577 151.492L165.101 159.523L169.828 171.919C166.741 175.067 164.038 178.571 161.775 182.357L148.599 180.956L143.808 194.121L154.727 201.532C154.203 204.603 153.939 207.711 153.936 210.826C153.936 212.152 154 213.468 154.096 214.772L142.6 221.189L146.225 234.729L159.241 234.558C161.148 238.62 163.543 242.434 166.374 245.916L160.759 257.584L171.454 266.589L181.849 259.102C185.795 261.371 190.005 263.145 194.384 264.385L196.512 276.995L210.469 278.224L214.682 266.3C219.263 265.891 223.775 264.914 228.115 263.391L236.917 272.342L249.055 265.337L245.718 253.263C249.236 250.276 252.368 246.863 255.044 243.103L267.375 245.381L273.29 232.675L263.664 224.697C264.793 220.244 265.361 215.666 265.354 211.072ZM244.638 210.826C244.638 217.745 242.587 224.509 238.743 230.261C234.899 236.014 229.435 240.498 223.043 243.146C216.651 245.794 209.617 246.486 202.831 245.136C196.045 243.787 189.812 240.455 184.919 235.562C180.027 230.67 176.695 224.437 175.345 217.651C173.996 210.865 174.688 203.831 177.336 197.439C179.984 191.047 184.468 185.583 190.22 181.739C195.973 177.895 202.737 175.844 209.656 175.844C218.934 175.844 227.832 179.529 234.392 186.09C240.953 192.65 244.638 201.548 244.638 210.826Z" fill="#7E57C2" stroke="#263238" stroke-width="1.08337" stroke-linecap="round" stroke-linejoin="round"/>
<path d="M392.13 246.953L403.626 241.712L401.188 227.916L388.483 226.932C386.867 222.702 384.745 218.684 382.162 214.965L388.697 203.917L378.793 194.014L367.671 200.623C361.27 196.281 354.031 193.327 346.42 191.95L343.212 179.244H329.202L325.993 192.078C321.648 192.901 317.419 194.244 313.395 196.078L303.374 187.404L291.898 195.447L296.625 207.842C293.544 210.994 290.845 214.497 288.583 218.28L275.386 216.922L270.594 230.087L281.535 237.424C281.02 240.495 280.759 243.603 280.754 246.718C280.754 248.044 280.819 249.359 280.904 250.653L269.418 257.07L272.979 270.578L285.984 270.406C287.899 274.467 290.298 278.28 293.128 281.764L287.513 293.432L298.208 302.437L308.614 294.951C312.554 297.248 316.764 299.044 321.148 300.298L323.287 312.843L337.191 314.062L341.394 302.191C345.974 301.779 350.486 300.802 354.826 299.282L363.639 308.223L375.767 301.218L372.441 289.154C375.955 286.164 379.087 282.752 381.766 278.994L394.14 281.272L400.065 268.578L390.44 260.589C391.56 256.13 392.128 251.55 392.13 246.953ZM371.371 246.707C371.377 253.629 369.33 260.396 365.489 266.154C361.647 271.912 356.184 276.401 349.791 279.052C343.397 281.704 336.361 282.4 329.572 281.051C322.783 279.702 316.546 276.37 311.652 271.475C306.758 266.581 303.425 260.345 302.077 253.556C300.728 246.767 301.423 239.73 304.075 233.337C306.727 226.943 311.216 221.48 316.973 217.639C322.731 213.797 329.499 211.75 336.421 211.756C345.688 211.762 354.575 215.446 361.128 221.999C367.681 228.553 371.365 237.439 371.371 246.707Z" fill="#263238"/>
<path d="M392.13 241.574L403.626 236.333L401.188 222.537L388.483 221.553C386.86 217.303 384.727 213.267 382.13 209.532L388.664 198.495L378.761 188.592L367.639 195.201C361.238 190.859 353.999 187.905 346.388 186.528L343.18 173.822H329.17L325.961 186.656C321.616 187.479 317.387 188.822 313.363 190.656L303.342 181.982L291.866 190.025L296.593 202.42C293.51 205.57 290.81 209.074 288.551 212.858L275.354 211.5L270.573 224.59L281.535 232.077C281.02 235.151 280.759 238.263 280.754 241.381C280.754 242.707 280.819 244.012 280.904 245.317L269.418 251.734L272.979 265.23L285.984 265.07C287.901 269.129 290.3 272.942 293.128 276.428L287.513 288.096L298.208 297.101L308.614 289.614C312.561 291.884 316.77 293.662 321.148 294.908L323.287 307.453L337.191 308.672L341.426 296.801C346.007 296.394 350.519 295.417 354.858 293.892L363.671 302.844L375.799 295.839L372.473 283.775C375.985 280.782 379.117 277.37 381.798 273.615L394.14 275.925L400.065 263.23L390.44 255.241C391.562 250.772 392.13 246.182 392.13 241.574ZM371.371 241.328C371.371 248.246 369.319 255.01 365.475 260.763C361.631 266.516 356.168 270.999 349.776 273.647C343.384 276.295 336.35 276.988 329.564 275.638C322.778 274.288 316.544 270.956 311.652 266.064C306.76 261.172 303.428 254.938 302.078 248.152C300.728 241.366 301.421 234.333 304.069 227.94C306.717 221.548 311.2 216.085 316.953 212.241C322.706 208.397 329.47 206.345 336.389 206.345C340.983 206.344 345.533 207.248 349.777 209.005C354.022 210.763 357.879 213.339 361.128 216.588C364.377 219.837 366.953 223.694 368.711 227.939C370.469 232.184 371.372 236.733 371.371 241.328Z" fill="#7E57C2" stroke="#263238" stroke-width="1.08337" stroke-linecap="round" stroke-linejoin="round"/>
<path d="M376.997 274.717C377.126 275.624 376.921 276.548 376.419 277.315C375.553 279.048 374.109 279.626 374.976 280.524C375.851 281.235 376.823 281.819 377.863 282.257C377.863 282.257 378.441 288.032 381.072 290.63C383.703 293.229 389.734 290.053 389.734 290.053L392.622 295.251L399.552 291.208C399.552 291.208 397.82 289.475 395.798 283.412C393.777 277.348 390.601 273.016 384.537 272.439C378.473 271.861 376.997 274.717 376.997 274.717Z" fill="white" stroke="#263238" stroke-miterlimit="10"/>
<path d="M360.527 302.437L358.795 297.817C357.928 295.507 355.907 294.609 353.597 294.609C351.287 294.609 350.132 292.299 348.977 292.587C347.822 292.876 349.554 294.609 350.421 295.475C351.023 296.048 351.704 296.534 352.442 296.919C350.008 296.731 347.594 296.345 345.223 295.764C342.014 294.898 342.624 296.053 344.934 298.074C347.244 300.095 350.709 302.117 351.864 302.117C353.236 302.281 354.589 302.571 355.907 302.983L357.468 305.87L360.527 302.437Z" fill="white" stroke="#263238" stroke-miterlimit="10"/>
<path d="M391.98 264.738L387.167 263.669C384.75 263.145 383.606 261.263 383.285 258.974C382.964 256.685 380.505 255.873 380.622 254.696C380.74 253.52 382.761 254.974 383.692 255.766C384.341 256.284 384.917 256.888 385.403 257.562C384.882 255.18 384.167 252.844 383.264 250.579C381.948 247.552 383.178 247.969 385.51 249.969C387.841 251.969 390.322 255.113 390.494 256.247C390.716 257.146 391.132 257.985 391.713 258.707L393.638 261.113L391.98 264.738Z" fill="white" stroke="#263238" stroke-miterlimit="10"/>
<path d="M357.639 327.559L355.907 303.015C356.586 302.583 357.353 302.307 358.152 302.207C358.951 302.107 359.762 302.186 360.527 302.437L368.013 323.517C368.013 323.517 362.259 331.602 357.639 327.559Z" fill="#7E57C2" stroke="#263238" stroke-miterlimit="10"/>
<path d="M379.307 347.484C379.307 347.484 368.612 343.73 367.746 348.061C366.88 352.393 380.462 357.601 385.082 357.312C389.703 357.023 385.371 349.804 379.307 347.484Z" fill="white" stroke="#263238" stroke-miterlimit="10"/>
<path d="M398.108 338.821C398.108 338.821 381.072 328.126 376.451 325.827C371.831 323.528 366.623 324.094 364.602 328.715C362.58 333.335 382.783 352.115 387.424 358.467C392.066 364.82 403.306 366.553 409.081 366.553C414.856 366.553 424.963 360.2 426.118 354.714C427.273 349.227 426.695 330.736 425.252 325.838C423.808 320.939 420.343 317.752 416.3 322.373C412.257 326.993 402.119 339.11 398.108 338.821Z" fill="#263238"/>
<path d="M396.974 339.313C396.974 339.313 391.499 352.585 392.13 357.013" stroke="white" stroke-width="0.5" stroke-miterlimit="10"/>
<path d="M420.995 337.42C420.995 337.42 425.625 342.896 425.829 348.371" stroke="white" stroke-width="0.5" stroke-miterlimit="10"/>
<path d="M399.809 289.732C399.809 289.732 393.456 293.197 390.857 296.085C388.259 298.972 361.982 322.362 359.372 323.806C356.763 325.249 356.485 331.025 361.105 331.602C365.725 332.18 388.259 320.052 388.259 320.052C388.259 320.052 386.237 325.249 388.259 326.982C390.28 328.714 395.478 330.19 396.055 332.468C396.633 334.746 395.766 339.399 398.654 341.709C401.542 344.019 410.493 344.917 415.979 340.554C421.466 336.19 421.177 325.827 420.022 318.897C418.867 311.966 420.888 286.556 419.445 280.781C418.001 275.005 392.013 261.145 392.013 261.145L390.857 265.476C390.857 265.476 408.183 278.182 408.472 279.38C408.761 280.577 399.809 289.732 399.809 289.732Z" fill="#7E57C2" stroke="#263238" stroke-miterlimit="10"/>
<path d="M388.258 320.052L398.761 316.597" stroke="#263238" stroke-miterlimit="10" stroke-linecap="round"/>
<path d="M389.403 319.346L398.761 322.373" stroke="#263238" stroke-miterlimit="10" stroke-linecap="round"/>
<path d="M386.237 260.856C384.76 259.776 382.965 259.218 381.135 259.27C379.305 259.322 377.544 259.982 376.131 261.145C370.645 265.188 374.11 271.251 375.553 272.984L376.997 274.717C376.997 274.717 381.329 282.513 385.66 285.689C389.991 288.866 399.809 289.732 399.809 289.732C399.809 289.732 403.563 293.486 403.018 304.17C402.472 314.854 398.686 320.629 405.328 329.292C411.969 337.955 423.776 341.163 429.551 332.18C435.326 323.196 436.77 313.998 429.84 304.747C422.91 295.497 411.359 291.465 408.183 290.021C405.007 288.577 403.852 286.267 403.852 285.112C403.852 283.957 409.049 270.674 403.852 263.166C398.654 255.659 390.858 258.247 386.237 260.856Z" fill="#263238"/>
<path d="M384.975 262.225C384.975 262.225 380.761 260.749 379.916 266.642C379.072 272.535 382.772 282.738 391.296 286.235" stroke="white" stroke-width="0.5" stroke-miterlimit="10" stroke-linecap="round"/>
<path d="M383.071 271.07C384.792 275.335 387.36 279.206 390.622 282.449C393.968 285.537 398.141 287.585 402.632 288.342" stroke="white" stroke-width="0.5" stroke-miterlimit="10" stroke-linecap="round"/>
<path d="M404.985 292.769C404.985 292.769 412.771 301.4 409.83 312.779C406.889 324.158 413.616 335.73 422.257 334.896C430.898 334.062 430.888 322.062 430.888 322.062" stroke="white" stroke-width="0.5" stroke-miterlimit="10" stroke-linecap="round"/>
<path d="M403.509 291.08C403.509 291.08 408.14 291.293 415.092 300.769C422.043 310.245 417.83 318.672 418.674 325.838C419.519 333.003 425.626 331.73 427.102 328.779" stroke="white" stroke-width="0.5" stroke-miterlimit="10" stroke-linecap="round"/>
<path d="M378.697 111.001C373.04 104.06 363.265 102.702 356.003 97.7611C351.143 94.4415 346.499 90.8157 342.1 86.9059H341.768C339.512 84.4902 336.489 82.9296 333.212 82.489C325.726 81.858 318.357 84.2857 319.01 92.7559C318.582 93.034 318.165 93.3228 317.737 93.6543C317.037 93.7503 316.354 93.941 315.705 94.2211C310.475 96.4243 310.069 107.269 313.972 112.231C316.047 114.862 320.111 117.086 323.844 118.327V118.445C323.844 118.445 324.165 119.514 335.02 120.584C345.875 121.653 349.051 125.931 348.559 131.139C348.372 133.081 348.604 135.041 349.239 136.886C349.873 138.731 350.896 140.418 352.238 141.834C353.554 143.684 355.693 145.139 359.126 145.984C378.986 150.796 390.622 125.599 378.697 111.001Z" fill="#263238"/>
<path d="M323.651 96.1461C328.782 101.72 335.311 105.818 342.56 108.017C354.046 111.226 366.634 107.354 374.131 112.691C381.628 118.028 381.735 123.525 381.029 126.594" stroke="white" stroke-width="0.5" stroke-miterlimit="10" stroke-linecap="round"/>
<path d="M321.694 92.5527C324.951 91.033 328.625 90.6562 332.122 91.4832C337.886 92.8735 341.822 100.199 351.971 104.317C362.121 108.434 367.66 105.386 372.666 108.178" stroke="white" stroke-width="0.5" stroke-miterlimit="10" stroke-linecap="round"/>
<path d="M321.63 97.6006C320.119 98.6688 318.885 100.084 318.033 101.727C317.18 103.37 316.734 105.193 316.732 107.044C316.732 113.365 321.534 114.242 321.534 114.242" stroke="white" stroke-width="0.5" stroke-miterlimit="10" stroke-linecap="round"/>
<path d="M320.037 96.6167C320.037 96.6167 312.026 101.119 312.614 106.017C312.724 107.372 313.195 108.673 313.977 109.784C314.76 110.896 315.825 111.777 317.063 112.338" stroke="white" stroke-width="0.5" stroke-miterlimit="10" stroke-linecap="round"/>
<path d="M326.453 136.412C326.453 136.412 319.716 142.315 318.047 149.534C316.379 156.753 314.839 183.063 317.352 185.458C319.865 187.854 322.763 186.709 324.539 184.699C326.314 182.688 335.169 154.529 335.169 154.529L337.704 155.181C337.704 155.181 347.843 177.961 348.912 180.571C349.982 183.18 354.142 187.405 358.291 185.03C362.441 182.656 359.361 164.71 357.222 158.058C355.083 151.406 349.468 134.925 345.019 133.171C340.57 131.418 328.646 132.925 326.453 136.412Z" fill="#263238"/>
<path d="M325.384 139.032C325.384 139.032 330.828 147.224 337.566 145.834C344.303 144.444 346.207 136.497 345.94 134.797C345.672 133.096 325.384 139.032 325.384 139.032Z" fill="#7E57C2" stroke="#263238" stroke-miterlimit="10"/>
<path d="M330.731 110.691C330.731 110.691 315.523 115.825 312.657 119.75C309.791 123.674 305.737 151.427 305.171 152.55C304.604 153.673 296.615 180.645 296.615 180.645L301.085 180.303C301.085 180.303 314.325 153.566 314.849 152.433C315.373 151.299 319.352 134.348 319.352 134.348C319.352 134.348 321.159 139.289 324.036 139.888C326.913 140.487 334.731 139.267 340.153 138.433C345.575 137.599 347.286 137.364 349.297 134.583C351.308 131.802 351.019 127.706 351.019 127.706L359.896 146.85L353.885 177.694L358.334 179.437C358.334 179.437 367.574 151.577 367.885 149.085C368.195 146.593 361.575 128.509 357.19 120.487C352.805 112.466 351.842 112.627 347.693 110.862C343.543 109.098 330.731 110.691 330.731 110.691Z" fill="#7E57C2" stroke="#263238" stroke-miterlimit="10"/>
<path d="M329.555 118.53C329.555 118.53 330.421 126.391 333.683 127.279C336.945 128.166 335.769 118.263 335.769 118.263L329.555 118.53Z" fill="white" stroke="#263238" stroke-miterlimit="10"/>
<path d="M327.234 102.98C326.082 105.18 324.356 107.028 322.24 108.328C323.016 111.209 324.313 113.924 326.068 116.338C330.86 122.552 333.341 122.862 335.801 120.744C337.875 118.947 339.629 113.45 339.629 108.713C329.01 105.761 327.234 102.98 327.234 102.98Z" fill="white" stroke="#263238" stroke-miterlimit="10"/>
<path d="M324.593 110.017C324.947 109.604 325.406 109.294 325.922 109.119C326.437 108.944 326.99 108.911 327.523 109.023C329.47 109.365 329.78 111.921 330.261 113.504C330.742 115.087 330.935 118.113 333.074 115.557" stroke="#263238" stroke-width="0.5" stroke-linecap="round" stroke-linejoin="round"/>
<path d="M331.983 108.809C331.983 108.809 333.78 106.221 336.731 108.809" stroke="#263238" stroke-width="0.5" stroke-linecap="round" stroke-linejoin="round"/>
<path d="M331.095 118.209C331.095 118.209 333.234 119.279 334.582 117.514" stroke="#263238" stroke-width="0.5" stroke-linecap="round" stroke-linejoin="round"/>
<path d="M326.336 111.579C326.336 111.579 327.405 112.755 328.646 111.226" stroke="#263238" stroke-width="0.5" stroke-linecap="round" stroke-linejoin="round"/>
<path d="M333.49 110.809C333.704 110.997 333.953 111.14 334.223 111.231C334.492 111.322 334.778 111.358 335.061 111.337C335.345 111.316 335.622 111.239 335.876 111.109C336.129 110.98 336.355 110.801 336.538 110.584" stroke="#263238" stroke-width="0.5" stroke-linecap="round" stroke-linejoin="round"/>
<path d="M296.743 180.646C295.383 182.261 294.26 184.061 293.407 185.993C292.701 188.185 290.273 192.741 291.974 192.474C293.674 192.207 295.941 186.645 295.941 186.645C297.607 186.192 299.145 185.357 300.433 184.207C300.867 183.658 301.164 183.014 301.3 182.328C301.436 181.642 301.406 180.933 301.214 180.26L296.743 180.646Z" fill="white" stroke="#263238" stroke-miterlimit="10"/>
<path d="M354.014 177.694C354.014 177.694 350.806 181.33 350.57 182.399C350.335 183.469 350.164 188.72 350.164 188.72C350.164 188.72 350.656 189.682 351.854 188.453C352.189 188.182 352.459 187.84 352.644 187.451C352.829 187.062 352.924 186.637 352.923 186.207C352.923 186.207 352.485 190.1 353.03 191.404C353.576 192.709 356.378 190.538 357.18 189.03C357.982 187.522 358.485 179.405 358.485 179.405L354.014 177.694Z" fill="white" stroke="#263238" stroke-miterlimit="10"/>
<path d="M118.815 279.005C118.815 279.005 129.211 281.604 125.457 283.336C121.703 285.069 114.484 285.358 110.484 284.203C106.484 283.048 105.864 278.716 109.04 278.139C112.217 277.561 118.815 279.005 118.815 279.005Z" fill="white" stroke="#263238" stroke-linecap="round" stroke-linejoin="round"/>
<path d="M86.7628 312.501L75.79 315.1L76.945 321.452L79.5438 322.03C79.5438 322.03 78.6775 329.516 79.8326 332.725C80.9876 335.933 81.8539 341.676 84.1105 340.81C86.3671 339.944 84.9767 327.816 85.843 326.372C87.166 324.633 88.6136 322.992 90.1744 321.463L87.2868 313.667L86.7628 312.501Z" fill="white" stroke="#263238" stroke-linecap="round" stroke-linejoin="round"/>
<path d="M79.7568 314.426C79.7568 314.426 81.0723 336.522 84.1631 340.8" stroke="#263238" stroke-linecap="round" stroke-linejoin="round"/>
<path d="M107.264 281.026C107.264 281.026 127.766 286.224 137.295 290.844C146.824 295.464 152.033 302.394 146.257 307.592C140.482 312.79 115.638 317.987 108.419 320.009C101.2 322.03 89.0721 324.286 89.0721 324.286L86.1738 311.517L112.173 306.095L93.6922 298.876C93.6922 298.876 87.0508 296.566 90.2271 289.635C93.4035 282.705 107.264 281.026 107.264 281.026Z" fill="#263238"/>
<path d="M112.173 306.148C112.173 306.148 128.055 309.036 134.119 309.036" stroke="white" stroke-width="0.5" stroke-miterlimit="10" stroke-linecap="round"/>
<path d="M111.596 278.427L118.526 281.315C122.037 277.821 126.144 274.981 130.654 272.93C137.873 269.722 146.257 267.155 144.814 258.781C143.37 250.407 136.718 249.252 130.076 249.252H118.526L111.596 278.427Z" fill="#263238"/>
<path d="M141.605 205.97C141.605 205.97 147.53 207.297 148.022 206.623C148.514 205.949 154.439 203.564 155.605 203.008C156.77 202.452 157.433 201.136 156.161 200.869C154.888 200.602 149.145 202.356 149.145 202.356L152.824 197.169C152.824 197.169 158.428 194.217 157.465 193.105C156.503 191.992 153.776 193.105 152.332 193.105C150.888 193.105 145.797 193.5 143.969 195.372C142.14 197.244 138.001 202.067 138.001 202.067L141.605 205.97Z" fill="white" stroke="#263238" stroke-linecap="round" stroke-linejoin="round"/>
<path d="M130.226 218.548L143.37 207.19L138.718 203.778L118.868 212.152C112.858 213.788 105.949 215.917 104.088 217.499C100.623 220.387 100.623 229.627 100.623 230.494C100.623 231.36 95.4465 239.723 88.2062 246.653C80.9658 253.584 69.4369 259.07 66.5493 261.626C63.6617 264.182 66.5493 283.294 74.9233 291.956C80.4885 297.495 86.9272 302.08 93.9814 305.528C93.9814 305.528 113.039 281.272 115.371 276.941C117.702 272.61 118.258 271.733 118.258 271.733C118.258 271.733 125.477 259.316 124.9 255.562C124.322 251.808 124.034 235.926 124.034 232.461C124.034 228.996 129.231 221.489 130.098 218.89C130.119 218.804 130.172 218.676 130.226 218.548Z" fill="#7E57C2" stroke="#263238" stroke-linecap="round" stroke-linejoin="round"/>
<path d="M100.623 230.483C100.623 230.483 107.222 221.638 112.804 218.719" stroke="#263238" stroke-miterlimit="10" stroke-linecap="round"/>
<path d="M149.145 213.735C149.617 215.916 149.714 218.162 149.434 220.376C148.856 222.975 151.744 224.13 150.3 225.285C148.856 226.44 147.413 227.884 147.413 227.884L144.204 234.237C143.338 235.969 140.996 238.279 138.996 237.991C136.996 237.702 132.354 234.237 130.622 234.237C128.889 234.237 124.558 236.547 124.558 236.547C124.558 236.547 123.98 227.884 123.98 224.708C123.98 221.531 127.734 220.665 127.734 220.665C127.734 220.665 130.333 215.179 133.798 212.58C137.263 209.981 146.258 209.692 149.145 213.735Z" fill="white" stroke="#263238" stroke-linecap="round" stroke-linejoin="round"/>
<path d="M132.964 230.194C132.964 230.194 134.696 232.215 135.851 232.215H137.006C137.376 233.507 137.86 234.763 138.45 235.969" stroke="#263238" stroke-linecap="round" stroke-linejoin="round"/>
<path d="M149.145 219.243C148.585 219.647 148.115 220.164 147.767 220.761C147.419 221.358 147.2 222.021 147.124 222.708" stroke="#263238" stroke-linecap="round" stroke-linejoin="round"/>
<path d="M132.964 230.194C132.964 230.194 128.633 228.462 125.478 222.109C122.323 215.756 120.569 207.671 128.365 201.607C136.162 195.543 143.103 198.719 146.546 199.874C149.99 201.029 155.498 203.917 153.476 209.981C151.455 216.045 142.215 216.622 142.504 218.066C142.793 219.51 145.712 222.344 143.948 222.975C142.183 223.606 140.472 224.708 140.472 225.574C140.472 226.44 140.194 228.782 139.317 228.782C138.44 228.782 135.852 223.007 133.83 224.74C131.809 226.472 132.964 230.194 132.964 230.194Z" fill="#263238"/>
<path d="M125.457 222.109L127.532 235.681L131.863 245.21H122.911C121.393 240.547 120.143 235.802 119.168 230.996C118.833 229.192 119.016 227.33 119.698 225.626C120.379 223.922 121.531 222.446 123.018 221.371L125.457 222.109Z" fill="white" stroke="#263238" stroke-linecap="round" stroke-linejoin="round"/>
<path d="M168.781 269.177C168.781 269.177 171.38 263.69 172.246 263.69C173.112 263.69 178.599 260.482 179.732 259.936C180.866 259.391 182.331 259.648 181.753 260.803C181.176 261.958 176.267 265.423 176.267 265.423L182.62 265.712C182.62 265.712 188.395 263.113 188.684 264.557C188.972 266 186.374 267.444 185.475 268.599C184.577 269.754 181.197 273.519 178.545 273.797C175.893 274.075 169.594 274.385 169.594 274.385L168.781 269.177Z" fill="white" stroke="#263238" stroke-linecap="round" stroke-linejoin="round"/>
<path d="M108.419 261.958C108.419 261.958 136.717 288.823 139.894 289.111C143.07 289.4 171.091 276.406 171.091 276.406L168.781 267.733L140.771 274.15C140.771 274.15 118.526 245.552 116.504 245.552C114.483 245.552 111.018 248.439 111.018 248.439" fill="#7E57C2"/>
<path d="M108.419 261.958C108.419 261.958 136.717 288.823 139.894 289.111C143.07 289.4 171.091 276.406 171.091 276.406L168.781 267.733L140.771 274.15C140.771 274.15 118.526 245.552 116.504 245.552C114.483 245.552 111.018 248.439 111.018 248.439" stroke="#263238" stroke-linecap="round" stroke-linejoin="round"/>
<path d="M108.709 286.513C108.709 286.513 91.6718 297.207 87.6292 298.641C83.5866 300.074 81.5439 300.951 81.5439 300.951C81.5439 300.951 84.2924 304.405 85.8218 305.154C89.3831 306.94 93.9819 305.571 93.9819 305.571L108.709 286.513Z" fill="#7E57C2" stroke="#263238" stroke-linecap="round" stroke-linejoin="round"/>
</g>
<defs>
<clipPath id="clip0_21_2298">
<rect width="426" height="327" fill="white" transform="translate(47 54)"/>
</clipPath>
</defs>
</svg>
