<svg width="520" height="435" viewBox="0 0 520 435" fill="none" xmlns="http://www.w3.org/2000/svg">
<path d="M453.023 194.88C446.55 163.46 432.999 133.93 413.401 108.533C393.803 83.1352 368.674 62.5397 339.923 48.3109C333.786 45.2717 327.279 42.218 320.4 39.1498C234.27 0.869816 184.68 33.9298 159.45 72.2098C134.22 110.49 102.9 176.61 82.89 208.8C62.88 240.99 36.78 308.85 87.24 355.83C137.7 402.81 185.55 387.15 218.61 374.1C251.67 361.05 284.73 372.36 345.63 372.36C406.53 372.36 456.99 325.38 460.47 267.09C461.74 245.758 458.121 219.527 453.023 194.88Z" fill="#7E57C2"/>
<path opacity="0.7" d="M453.023 194.88C446.55 163.46 432.999 133.93 413.401 108.533C393.803 83.1352 368.674 62.5397 339.923 48.3109C333.786 45.2717 327.279 42.218 320.4 39.1498C234.27 0.869816 184.68 33.9298 159.45 72.2098C134.22 110.49 102.9 176.61 82.89 208.8C62.88 240.99 36.78 308.85 87.24 355.83C137.7 402.81 185.55 387.15 218.61 374.1C251.67 361.05 284.73 372.36 345.63 372.36C406.53 372.36 456.99 325.38 460.47 267.09C461.74 245.758 458.121 219.527 453.023 194.88Z" fill="white"/>
<path d="M424.504 292.094C421.79 291.798 418.571 295.513 417.544 297.74C417.457 297.932 416.465 301.09 416.518 301.09H416.57C416.056 301.673 415.517 302.299 414.934 303.004C413.881 304.3 412.707 305.77 411.532 307.458C411.532 304.848 411.045 299.393 407.583 299.063C403.015 298.628 401.71 303.848 404.538 306.675C405.34 307.425 406.283 308.008 407.311 308.392C408.34 308.775 409.435 308.952 410.532 308.911C409.662 310.225 408.792 311.625 407.922 313.148C406.706 315.331 405.69 317.62 404.886 319.986V320.073C404.886 319.273 404.886 317.037 404.842 316.871C404.529 314.453 402.502 309.972 399.822 309.476C399.375 309.406 398.918 309.431 398.481 309.55C398.044 309.668 397.637 309.878 397.286 310.164C396.935 310.451 396.649 310.808 396.446 311.213C396.243 311.617 396.128 312.06 396.107 312.513C395.942 314.427 397.334 316.349 398.717 317.559C400.249 318.925 404.494 320.247 404.807 320.351C404.046 322.777 403.447 325.25 403.015 327.755C402.754 329.217 402.537 330.696 402.337 332.175C402.337 331.487 402.337 330.87 402.337 330.783C402.023 328.373 399.996 323.892 397.317 323.396C396.87 323.325 396.413 323.349 395.976 323.466C395.539 323.583 395.132 323.792 394.781 324.078C394.43 324.364 394.144 324.72 393.94 325.125C393.737 325.529 393.622 325.972 393.602 326.424C393.437 328.347 394.829 330.261 396.212 331.479C397.595 332.697 401.188 333.906 402.145 334.211C402.067 334.776 401.997 335.35 401.928 335.951C401.597 338.691 401.284 341.423 400.892 344.094C400.762 345.033 400.588 345.956 400.423 346.878C400.423 346.26 400.423 345.747 400.423 345.668C400.109 343.25 398.091 338.769 395.403 338.273C394.955 338.203 394.498 338.228 394.061 338.347C393.624 338.465 393.217 338.675 392.866 338.961C392.516 339.248 392.23 339.605 392.027 340.01C391.823 340.414 391.708 340.857 391.688 341.31C391.531 343.232 392.923 345.146 394.298 346.356C395.672 347.565 398.926 348.67 400.057 349.035C399.857 349.975 399.666 350.923 399.431 351.819C399.248 352.437 399.126 353.037 398.917 353.638C398.709 354.238 398.526 354.838 398.343 355.43C397.926 356.561 397.517 357.718 397.09 358.805C396.795 359.571 396.508 360.284 396.22 361.007C396.368 360.076 396.621 358.24 396.621 358.083C396.587 355.944 396.009 353.848 394.942 351.993C394.949 351.755 394.934 351.516 394.898 351.28C394.841 350.831 394.69 350.4 394.455 350.014C394.22 349.627 393.907 349.295 393.535 349.037C393.164 348.78 392.742 348.603 392.298 348.519C391.854 348.435 391.397 348.445 390.957 348.548C388.347 349.253 386.65 353.873 386.52 356.3C386.52 356.448 386.607 358.04 386.685 358.997C386.555 358.423 386.433 357.866 386.285 357.257C386.007 356.091 385.702 354.934 385.372 353.69L384.823 351.889C384.658 351.28 384.397 350.662 384.188 350.045C383.666 348.618 383.075 347.2 382.448 345.79C383.466 345.547 387.077 344.624 388.538 343.511C390 342.397 391.514 340.596 391.496 338.665C391.509 338.213 391.426 337.763 391.253 337.345C391.08 336.927 390.821 336.55 390.493 336.239C390.164 335.928 389.774 335.69 389.347 335.54C388.921 335.389 388.467 335.331 388.016 335.368C385.302 335.663 382.953 339.979 382.466 342.328C382.466 342.476 382.274 344.224 382.205 345.19C381.813 344.32 381.43 343.45 381.013 342.65C379.804 340.205 378.499 337.778 377.211 335.342C376.811 334.602 376.428 333.854 376.045 333.106C376.411 333.027 380.717 332.027 382.344 330.783C383.788 329.669 385.311 327.86 385.302 325.937C385.313 325.485 385.229 325.035 385.056 324.618C384.882 324.2 384.623 323.823 384.296 323.512C383.968 323.2 383.578 322.961 383.152 322.809C382.726 322.657 382.273 322.597 381.822 322.631C379.116 322.927 376.767 327.251 376.271 329.634C376.271 329.808 376.01 332.331 375.984 332.975C375.114 331.331 374.288 329.687 373.531 328.025C372.499 325.795 371.61 323.503 370.869 321.161C371.043 321.117 375.549 320.09 377.211 318.82C378.655 317.715 380.186 315.906 380.169 313.974C380.182 313.522 380.099 313.072 379.926 312.655C379.753 312.237 379.494 311.86 379.165 311.549C378.837 311.238 378.447 310.999 378.02 310.849C377.593 310.699 377.14 310.64 376.689 310.677C373.975 310.973 371.626 315.288 371.13 317.637C371.13 317.794 370.921 319.708 370.86 320.63H370.703C370.028 318.251 369.565 315.817 369.32 313.357C369.172 311.999 369.103 310.694 369.059 309.433C369.929 309.32 373.835 308.798 375.462 307.823C377.089 306.849 378.733 305.213 378.942 303.334C379.003 302.886 378.97 302.429 378.843 301.995C378.717 301.56 378.501 301.157 378.209 300.811C377.917 300.465 377.556 300.184 377.149 299.986C376.742 299.788 376.298 299.678 375.845 299.663C373.113 299.663 370.303 303.691 369.555 306.014C369.511 306.136 369.242 307.458 369.05 308.432C369.05 307.858 369.05 307.267 369.05 306.692C369.05 304.631 369.19 302.743 369.32 301.072C369.398 300.124 369.485 299.263 369.581 298.462C370.373 297.923 373.522 295.696 374.497 294.112C375.471 292.529 376.237 290.319 375.506 288.536C375.355 288.108 375.116 287.718 374.804 287.39C374.492 287.061 374.115 286.802 373.696 286.63C373.277 286.457 372.827 286.375 372.374 286.389C371.921 286.402 371.476 286.511 371.069 286.709C368.65 287.961 368.006 292.799 368.407 295.235C368.407 295.443 369.364 298.628 369.398 298.601H369.451C369.346 299.367 369.233 300.194 369.137 301.098C368.972 302.769 368.798 304.657 368.755 306.727C368.755 307.11 368.755 307.502 368.755 307.893C367.711 306.292 364.405 301.803 360.925 302.751C356.635 303.908 357.627 307.702 361.09 308.528C363.633 308.983 366.237 308.983 368.781 308.528C368.781 310.085 368.781 311.73 368.963 313.426C369.156 315.918 369.572 318.387 370.207 320.804C370.202 320.833 370.202 320.862 370.207 320.891C369.772 320.221 368.467 318.377 368.398 318.281C366.806 316.436 362.647 313.818 360.142 314.879C359.729 315.067 359.361 315.34 359.061 315.68C358.761 316.02 358.536 316.419 358.401 316.851C358.265 317.284 358.223 317.74 358.275 318.19C358.328 318.64 358.475 319.074 358.706 319.464C359.637 321.152 361.855 321.987 363.656 322.248C365.683 322.544 369.955 321.308 370.294 321.204C370.999 323.651 371.871 326.046 372.904 328.373C373.487 329.73 374.122 331.087 374.775 332.427C374.383 331.862 374.035 331.357 373.975 331.287C372.382 329.443 368.224 326.824 365.718 327.894C365.306 328.081 364.938 328.353 364.638 328.692C364.339 329.031 364.114 329.43 363.978 329.862C363.843 330.294 363.8 330.749 363.852 331.199C363.905 331.648 364.051 332.082 364.283 332.471C365.214 334.158 367.432 334.994 369.233 335.255C371.034 335.516 374.714 334.541 375.68 334.263L376.445 335.811C377.681 338.273 378.925 340.727 380.073 343.163C380.482 344.033 380.848 344.903 381.213 345.773C380.874 345.268 380.578 344.842 380.526 344.79C378.934 342.945 374.766 340.327 372.261 341.388C371.848 341.576 371.48 341.849 371.18 342.189C370.88 342.529 370.656 342.928 370.521 343.361C370.386 343.794 370.345 344.25 370.399 344.7C370.452 345.151 370.601 345.584 370.834 345.973C371.756 347.661 373.975 348.496 375.775 348.757C377.576 349.018 380.908 348.131 382.057 347.817C382.405 348.687 382.762 349.601 383.066 350.48C383.257 351.089 383.484 351.663 383.64 352.28C383.797 352.898 383.98 353.498 384.145 354.099C384.432 355.256 384.728 356.456 384.971 357.579C385.145 358.37 385.293 359.127 385.45 359.893C385.058 359.023 384.258 357.361 384.171 357.231C382.875 355.169 379.16 351.95 376.524 352.62C376.084 352.744 375.675 352.959 375.325 353.252C374.974 353.545 374.69 353.909 374.49 354.32C374.291 354.731 374.18 355.18 374.166 355.636C374.152 356.093 374.235 356.547 374.41 356.97C375.071 358.779 377.141 359.936 378.881 360.45C380.795 361.033 385.032 360.45 385.563 360.45C385.815 361.72 386.05 362.955 386.25 364.121C386.964 368.167 387.407 371.568 387.686 373.943C387.729 374.37 387.773 374.744 387.808 375.101H379.603L381.448 411.066H397.734L399.579 375.101H391.74L391.914 374.753C392.958 372.569 394.42 369.428 395.986 365.583C396.49 364.373 396.995 363.068 397.508 361.72C398.021 361.824 402.215 362.677 404.172 362.233C405.912 361.833 408.087 360.833 408.888 359.084C409.087 358.677 409.2 358.233 409.217 357.78C409.234 357.328 409.156 356.876 408.988 356.456C408.82 356.035 408.566 355.654 408.241 355.338C407.916 355.022 407.529 354.778 407.104 354.621C404.494 353.751 400.579 356.691 399.126 358.649C399.048 358.762 398.256 360.119 397.778 360.98C397.987 360.432 398.187 359.902 398.395 359.327C398.804 358.205 399.187 357.074 399.596 355.847C399.779 355.247 399.953 354.647 400.135 354.038C400.318 353.429 400.457 352.785 400.623 352.15C400.971 350.68 401.258 349.166 401.493 347.635C402.476 347.991 405.999 349.218 407.818 349.088C409.636 348.957 411.907 348.296 412.959 346.686C413.219 346.315 413.399 345.893 413.485 345.448C413.571 345.003 413.563 344.545 413.46 344.103C413.357 343.662 413.163 343.247 412.889 342.885C412.616 342.524 412.269 342.224 411.872 342.006C409.453 340.753 405.103 343.058 403.381 344.781C403.276 344.885 402.171 346.251 401.588 347.017C401.728 346.103 401.875 345.181 401.997 344.242C402.328 341.545 402.589 338.795 402.867 336.055L403.128 333.549C403.476 333.68 407.626 335.22 409.671 335.081C411.48 334.95 413.76 334.289 414.804 332.671C415.064 332.301 415.244 331.88 415.33 331.436C415.417 330.992 415.41 330.535 415.308 330.094C415.206 329.653 415.012 329.238 414.74 328.877C414.467 328.517 414.121 328.217 413.725 327.999C411.298 326.746 406.956 329.051 405.234 330.765C405.103 330.896 403.494 332.871 403.146 333.375C403.337 331.54 403.555 329.704 403.833 327.903C404.197 325.472 404.723 323.069 405.408 320.708C405.564 320.769 409.888 322.396 411.976 322.248C413.794 322.126 416.065 321.456 417.118 319.847C417.378 319.476 417.557 319.054 417.643 318.609C417.73 318.164 417.721 317.705 417.619 317.264C417.516 316.822 417.322 316.407 417.048 316.046C416.774 315.684 416.428 315.385 416.03 315.166C413.612 313.922 409.27 316.219 407.539 317.942C407.426 318.055 406.225 319.551 405.669 320.282L405.529 320.212C406.276 317.851 407.234 315.563 408.392 313.374C409.01 312.165 409.671 311.034 410.341 309.955C411.115 310.346 414.691 312.069 416.561 312.147C418.432 312.226 420.711 311.808 421.938 310.32C422.236 309.98 422.46 309.581 422.595 309.148C422.729 308.716 422.771 308.26 422.718 307.81C422.664 307.361 422.517 306.927 422.285 306.538C422.053 306.149 421.742 305.814 421.372 305.553C419.101 304.048 414.534 305.857 412.629 307.371L411.559 308.424C411.559 308.311 411.559 308.18 411.559 308.024L411.793 307.676C412.933 305.936 414.082 304.457 415.108 303.134C415.7 302.386 416.248 301.725 416.77 301.107C417.727 301.107 421.581 300.968 423.269 300.176C424.957 299.384 426.801 297.966 427.201 296.078C427.312 295.638 427.328 295.179 427.249 294.732C427.171 294.285 426.998 293.859 426.744 293.483C426.489 293.107 426.158 292.789 425.772 292.549C425.386 292.31 424.954 292.155 424.504 292.094ZM394.489 364.913C392.854 368.68 391.348 371.76 390.261 373.9L389.661 375.057H389.487C389.426 374.639 389.374 374.187 389.304 373.674C388.973 371.273 388.434 367.853 387.642 363.782C387.39 362.494 387.094 361.12 386.772 359.719C388.05 359.213 389.296 358.632 390.505 357.979C391.897 359.484 395.472 361.25 395.933 361.459C395.446 362.668 394.968 363.825 394.489 364.913ZM411.071 308.894L410.863 309.102L410.993 308.902L411.071 308.894Z" fill="#263238"/>
<path opacity="0.3" d="M292.203 257.581C291.215 261.449 291.457 265.528 292.895 269.253C294.333 272.977 296.895 276.161 300.226 278.361C303.557 280.562 307.49 281.671 311.48 281.532C315.47 281.394 319.317 280.017 322.488 277.591L329.927 284.707C329.739 285.479 329.756 286.286 329.976 287.049C330.196 287.811 330.611 288.504 331.179 289.057L347.37 304.935C347.797 305.383 348.31 305.741 348.879 305.986C349.447 306.231 350.06 306.359 350.679 306.362C351.298 306.365 351.911 306.244 352.482 306.004C353.053 305.765 353.57 305.412 354.002 304.968C354.433 304.524 354.771 303.998 354.994 303.421C355.218 302.843 355.322 302.226 355.302 301.608C355.281 300.989 355.136 300.38 354.875 299.819C354.614 299.258 354.242 298.755 353.782 298.34L337.635 282.445C337.051 281.883 336.329 281.485 335.542 281.293C334.755 281.1 333.931 281.12 333.154 281.349L325.838 274.337C327.59 272.186 328.849 269.676 329.526 266.986C330.197 264.52 330.369 261.946 330.033 259.414C329.698 256.881 328.861 254.441 327.571 252.236C326.282 250.03 324.566 248.104 322.523 246.569C320.481 245.034 318.153 243.922 315.676 243.297C313.199 242.672 310.622 242.547 308.096 242.93C305.57 243.312 303.146 244.194 300.965 245.523C298.783 246.853 296.889 248.604 295.392 250.675C293.895 252.745 292.826 255.093 292.247 257.581H292.203ZM326.133 266.142C325.374 269.17 323.733 271.906 321.418 274.001C319.103 276.097 316.219 277.459 313.129 277.915C310.04 278.371 306.885 277.9 304.064 276.562C301.243 275.224 298.881 273.08 297.279 270.399C295.677 267.719 294.906 264.624 295.064 261.505C295.222 258.387 296.301 255.385 298.165 252.88C300.03 250.375 302.595 248.479 305.537 247.433C308.479 246.387 311.665 246.236 314.693 247.002C318.744 248.03 322.223 250.621 324.368 254.208C326.514 257.795 327.152 262.086 326.142 266.142H326.133Z" stroke="black" stroke-miterlimit="10"/>
<g opacity="0.3">
<path d="M221.646 50.921C224.661 44.0713 230.253 38.6852 237.211 35.9298C244.168 33.1743 251.932 33.2714 258.819 36.2001C265.705 39.1287 271.161 44.653 274.003 51.576C276.845 58.499 276.845 66.263 274.002 73.1858C271.16 80.1086 265.704 85.6326 258.817 88.5609C251.93 91.4891 244.167 91.5858 237.209 88.8299C230.251 86.0741 224.66 80.6877 221.646 73.8378C218.632 66.9879 218.438 59.2263 221.107 52.2347" stroke="black" stroke-miterlimit="10"/>
<path d="M221.316 50.7993C224.403 43.6541 230.183 38.0139 237.401 35.1014C244.619 32.1889 252.695 32.2389 259.876 35.2407C267.058 38.2424 272.767 43.9539 275.766 51.1368C278.765 58.3197 278.811 66.3951 275.896 73.6122C272.98 80.8293 267.337 86.6064 260.191 89.6909C253.044 92.7754 244.97 92.9188 237.719 90.0899C230.467 87.2611 224.623 81.6879 221.453 74.5789C218.283 67.4699 218.043 59.3979 220.785 52.113" stroke="black" stroke-width="0.5" stroke-miterlimit="10"/>
<path d="M228.954 53.6793C231.298 48.4608 235.6 44.3727 240.931 42.2967C246.261 40.2208 252.195 40.3232 257.451 42.582C262.707 44.8408 266.864 49.075 269.027 54.3713C271.189 59.6676 271.183 65.6017 269.011 70.8938C266.838 76.1859 262.672 80.4119 257.411 82.6604C252.151 84.9089 246.218 84.9997 240.891 82.9133C235.564 80.8268 231.271 76.7303 228.937 71.5073C226.603 66.2842 226.416 60.353 228.415 54.993" stroke="black" stroke-miterlimit="10"/>
<path d="M228.631 53.5574C230.842 48.6945 234.772 44.8207 239.667 42.681C244.561 40.5414 250.074 40.287 255.144 41.9669C260.215 43.6468 264.485 47.1422 267.134 51.7809C269.783 56.4195 270.623 61.8738 269.492 67.0945C268.362 72.3152 265.341 76.9335 261.011 80.0612C256.681 83.1889 251.347 84.605 246.036 84.0372C240.724 83.4693 235.811 80.9575 232.24 76.9851C228.668 73.0126 226.692 67.86 226.691 62.5184C226.685 59.902 227.159 57.3068 228.092 54.8624" stroke="black" stroke-width="0.5" stroke-miterlimit="10"/>
<path d="M237.836 57.3507L237.967 57.081C239.352 54.4904 241.692 52.5407 244.489 51.6445C247.287 50.7484 250.324 50.9761 252.957 52.2795C255.59 53.5828 257.612 55.8596 258.596 58.6278C259.58 61.3961 259.448 64.4385 258.229 67.1112C257.009 69.7839 254.797 71.8771 252.061 72.9478C249.325 74.0184 246.28 73.9824 243.57 72.8475C240.86 71.7126 238.699 69.5678 237.542 66.867C236.386 64.1662 236.326 61.1215 237.375 58.3773" stroke="black" stroke-width="0.5" stroke-miterlimit="10"/>
<path d="M238.481 57.272H238.385H238.298L237.976 57.1415L228.954 53.6789L228.632 53.5571L221.672 50.9471L221.342 50.8253L210.084 46.5797L210.641 42.4211C210.65 42.3447 210.634 42.2675 210.597 42.2003C210.559 42.1331 210.502 42.0795 210.432 42.047L201.532 38.0624C201.469 38.0337 201.399 38.0239 201.33 38.0343C201.262 38.0447 201.198 38.0748 201.146 38.1209C201.095 38.167 201.058 38.2272 201.039 38.2941C201.021 38.3609 201.023 38.4316 201.045 38.4974L202.854 43.8479L201.523 43.3433C201.35 43.2908 201.164 43.306 201.001 43.3858C200.839 43.4656 200.713 43.604 200.649 43.7731C200.585 43.9422 200.587 44.1294 200.656 44.2967C200.725 44.464 200.854 44.599 201.019 44.6744L202.402 45.1964L198.252 48.3893C198.197 48.4325 198.155 48.4908 198.132 48.5572C198.109 48.6235 198.105 48.6951 198.122 48.7634C198.14 48.8302 198.178 48.8898 198.231 48.9348C198.284 48.9797 198.348 49.0079 198.417 49.0157L208.396 50.5556H208.44C208.512 50.5559 208.583 50.5346 208.644 50.4943C208.704 50.454 208.751 50.3966 208.779 50.3294L209.719 47.9456L220.785 52.1129L221.107 52.2347L228.067 54.8447L228.389 54.9752L237.359 58.3595L237.689 58.4813L237.95 58.5857" stroke="black" stroke-miterlimit="10"/>
<path d="M238.289 57.2375H238.385H238.481L244.893 59.6561L245.597 57.542C245.645 57.4021 245.735 57.2807 245.855 57.1948C245.975 57.1089 246.12 57.063 246.267 57.0635C246.418 57.0648 246.565 57.1145 246.686 57.2053C246.806 57.2962 246.894 57.4234 246.937 57.5681L248.19 61.7702C248.25 61.9336 248.247 62.1135 248.181 62.2746C248.115 62.4356 247.991 62.5661 247.833 62.6402L244.623 64.241C244.526 64.2913 244.419 64.3181 244.31 64.3193C244.198 64.3192 244.087 64.2926 243.987 64.2417C243.887 64.1907 243.8 64.1169 243.734 64.0262C243.668 63.9355 243.624 63.8304 243.606 63.7196C243.589 63.6088 243.597 63.4953 243.631 63.3884L244.406 61.0742L237.941 58.6382C237.852 58.6008 237.772 58.5444 237.707 58.4729" stroke="black" stroke-miterlimit="10"/>
</g>
<path opacity="0.3" d="M149.149 362.311L156.979 364.095L158.789 356.169L151.281 354.429C151.281 354.203 151.281 353.985 151.281 353.759C151.284 351.348 150.802 348.96 149.863 346.738L155.953 341.884L150.881 335.524L145.052 340.17C143.012 338.398 140.597 337.113 137.988 336.411V328.86H129.87V336.15C127.191 336.678 124.667 337.812 122.493 339.465L116.603 334.767L111.522 341.127L117.273 345.72C116.061 348.131 115.407 350.783 115.359 353.481L107.868 355.221L109.678 363.155L117.073 361.467C118.189 363.847 119.814 365.952 121.832 367.636L118.352 374.778L125.677 378.311L129.061 371.281C130.443 371.616 131.859 371.788 133.281 371.794C134.429 371.795 135.574 371.684 136.7 371.464L140.18 378.746L147.505 375.213L144.095 368.14C146.182 366.586 147.906 364.597 149.149 362.311ZM125.338 353.785C125.336 352.205 125.803 350.66 126.68 349.345C127.557 348.03 128.804 347.005 130.264 346.4C131.724 345.794 133.33 345.635 134.88 345.943C136.43 346.251 137.854 347.012 138.972 348.129C140.089 349.247 140.85 350.671 141.158 352.221C141.466 353.771 141.307 355.377 140.701 356.837C140.096 358.297 139.071 359.544 137.756 360.421C136.441 361.298 134.896 361.765 133.316 361.763C131.2 361.763 129.171 360.923 127.674 359.427C126.178 357.93 125.338 355.901 125.338 353.785Z" stroke="black" stroke-linecap="round" stroke-linejoin="round"/>
<path opacity="0.3" d="M164.139 323.318L170.551 324.788L172.039 318.281L165.871 316.871C165.871 316.689 165.871 316.506 165.871 316.323C165.871 314.345 165.475 312.386 164.705 310.564L169.699 306.579L165.54 301.359L160.755 305.17C159.079 303.722 157.098 302.67 154.961 302.09V295.87H148.314V301.89C146.101 302.317 144.017 303.249 142.224 304.613L137.395 300.759L133.228 305.979L137.943 309.737C136.946 311.717 136.41 313.898 136.377 316.115L130.227 317.515L131.714 324.023L137.804 322.64C138.716 324.595 140.05 326.325 141.711 327.703L138.892 333.567L144.904 336.455L147.679 330.696C148.819 330.969 149.987 331.109 151.159 331.113C152.099 331.112 153.037 331.022 153.96 330.844L156.84 336.777L162.852 333.88L160.05 328.068C161.737 326.795 163.131 325.175 164.139 323.318ZM144.599 316.358C144.599 315.062 144.983 313.796 145.703 312.719C146.423 311.641 147.446 310.802 148.643 310.306C149.84 309.81 151.158 309.68 152.428 309.933C153.699 310.186 154.866 310.81 155.783 311.726C156.699 312.642 157.323 313.809 157.575 315.08C157.828 316.351 157.699 317.668 157.203 318.865C156.707 320.062 155.867 321.085 154.79 321.805C153.713 322.525 152.446 322.909 151.15 322.909C150.287 322.909 149.432 322.739 148.635 322.407C147.838 322.076 147.114 321.59 146.506 320.978C145.897 320.366 145.415 319.64 145.088 318.841C144.761 318.042 144.595 317.187 144.599 316.323V316.358Z" stroke="black" stroke-linecap="round" stroke-linejoin="round"/>
<g opacity="0.3">
<path d="M101.711 46.334C105.195 37.9219 101.2 28.2778 92.7881 24.7934C84.376 21.309 74.7319 25.3037 71.2475 33.7158C67.7631 42.128 71.7578 51.7721 80.1699 55.2565C88.5821 58.7409 98.2261 54.7462 101.711 46.334Z" stroke="black" stroke-miterlimit="10"/>
<path d="M91.9468 38.9155H81.2023C80.1955 38.9155 79.2298 39.3148 78.5171 40.0259C77.8043 40.737 77.4027 41.7018 77.4004 42.7087V51.7219C80.0272 53.7655 83.2664 54.8634 86.5944 54.8381C89.9224 54.8129 93.1446 53.6659 95.74 51.5827V42.7087C95.74 42.2105 95.6419 41.7173 95.4513 41.2571C95.2607 40.7969 94.9813 40.3787 94.629 40.0265C94.2768 39.6742 93.8586 39.3948 93.3984 39.2042C92.9382 39.0136 92.445 38.9155 91.9468 38.9155Z" stroke="black" stroke-miterlimit="10"/>
<path d="M86.3699 37.245C87.4505 37.245 88.5069 36.9246 89.4053 36.3242C90.3038 35.7239 91.0041 34.8706 91.4176 33.8722C91.8312 32.8739 91.9393 31.7753 91.7285 30.7155C91.5176 29.6557 90.9973 28.6822 90.2332 27.9181C89.4691 27.154 88.4957 26.6336 87.4358 26.4228C86.376 26.212 85.2774 26.3202 84.2791 26.7337C83.2808 27.1472 82.4275 27.8475 81.8271 28.746C81.2268 29.6445 80.9062 30.7008 80.9062 31.7814C80.9062 33.2304 81.4819 34.6201 82.5065 35.6448C83.5311 36.6694 84.9209 37.245 86.3699 37.245Z" stroke="black" stroke-miterlimit="10"/>
</g>
<g opacity="0.3">
<path d="M203.466 164.857C206.971 156.454 202.999 146.8 194.596 143.295C186.192 139.79 176.538 143.761 173.034 152.165C169.529 160.568 173.5 170.222 181.903 173.727C190.307 177.232 199.961 173.261 203.466 164.857Z" stroke="black" stroke-miterlimit="10"/>
<path d="M193.719 157.4H182.94C181.933 157.4 180.967 157.8 180.255 158.511C179.542 159.222 179.14 160.187 179.138 161.194V170.207C181.765 172.25 185.004 173.348 188.332 173.323C191.66 173.298 194.882 172.151 197.478 170.068V161.194C197.478 160.194 197.083 159.234 196.379 158.524C195.675 157.813 194.719 157.41 193.719 157.4Z" stroke="black" stroke-miterlimit="10"/>
<path d="M188.159 155.73C189.24 155.73 190.296 155.41 191.194 154.809C192.093 154.209 192.793 153.356 193.207 152.357C193.62 151.359 193.728 150.26 193.518 149.2C193.307 148.141 192.786 147.167 192.022 146.403C191.258 145.639 190.285 145.119 189.225 144.908C188.165 144.697 187.067 144.805 186.068 145.219C185.07 145.632 184.217 146.332 183.616 147.231C183.016 148.129 182.695 149.186 182.695 150.266C182.695 151.715 183.271 153.105 184.296 154.13C185.32 155.154 186.71 155.73 188.159 155.73Z" stroke="black" stroke-miterlimit="10"/>
</g>
<g opacity="0.3">
<path d="M451.426 171.827C454.931 163.423 450.959 153.769 442.556 150.264C434.152 146.76 424.498 150.731 420.993 159.134C417.488 167.538 421.46 177.192 429.863 180.697C438.267 184.202 447.921 180.231 451.426 171.827Z" stroke="black" stroke-miterlimit="10"/>
<path d="M441.669 164.36H430.89C429.883 164.36 428.918 164.76 428.205 165.471C427.492 166.182 427.09 167.147 427.088 168.154V177.167C429.715 179.21 432.954 180.308 436.282 180.283C439.61 180.258 442.832 179.111 445.428 177.028V168.154C445.428 167.154 445.033 166.194 444.329 165.484C443.625 164.773 442.669 164.37 441.669 164.36Z" stroke="black" stroke-miterlimit="10"/>
<path d="M436.11 162.69C437.191 162.69 438.247 162.369 439.145 161.769C440.044 161.169 440.744 160.315 441.158 159.317C441.571 158.319 441.679 157.22 441.469 156.16C441.258 155.101 440.737 154.127 439.973 153.363C439.209 152.599 438.236 152.078 437.176 151.868C436.116 151.657 435.019 151.765 434.02 152.179C433.022 152.592 432.168 153.292 431.567 154.191C430.967 155.089 430.646 156.146 430.646 157.226C430.646 157.944 430.789 158.654 431.062 159.317C431.338 159.98 431.739 160.582 432.247 161.09C432.754 161.597 433.357 161.999 434.02 162.274C434.683 162.549 435.393 162.69 436.11 162.69Z" stroke="black" stroke-miterlimit="10"/>
</g>
<g opacity="0.3">
<path d="M356.599 39.5778C360.104 31.1742 356.133 21.5204 347.73 18.0154C339.326 14.5104 329.672 18.4817 326.167 26.8853C322.662 35.2888 326.633 44.9426 335.037 48.4475C343.441 51.9525 353.094 47.9814 356.599 39.5778Z" stroke="black" stroke-miterlimit="10"/>
<path d="M346.84 32.1201H336.061C335.054 32.1201 334.088 32.5194 333.376 33.2305C332.663 33.9417 332.261 34.9064 332.259 35.9133V44.9265C334.886 46.9701 338.125 48.068 341.453 48.0427C344.781 48.0175 348.003 46.8705 350.599 44.7873V35.9133C350.599 34.9132 350.204 33.9537 349.5 33.2433C348.796 32.5329 347.84 32.1292 346.84 32.1201Z" stroke="black" stroke-miterlimit="10"/>
<path d="M341.28 30.4496C342.361 30.4496 343.417 30.1292 344.315 29.5288C345.214 28.9285 345.914 28.0752 346.328 27.0769C346.741 26.0785 346.849 24.98 346.639 23.9201C346.428 22.8603 345.907 21.8868 345.143 21.1227C344.379 20.3586 343.406 19.8382 342.346 19.6274C341.286 19.4166 340.188 19.5248 339.189 19.9383C338.191 20.3518 337.338 21.0521 336.737 21.9506C336.137 22.8491 335.816 23.9054 335.816 24.986C335.816 26.4351 336.392 27.8248 337.417 28.8494C338.441 29.874 339.831 30.4496 341.28 30.4496Z" stroke="black" stroke-miterlimit="10"/>
</g>
<path d="M379.725 187.546C379.725 187.546 374.166 187.546 368.363 193.636C362.56 199.726 359.333 208.026 360.681 210.54C362.03 213.054 363.569 217.187 363.526 218.153C363.482 219.118 355.739 225.582 357.549 228.801C359.359 232.02 359.759 233.969 358.062 234.143C356.366 234.317 353.364 236.614 353.782 238.328C354.2 240.042 357.044 241.599 355.757 243.487C354.469 245.375 353.521 245.088 353.425 247.506C353.33 249.925 355.548 251.961 354.295 252.265C353.042 252.57 350.58 252.953 351.242 254.675C351.858 256.068 352.616 257.395 353.504 258.634C353.504 258.634 362.056 268.639 380.326 271.536C398.596 274.433 416.866 259.19 419.597 256.885C422.329 254.579 422.86 253.866 422.921 252.422C422.982 250.978 422.051 249.238 421.659 247.532C421.268 245.827 422.103 242.469 422.129 241.747C422.155 241.025 420.546 239.024 419.38 238.006C418.214 236.988 418.075 234.326 418.649 231.916C419.223 229.506 416.909 227.731 415.943 226.974C414.978 226.217 414.369 224.008 415.178 221.859C415.987 219.71 413.177 217.43 412.002 216.413C410.828 215.395 410.68 213.22 411.254 210.827C411.828 208.435 408.896 203.232 407.296 200.996C405.695 198.76 403.816 191.661 394.724 188.407C385.633 185.153 379.725 187.546 379.725 187.546Z" fill="#263238" stroke="#263238" stroke-linecap="round" stroke-linejoin="round"/>
<path d="M359.55 274.92C368.034 279.739 377.718 282.034 387.462 281.534C397.206 281.035 406.605 277.762 414.551 272.101C414.551 267.499 414.595 263.628 414.551 261.966C414.343 256.65 412.89 249.064 410.976 247.515C409.062 245.967 405.077 244.74 399.222 243.113C393.367 241.486 384.545 240.912 384.545 240.912C384.545 240.912 374.105 246.88 367.041 249.246C359.976 251.613 359.646 267.369 359.802 271.301C359.781 272.511 359.697 273.719 359.55 274.92Z" fill="white" stroke="#263238" stroke-linecap="round" stroke-linejoin="round"/>
<path d="M359.55 274.92C368.034 279.739 377.718 282.034 387.462 281.534C397.206 281.035 406.605 277.762 414.551 272.101C414.551 267.499 414.595 263.627 414.551 261.966C414.447 259.277 414.195 260.348 413.551 257.572C410.193 260.73 402.737 265.942 388.077 267.638C374.705 269.187 363.717 264.158 360.316 262.018C359.891 265.093 359.719 268.198 359.802 271.301C359.781 272.511 359.697 273.719 359.55 274.92Z" fill="white" stroke="#263238" stroke-linecap="round" stroke-linejoin="round"/>
<path d="M376.767 255.31L376.332 244.209C376.124 238.893 375.332 236.614 375.332 236.614C377.754 237.371 380.262 237.815 382.796 237.936C386.511 238.023 392.071 232.247 392.497 231.298C392.923 230.35 393.55 228.688 393.55 228.688C393.55 228.688 394.141 237.693 394.968 241.138C395.794 244.583 396.342 246.645 396.342 246.645" fill="white"/>
<path d="M376.767 255.31L376.332 244.209C376.124 238.893 375.332 236.614 375.332 236.614C377.754 237.371 380.262 237.815 382.796 237.936C386.511 238.023 392.071 232.247 392.497 231.298C392.923 230.35 393.55 228.688 393.55 228.688C393.55 228.688 394.141 237.693 394.968 241.138C395.794 244.583 396.342 246.645 396.342 246.645" stroke="#263238" stroke-miterlimit="10" stroke-linecap="round"/>
<path d="M380.16 245.81C385.798 242.704 390.661 235.526 390.661 235.526L390.983 233.099C388.982 235.118 385.424 237.997 382.796 237.936C380.262 237.815 377.754 237.371 375.332 236.614C375.332 236.614 376.124 238.893 376.332 244.209C376.332 245.41 376.428 246.628 376.472 247.802C377.385 247.324 378.577 246.68 380.16 245.81Z" fill="#263238" stroke="#263238" stroke-linecap="round" stroke-linejoin="round"/>
<path d="M401.728 215.299L398.03 215.047C398.03 215.047 398.03 214.507 397.978 213.629L397.586 213.115C396.986 212.341 396.716 212.532 395.612 212.15C394.507 211.767 394.28 209.879 394.524 208.043C394.768 206.208 392.532 205.433 390.252 203.267C388.391 201.527 387.955 198.343 387.868 197.255C387.035 197.007 386.182 196.827 385.319 196.716C384.613 198.557 383.588 200.259 382.292 201.744C380.117 204.024 378.542 203.58 377.898 204.894C377.255 206.208 375.897 207.66 374.949 207.765C374.001 207.869 371.704 207.573 371.556 208.713C371.408 209.853 370.469 211.61 369.72 211.976L369.12 212.28C369.12 214.89 369.25 217.083 369.19 217.5C369.068 218.422 368.276 224.382 370.338 228.158C372.4 231.933 376.237 240.12 382.17 240.99C388.103 241.86 394.246 234.422 395.438 232.482C396.629 230.541 397.882 224.652 397.882 224.652C399.29 223.647 400.489 222.38 401.414 220.919C402.937 218.501 401.728 215.299 401.728 215.299Z" fill="white" stroke="#263238" stroke-linecap="round" stroke-linejoin="round"/>
<path d="M369.886 208.965C370.103 207.356 372.069 204.816 372.765 204.911C374.238 204.715 375.584 203.977 376.541 202.841C377.15 201.762 377.072 200.579 378.281 200.231C379.49 199.883 379.699 198.317 379.699 198.317C379.699 198.317 376.063 201.101 374.105 201.797C372.725 202.234 371.443 202.935 370.329 203.859C369.662 205.844 369.29 207.916 369.224 210.009C369.413 209.904 369.572 209.754 369.687 209.571C369.803 209.389 369.871 209.181 369.886 208.965Z" fill="white" stroke="#263238" stroke-linecap="round" stroke-linejoin="round"/>
<path d="M379.69 228.245C379.69 228.245 380.795 230.489 383.762 229.254" stroke="#263238" stroke-linecap="round" stroke-linejoin="round"/>
<path d="M379.238 231.681C379.238 231.681 383.588 234.134 385.867 230.933" stroke="#263238" stroke-linecap="round" stroke-linejoin="round"/>
<path d="M376.489 218.97C376.489 219.927 376.01 220.71 375.497 220.71C374.984 220.71 374.627 219.901 374.627 218.97C374.627 218.04 375.106 217.23 375.619 217.23C376.132 217.23 376.524 218.013 376.489 218.97Z" fill="#263238"/>
<path d="M388.095 219.466C388.095 220.423 387.616 221.206 387.112 221.206C386.607 221.206 386.242 220.397 386.242 219.466C386.242 218.535 386.72 217.726 387.233 217.726C387.747 217.726 388.129 218.509 388.095 219.466Z" fill="#263238"/>
<path d="M372.165 214.638C372.165 214.638 373.592 212.724 377.194 213.672" stroke="#263238" stroke-linecap="round" stroke-linejoin="round"/>
<path d="M385.285 214.281C385.285 214.281 389.174 213.167 391.618 215.821" stroke="#263238" stroke-linecap="round" stroke-linejoin="round"/>
<path d="M377.82 214.22C377.82 214.22 380.369 217.831 379.943 221.041" stroke="#263238" stroke-linecap="round" stroke-linejoin="round"/>
<path d="M367.98 278.705C368.563 274.737 369.137 270.805 369.607 267.638C371.077 257.851 376.141 245.375 376.141 245.375C374.279 244.992 356.27 252.413 352.459 255.571C350.798 256.955 348.875 260.713 347.1 264.932C352.817 271.177 359.99 275.908 367.98 278.705Z" fill="#7E57C2" stroke="#263238" stroke-linecap="round" stroke-linejoin="round"/>
<path d="M428.28 257.52C425.81 254.525 422.681 252.143 419.136 250.56C416.823 249.026 414.384 247.69 411.846 246.567C407.835 244.635 397.056 242.278 397.056 242.278C397.056 242.278 396.09 269.9 397.586 279.992C410.321 276.715 421.31 268.67 428.28 257.52Z" fill="#7E57C2" stroke="#263238" stroke-linecap="round" stroke-linejoin="round"/>
<path d="M421.084 266.566C441.086 246.564 441.086 214.135 421.084 194.134C401.083 174.133 368.654 174.133 348.652 194.134C328.651 214.135 328.651 246.564 348.652 266.566C368.654 286.567 401.083 286.567 421.084 266.566Z" stroke="#263238" stroke-miterlimit="10"/>
<path d="M396.343 155.358C423.909 149.019 441.118 121.532 434.779 93.9658C428.44 66.3989 400.954 49.1903 373.387 55.5293C345.82 61.8683 328.612 89.3544 334.951 116.921C341.29 144.488 368.776 161.697 396.343 155.358Z" fill="#7E57C2"/>
<path d="M384.867 156.661C392.498 156.665 400.033 154.962 406.921 151.676C413.808 148.39 419.872 143.604 424.669 137.669L404.355 121.8L389.565 117.598V117.015L385.867 117.302L382.17 117.015V117.598L367.38 118.755L344.342 136.755C349.123 142.953 355.263 147.971 362.289 151.422C369.315 154.874 377.039 156.666 384.867 156.661Z" fill="white" stroke="#263238" stroke-miterlimit="10"/>
<path d="M371.295 115.71C369.575 116.109 367.832 116.4 366.075 116.58C364.77 116.58 359.985 137.895 359.985 137.895L376.515 132.675L383.475 139.635L389.13 133.11L405.66 140.505C405.66 140.505 404.355 120.495 404.355 117.885C404.355 115.275 389.13 111.795 389.13 111.795L371.295 115.71Z" fill="white" stroke="#263238" stroke-miterlimit="10"/>
<path d="M369.12 107.01L370.86 122.235L382.605 133.98L396.09 120.495L396.96 103.095L369.12 107.01Z" fill="#D4D4D4" stroke="#263238" stroke-miterlimit="10"/>
<path d="M396.36 115.014L396.96 103.095L395.42 103.312L378.037 115.797L396.36 115.014Z" fill="#263238" stroke="#263238" stroke-miterlimit="10"/>
<path d="M387.537 62.7267C387.537 62.7267 400.588 66.0762 401.458 71.9574C402.328 77.8386 401.631 90.0795 401.631 90.0795C401.631 90.0795 404.425 84.7986 406.165 89.6619C407.905 94.5252 404.719 97.7268 403.597 98.0661C402.745 98.2879 401.868 98.3933 400.988 98.3793C400.988 98.3793 397.386 106.61 395.42 108.202C393.454 109.794 386.101 116.223 383.187 117.119C380.272 118.015 375.209 118.346 373.765 116.824C372.321 115.301 366.396 104.852 366.222 102.695C366.048 100.537 364.717 81.0576 364.926 78.5346C365.134 76.0116 363.909 71.2353 369.277 66.3546C374.644 61.4739 387.537 62.7267 387.537 62.7267Z" fill="#D4D4D4" stroke="#263238" stroke-miterlimit="10"/>
<path d="M369.268 66.3897C374.653 61.5438 387.538 62.727 387.538 62.727C387.538 62.727 400.588 66.0765 401.458 71.9577C402.328 77.8389 401.632 90.0798 401.632 90.0798C401.632 90.0798 400.231 92.6898 398.761 91.9416C397.291 91.1934 399.744 84.7641 399.744 84.7641C399.744 84.7641 398.874 82.8153 398.213 80.5707C397.552 78.3261 397.882 75.516 398.761 72.7929C399.64 70.0698 393.019 64.4931 389.443 64.8498C385.867 65.2065 381.3 67.86 378.151 67.338C375.001 66.816 374.497 65.0238 374.497 65.0238C374.497 65.0238 373.679 64.7802 370.764 65.685C370.22 65.8615 369.702 66.1102 369.224 66.4245L369.268 66.3897Z" fill="#263238" stroke="#263238" stroke-miterlimit="10"/>
<path d="M380.317 83.6333L395.768 85.1384C395.768 85.1384 396.238 90.602 395.403 92.0288C394.567 93.4556 393.219 94.7954 389.182 95.126C385.145 95.4566 380.908 94.1516 380.43 92.342C379.951 90.5324 380.317 83.6333 380.317 83.6333Z" stroke="#263238" stroke-width="2" stroke-miterlimit="10" stroke-linecap="round"/>
<path d="M375.976 83.52H360.42C360.42 83.52 359.419 88.9053 360.115 90.4191C360.811 91.9329 362.021 93.3771 366.005 94.1079C369.99 94.8387 374.34 93.96 375.019 92.22C375.697 90.48 375.976 83.52 375.976 83.52Z" stroke="#263238" stroke-width="2" stroke-miterlimit="10" stroke-linecap="round"/>
<path d="M380.317 83.6331C380.317 83.6331 377.811 82.4586 375.967 83.5374" stroke="#263238" stroke-width="2" stroke-miterlimit="10" stroke-linecap="round"/>
<path d="M380.073 85.9475C380.073 85.9475 377.594 84.1205 375.819 85.6778" stroke="#263238" stroke-width="2" stroke-miterlimit="10" stroke-linecap="round"/>
<path d="M395.768 85.1382L401.91 89.8275" stroke="#263238" stroke-width="2" stroke-miterlimit="10" stroke-linecap="round"/>
<path d="M360.455 83.5376L364.883 85.3211" stroke="#263238" stroke-width="2" stroke-miterlimit="10" stroke-linecap="round"/>
<path d="M384.206 91.0194C384.24 91.1548 384.301 91.2819 384.386 91.3928C384.471 91.5037 384.577 91.5961 384.699 91.6645C384.821 91.7328 384.955 91.7756 385.094 91.7902C385.233 91.8048 385.373 91.791 385.506 91.7495C385.64 91.708 385.763 91.6398 385.869 91.549C385.975 91.4582 386.062 91.3467 386.123 91.2214C386.185 91.096 386.22 90.9595 386.227 90.8201C386.234 90.6806 386.212 90.5412 386.163 90.4104C386.072 90.1646 385.889 89.9632 385.654 89.8476C385.418 89.732 385.147 89.711 384.896 89.789C384.646 89.867 384.435 90.0379 384.306 90.2667C384.178 90.4956 384.142 90.7649 384.206 91.0194Z" fill="#263238"/>
<path d="M368.337 90.3842C368.371 90.5196 368.432 90.6466 368.517 90.7575C368.602 90.8684 368.708 90.9609 368.83 91.0292C368.952 91.0976 369.086 91.1404 369.225 91.155C369.364 91.1696 369.504 91.1558 369.638 91.1143C369.771 91.0728 369.894 91.0046 370 90.9138C370.106 90.823 370.193 90.7115 370.254 90.5862C370.316 90.4608 370.351 90.3243 370.358 90.1848C370.365 90.0454 370.343 89.906 370.294 89.7752C370.203 89.5293 370.02 89.3279 369.785 89.2123C369.549 89.0968 369.278 89.0758 369.028 89.1538C368.777 89.2317 368.566 89.4027 368.437 89.6315C368.309 89.8604 368.273 90.1297 368.337 90.3842Z" fill="#263238"/>
<path d="M383.518 79.927C383.518 79.927 387.921 76.9951 391.018 81.5626" stroke="#263238" stroke-width="2" stroke-miterlimit="10" stroke-linecap="round"/>
<path d="M373.705 81.3712C373.705 81.3712 371.756 78.7003 367.049 81.7279" stroke="#263238" stroke-width="2" stroke-miterlimit="10" stroke-linecap="round"/>
<path d="M376.002 89.6099C376.002 89.6099 375.471 93.3857 374.392 94.2818C373.313 95.1779 370.616 97.0223 372.504 97.6835C374.392 98.3447 378.203 98.9711 379.647 98.5535C380.051 98.4434 380.417 98.222 380.701 97.9143C380.986 97.6067 381.178 97.2252 381.256 96.8135" stroke="#263238" stroke-miterlimit="10"/>
<path d="M376.08 103.417C378.58 104.006 381.2 103.827 383.597 102.904C387.512 101.364 387.668 99.2842 387.668 99.2842" stroke="#263238" stroke-miterlimit="10"/>
<path d="M386.562 98.6143L389.226 99.9367" stroke="#263238" stroke-miterlimit="10"/>
<path d="M396.343 155.358C423.909 149.019 441.118 121.532 434.779 93.9658C428.44 66.3989 400.954 49.1903 373.387 55.5293C345.82 61.8683 328.612 89.3544 334.951 116.921C341.29 144.488 368.776 161.697 396.343 155.358Z" stroke="#263238" stroke-miterlimit="10"/>
<path d="M143.86 281.295C171.448 275.047 188.747 247.618 182.5 220.03C176.252 192.443 148.823 175.143 121.235 181.39C93.6475 187.638 76.3478 215.067 82.5954 242.655C88.8429 270.242 116.272 287.542 143.86 281.295Z" fill="#7E57C2"/>
<path d="M132.567 282.55C139.701 282.557 146.756 281.069 153.279 278.181C159.802 275.294 165.648 271.071 170.438 265.785L145.591 252.3L143.129 239.964L125.547 235.614L124.929 252.3L95.6533 266.812C100.424 271.793 106.154 275.756 112.499 278.461C118.843 281.166 125.67 282.557 132.567 282.55Z" fill="white" stroke="#263238" stroke-miterlimit="10"/>
<path d="M125.067 248.411L140.962 245.54L136.734 238.415L125.546 235.666L125.067 248.411Z" fill="#263238" stroke="#263238" stroke-miterlimit="10"/>
<path d="M150.272 201.257C150.272 201.257 132.41 191.4 123.937 192.096C115.463 192.792 102.648 210.418 101.047 218.883C99.4461 227.348 107.685 231.933 108.137 232.621C108.59 233.308 101.273 232.855 101.96 238.345C102.648 243.835 111.348 244.757 116.385 243.844C121.422 242.93 124.85 236.518 124.85 235.605C124.85 234.691 122.562 228.505 122.562 228.505C122.562 228.505 127.373 228.958 128.06 224.843C128.748 220.728 132.637 211.558 137.9 211.332C143.164 211.105 147.287 211.793 147.749 212.932C148.173 214.741 148.464 216.579 148.619 218.431C150.515 218.793 152.468 218.734 154.34 218.259C156.211 217.784 157.956 216.904 159.45 215.682C164.261 211.558 166.088 200.344 159.685 198.055C157.994 197.359 156.108 197.3 154.377 197.888C152.646 198.477 151.187 199.674 150.272 201.257Z" fill="#263238" stroke="#263238" stroke-linecap="round" stroke-linejoin="round"/>
<path d="M120.405 224.704L111.2 229.924C111.2 229.924 114.68 234.152 116.177 234.648C117.673 235.144 120.152 234.395 120.152 234.395C120.152 234.395 124.381 239.372 127.617 241.616C130.853 243.861 138.562 248.08 142.798 246.584C147.035 245.088 153.238 233.899 152.742 230.167C152.246 226.435 150.01 220.467 150.254 217.483C150.498 214.498 151.002 209.766 151.002 209.766C151.002 209.766 140.806 204.789 132.593 209.522C124.381 214.255 124.885 222.964 120.405 224.704Z" fill="white" stroke="#263238" stroke-linecap="round" stroke-linejoin="round"/>
<path d="M142.798 220.223L143.042 223.207C143.042 223.207 149.515 223.955 147.026 226.2C145.307 227.618 143.246 228.56 141.05 228.932" stroke="#263238" stroke-linecap="round" stroke-linejoin="round"/>
<path d="M130.854 218.231C130.854 218.231 133.342 215.751 136.326 215.995" stroke="#263238" stroke-linecap="round" stroke-linejoin="round"/>
<path d="M143.79 215.247C144.636 214.976 145.537 214.926 146.408 215.101C147.279 215.277 148.091 215.671 148.766 216.247" stroke="#263238" stroke-linecap="round" stroke-linejoin="round"/>
<path d="M135.412 224.251C136.008 224.251 136.491 223.406 136.491 222.363C136.491 221.321 136.008 220.475 135.412 220.475C134.816 220.475 134.333 221.321 134.333 222.363C134.333 223.406 134.816 224.251 135.412 224.251Z" fill="#263238"/>
<path d="M147.635 221.215C147.635 222.259 147.157 223.112 146.557 223.112C145.956 223.112 145.478 222.242 145.478 221.215C145.478 220.188 145.965 219.327 146.557 219.327C147.148 219.327 147.635 220.171 147.635 221.215Z" fill="#263238"/>
<path d="M146.826 231.968C146.826 231.968 140.962 235.361 135.725 231.655" stroke="#263238" stroke-linecap="round" stroke-linejoin="round"/>
<path d="M132.567 282.55C139.703 282.556 146.76 281.067 153.285 278.178C159.809 275.289 165.656 271.064 170.447 265.776L153.638 256.058L147.748 272.684L127.391 272.989L114.132 257.877L113.793 257.833L95.6533 266.812C100.424 271.793 106.154 275.756 112.499 278.461C118.843 281.166 125.67 282.557 132.567 282.55Z" fill="#263238" stroke="#263238" stroke-miterlimit="10"/>
<path d="M143.86 281.295C171.448 275.047 188.747 247.618 182.5 220.03C176.252 192.443 148.823 175.143 121.235 181.39C93.6475 187.638 76.3478 215.067 82.5954 242.655C88.8429 270.242 116.272 287.542 143.86 281.295Z" stroke="#263238" stroke-miterlimit="10"/>
<path d="M132.567 157.131C160.853 157.131 183.784 134.2 183.784 105.914C183.784 77.6274 160.853 54.6968 132.567 54.6968C104.281 54.6968 81.3506 77.6274 81.3506 105.914C81.3506 134.2 104.281 157.131 132.567 157.131Z" stroke="#263238" stroke-miterlimit="10"/>
<path d="M142.05 71.1311C143.072 71.6777 144.218 71.9505 145.377 71.9231C146.535 71.8956 147.667 71.5689 148.662 70.9745C151.89 68.8778 149.636 67.9034 148.984 66.6245C148.331 65.3456 149.958 65.0063 150.28 63.2315C150.602 61.4567 149.471 60.0038 148.827 59.8472C148.183 59.6906 148.34 57.9071 148.34 56.1323C148.241 55.3204 147.893 54.559 147.345 53.9518C146.797 53.3446 146.075 52.9212 145.278 52.7393C144.303 52.7393 143.659 51.4517 143.016 49.8335C142.372 48.2153 141.076 46.7711 138.823 47.7368C136.569 48.7025 135.43 48.7112 134.299 47.093C133.168 45.4748 130.427 45.1529 129.461 45.962C128.496 46.7711 128.008 48.3806 126.068 46.7711C125.329 46.0828 124.364 45.6866 123.355 45.6562C122.345 45.6258 121.358 45.9632 120.579 46.6058C119.448 47.7368 119.613 49.0331 117.838 48.3458C116.063 47.6585 113.158 48.6764 112.514 50.6078C111.87 52.5392 108.312 54.6446 107.024 54.1574C105.736 53.6702 103.474 54.1574 104.605 56.5847C105.736 59.012 104.44 60.6128 103.474 60.6128C102.509 60.6128 100.403 61.2653 101.534 63.362C102.665 65.4587 103.474 67.0682 102.178 67.712C100.882 68.3558 98.7939 68.5124 100.438 71.2616C102.082 74.0108 103.344 73.8716 102.865 75.455C102.387 77.0384 101.413 77.5517 102.865 78.6827C104.318 79.8137 106.093 80.3009 106.093 81.2927C106.093 82.2845 104.153 82.7456 106.415 83.5547C107.719 84.0321 109.073 84.3562 110.452 84.5204C110.452 84.5204 113.671 75.8117 122.91 72.9059C132.15 70.0001 137.439 70.2959 139.536 71.453C141.633 72.6101 142.05 71.1311 142.05 71.1311Z" fill="#263238" stroke="#263238" stroke-linecap="round" stroke-linejoin="round"/>
<path d="M132.567 157.131C128.678 157.131 124.802 156.687 121.013 155.808C118.978 145.185 116.977 134.45 116.977 134.45C116.977 134.45 125.677 132.048 128.339 131.613C131.001 131.178 138.822 130.3 138.822 130.3L150.62 135.763C150.62 135.763 152.029 143.55 153.438 152.685C146.873 155.624 139.76 157.139 132.567 157.131Z" fill="white" stroke="#263238" stroke-miterlimit="10"/>
<path d="M117.733 138.504L150.428 135.72L150.62 135.807C150.62 135.807 150.898 137.364 151.342 139.905L118.56 142.68L117.733 138.504Z" fill="#263238"/>
<path d="M119.708 148.944L152.394 146.16C152.612 147.491 152.838 148.9 153.073 150.362L120.508 153.12C120.23 151.719 119.969 150.319 119.708 148.944Z" fill="#263238"/>
<path d="M140.571 124.184C140.571 124.184 142.972 133.362 143.181 138.165C143.39 142.967 138.378 146.908 131.166 146.247C123.954 145.586 122.649 137.73 122.649 135.807C122.649 133.884 122.214 117.241 122.214 117.241C124.632 119.305 127.187 121.203 129.861 122.922C134.02 125.498 140.571 124.184 140.571 124.184Z" fill="#B5B5B5" stroke="#263238" stroke-miterlimit="10"/>
<path d="M134.02 132.049C127.191 128.76 123.78 122.366 122.249 118.32C122.249 117.641 122.249 117.241 122.249 117.241C124.667 119.305 127.222 121.203 129.896 122.922C134.046 125.532 140.597 124.227 140.597 124.227C140.597 124.227 142.102 129.961 142.833 134.737C139.766 134.34 136.787 133.431 134.02 132.049Z" fill="#263238" stroke="#263238" stroke-miterlimit="10"/>
<path d="M150.419 95.6304C150.419 95.6304 153.899 91.1064 154.595 97.3704C155.291 103.634 148.679 109.898 148.679 109.898V95.6304" fill="#B5B5B5"/>
<path d="M150.419 95.6304C150.419 95.6304 153.899 91.1064 154.595 97.3704C155.291 103.634 148.679 109.898 148.679 109.898V95.6304" stroke="#263238" stroke-linecap="round" stroke-linejoin="round"/>
<path d="M110.626 89.1231C110.626 89.1231 110.896 79.4313 114.497 73.8981C118.099 68.3649 125.686 64.9632 134.151 66.4248C144.66 68.2257 149.375 76.1079 151.037 82.7547C152.699 89.4015 150.759 99.0846 150.759 105.731C150.759 112.378 143.007 124.28 140.798 126.211C138.588 128.142 135.16 128.821 131.228 126.82C127.643 125.002 121.753 118.799 118.178 115.197C114.602 111.595 112.47 100.92 111.887 98.4147C111.305 95.9091 110.626 89.1231 110.626 89.1231Z" fill="#B5B5B5" stroke="#263238" stroke-linecap="round" stroke-linejoin="round"/>
<path d="M139.97 107.932C139.97 107.932 140.301 110.029 135.455 109.672" stroke="#263238" stroke-linecap="round" stroke-linejoin="round"/>
<path d="M141.423 113.422C141.423 113.422 135.777 117.293 130.113 113.578" stroke="#263238" stroke-linecap="round" stroke-linejoin="round"/>
<path d="M141.424 99.0582C141.424 100.215 141.972 101.155 142.642 101.155C143.311 101.155 143.851 100.215 143.851 99.0582C143.851 97.9011 143.303 96.9614 142.642 96.9614C141.981 96.9614 141.424 97.9011 141.424 99.0582Z" fill="#263238"/>
<path d="M128.826 100.094C128.826 101.251 129.366 102.19 130.035 102.19C130.705 102.19 131.245 101.251 131.245 100.094C131.245 98.9366 130.705 97.9883 130.035 97.9883C129.366 97.9883 128.826 98.9279 128.826 100.094Z" fill="#263238"/>
<path d="M146.591 92.4375C146.591 92.4375 145.138 89.2098 140.302 90.828" stroke="#263238" stroke-linecap="round" stroke-linejoin="round"/>
<path d="M132.228 92.1157C132.228 92.1157 127.712 89.6971 122.701 93.4033" stroke="#263238" stroke-linecap="round" stroke-linejoin="round"/>
<path d="M96.9404 142.68C97.0448 141.218 96.8795 138.652 98.6369 137.677C99.8288 137.016 108.207 135.067 114.628 133.649C118.847 132.71 122.24 131.996 122.24 131.996C122.24 131.996 123.058 144.394 123.98 156.356C113.79 154.639 104.362 149.87 96.9404 142.68Z" fill="#7E57C2" stroke="#263238" stroke-miterlimit="10"/>
<path d="M154.361 152.25C153.34 145.987 152.004 139.779 150.359 133.649C156.797 135.076 165.149 137.016 166.349 137.678C168.167 138.687 167.933 141.366 168.089 142.811C164.059 146.686 159.421 149.874 154.361 152.25Z" fill="#7E57C2" stroke="#263238" stroke-miterlimit="10"/>
<path d="M115.01 154.034C114.41 143.167 114.627 133.667 114.627 133.667C118.847 132.727 122.24 132.014 122.24 132.014C122.24 132.014 123.058 144.411 123.98 156.374C120.925 155.867 117.923 155.083 115.01 154.034Z" fill="#7E57C2" stroke="#263238" stroke-miterlimit="10"/>
<path d="M134.151 66.4248C144.66 68.2257 149.375 76.1079 151.037 82.7547C151.333 83.998 151.525 85.2639 151.611 86.5392C151.149 85.8204 150.635 85.137 150.071 84.4947C147.528 81.4662 144.604 78.7788 141.372 76.4994C141.372 76.4994 139.98 79.9794 131.976 84.1467C123.972 88.314 113.192 87.9747 113.192 87.9747C113.192 87.9747 115.28 88.6707 113.54 92.4987C112.784 94.1517 112.105 95.5437 111.566 96.5964C111.096 93.5775 110.626 89.1231 110.626 89.1231C110.626 89.1231 110.896 79.4313 114.497 73.8981C118.099 68.3649 125.686 64.9632 134.151 66.4248Z" fill="#263238" stroke="#263238" stroke-linecap="round" stroke-linejoin="round"/>
<path d="M114.21 102.242C114.21 102.242 112.122 94.2382 108.642 98.0662C105.162 101.894 109.338 107.462 111.426 110.246C113.514 113.03 116.994 110.942 116.994 110.942" fill="#B5B5B5"/>
<path d="M114.21 102.242C114.21 102.242 112.122 94.2382 108.642 98.0662C105.162 101.894 109.338 107.462 111.426 110.246C113.514 113.03 116.994 110.942 116.994 110.942" stroke="#263238" stroke-linecap="round" stroke-linejoin="round"/>
<path d="M142.746 131.892L146.226 155.225C146.226 155.225 153.534 153.172 155.97 151.38L151.35 133.432C148.603 132.389 145.685 131.867 142.746 131.892Z" fill="#7E57C2" stroke="#263238" stroke-miterlimit="10"/>
<path d="M259.961 127.577C260.952 129.636 261.758 131.779 262.371 133.98C263.241 137.269 263.032 139.678 264.981 141.218C266.93 142.758 269.14 143.185 268.705 145.159C268.587 145.72 268.322 146.239 267.937 146.663C267.551 147.087 267.059 147.4 266.512 147.569C266.512 147.569 265.416 157.435 264.981 160.941C264.546 164.447 252.923 160.941 252.923 160.941L250.8 172.086L236.549 172.956L235.009 160.898C231.235 155.96 228.75 150.159 227.78 144.02C226.24 133.936 231.938 122.096 243.997 122.096C256.055 122.096 259.961 127.577 259.961 127.577Z" fill="white" stroke="#263238" stroke-miterlimit="10"/>
<path d="M265.66 153.007C265.66 153.007 263.05 153.877 261.492 152.137" stroke="#263238" stroke-miterlimit="10"/>
<path d="M261.936 138.321L262.815 141.175" stroke="#263238" stroke-miterlimit="10"/>
<path d="M261.936 136.59C261.475 136.59 261.032 136.773 260.706 137.099C260.379 137.426 260.196 137.868 260.196 138.33" stroke="#263238" stroke-miterlimit="10"/>
<path d="M229.92 178.437C229.92 178.437 235.14 171.425 236.053 171.207C236.967 170.99 246.58 168.797 251.183 169.894C255.785 170.99 256.881 173.182 260.387 174.052C262.871 174.522 265.432 174.373 267.843 173.617C266.97 174.981 265.775 176.111 264.363 176.906C262.781 177.7 261.074 178.217 259.317 178.437C256.63 178.951 253.864 178.877 251.209 178.22C245.728 177.123 236.297 176.906 236.297 176.906L229.92 178.437Z" fill="white" stroke="#263238" stroke-miterlimit="10"/>
<path d="M325.072 174.278C325.072 174.278 327.482 165.944 328.552 164.186C329.969 162.187 331.756 160.477 333.815 159.149C335.347 158.279 341.271 154.799 342.803 154.799C344.334 154.799 345.16 156.539 343.899 157.209C343.107 157.644 339.296 159.184 338.861 159.819C338.338 160.453 337.755 161.035 337.121 161.559L340.601 162.429C340.601 162.429 341.915 164.839 342.576 165.909C343.237 166.979 343.89 168.101 343.011 169.633C342.133 171.164 341.045 173.582 339.723 174.244C338.4 174.905 339.07 171.825 339.07 171.825C339.07 171.825 336.46 174.435 335.12 175.557C334.164 176.315 333.136 176.977 332.049 177.532L331.397 179.272L325.072 174.278Z" fill="white" stroke="#263238" stroke-miterlimit="10"/>
<path d="M220.028 241.956C220.028 241.956 224.378 241.956 225.344 241.86C226.309 241.764 228.215 240.99 228.824 240.99C229.433 240.99 229.763 245.401 228.189 249.185C226.614 252.97 222.525 255.006 222.525 255.006L217.479 249.655C217.479 249.655 219.715 244.47 220.028 241.956Z" fill="white" stroke="#263238" stroke-miterlimit="10"/>
<path d="M223.891 320.743C223.891 320.743 221.864 332.34 223.308 343.067C224.752 353.794 232.878 395.563 232.878 395.563L229.694 407.743C229.694 407.743 226.214 409.77 227.954 410.64C229.694 411.51 238.098 410.64 238.098 410.64C238.098 410.64 239.264 405.42 240.134 402.81C241.004 400.2 243.614 398.46 242.448 395.267C241.282 392.074 240.421 388.89 240.421 388.89L244.484 326.833L223.891 320.743Z" fill="white" stroke="#263238" stroke-miterlimit="10"/>
<path d="M241.717 393.153C240.351 393.057 237.454 393.153 236.358 395.563C234.914 398.747 231.721 406.577 231.721 406.577L228.528 408.613L228.223 408.813C227.545 409.439 227.058 410.196 227.954 410.64C229.694 411.51 238.098 410.64 238.098 410.64C238.098 410.64 239.264 405.42 240.134 402.81C241.004 400.2 243.614 398.46 242.448 395.267C242.187 394.554 241.943 393.84 241.717 393.153Z" fill="#263238" stroke="#263238" stroke-miterlimit="10"/>
<path d="M237.811 398.46L239.116 410.64H241.143L242.161 397.442C242.161 397.442 238.681 394.98 237.811 398.46Z" fill="#263238" stroke="#263238" stroke-miterlimit="10"/>
<path d="M261.301 324.797L266.521 335.82C266.521 335.82 267.391 351.654 271.454 361.224C275.517 370.794 283.634 386.167 283.634 386.167L286.244 390.804C286.244 390.804 282.468 395.154 283.634 397.764C284.8 400.374 289.724 401.827 291.751 403.567C293.778 405.307 294.213 410.64 296.536 410.64C298.859 410.64 305.236 411.223 305.819 409.77C306.402 408.317 302.626 406.577 302.626 406.577C302.626 406.577 297.04 395.998 296.466 394.545C295.892 393.092 287.114 343.937 286.531 338.143C285.948 332.349 284.208 322.187 284.208 322.187L261.301 324.797Z" fill="white" stroke="#263238" stroke-miterlimit="10"/>
<path d="M297.406 406.873C297.406 406.873 292.908 399.8 290.594 396.607C289.172 394.712 287.196 393.307 284.939 392.587C283.973 394.084 282.946 396.224 283.634 397.764C284.791 400.374 289.437 401.818 290.846 404.089C292.812 407.256 294.213 410.64 296.536 410.64C298.859 410.64 305.236 411.223 305.819 409.77C306.402 408.317 302.626 406.577 302.626 406.577C301.756 406.29 297.406 406.873 297.406 406.873Z" fill="#263238" stroke="#263238" stroke-miterlimit="10"/>
<path d="M283.634 398.851L284.634 411.075H286.47L287.531 401.94C287.531 401.94 287.758 397.938 283.634 398.851Z" fill="#263238" stroke="#263238" stroke-miterlimit="10"/>
<path d="M225.344 241.86C225.344 241.86 218.384 256.65 216.644 267.09C214.904 277.53 217.949 296.67 217.949 296.67L216.644 322.77C216.644 322.77 241.874 329.295 259.274 329.295C270.004 329.247 280.681 327.785 291.029 324.945C291.029 324.945 291.464 296.67 287.984 283.185C284.504 269.7 276.674 247.08 276.239 245.775C275.804 244.47 272.759 240.555 272.759 240.555C272.759 240.555 244.919 246.21 225.344 241.86Z" fill="#263238" stroke="#263238" stroke-miterlimit="10"/>
<path d="M232.182 283.716L259.552 308.711" stroke="#707070" stroke-miterlimit="10"/>
<path d="M241.108 299.784L253.601 309.894" stroke="#707070" stroke-miterlimit="10"/>
<path d="M232.339 178.002C232.339 178.002 215.234 185.014 214.582 186.989C213.929 188.964 208.883 199.708 208.883 199.708C208.883 199.708 188.273 231.272 188.708 232.812C189.143 234.352 212.824 248.82 212.824 248.82C212.824 248.82 212.172 249.481 212.824 249.916C214.689 250.606 216.591 251.187 218.523 251.656C218.523 251.656 222.003 248.368 222.003 245.296C222.003 242.225 221.133 240.946 220.472 240.694C219.811 240.442 216.748 238.719 216.748 238.719L215.878 238.502L206.43 228.427L218.271 211.984C218.271 211.984 228.798 230.837 228.798 233.247C228.798 235.657 223.534 241.364 224.63 243.991C225.727 246.619 229.668 247.28 245.014 248.811C260.361 250.342 273.298 245.331 274.594 244.209C275.891 243.087 272.402 236.318 272.402 231.272C272.402 226.226 272.62 207.782 272.62 207.782C272.62 207.782 294.77 216.987 299.155 214.577C303.539 212.167 330.066 183.448 330.066 183.448L334.007 179.725L325.237 171.607L319.321 176.871L293.891 197.038C293.891 197.038 292.577 195.724 291.916 195.724C291.254 195.758 290.595 195.831 289.941 195.941C289.941 195.941 273.281 184.544 271.306 182.787C269.331 181.03 263.859 180.821 263.859 180.821L253.114 178.846C253.114 178.846 241.326 174.052 232.339 178.002Z" fill="white" stroke="#263238" stroke-miterlimit="10"/>
<path d="M272.672 207.817L259.3 205.407" stroke="#263238" stroke-miterlimit="10"/>
<path d="M269.166 207.382L256.89 211.105" stroke="#263238" stroke-miterlimit="10"/>
<path d="M259.108 236.979C259.803 236.21 260.453 235.402 261.057 234.561" stroke="#263238" stroke-miterlimit="10"/>
<path d="M242.204 247.95C247.658 245.972 252.679 242.962 256.994 239.085" stroke="#263238" stroke-miterlimit="10"/>
<path d="M261.24 229.741C261.24 229.741 256.203 232.594 250.939 235.657" stroke="#263238" stroke-miterlimit="10"/>
<path d="M214.451 202.118L218.305 211.984C218.305 211.984 210.85 206.068 209.98 203.432" stroke="#263238" stroke-miterlimit="10"/>
<path d="M212.824 197.951L213.581 199.891" stroke="#263238" stroke-miterlimit="10"/>
<path d="M205.369 210.227C205.369 210.227 209.318 212.202 215.461 210.671" stroke="#263238" stroke-miterlimit="10"/>
<path d="M205.369 227.766C202.448 228.257 199.456 228.108 196.599 227.331" stroke="#263238" stroke-miterlimit="10"/>
<path d="M199.47 224.46C199.47 224.46 202.759 226 205.168 226" stroke="#263238" stroke-miterlimit="10"/>
<path d="M215.896 238.51C215.896 238.51 218.088 246.845 212.824 248.811L215.896 238.51Z" fill="white"/>
<path d="M215.896 238.51C215.896 238.51 218.088 246.845 212.824 248.811" stroke="#263238" stroke-miterlimit="10"/>
<path d="M320.905 175.592L330.118 183.483" stroke="#263238" stroke-miterlimit="10"/>
<path d="M289.358 203.014C288.854 203.528 288.323 204.041 287.801 204.528" stroke="#263238" stroke-miterlimit="10"/>
<path d="M293.943 197.951C293.943 197.951 292.725 199.43 291.055 201.24" stroke="#263238" stroke-miterlimit="10"/>
<path d="M291.09 197.072C289.046 199.083 286.764 200.836 284.295 202.292" stroke="#263238" stroke-miterlimit="10"/>
<path d="M260.596 123.235C260.596 123.235 262.145 127.281 259.039 137.529C255.933 147.778 253.132 154.625 254.689 161.15C256.246 167.675 259.97 168.919 260.596 167.988C261.232 167.179 261.962 166.449 262.771 165.813C262.771 165.813 263.389 168.293 260.596 170.468C257.803 172.643 246.92 174.818 240.082 173.887C233.243 172.956 228.893 175.74 226.44 169.85C223.987 163.96 225.196 154.625 224.57 150.893C223.943 147.16 217.74 142.193 222.09 131.004C226.44 119.816 243.84 118.572 249.739 118.572C255.637 118.572 259.657 116.71 260.596 123.235Z" fill="#263238" stroke="#263238" stroke-miterlimit="10"/>
<path d="M333.65 120.321C341.866 120.321 348.527 113.66 348.527 105.444C348.527 97.2276 341.866 90.5669 333.65 90.5669C325.434 90.5669 318.773 97.2276 318.773 105.444C318.773 113.66 325.434 120.321 333.65 120.321Z" fill="white" stroke="#263238" stroke-miterlimit="10"/>
<path d="M327.647 101.79L334.033 108.75L346.787 90.1929" stroke="#263238" stroke-width="3" stroke-linecap="round" stroke-linejoin="round"/>
<path d="M95.7336 241.851C101.543 236.041 101.543 226.621 95.7336 220.811C89.9238 215.002 80.5042 215.002 74.6943 220.811C68.8845 226.621 68.8845 236.041 74.6943 241.851C80.5042 247.661 89.9238 247.661 95.7336 241.851Z" fill="white" stroke="#263238" stroke-miterlimit="10"/>
<path d="M79.21 227.679L85.5871 234.639L98.35 216.082" stroke="#263238" stroke-width="3" stroke-linecap="round" stroke-linejoin="round"/>
<path d="M123.78 411.023H440.46" stroke="#263238" stroke-miterlimit="10"/>
<path d="M88.9805 411.023H114.21" stroke="#263238" stroke-miterlimit="10"/>
</svg>
