<svg width="520" height="435" viewBox="0 0 520 435" fill="none" xmlns="http://www.w3.org/2000/svg">
<g clip-path="url(#clip0_21_1452)">
<path d="M71.0981 299.284C71.0981 299.284 98.8539 362.567 169.032 383.262C239.209 403.956 314.15 376.378 375.391 355.65C436.631 334.922 468.839 281.92 455.194 227.574C441.549 173.228 389.957 177.136 341.839 128.874C293.722 80.6122 288.237 60.4725 221.557 46.2171C154.876 31.9617 81.8895 88.084 63.6373 167.566C45.3851 247.047 71.0981 299.284 71.0981 299.284Z" fill="#7E57C2"/>
<path opacity="0.8" d="M71.0981 299.284C71.0981 299.284 98.8539 362.567 169.032 383.262C239.209 403.956 314.15 376.378 375.391 355.65C436.631 334.922 468.839 281.92 455.194 227.574C441.549 173.228 389.957 177.136 341.839 128.874C293.722 80.6122 288.237 60.4725 221.557 46.2171C154.876 31.9617 81.8895 88.084 63.6373 167.566C45.3851 247.047 71.0981 299.284 71.0981 299.284Z" fill="white"/>
<path d="M427.583 213.751C427.583 213.751 453.029 216.272 465.919 232.048C465.919 232.048 479.553 213.774 504.022 214.151C510.002 206.937 513.81 198.173 515.002 188.878C516.194 179.584 514.721 170.143 510.755 161.653C506.79 153.163 500.494 145.975 492.601 140.924C484.708 135.874 475.543 133.17 466.173 133.126C456.802 133.083 447.613 135.702 439.673 140.678C431.734 145.655 425.371 152.785 421.327 161.237C417.282 169.69 415.722 179.117 416.827 188.422C417.933 197.727 421.659 206.526 427.572 213.796L427.583 213.751Z" fill="#7E57C2"/>
<path opacity="0.5" d="M427.583 213.751C427.583 213.751 453.029 216.272 465.919 232.048C465.919 232.048 479.553 213.774 504.022 214.151C510.002 206.937 513.81 198.173 515.002 188.878C516.194 179.584 514.721 170.143 510.755 161.653C506.79 153.163 500.494 145.975 492.601 140.924C484.708 135.874 475.543 133.17 466.173 133.126C456.802 133.083 447.613 135.702 439.673 140.678C431.734 145.655 425.371 152.785 421.327 161.237C417.282 169.69 415.722 179.117 416.827 188.422C417.933 197.727 421.659 206.526 427.572 213.796L427.583 213.751Z" fill="white"/>
<path d="M465.064 136.612L464.209 301.526H468.506L465.064 136.612Z" fill="#B8B8B8"/>
<path d="M466.363 227.241C466.363 227.241 474.945 211.775 490.411 207.046C490.411 207.046 474.09 210.921 465.985 224.232L466.363 227.241Z" fill="#B8B8B8"/>
<path d="M466.363 183.431C466.363 183.431 474.945 167.965 490.411 163.236C490.411 163.236 474.09 167.099 465.985 180.422L466.363 183.431Z" fill="#B8B8B8"/>
<path d="M466.363 205.314C466.363 205.314 474.945 189.848 490.411 185.119C490.411 185.119 474.09 188.993 465.985 202.305L466.363 205.314Z" fill="#B8B8B8"/>
<path d="M465.086 194.589C465.086 194.589 456.793 179.134 441.871 174.405C441.871 174.405 457.626 178.268 465.497 191.591L465.086 194.589Z" fill="#B8B8B8"/>
<path d="M465.086 216.072C465.086 216.072 456.793 200.606 441.871 195.888C441.871 195.888 457.626 199.751 465.497 213.063L465.086 216.072Z" fill="#B8B8B8"/>
<path d="M11.1008 213.751C11.1008 213.751 36.5474 216.272 49.4372 232.048C49.4372 232.048 63.0708 213.774 87.5404 214.151C93.5203 206.937 97.3279 198.173 98.52 188.878C99.712 179.584 98.2393 170.143 94.2735 161.653C90.3077 153.163 84.0118 145.975 76.1189 140.924C68.2261 135.874 59.061 133.17 49.6908 133.126C40.3205 133.083 31.1307 135.702 23.1912 140.678C15.2518 145.655 8.88939 152.785 4.84482 161.237C0.800252 169.69 -0.760075 179.117 0.345513 188.422C1.4511 197.727 5.17712 206.526 11.0897 213.796L11.1008 213.751Z" fill="#7E57C2"/>
<path opacity="0.5" d="M11.1008 213.751C11.1008 213.751 36.5474 216.272 49.4372 232.048C49.4372 232.048 63.0708 213.774 87.5404 214.151C93.5203 206.937 97.3279 198.173 98.52 188.878C99.712 179.584 98.2393 170.143 94.2735 161.653C90.3077 153.163 84.0118 145.975 76.1189 140.924C68.2261 135.874 59.061 133.17 49.6908 133.126C40.3205 133.083 31.1307 135.702 23.1912 140.678C15.2518 145.655 8.88939 152.785 4.84482 161.237C0.800252 169.69 -0.760075 179.117 0.345513 188.422C1.4511 197.727 5.17712 206.526 11.0897 213.796L11.1008 213.751Z" fill="white"/>
<path d="M48.6043 136.612L47.7383 301.526H52.0349L48.6043 136.612Z" fill="#B8B8B8"/>
<path d="M49.8921 227.241C49.8921 227.241 58.4743 211.775 73.9398 207.046C73.9398 207.046 57.6193 210.921 49.5146 224.232L49.8921 227.241Z" fill="#B8B8B8"/>
<path d="M49.8921 183.431C49.8921 183.431 58.4743 167.965 73.9398 163.236C73.9398 163.236 57.6193 167.099 49.5146 180.422L49.8921 183.431Z" fill="#B8B8B8"/>
<path d="M49.8921 205.314C49.8921 205.314 58.4743 189.848 73.9398 185.119C73.9398 185.119 57.6193 188.993 49.5146 202.305L49.8921 205.314Z" fill="#B8B8B8"/>
<path d="M48.6154 194.589C48.6154 194.589 40.322 179.134 25.4004 174.405C25.4004 174.405 41.1546 178.268 49.0262 191.591L48.6154 194.589Z" fill="#B8B8B8"/>
<path d="M48.6154 216.072C48.6154 216.072 40.322 200.606 25.4004 195.888C25.4004 195.888 41.1546 199.751 49.0262 213.063L48.6154 216.072Z" fill="#B8B8B8"/>
<path d="M324.187 229.739C324.187 229.739 345.015 231.793 355.562 244.705C355.562 244.705 366.72 229.75 386.748 230.05C391.64 224.145 394.754 216.971 395.727 209.365C396.701 201.758 395.494 194.032 392.246 187.085C388.999 180.138 383.845 174.257 377.385 170.125C370.925 165.993 363.424 163.782 355.755 163.748C348.087 163.714 340.567 165.859 334.07 169.933C327.573 174.007 322.368 179.843 319.059 186.76C315.75 193.678 314.474 201.394 315.38 209.008C316.286 216.623 319.336 223.824 324.175 229.772L324.187 229.739Z" fill="#7E57C2"/>
<path opacity="0.5" d="M324.187 229.739C324.187 229.739 345.015 231.793 355.562 244.705C355.562 244.705 366.72 229.75 386.748 230.05C391.64 224.145 394.754 216.971 395.727 209.365C396.701 201.758 395.494 194.032 392.246 187.085C388.999 180.138 383.845 174.257 377.385 170.125C370.925 165.993 363.424 163.782 355.755 163.748C348.087 163.714 340.567 165.859 334.07 169.933C327.573 174.007 322.368 179.843 319.059 186.76C315.75 193.678 314.474 201.394 315.38 209.008C316.286 216.623 319.336 223.824 324.175 229.772L324.187 229.739Z" fill="white"/>
<path d="M354.874 166.544L354.174 301.527H357.693L354.874 166.544Z" fill="#B8B8B8"/>
<path d="M355.928 240.73C355.928 240.73 362.967 228.073 375.612 224.199C375.612 224.199 362.29 227.363 355.628 238.265L355.928 240.73Z" fill="#B8B8B8"/>
<path d="M355.928 204.87C355.928 204.87 362.967 192.213 375.612 188.349C375.612 188.349 362.29 191.514 355.628 202.405L355.928 204.87Z" fill="#B8B8B8"/>
<path d="M355.928 222.8C355.928 222.8 362.967 210.143 375.612 206.269C375.612 206.269 362.29 209.433 355.628 220.335L355.928 222.8Z" fill="#B8B8B8"/>
<path d="M354.885 214.007C354.885 214.007 348.101 201.35 335.888 197.487C335.888 197.487 348.778 200.651 355.229 211.542L354.885 214.007Z" fill="#B8B8B8"/>
<path d="M354.885 231.582C354.885 231.582 348.101 218.925 335.888 215.062C335.888 215.062 348.778 218.226 355.229 229.128L354.885 231.582Z" fill="#B8B8B8"/>
<path d="M122.668 229.739C122.668 229.739 143.496 231.793 154.043 244.705C154.043 244.705 165.146 229.75 185.23 230.05C190.122 224.145 193.236 216.971 194.209 209.365C195.183 201.758 193.975 194.032 190.728 187.085C187.481 180.138 182.327 174.257 175.867 170.125C169.406 165.993 161.905 163.782 154.237 163.748C146.569 163.714 139.048 165.859 132.552 169.933C126.055 174.007 120.849 179.843 117.541 186.76C114.232 193.678 112.956 201.394 113.862 209.008C114.768 216.623 117.818 223.824 122.657 229.772L122.668 229.739Z" fill="#7E57C2"/>
<path opacity="0.5" d="M122.668 229.739C122.668 229.739 143.496 231.793 154.043 244.705C154.043 244.705 165.146 229.75 185.23 230.05C190.122 224.145 193.236 216.971 194.209 209.365C195.183 201.758 193.975 194.032 190.728 187.085C187.481 180.138 182.327 174.257 175.867 170.125C169.406 165.993 161.905 163.782 154.237 163.748C146.569 163.714 139.048 165.859 132.552 169.933C126.055 174.007 120.849 179.843 117.541 186.76C114.232 193.678 112.956 201.394 113.862 209.008C114.768 216.623 117.818 223.824 122.657 229.772L122.668 229.739Z" fill="white"/>
<path d="M153.355 166.544L152.656 301.527H156.175L153.355 166.544Z" fill="#B8B8B8"/>
<path d="M154.465 240.73C154.465 240.73 161.504 228.073 174.15 224.199C174.15 224.199 160.827 227.363 154.166 238.265L154.465 240.73Z" fill="#B8B8B8"/>
<path d="M154.465 204.87C154.465 204.87 161.504 192.213 174.15 188.349C174.15 188.349 160.827 191.514 154.166 202.405L154.465 204.87Z" fill="#B8B8B8"/>
<path d="M154.465 222.8C154.465 222.8 161.504 210.143 174.15 206.269C174.15 206.269 160.827 209.433 154.166 220.335L154.465 222.8Z" fill="#B8B8B8"/>
<path d="M153.355 214.007C153.355 214.007 146.582 201.35 134.37 197.542C134.37 197.542 147.26 200.706 153.71 211.598L153.355 214.007Z" fill="#B8B8B8"/>
<path d="M153.355 231.582C153.355 231.582 146.571 218.925 134.359 215.062C134.359 215.062 147.249 218.226 153.699 229.128L153.355 231.582Z" fill="#B8B8B8"/>
<path d="M18.7617 302.115H497.872" stroke="#263238" stroke-width="1.04742" stroke-miterlimit="10"/>
<path opacity="0.3" d="M149.569 355.695C149.569 359.025 129.108 361.679 103.85 361.679C78.5925 361.679 58.1309 359.003 58.1309 355.695C58.1309 352.386 78.6036 349.71 103.85 349.71C129.096 349.71 149.569 352.397 149.569 355.695Z" fill="black"/>
<path opacity="0.3" d="M245.282 355.695C245.282 359.025 224.81 361.679 199.563 361.679C174.316 361.679 153.844 359.003 153.844 355.695C153.844 352.386 174.316 349.71 199.563 349.71C224.81 349.71 245.282 352.397 245.282 355.695Z" fill="black"/>
<path opacity="0.3" d="M372.071 355.695C372.071 359.025 351.609 361.679 326.362 361.679C301.116 361.679 280.643 359.003 280.643 355.695C280.643 352.386 301.105 349.71 326.362 349.71C351.62 349.71 372.071 352.397 372.071 355.695Z" fill="black"/>
<path opacity="0.3" d="M477.987 355.695C477.987 359.025 457.515 361.679 432.268 361.679C407.021 361.679 386.504 359.003 386.504 355.695C386.504 352.386 406.977 349.71 432.223 349.71C457.47 349.71 477.987 352.397 477.987 355.695Z" fill="black"/>
<path d="M331.303 180.633C331.303 180.633 329.427 188.405 329.427 189.715C329.426 190.525 329.337 191.333 329.161 192.124C329.161 192.124 325.153 196.931 325.686 198.264C326.333 199.299 327.261 200.131 328.361 200.662C328.361 200.662 330.493 208.433 332.636 208.944C334.836 209.355 337.061 209.622 339.297 209.743L340.096 216.149L350.777 214.551L348.112 204.936L349.222 196.654C349.222 196.654 351.088 193.19 349.222 187.583C347.357 181.976 343.349 181.71 340.674 181.71C337.534 181.511 334.406 181.152 331.303 180.633Z" fill="white" stroke="#263238" stroke-width="1.04742" stroke-linecap="round" stroke-linejoin="round"/>
<path d="M336.111 176.636C336.111 176.636 326.763 176.359 327.029 178.768C327.295 181.177 336.91 184.319 336.91 184.319C336.91 184.319 333.702 186.451 335.3 188.593C336.899 190.736 340.64 192.601 340.64 192.601C340.64 192.601 339.53 197.142 341.184 197.409C342.839 197.675 343.849 195.266 344.116 194.467C344.382 193.667 347.324 193.934 348.123 196.065C348.575 197.173 348.845 198.346 348.923 199.54C348.923 199.54 352.131 189.926 352.664 185.651C353.197 181.377 341.184 176.636 336.111 176.636Z" fill="#263238" stroke="#263238" stroke-width="1.04742" stroke-linecap="round" stroke-linejoin="round"/>
<path d="M342.028 197.542C342.028 197.542 345.259 190.437 347.19 193.934C349.122 197.431 348.301 201.073 346.402 201.461C344.504 201.85 342.916 202.227 342.916 202.227" fill="white"/>
<path d="M342.028 197.542C342.028 197.542 345.259 190.437 347.19 193.934C349.122 197.431 348.301 201.073 346.402 201.461C344.504 201.85 342.916 202.227 342.916 202.227" stroke="#263238" stroke-width="1.04742" stroke-linecap="round" stroke-linejoin="round"/>
<path d="M328.894 271.694C328.372 272.305 319.812 290.657 318.747 296.797C317.681 302.936 310.742 339.53 310.464 341.128C310.187 342.727 295.52 345.936 294.444 346.202C293.367 346.469 295.554 349.411 298.718 350.21C301.882 351.01 311.008 354.751 313.151 352.608C315.294 350.466 318.225 338.453 319.024 337.121C319.823 335.788 334.856 300.372 334.856 300.372C334.856 300.372 342.561 283.374 344.16 281.764C345.759 280.154 342.261 273.038 340.918 270.895C339.575 268.752 332.636 267.42 328.894 271.694Z" fill="#263238" stroke="#263238" stroke-width="1.04742" stroke-linecap="round" stroke-linejoin="round"/>
<path d="M327.295 271.928C327.295 271.928 331.037 289.824 332.902 296.231C334.648 301.611 337.274 306.664 340.674 311.185C342.816 314.127 353.23 340.051 353.23 340.051L354.829 344.059C354.829 344.059 354.296 345.658 351.365 347.79C348.434 349.921 340.141 353.396 342.283 354.207C344.426 355.017 352.964 355.006 356.972 354.74C360.422 354.495 363.657 352.971 366.042 350.465C367.652 348.589 363.378 343.249 363.378 342.183C363.378 341.117 354.03 308.543 353.497 306.933C352.964 305.323 350.288 293.855 350.288 293.855V280.809C350.288 280.809 351.632 278.411 351.632 273.038C351.632 267.664 347.624 266.621 347.624 266.621L325.719 268.763L327.295 271.928Z" fill="#263238" stroke="#263238" stroke-width="1.04742" stroke-linecap="round" stroke-linejoin="round"/>
<path d="M325.441 270.362C325.441 270.362 325.985 274.903 327.584 275.17C329.183 275.436 345.736 279.977 352.953 274.637C352.953 274.637 354.285 270.629 353.486 269.563C352.686 268.497 350.81 269.03 341.206 269.03C331.603 269.03 325.441 269.03 325.441 270.362Z" fill="#7E57C2" stroke="#263238" stroke-width="1.04742" stroke-linecap="round" stroke-linejoin="round"/>
<path d="M349.989 210.543C349.989 210.543 340.108 211.875 335.833 216.094C331.559 220.313 327.828 228.118 325.963 235.323C324.098 242.529 322.755 268.974 325.419 270.307C328.084 271.639 350.522 272.982 354.285 271.417C358.049 269.851 354.019 257.261 354.019 252.454C354.019 247.647 358.293 231.36 357.494 222.289C356.694 213.218 349.989 210.543 349.989 210.543Z" fill="#7E57C2" stroke="#263238" stroke-width="1.04742" stroke-linecap="round" stroke-linejoin="round"/>
<path d="M314.339 238.299C314.217 227.307 309.731 217.926 303.769 213.874V211.653L287.338 211.82C278.09 211.92 270.684 224.032 270.873 238.798C271.062 253.564 278.645 265.522 287.904 265.444L304.336 265.277V263.057C310.109 258.76 314.394 249.29 314.339 238.299Z" fill="#263238" stroke="#263238" stroke-width="1.04742" stroke-linecap="round" stroke-linejoin="round"/>
<path d="M321.711 238.221C321.589 226.674 317.137 216.816 310.875 212.53V210.165L303.836 210.243C294.11 210.343 286.372 223.033 286.539 238.587C286.705 254.142 294.71 266.665 304.435 266.565L311.474 266.487V264.134C317.592 259.715 321.833 249.723 321.711 238.221Z" fill="white" stroke="#263238" stroke-width="1.04742" stroke-linecap="round" stroke-linejoin="round"/>
<path d="M328.772 238.143C328.939 253.686 321.189 266.388 311.475 266.487C301.76 266.587 293.711 254.064 293.578 238.521C293.444 222.977 301.161 210.276 310.875 210.165C320.59 210.054 328.583 222.589 328.772 238.143Z" fill="#737373" stroke="#263238" stroke-width="1.04742" stroke-linecap="round" stroke-linejoin="round"/>
<path d="M324.73 237.666C324.808 245.026 321.133 251.044 316.526 251.099C311.918 251.155 308.121 245.204 308.044 237.777C307.966 230.349 311.641 224.454 316.248 224.343C320.856 224.232 324.653 230.294 324.73 237.666Z" fill="#263238" stroke="#263238" stroke-width="1.04742" stroke-linecap="round" stroke-linejoin="round"/>
<path d="M455.561 293.022C456.477 286.179 456.867 279.275 456.726 272.372C453.118 274.037 432.068 274.648 430.136 274.692C428.204 274.737 407.154 274.037 403.546 272.372C403.387 279.274 403.758 286.177 404.656 293.022C406.111 302.026 418.901 338.075 419.189 339.818C419.564 341.499 420.05 343.154 420.644 344.77C420.644 344.77 413.372 349.999 410.174 352.031C406.977 354.063 409.308 354.94 412.506 354.94C415.703 354.94 422.387 354.063 424.418 354.063C426.217 354.063 429.348 352.497 430.081 352.12C430.813 352.497 433.944 354.063 435.732 354.063C437.775 354.063 444.458 354.94 447.656 354.94C450.853 354.94 453.207 354.063 449.987 352.031C446.767 349.999 439.518 344.77 439.518 344.77C440.112 343.154 440.598 341.499 440.972 339.818C441.316 338.042 454.106 301.993 455.561 293.022Z" fill="#263238" stroke="#263238" stroke-width="1.04742" stroke-linecap="round" stroke-linejoin="round"/>
<path d="M425.74 215.85C425.74 215.85 414.493 219.525 408.687 223.211C402.88 226.897 397.051 246.859 397.051 247.636C396.717 249.027 396.264 250.386 395.697 251.699C395.697 251.699 389.879 250.345 388.725 255.185C387.57 260.026 394.531 266.232 398.217 266.432C401.903 266.632 403.058 265.466 403.058 265.466C403.058 265.466 400.737 270.118 401.703 272.05C402.669 273.982 410.818 281.165 426.906 280.932C442.993 280.699 454.661 278.023 456.36 275.703C458.059 273.382 458.303 268.53 458.303 268.53C458.303 268.53 464.309 266.976 466.441 263.101C468.573 259.227 468.184 255.152 467.018 251.089C465.852 247.025 459.846 235.223 455.783 228.629C451.719 222.034 443.181 218.359 439.129 217.193C435.077 216.027 428.449 215.85 425.74 215.85Z" fill="#7E57C2" stroke="#263238" stroke-width="1.04742" stroke-linecap="round" stroke-linejoin="round"/>
<path d="M429.148 232.17C430.758 231.637 435.809 227.152 437.752 222.667C438.521 220.95 439.062 219.139 439.362 217.282L439.107 217.204C435.043 216.039 428.448 215.85 425.784 215.85C425.784 215.85 423.43 216.616 420.322 217.804C420.341 220.204 420.792 222.581 421.654 224.821C423.408 229.306 427.582 232.714 429.148 232.17Z" fill="white" stroke="#263238" stroke-width="1.04742" stroke-linecap="round" stroke-linejoin="round"/>
<path d="M447.633 241.229C447.633 241.229 452.285 266.043 457.559 268.597" stroke="#263238" stroke-width="1.04742" stroke-linecap="round" stroke-linejoin="round"/>
<path d="M403.057 265.466C403.057 265.466 408.875 243.561 409.264 241.43" stroke="#263238" stroke-width="1.04742" stroke-linecap="round" stroke-linejoin="round"/>
<path d="M455.15 252.443C455.15 252.443 451.93 253.165 451.93 255.496" stroke="#263238" stroke-width="1.04742" stroke-linecap="round" stroke-linejoin="round"/>
<path d="M400.449 252.798C400.449 252.798 404.035 255.13 403.679 258.716" stroke="#263238" stroke-width="1.04742" stroke-linecap="round" stroke-linejoin="round"/>
<path d="M424.474 354.085C426.273 354.085 429.403 352.519 430.136 352.142C430.869 352.519 434 354.085 435.787 354.085C437.83 354.085 444.514 354.962 447.711 354.962C450.909 354.962 453.262 354.085 450.043 352.053C447.256 350.288 441.416 346.113 439.928 345.047C436.498 348.178 429.714 347.401 429.714 347.401C428.34 347.194 426.979 346.905 425.64 346.535C423.608 345.947 420.699 344.792 420.699 344.792C420.699 344.792 413.427 350.021 410.23 352.053C407.032 354.085 409.364 354.962 412.561 354.962C415.759 354.962 422.442 354.085 424.474 354.085Z" fill="#7E57C2" stroke="#263238" stroke-width="1.04742" stroke-linecap="round" stroke-linejoin="round"/>
<path d="M429.714 344.837V294.143" stroke="white" stroke-width="1.04742" stroke-linecap="round" stroke-linejoin="round"/>
<path d="M430.136 352.086L429.714 347.346V344.837" stroke="#263238" stroke-width="1.04742" stroke-linecap="round" stroke-linejoin="round"/>
<path d="M425.64 292.4H434.066" stroke="white" stroke-width="1.04742" stroke-linecap="round" stroke-linejoin="round"/>
<path d="M414.626 186.762C414.626 186.762 408.587 190.381 409.486 193.556C410.385 196.732 413.116 197.342 412.517 199.108C411.917 200.873 409.819 201.983 412.206 203.093C413.565 203.702 414.988 204.16 416.447 204.459C416.447 204.459 418.667 212.164 422.487 213.518C426.306 214.873 432.923 213.974 437.608 213.374C439.191 213.219 440.689 212.586 441.902 211.558C443.116 210.531 443.988 209.158 444.403 207.623C444.858 205.969 442.438 207.934 441.227 206.113C440.017 204.292 441.838 199.618 443.193 195.533C444.547 191.447 440.472 183.742 435.188 181.177C429.903 178.613 419.811 179.956 414.626 186.762Z" fill="#263238" stroke="#263238" stroke-width="1.04742" stroke-linecap="round" stroke-linejoin="round"/>
<path d="M424.774 213.085C424.005 215.619 423.485 218.222 423.219 220.857C423.02 224.188 425.74 227.84 428.648 227.64C431.557 227.441 434.066 221.634 434.455 218.759C434.843 215.883 433.489 208.1 433.489 208.1C433.489 208.1 429.048 208.3 427.283 209.843C426.246 210.753 425.394 211.854 424.774 213.085Z" fill="white" stroke="#263238" stroke-width="1.04742" stroke-linecap="round" stroke-linejoin="round"/>
<path d="M420.832 190.992C420.832 190.992 420.977 195.521 425.518 199.874C428.247 202.513 431.484 204.572 435.032 205.924C434.953 206.916 434.697 207.886 434.277 208.789C434.08 209.166 433.772 209.474 433.396 209.672C433.019 209.871 432.591 209.95 432.168 209.899H430.647C430.647 209.899 428.426 215.106 425.74 215.861C423.053 216.616 416.447 216.094 415.537 209.444C414.626 202.793 414.482 197.353 415.237 195.988C415.992 194.622 420.832 190.992 420.832 190.992Z" fill="white" stroke="#263238" stroke-width="1.04742" stroke-linecap="round" stroke-linejoin="round"/>
<path d="M468.339 249.501C469.028 248.112 469.446 246.605 469.572 245.06C469.572 243.039 465.819 240.142 465.131 239.42C464.442 238.698 463.754 238.776 463.61 239.787C463.608 240.354 463.722 240.915 463.945 241.436C464.169 241.958 464.497 242.428 464.909 242.817C465.471 243.261 465.879 243.871 466.074 244.561C466.141 245.06 464.831 247.514 465.486 249.101C466.141 250.689 467.984 251.166 468.339 249.501Z" fill="white" stroke="#263238" stroke-width="1.04742" stroke-linecap="round" stroke-linejoin="round"/>
<path d="M317.98 238.165C317.98 238.165 334.323 243.394 344.149 255.607C353.974 267.82 360.425 266.065 372.637 262.002C384.85 257.939 389.502 243.394 406.366 255.607C423.231 267.82 426.717 272.46 440.672 265.488C454.628 258.516 462.178 241.651 474.979 247.458C487.78 253.264 481.951 282.985 483.117 297.418C484.282 311.851 482.528 348.012 485.437 352.664C488.346 357.316 518 353.774 518 353.774" stroke="#263238" stroke-width="3.14226" stroke-linecap="round" stroke-linejoin="round"/>
<path d="M348.589 218.758C348.589 218.758 345.337 213.452 340.54 214.839C335.467 216.305 332.846 223.555 331.658 228.073C330.47 232.592 329.671 237.477 327.495 241.685C327.495 241.685 317.88 241.518 312.518 239.964C308.426 238.688 304.402 237.206 300.461 235.523C300.461 235.523 298.562 232.87 297.219 232.348C295.876 231.826 292.389 230.804 292.134 231.604C291.879 232.403 296.175 235.034 296.175 235.034C296.175 235.034 288.182 236.145 287.382 237C286.583 237.854 293.033 240.408 293.033 240.408C293.033 240.408 295.443 241.185 301.305 239.786C301.305 239.786 322.81 253.442 327.095 255.008C331.381 256.573 333.757 257.073 336.677 251.433C339.597 245.793 349.289 231.804 350.832 226.175" fill="#7E57C2"/>
<path d="M348.589 218.758C348.589 218.758 345.337 213.452 340.54 214.839C335.467 216.305 332.846 223.555 331.658 228.073C330.47 232.592 329.671 237.477 327.495 241.685C327.495 241.685 317.88 241.518 312.518 239.964C308.426 238.688 304.402 237.206 300.461 235.523C300.461 235.523 298.562 232.87 297.219 232.348C295.876 231.826 292.389 230.804 292.134 231.604C291.879 232.403 296.175 235.034 296.175 235.034C296.175 235.034 288.182 236.145 287.382 237C286.583 237.854 293.033 240.408 293.033 240.408C293.033 240.408 295.443 241.185 301.305 239.786C301.305 239.786 322.81 253.442 327.095 255.008C331.381 256.573 333.757 257.073 336.677 251.433C339.597 245.793 349.289 231.804 350.832 226.175" stroke="#263238" stroke-width="1.04742" stroke-linecap="round" stroke-linejoin="round"/>
<path d="M306.045 237.788C302.904 236.611 300.494 235.567 300.494 235.567C300.494 235.567 298.596 232.914 297.252 232.392C295.909 231.87 292.423 230.849 292.168 231.648C291.912 232.447 296.209 235.079 296.209 235.079C296.209 235.079 288.215 236.189 287.416 237.044C286.616 237.899 293.067 240.452 293.067 240.452C293.067 240.452 295.476 241.229 301.338 239.831L304.347 241.729L306.045 237.788Z" fill="white" stroke="#263238" stroke-width="1.04742" stroke-linecap="round" stroke-linejoin="round"/>
<path d="M388.936 251.544C388.247 250.155 387.828 248.648 387.703 247.103C387.703 245.082 391.467 242.196 392.144 241.474C392.821 240.752 393.51 240.83 393.654 241.84C393.656 242.408 393.542 242.969 393.318 243.49C393.095 244.012 392.767 244.482 392.355 244.871C391.792 245.315 391.384 245.925 391.189 246.614C391.123 247.103 392.433 249.568 391.778 251.155C391.123 252.743 389.291 253.198 388.936 251.544Z" fill="white" stroke="#263238" stroke-width="1.04742" stroke-linecap="round" stroke-linejoin="round"/>
<path d="M391.522 245.449C391.522 245.449 388.425 251.166 390.223 253.22C392.022 255.274 393.765 248.602 394.098 246.759C394.431 244.916 392.666 243.062 391.522 245.449Z" fill="white" stroke="#263238" stroke-width="1.04742" stroke-linecap="round" stroke-linejoin="round"/>
<path d="M394.075 247.502C394.075 247.502 390.978 253.22 392.777 255.274C394.576 257.328 396.319 250.656 396.652 248.813C396.985 246.97 395.218 245.049 394.075 247.502Z" fill="white" stroke="#263238" stroke-width="1.04742" stroke-linecap="round" stroke-linejoin="round"/>
<path d="M396.885 247.98C396.885 247.98 393.787 253.697 395.586 255.751C397.384 257.805 399.127 251.133 399.461 249.29C399.794 247.447 398.028 245.582 396.885 247.98Z" fill="white" stroke="#263238" stroke-width="1.04742" stroke-linecap="round" stroke-linejoin="round"/>
<path d="M400.482 248.024C400.482 248.024 397.595 252.465 399.172 254.141C400.748 255.818 402.447 250.544 402.78 249.023C403.113 247.502 401.548 246.026 400.482 248.024Z" fill="white" stroke="#263238" stroke-width="1.04742" stroke-linecap="round" stroke-linejoin="round"/>
<path d="M466.274 245.67C466.274 245.67 469.372 251.388 467.573 253.442C465.774 255.496 464.031 248.812 463.698 246.969C463.365 245.126 465.131 243.272 466.274 245.67Z" fill="white" stroke="#263238" stroke-width="1.04742" stroke-linecap="round" stroke-linejoin="round"/>
<path d="M463.721 247.669C463.721 247.669 466.818 253.387 465.02 255.441C463.221 257.495 461.478 250.811 461.145 248.968C460.812 247.125 462.577 245.282 463.721 247.669Z" fill="white" stroke="#263238" stroke-width="1.04742" stroke-linecap="round" stroke-linejoin="round"/>
<path d="M460.89 248.202C460.89 248.202 463.987 253.92 462.189 255.974C460.39 258.028 458.647 251.355 458.325 249.501C458.003 247.647 459.779 245.804 460.89 248.202Z" fill="white" stroke="#263238" stroke-width="1.04742" stroke-linecap="round" stroke-linejoin="round"/>
<path d="M457.315 248.246C457.315 248.246 460.201 252.743 458.625 254.364C457.048 255.985 455.35 250.766 455.028 249.245C454.706 247.724 456.249 246.248 457.315 248.246Z" fill="white" stroke="#263238" stroke-width="1.04742" stroke-linecap="round" stroke-linejoin="round"/>
<path d="M75.3279 311.507V317.813C73.1395 320.205 71.5658 323.093 70.7426 326.229C69.3992 331.38 65.1914 353.552 66.3017 354.129C67.4119 354.706 77.8592 357.093 81.1899 356.594C85.0091 356.017 88.2621 356.216 86.3414 354.107C84.4207 351.997 74.3287 346.102 74.3287 346.102C74.3287 346.102 85.431 330.048 87.8957 324.12C90.3604 318.191 90.7601 309.02 90.7601 309.02L75.8608 308.454L75.3279 311.507Z" fill="white" stroke="#263238" stroke-width="1.04742" stroke-linecap="round" stroke-linejoin="round"/>
<path d="M81.19 356.594C85.0092 356.017 88.2622 356.217 86.3415 354.107C84.4208 351.998 74.3287 346.102 74.3287 346.102L73.9513 348.389L66.6792 347.501C66.1463 351.209 65.9132 353.929 66.3018 354.163C67.4897 354.696 77.8593 357.094 81.19 356.594Z" fill="#263238" stroke="#263238" stroke-width="1.04742" stroke-linecap="round" stroke-linejoin="round"/>
<path d="M111.833 314.771L113.554 317.836C112.84 319.211 112.42 320.72 112.321 322.266C112.222 323.812 112.445 325.362 112.976 326.818C114.697 332.169 118.716 351.853 118.716 352.997C118.716 354.14 121.192 354.906 123.157 354.906C125.122 354.906 130.562 355.284 131.328 355.284C132.094 355.284 137.634 356.239 139.544 355.095C141.454 353.952 137.113 351.653 134.248 350.321C131.384 348.989 125.078 345.547 125.078 345.547C125.078 345.547 126.599 329.871 126.599 322.987C126.599 316.104 128.131 313.817 126.033 309.609C123.934 305.401 110.745 311.53 110.745 311.53L111.833 314.771Z" fill="white" stroke="#263238" stroke-width="1.04742" stroke-linecap="round" stroke-linejoin="round"/>
<path d="M134.192 350.321C131.328 348.978 125.022 345.547 125.022 345.547L124.256 348.412L118.116 349.522C118.483 351.431 118.716 352.741 118.716 353.008C118.716 354.118 121.192 354.917 123.157 354.917C125.122 354.917 130.562 355.295 131.328 355.295C132.094 355.295 137.634 356.25 139.544 355.106C141.453 353.963 137.057 351.653 134.192 350.321Z" fill="#263238" stroke="#263238" stroke-width="1.04742" stroke-linecap="round" stroke-linejoin="round"/>
<path d="M101.541 187.55C100.042 184.99 98.33 182.561 96.4221 180.289C93.7909 177.325 85.5418 177.491 81.9225 181.399C78.3031 185.307 79.4467 192.279 80.8123 194.256C82.1778 196.232 84.9312 205.469 84.9312 205.469L85.5862 212.064L100.919 217.504L97.7877 206.79C97.7877 206.79 103.728 205.68 104.216 203.826C104.705 201.972 103.228 195.743 103.228 195.743C103.228 195.743 105.204 194.422 105.038 193.268C104.871 192.113 101.541 187.55 101.541 187.55Z" fill="white" stroke="#263238" stroke-width="1.04742" stroke-linecap="round" stroke-linejoin="round"/>
<path d="M83.8987 194.655C83.8987 194.655 86.5188 196.876 87.951 194.333C89.3832 191.791 90.4713 189.304 90.4713 187.15C90.4713 184.996 85.0866 183.209 88.6727 181.766C92.2588 180.322 94.8456 183.531 96.4443 180.311C98.0431 177.091 96.5887 176.747 87.9733 176.747C79.3578 176.747 75.0501 181.055 76.8709 186.44C78.3271 190.416 80.1289 194.257 82.2556 197.919L83.8987 194.655Z" fill="#263238" stroke="#263238" stroke-width="1.04742" stroke-linecap="round" stroke-linejoin="round"/>
<path d="M102.029 191.358C102.029 192.173 101.787 192.969 101.335 193.647C100.882 194.324 100.239 194.852 99.4862 195.164C98.7336 195.475 97.9054 195.557 97.1064 195.398C96.3074 195.239 95.5735 194.847 94.9974 194.271C94.4214 193.695 94.0291 192.961 93.8702 192.162C93.7112 191.363 93.7928 190.535 94.1046 189.782C94.4163 189.029 94.9442 188.386 95.6216 187.933C96.299 187.481 97.0953 187.239 97.91 187.239C99.0024 187.239 100.05 187.673 100.823 188.446C101.595 189.218 102.029 190.266 102.029 191.358Z" stroke="#263238" stroke-width="1.04742" stroke-linecap="round" stroke-linejoin="round"/>
<path d="M101.429 187.705C101.909 187.509 102.421 187.407 102.939 187.406C103.797 187.407 104.63 187.693 105.308 188.219C105.985 188.745 106.469 189.48 106.684 190.311C106.898 191.141 106.831 192.019 106.493 192.808C106.155 193.596 105.565 194.25 104.816 194.666" stroke="#263238" stroke-width="1.04742" stroke-linecap="round" stroke-linejoin="round"/>
<path d="M93.7906 191.358L83.8984 194.656" stroke="#263238" stroke-width="1.04742" stroke-linecap="round" stroke-linejoin="round"/>
<path d="M86.7406 196.798C86.7406 196.798 84.7643 192.679 82.7881 193.467C80.8119 194.256 81.8 200.728 83.7762 201.383C84.4403 201.533 85.1306 201.521 85.7892 201.349C86.4479 201.177 87.0558 200.85 87.5621 200.395C87.5621 200.395 89.2164 203.859 91.1926 204.836" fill="white"/>
<path d="M86.7406 196.798C86.7406 196.798 84.7643 192.679 82.7881 193.467C80.8119 194.256 81.8 200.728 83.7762 201.383C84.4403 201.533 85.1306 201.521 85.7892 201.349C86.4479 201.177 87.0558 200.85 87.5621 200.395C87.5621 200.395 89.2164 203.859 91.1926 204.836" stroke="#263238" stroke-width="1.04742" stroke-linecap="round" stroke-linejoin="round"/>
<path d="M73.7738 270.817L72.5415 286.605L68.8555 309.975C68.8555 309.975 77.4709 316.737 85.509 316.737C93.5471 316.737 95.7564 315.715 95.7564 315.715L100.263 291.734L104.771 316.948C104.771 316.948 113.653 315.515 119.537 314.072C123.629 312.933 127.506 311.133 131.017 308.743L119.126 277.79L116.551 261.824C116.551 261.824 103.228 263.057 95.2235 263.468C87.2187 263.878 76.5716 261.824 76.5716 261.824L73.7738 270.817Z" fill="#7E57C2" stroke="#263238" stroke-width="1.04742" stroke-linecap="round" stroke-linejoin="round"/>
<path d="M82.2223 207.734C82.2223 207.734 101.096 214.318 106.925 220.713C110.145 224.265 113.753 248.579 115.052 254.519C116.351 260.459 118.616 272.283 118.616 272.283C118.616 272.283 107.103 277.479 98.1986 277.668C89.2945 277.856 72.208 273.771 72.208 273.771C72.208 273.771 74.2397 247.425 74.2397 235.179C74.2397 222.933 74.4285 214.939 76.4602 211.042C76.4713 211.076 79.8131 207.356 82.2223 207.734Z" fill="#263238" stroke="#263238" stroke-width="1.04742" stroke-linecap="round" stroke-linejoin="round"/>
<path d="M77.2592 275.68C77.2592 275.68 78.2806 292.9 77.2592 299.262C76.5419 303.366 75.3032 307.362 73.5732 311.152" stroke="#263238" stroke-width="1.04742" stroke-linecap="round" stroke-linejoin="round"/>
<path d="M77.6699 283.885C79.2115 283.355 80.5889 282.434 81.6672 281.212C82.7455 279.99 83.4876 278.508 83.8206 276.913" stroke="#263238" stroke-width="1.04742" stroke-linecap="round" stroke-linejoin="round"/>
<path d="M69.877 306.645C69.877 306.645 80.1355 315.46 96.1228 312.196" stroke="#263238" stroke-width="1.04742" stroke-linecap="round" stroke-linejoin="round"/>
<path d="M104.327 311.763C104.327 311.763 121.136 309.92 128.519 305.001" stroke="#263238" stroke-width="1.04742" stroke-linecap="round" stroke-linejoin="round"/>
<path d="M179.512 199.762C179.512 199.762 177.891 200.961 172.24 205.091C166.589 209.221 171.041 215.461 171.041 215.461C171.041 215.461 167 216.094 161.604 221.767C156.208 227.44 164.013 237.177 171.308 238.698C178.602 240.219 187.128 231.193 189.682 222.822C192.236 214.451 188.86 201.827 187.162 199.218C185.463 196.609 179.512 199.762 179.512 199.762Z" fill="#263238" stroke="#263238" stroke-width="1.04742" stroke-linecap="round" stroke-linejoin="round"/>
<path d="M200.917 198.652C200.917 198.652 203.726 194.311 201.184 188.016C198.642 181.721 191.048 178.846 183.653 183.409C181.189 184.875 179.277 187.114 178.215 189.778C177.153 192.442 177 195.382 177.78 198.142C178.502 201.05 182.143 205.525 182.91 205.591C183.676 205.658 190.326 208.078 194.867 205.958C199.408 203.837 200.917 198.652 200.917 198.652Z" fill="#263238" stroke="#263238" stroke-width="1.04742" stroke-linecap="round" stroke-linejoin="round"/>
<path d="M168.243 345.203C168.243 345.203 173.517 353.407 182.676 354.806C191.836 356.205 183.598 347.99 182.054 346.746C180.511 345.503 169.487 342.816 168.243 345.203Z" fill="#737373" stroke="#263238" stroke-width="1.04742" stroke-linecap="round" stroke-linejoin="round"/>
<path d="M217.038 347.312C217.038 347.312 227.108 349.788 226.331 351.964C225.553 354.14 217.349 353.974 212.553 352.73C207.756 351.487 203.249 349.633 203.871 347.623C204.492 345.614 217.038 347.312 217.038 347.312Z" fill="#737373" stroke="#263238" stroke-width="1.04742" stroke-linecap="round" stroke-linejoin="round"/>
<path d="M188.405 214.973C188.405 214.973 174.927 216.949 172.462 221.712C169.997 226.475 173.472 252.421 173.472 252.421C173.472 252.421 167.721 265.111 167.644 273.282C167.566 281.453 171.208 295.831 170.919 299.417C170.63 303.003 166.944 343.826 166.944 344.937C166.944 346.047 174.716 348.534 185.918 349.866C197.12 351.198 218.548 347.213 218.548 347.213C218.548 347.213 218.126 323.12 219.247 308.754C220.369 294.388 218.77 281.476 215.917 276.113C213.063 270.751 199.774 251.444 199.774 251.444C199.774 251.444 206.213 239.764 206.613 234.657C207.013 229.55 204.937 226.885 200.074 221.012C198.628 219.28 196.852 217.853 194.848 216.816C192.845 215.779 190.654 215.152 188.405 214.973Z" fill="#7E57C2" stroke="#263238" stroke-width="1.04742" stroke-linecap="round" stroke-linejoin="round"/>
<path d="M199.807 251.455C199.807 251.455 206.247 239.775 206.646 234.668C207.046 229.561 204.97 226.896 200.107 221.023C199.874 220.735 199.63 220.479 199.385 220.213L199.208 220.379C194.212 228.54 177.691 242.484 172.773 246.548C173.151 250.023 173.473 252.421 173.473 252.421C173.473 252.421 167.722 265.111 167.644 273.282C167.736 277.005 168.107 280.717 168.754 284.384C180.423 277.723 196.032 265.255 204.481 258.305C201.839 254.397 199.807 251.455 199.807 251.455Z" fill="#737373" stroke="#263238" stroke-width="1.04742" stroke-linecap="round" stroke-linejoin="round"/>
<path d="M185.918 205.447C186.291 208.494 186.495 211.559 186.529 214.629C186.351 216.905 187.084 222.1 190.97 223.732C194.856 225.365 197.298 223.089 197.287 220.801C197.146 218.913 196.773 217.048 196.177 215.25L196.288 208.977C196.288 208.977 189.582 204.781 185.918 205.447Z" fill="white" stroke="#263238" stroke-width="1.04742" stroke-linecap="round" stroke-linejoin="round"/>
<path d="M182.432 201.372C182.432 201.372 179.579 198.863 179.49 202.482C179.401 206.102 182.732 207.301 183.464 207.545C184.083 207.629 184.71 207.474 185.219 207.112C185.219 207.112 190.392 211.553 194.545 211.842C198.697 212.13 200.384 210.21 201.361 202.671C202.338 195.133 194.556 187.483 194.556 187.483C194.556 187.483 187.894 199.762 182.432 201.372Z" fill="white" stroke="#263238" stroke-width="1.04742" stroke-linecap="round" stroke-linejoin="round"/>
<path d="M118.938 272.127C118.9 270.841 119.111 269.559 119.559 268.353C120.248 266.843 124 265.977 124.833 265.688C125.666 265.399 126.088 265.688 125.843 266.476C125.649 266.9 125.371 267.28 125.025 267.593C124.68 267.906 124.275 268.146 123.834 268.297C123.26 268.435 122.743 268.749 122.357 269.196C122.146 269.552 122.28 271.828 121.247 272.794C120.214 273.759 118.594 273.493 118.938 272.127Z" fill="white" stroke="#263238" stroke-width="1.04742" stroke-linecap="round" stroke-linejoin="round"/>
<path d="M204.026 238.743C204.026 238.743 190.703 237 184.83 246.303C178.957 255.607 167.977 288.159 147.626 293.4C127.276 298.64 121.458 256.762 109.245 257.928C97.6096 259.038 89.4827 257.928 82.4993 270.717C78.769 277.568 60.117 352.364 51.3018 353.13C23.224 355.584 5.14941 353.985 5.14941 353.985" stroke="#263238" stroke-width="3.14226" stroke-linecap="round" stroke-linejoin="round"/>
<path d="M83.0884 208.267C83.0884 208.267 80.0131 207.034 75.9052 209.488C71.7974 211.942 60.7394 238.809 61.561 241.685C62.3826 244.56 74.0622 249.889 80.6237 251.732C87.1852 253.575 99.0758 255.84 99.0758 255.84C99.0758 255.84 102.762 261.58 103.994 261.78C105.786 261.756 107.572 261.551 109.323 261.169C109.323 261.169 111.544 263.012 112.399 260.958C113.253 258.904 111.577 256.251 109.734 254.197C107.891 252.143 100.097 251.122 100.097 251.122L78.9695 236.556L87.8513 220.157" fill="#263238"/>
<path d="M83.0884 208.267C83.0884 208.267 80.0131 207.034 75.9052 209.488C71.7974 211.942 60.7394 238.809 61.561 241.685C62.3826 244.56 74.0622 249.889 80.6237 251.732C87.1852 253.575 99.0758 255.84 99.0758 255.84C99.0758 255.84 102.762 261.58 103.994 261.78C105.786 261.756 107.572 261.551 109.323 261.169C109.323 261.169 111.544 263.012 112.399 260.958C113.253 258.904 111.577 256.251 109.734 254.197C107.891 252.143 100.097 251.122 100.097 251.122L78.9695 236.555L87.8513 220.157" stroke="#263238" stroke-width="1.04742" stroke-linecap="round" stroke-linejoin="round"/>
<path d="M103.994 261.769C105.786 261.745 107.572 261.54 109.323 261.158C109.323 261.158 111.544 263.001 112.399 260.947C113.253 258.893 111.577 256.24 109.734 254.186C107.891 252.132 100.097 251.111 100.097 251.111L78.9694 236.555L82.1225 230.682C74.2287 225.764 68.9884 226.13 66.1573 227.118C63.3262 233.913 61.1724 240.352 61.5499 241.674C62.3714 244.549 74.0511 249.878 80.6126 251.721C87.174 253.564 99.0646 255.829 99.0646 255.829C99.0646 255.829 102.762 261.569 103.994 261.769Z" fill="white" stroke="#263238" stroke-width="1.04742" stroke-linecap="round" stroke-linejoin="round"/>
<path d="M236.056 239.198C235.157 229.506 230.505 221.545 224.954 218.381L224.776 216.405L210.277 217.748C202.116 218.503 196.487 229.706 197.698 242.762C198.908 255.818 206.502 265.777 214.662 264.967L229.162 263.623L228.973 261.647C233.858 257.561 236.956 248.89 236.056 239.198Z" fill="#263238" stroke="#263238" stroke-width="1.04742" stroke-linecap="round" stroke-linejoin="round"/>
<path d="M242.618 238.621C241.674 228.44 237.067 220.057 231.193 216.727L230.994 214.651L224.787 215.228C216.216 216.027 210.299 227.785 211.565 241.507C212.83 255.23 220.824 265.699 229.395 264.9L235.601 264.322L235.412 262.246C240.542 257.872 243.561 248.768 242.618 238.621Z" fill="white" stroke="#263238" stroke-width="1.04742" stroke-linecap="round" stroke-linejoin="round"/>
<path d="M248.835 238.01C250.112 251.732 244.194 263.49 235.612 264.289C227.03 265.088 219.047 254.608 217.748 240.897C216.449 227.185 222.389 215.361 230.96 214.617C239.531 213.873 247.547 224.299 248.835 238.01Z" fill="white" stroke="#263238" stroke-width="1.04742" stroke-linecap="round" stroke-linejoin="round"/>
<path d="M255.496 229.994L231.415 232.215C231.078 232.247 230.737 232.212 230.413 232.112C230.089 232.012 229.788 231.849 229.527 231.632C229.266 231.416 229.05 231.15 228.892 230.85C228.734 230.549 228.637 230.221 228.607 229.883C228.574 229.546 228.609 229.205 228.709 228.881C228.809 228.557 228.972 228.255 229.189 227.994C229.405 227.733 229.671 227.518 229.972 227.36C230.272 227.202 230.6 227.105 230.938 227.074L255.019 224.854C255.357 224.822 255.697 224.857 256.021 224.957C256.346 225.057 256.647 225.219 256.908 225.436C257.169 225.653 257.384 225.919 257.542 226.219C257.7 226.519 257.797 226.848 257.828 227.185C257.86 227.523 257.825 227.864 257.725 228.188C257.625 228.512 257.462 228.813 257.246 229.074C257.029 229.335 256.763 229.551 256.463 229.709C256.163 229.867 255.834 229.964 255.496 229.994Z" fill="#737373" stroke="#263238" stroke-width="1.04742" stroke-linecap="round" stroke-linejoin="round"/>
<path d="M257.284 249.079L233.203 251.299C232.865 251.332 232.525 251.297 232.201 251.197C231.876 251.097 231.575 250.934 231.314 250.717C231.053 250.501 230.838 250.235 230.68 249.934C230.522 249.634 230.425 249.306 230.394 248.968C230.362 248.63 230.397 248.29 230.497 247.966C230.597 247.641 230.76 247.34 230.976 247.079C231.193 246.818 231.459 246.603 231.759 246.445C232.059 246.287 232.388 246.19 232.726 246.159L256.807 243.939C257.487 243.88 258.164 244.092 258.69 244.528C259.215 244.964 259.548 245.59 259.615 246.27C259.648 246.608 259.613 246.948 259.513 247.273C259.413 247.597 259.25 247.898 259.033 248.159C258.817 248.42 258.551 248.635 258.25 248.793C257.95 248.951 257.622 249.048 257.284 249.079Z" fill="#737373" stroke="#263238" stroke-width="1.04742" stroke-linecap="round" stroke-linejoin="round"/>
<path d="M180.078 216.782C180.078 216.782 174.283 217.892 171.541 221.223C168.798 224.554 163.17 250.256 164.469 253.209C165.768 256.162 186.584 259.87 193.013 260.403C198.182 260.608 203.359 260.378 208.489 259.715C208.489 259.715 214.04 259.571 215.561 259.315C217.082 259.06 219.88 257.561 219.925 256.995C219.969 256.429 219.692 255.074 217.615 254.908C215.539 254.741 211.087 253.253 210.521 253.209C211.855 252.858 213.208 252.584 214.573 252.387C214.573 252.387 214.862 251.277 212.575 251.277C210.288 251.277 208.212 251.122 207.346 252.387C206.727 253.373 206.199 254.414 205.769 255.496C205.769 255.496 192.946 256.395 185.985 252.998C179.024 249.601 176.825 248.468 176.825 248.468L181.821 228.484" fill="#7E57C2"/>
<path d="M180.078 216.782C180.078 216.782 174.283 217.892 171.541 221.223C168.798 224.554 163.17 250.256 164.469 253.209C165.768 256.162 186.584 259.87 193.013 260.403C198.182 260.608 203.359 260.378 208.489 259.715C208.489 259.715 214.04 259.571 215.561 259.315C217.082 259.06 219.88 257.561 219.925 256.995C219.969 256.429 219.692 255.074 217.615 254.908C215.539 254.741 211.087 253.253 210.521 253.209C211.855 252.858 213.208 252.584 214.573 252.387C214.573 252.387 214.862 251.277 212.575 251.277C210.288 251.277 208.212 251.122 207.346 252.387C206.727 253.373 206.199 254.414 205.769 255.496C205.769 255.496 192.946 256.395 185.985 252.998C179.024 249.601 176.825 248.468 176.825 248.468L181.821 228.484" stroke="#263238" stroke-width="1.04742" stroke-linecap="round" stroke-linejoin="round"/>
<path d="M215.528 259.349C217.071 259.093 219.847 257.594 219.891 257.028C219.936 256.462 219.658 255.107 217.582 254.941C215.506 254.774 211.054 253.287 210.488 253.242C211.822 252.891 213.175 252.617 214.54 252.421C214.54 252.421 214.829 251.31 212.542 251.31C210.255 251.31 208.178 251.155 207.312 252.421C206.693 253.407 206.165 254.447 205.736 255.529C205.736 255.529 192.913 256.429 185.952 253.031C178.99 249.634 176.792 248.502 176.792 248.502L179.834 236.289C175.874 234.659 171.695 233.623 167.433 233.214C165.357 241.585 163.658 251.444 164.435 253.198C165.723 256.151 186.551 259.859 192.979 260.392C198.148 260.597 203.325 260.366 208.456 259.704C208.456 259.704 214.018 259.604 215.528 259.349Z" fill="white" stroke="#263238" stroke-width="1.04742" stroke-linecap="round" stroke-linejoin="round"/>
<path d="M121.758 269.974C121.758 269.974 117.472 273.182 118.127 275.303C118.782 277.423 122.357 273.082 123.246 271.806C124.134 270.529 123.434 268.597 121.758 269.974Z" fill="white" stroke="#263238" stroke-width="1.04742" stroke-linecap="round" stroke-linejoin="round"/>
<path d="M122.602 272.849C122.602 272.849 118.327 276.058 118.971 278.178C119.615 280.299 123.212 275.958 124.089 274.681C124.966 273.404 124.278 271.45 122.602 272.849Z" fill="white" stroke="#263238" stroke-width="1.04742" stroke-linecap="round" stroke-linejoin="round"/>
<path d="M124.633 274.714C124.633 274.714 120.359 277.923 121.014 280.043C121.669 282.164 125.244 277.823 126.132 276.546C127.02 275.269 126.321 273.315 124.633 274.714Z" fill="white" stroke="#263238" stroke-width="1.04742" stroke-linecap="round" stroke-linejoin="round"/>
<path d="M126.31 276.224C126.31 276.224 122.613 278.6 123.235 280.354C123.856 282.108 126.909 278.789 127.675 277.767C128.442 276.746 127.82 275.103 126.31 276.224Z" fill="white" stroke="#263238" stroke-width="1.04742" stroke-linecap="round" stroke-linejoin="round"/>
</g>
<defs>
<clipPath id="clip0_21_1452">
<rect width="520" height="347" fill="white" transform="translate(0 44)"/>
</clipPath>
</defs>
</svg>
