<svg width="520" height="435" viewBox="0 0 520 435" fill="none" xmlns="http://www.w3.org/2000/svg">
<path d="M390.775 88.7693C390.775 88.7693 364.337 52.4522 318.727 56.2831C273.118 60.114 263.312 108.775 232.705 131.166C216.699 142.892 179.635 131.889 161.926 139.759C105.33 164.945 94.9457 246.575 125.938 284.811C152.754 317.932 192.846 329.368 250.036 321.401C307.227 313.434 347.696 309.965 392.671 261.745C437.645 213.526 422.531 137.189 390.775 88.7693Z" fill="#7E57C2"/>
<path opacity="0.8" d="M390.775 88.7693C390.775 88.7693 364.337 52.4522 318.727 56.2831C273.118 60.114 263.312 108.775 232.705 131.166C216.699 142.892 179.635 131.889 161.926 139.759C105.33 164.945 94.9457 246.575 125.938 284.811C152.754 317.932 192.846 329.368 250.036 321.401C307.227 313.434 347.696 309.965 392.671 261.745C437.645 213.526 422.531 137.189 390.775 88.7693Z" fill="white"/>
<path d="M464.685 272.483C464.412 262.452 465.191 245.346 456.397 238.302C448.671 232.118 442.663 240.511 440.495 247.281C435.243 263.705 437.708 281.815 437.724 298.769C437.724 299.026 437.724 299.283 437.724 299.572C437.315 312.053 435.813 325.553 437.178 338.01C437.178 338.01 435.837 325.529 426.039 330.878C416.241 336.227 430.938 364.296 430.938 364.296C430.938 364.296 419.357 355.831 414.008 362.963C408.659 370.094 420.69 378.109 420.69 378.109C420.69 378.109 409.551 374.993 409.551 378.109C409.551 381.226 413.117 383.9 423.364 385.241H478.603C478.603 385.241 487.518 380.334 485.735 374.993C483.952 369.653 474.587 372.729 474.587 372.729C474.587 372.729 488.851 355.349 487.959 347.776C487.068 340.202 468.797 349.117 468.797 349.117C468.797 349.117 483.052 313.025 480.378 296.986C478.274 284.353 468.468 292.971 463.127 297.854C464.384 289.458 464.905 280.969 464.685 272.483Z" fill="#7E57C2" stroke="white" stroke-linecap="round" stroke-linejoin="round"/>
<path opacity="0.5" d="M464.685 272.483C464.412 262.452 465.191 245.346 456.397 238.302C448.671 232.118 442.663 240.511 440.495 247.281C435.243 263.705 437.708 281.815 437.724 298.769C437.724 299.026 437.724 299.283 437.724 299.572C437.315 312.053 435.813 325.553 437.178 338.01C437.178 338.01 435.837 325.529 426.039 330.878C416.241 336.227 430.938 364.296 430.938 364.296C430.938 364.296 419.357 355.831 414.008 362.963C408.659 370.094 420.69 378.109 420.69 378.109C420.69 378.109 409.551 374.993 409.551 378.109C409.551 381.226 413.117 383.9 423.364 385.241H478.603C478.603 385.241 487.518 380.334 485.735 374.993C483.952 369.653 474.587 372.729 474.587 372.729C474.587 372.729 488.851 355.349 487.959 347.776C487.068 340.202 468.797 349.117 468.797 349.117C468.797 349.117 483.052 313.025 480.378 296.986C478.274 284.353 468.468 292.971 463.127 297.854C464.384 289.458 464.905 280.969 464.685 272.483Z" fill="white"/>
<path d="M446.96 384.759L450.976 262.227" stroke="white" stroke-linecap="round" stroke-linejoin="round"/>
<path d="M449.193 333.52L470.131 313.916" stroke="white" stroke-linecap="round" stroke-linejoin="round"/>
<path d="M458.991 324.606L463.449 312.133" stroke="white" stroke-linecap="round" stroke-linejoin="round"/>
<path d="M431.814 348.667L447.853 366.047" stroke="white" stroke-linecap="round" stroke-linejoin="round"/>
<path d="M474.587 358.473L447.852 372.287" stroke="white" stroke-linecap="round" stroke-linejoin="round"/>
<path d="M460.332 366.488L470.13 366.047" stroke="white" stroke-linecap="round" stroke-linejoin="round"/>
<path d="M446.96 384.759L450.976 262.227" stroke="#7E57C2" stroke-linecap="round" stroke-linejoin="round"/>
<path d="M449.193 333.52L470.131 313.916" stroke="#7E57C2" stroke-linecap="round" stroke-linejoin="round"/>
<path d="M458.991 324.606L463.449 312.133" stroke="#7E57C2" stroke-linecap="round" stroke-linejoin="round"/>
<path d="M431.814 348.667L447.853 366.047" stroke="#7E57C2" stroke-linecap="round" stroke-linejoin="round"/>
<path d="M474.587 358.473L447.852 372.287" stroke="#7E57C2" stroke-linecap="round" stroke-linejoin="round"/>
<path d="M460.332 366.488L470.13 366.047" stroke="#7E57C2" stroke-linecap="round" stroke-linejoin="round"/>
<g opacity="0.8">
<path d="M446.961 384.759L450.977 262.227" stroke="white" stroke-linecap="round" stroke-linejoin="round"/>
<path d="M449.191 333.52L470.129 313.916" stroke="white" stroke-linecap="round" stroke-linejoin="round"/>
<path d="M458.99 324.606L463.448 312.133" stroke="white" stroke-linecap="round" stroke-linejoin="round"/>
<path d="M431.812 348.667L447.852 366.047" stroke="white" stroke-linecap="round" stroke-linejoin="round"/>
<path d="M474.587 358.473L447.852 372.287" stroke="white" stroke-linecap="round" stroke-linejoin="round"/>
<path d="M460.331 366.488L470.129 366.047" stroke="white" stroke-linecap="round" stroke-linejoin="round"/>
</g>
<path d="M370.423 359.999C370.423 372.456 380.293 382.559 380.293 382.559C380.293 382.559 390.164 372.456 390.164 359.999C390.164 347.543 380.293 337.439 380.293 337.439C380.293 337.439 370.423 347.535 370.423 359.999Z" fill="#7E57C2"/>
<path d="M363.581 379.218C368.4 384.623 376.543 385.209 376.543 385.209C376.543 385.209 376.937 377.025 372.15 371.62C367.364 366.215 359.188 365.629 359.188 365.629C359.188 365.629 358.786 373.813 363.581 379.218Z" fill="#7E57C2"/>
<path d="M388.734 371.436C383.698 376.616 383.73 384.808 383.73 384.808C383.73 384.808 391.914 384.591 396.942 379.403C401.969 374.215 401.953 366.031 401.953 366.031C401.953 366.031 393.761 366.248 388.734 371.436Z" fill="#7E57C2"/>
<g opacity="0.5">
<path d="M370.422 359.999C370.422 372.456 380.292 382.559 380.292 382.559C380.292 382.559 390.163 372.456 390.163 359.999C390.163 347.543 380.292 337.439 380.292 337.439C380.292 337.439 370.422 347.535 370.422 359.999Z" fill="white"/>
<path d="M380.293 382.559V337.439" stroke="white" stroke-linecap="round" stroke-linejoin="round"/>
<path d="M380.293 353.478L374.768 348.651" stroke="white" stroke-linecap="round" stroke-linejoin="round"/>
<path d="M380.381 360.931L387.223 351.02" stroke="white" stroke-linecap="round" stroke-linejoin="round"/>
<path d="M380.293 365.227L372.133 357.951" stroke="white" stroke-linecap="round" stroke-linejoin="round"/>
<path d="M380.381 371.018L388.452 363.83" stroke="white" stroke-linecap="round" stroke-linejoin="round"/>
<path d="M380.381 376.022L374.061 371.018" stroke="white" stroke-linecap="round" stroke-linejoin="round"/>
<path d="M363.58 379.218C368.399 384.623 376.542 385.209 376.542 385.209C376.542 385.209 376.936 377.025 372.149 371.62C367.363 366.215 359.187 365.629 359.187 365.629C359.187 365.629 358.785 373.813 363.58 379.218Z" fill="white"/>
<path d="M376.543 385.209L359.188 365.629" stroke="white" stroke-linecap="round" stroke-linejoin="round"/>
<path d="M365.355 372.592L361.099 372.624" stroke="white" stroke-linecap="round" stroke-linejoin="round"/>
<path d="M368.262 375.788L367.419 368.857" stroke="white" stroke-linecap="round" stroke-linejoin="round"/>
<path d="M369.877 377.692L363.54 377.668" stroke="white" stroke-linecap="round" stroke-linejoin="round"/>
<path d="M372.142 380.165L372.872 373.941" stroke="white" stroke-linecap="round" stroke-linejoin="round"/>
<path d="M374.068 382.334L369.402 382.599" stroke="white" stroke-linecap="round" stroke-linejoin="round"/>
<path d="M388.733 371.436C383.697 376.616 383.729 384.808 383.729 384.808C383.729 384.808 391.913 384.591 396.941 379.403C401.968 374.215 401.952 366.031 401.952 366.031C401.952 366.031 393.76 366.248 388.733 371.436Z" fill="white"/>
<path d="M383.729 384.808L401.952 366.031" stroke="white" stroke-linecap="round" stroke-linejoin="round"/>
<path d="M395.472 372.705L395.127 368.464" stroke="white" stroke-linecap="round" stroke-linejoin="round"/>
<path d="M392.5 375.845L399.351 374.479" stroke="white" stroke-linecap="round" stroke-linejoin="round"/>
<path d="M390.726 377.596L390.276 371.275" stroke="white" stroke-linecap="round" stroke-linejoin="round"/>
<path d="M388.42 380.037L394.684 380.31" stroke="white" stroke-linecap="round" stroke-linejoin="round"/>
<path d="M386.405 382.117L385.795 377.491" stroke="white" stroke-linecap="round" stroke-linejoin="round"/>
</g>
<path d="M380.293 382.559V337.439" stroke="#7E57C2" stroke-linecap="round" stroke-linejoin="round"/>
<path d="M380.294 353.478L374.769 348.651" stroke="#7E57C2" stroke-linecap="round" stroke-linejoin="round"/>
<path d="M380.382 360.931L387.224 351.02" stroke="#7E57C2" stroke-linecap="round" stroke-linejoin="round"/>
<path d="M380.293 365.227L372.133 357.951" stroke="#7E57C2" stroke-linecap="round" stroke-linejoin="round"/>
<path d="M380.382 371.018L388.453 363.83" stroke="#7E57C2" stroke-linecap="round" stroke-linejoin="round"/>
<path d="M380.382 376.022L374.062 371.018" stroke="#7E57C2" stroke-linecap="round" stroke-linejoin="round"/>
<g opacity="0.7">
<path d="M380.295 382.559V337.439" stroke="white" stroke-linecap="round" stroke-linejoin="round"/>
<path d="M380.294 353.477L374.769 348.651" stroke="white" stroke-linecap="round" stroke-linejoin="round"/>
<path d="M380.383 360.931L387.225 351.02" stroke="white" stroke-linecap="round" stroke-linejoin="round"/>
<path d="M380.294 365.227L372.135 357.951" stroke="white" stroke-linecap="round" stroke-linejoin="round"/>
<path d="M380.383 371.018L388.454 363.83" stroke="white" stroke-linecap="round" stroke-linejoin="round"/>
<path d="M380.383 376.021L374.062 371.018" stroke="white" stroke-linecap="round" stroke-linejoin="round"/>
</g>
<path d="M376.543 385.209L359.188 365.629" stroke="#7E57C2" stroke-linecap="round" stroke-linejoin="round"/>
<path d="M365.356 372.592L361.1 372.624" stroke="#7E57C2" stroke-linecap="round" stroke-linejoin="round"/>
<path d="M368.263 375.788L367.42 368.857" stroke="#7E57C2" stroke-linecap="round" stroke-linejoin="round"/>
<path d="M369.878 377.692L363.541 377.668" stroke="#7E57C2" stroke-linecap="round" stroke-linejoin="round"/>
<path d="M372.143 380.166L372.873 373.941" stroke="#7E57C2" stroke-linecap="round" stroke-linejoin="round"/>
<path d="M374.069 382.334L369.403 382.599" stroke="#7E57C2" stroke-linecap="round" stroke-linejoin="round"/>
<g opacity="0.7">
<path d="M376.544 385.209L359.188 365.629" stroke="white" stroke-linecap="round" stroke-linejoin="round"/>
<path d="M365.356 372.592L361.1 372.624" stroke="white" stroke-linecap="round" stroke-linejoin="round"/>
<path d="M368.263 375.789L367.42 368.858" stroke="white" stroke-linecap="round" stroke-linejoin="round"/>
<path d="M369.877 377.692L363.54 377.668" stroke="white" stroke-linecap="round" stroke-linejoin="round"/>
<path d="M372.144 380.166L372.874 373.941" stroke="white" stroke-linecap="round" stroke-linejoin="round"/>
<path d="M374.069 382.334L369.403 382.599" stroke="white" stroke-linecap="round" stroke-linejoin="round"/>
</g>
<path d="M383.73 384.808L401.953 366.031" stroke="#7E57C2" stroke-linecap="round" stroke-linejoin="round"/>
<path d="M395.473 372.705L395.128 368.464" stroke="#7E57C2" stroke-linecap="round" stroke-linejoin="round"/>
<path d="M392.501 375.845L399.352 374.479" stroke="#7E57C2" stroke-linecap="round" stroke-linejoin="round"/>
<path d="M390.727 377.596L390.277 371.275" stroke="#7E57C2" stroke-linecap="round" stroke-linejoin="round"/>
<path d="M388.421 380.037L394.685 380.31" stroke="#7E57C2" stroke-linecap="round" stroke-linejoin="round"/>
<path d="M386.405 382.117L385.795 377.491" stroke="#7E57C2" stroke-linecap="round" stroke-linejoin="round"/>
<g opacity="0.7">
<path d="M383.731 384.807L401.954 366.031" stroke="white" stroke-linecap="round" stroke-linejoin="round"/>
<path d="M395.474 372.704L395.129 368.464" stroke="white" stroke-linecap="round" stroke-linejoin="round"/>
<path d="M392.502 375.845L399.353 374.479" stroke="white" stroke-linecap="round" stroke-linejoin="round"/>
<path d="M390.727 377.595L390.277 371.275" stroke="white" stroke-linecap="round" stroke-linejoin="round"/>
<path d="M388.423 380.037L394.687 380.31" stroke="white" stroke-linecap="round" stroke-linejoin="round"/>
<path d="M386.406 382.117L385.796 377.491" stroke="white" stroke-linecap="round" stroke-linejoin="round"/>
</g>
<path d="M56.3146 272.483C56.5796 262.452 55.8086 245.346 64.6028 238.302C72.3288 232.118 78.3362 240.511 80.4965 247.281C85.757 263.705 83.2834 281.815 83.2753 298.769C83.2753 299.026 83.2753 299.283 83.2753 299.572C83.693 312.053 85.1868 325.553 83.8295 338.01C83.8295 338.01 85.1627 325.529 94.9688 330.878C104.775 336.227 90.0617 364.296 90.0617 364.296C90.0617 364.296 101.651 355.831 106.999 362.963C112.348 370.094 100.334 378.077 100.334 378.077C100.334 378.077 111.473 374.961 111.473 378.077C111.473 381.193 107.907 383.868 97.6592 385.209H42.3965C42.3965 385.209 33.4819 380.302 35.2648 374.961C37.0477 369.62 46.4041 372.729 46.4041 372.729C46.4041 372.729 32.1487 355.349 33.0401 347.776C33.9316 340.202 52.2026 349.117 52.2026 349.117C52.2026 349.117 37.9392 313.025 40.6136 297.01C42.7177 284.377 52.5319 292.995 57.8646 297.878C56.6087 289.474 56.09 280.977 56.3146 272.483Z" fill="#7E57C2" stroke="white" stroke-linecap="round" stroke-linejoin="round"/>
<path opacity="0.5" d="M56.3146 272.483C56.5796 262.452 55.8086 245.346 64.6028 238.302C72.3288 232.118 78.3362 240.511 80.4965 247.281C85.757 263.705 83.2834 281.815 83.2753 298.769C83.2753 299.026 83.2753 299.283 83.2753 299.572C83.693 312.053 85.1868 325.553 83.8295 338.01C83.8295 338.01 85.1627 325.529 94.9688 330.878C104.775 336.227 90.0617 364.296 90.0617 364.296C90.0617 364.296 101.651 355.831 106.999 362.963C112.348 370.094 100.334 378.077 100.334 378.077C100.334 378.077 111.473 374.961 111.473 378.077C111.473 381.193 107.907 383.868 97.6592 385.209H42.3965C42.3965 385.209 33.4819 380.302 35.2648 374.961C37.0477 369.62 46.4041 372.729 46.4041 372.729C46.4041 372.729 32.1487 355.349 33.0401 347.776C33.9316 340.202 52.2026 349.117 52.2026 349.117C52.2026 349.117 37.9392 313.025 40.6136 297.01C42.7177 284.377 52.5319 292.995 57.8646 297.878C56.6087 289.474 56.09 280.977 56.3146 272.483Z" fill="white"/>
<path d="M74.031 384.759L70.0234 262.227" stroke="white" stroke-linecap="round" stroke-linejoin="round"/>
<path d="M71.8067 333.52L50.8613 313.916" stroke="white" stroke-linecap="round" stroke-linejoin="round"/>
<path d="M62.0003 324.606L57.543 312.133" stroke="white" stroke-linecap="round" stroke-linejoin="round"/>
<path d="M89.1781 348.667L73.1396 366.047" stroke="white" stroke-linecap="round" stroke-linejoin="round"/>
<path d="M46.4043 358.473L73.1402 372.287" stroke="white" stroke-linecap="round" stroke-linejoin="round"/>
<path d="M60.6674 366.488L50.8613 366.047" stroke="white" stroke-linecap="round" stroke-linejoin="round"/>
<path d="M74.031 384.759L70.0234 262.227" stroke="#7E57C2" stroke-linecap="round" stroke-linejoin="round"/>
<path d="M71.8067 333.52L50.8613 313.916" stroke="#7E57C2" stroke-linecap="round" stroke-linejoin="round"/>
<path d="M62.0003 324.606L57.543 312.133" stroke="#7E57C2" stroke-linecap="round" stroke-linejoin="round"/>
<path d="M89.1781 348.667L73.1396 366.047" stroke="#7E57C2" stroke-linecap="round" stroke-linejoin="round"/>
<path d="M46.4043 358.473L73.1402 372.287" stroke="#7E57C2" stroke-linecap="round" stroke-linejoin="round"/>
<path d="M60.6674 366.488L50.8613 366.047" stroke="#7E57C2" stroke-linecap="round" stroke-linejoin="round"/>
<g opacity="0.8">
<path d="M74.032 384.759L70.0244 262.227" stroke="white" stroke-linecap="round" stroke-linejoin="round"/>
<path d="M71.8067 333.52L50.8613 313.916" stroke="white" stroke-linecap="round" stroke-linejoin="round"/>
<path d="M62.0013 324.606L57.5439 312.133" stroke="white" stroke-linecap="round" stroke-linejoin="round"/>
<path d="M89.1789 348.667L73.1406 366.047" stroke="white" stroke-linecap="round" stroke-linejoin="round"/>
<path d="M46.4043 358.473L73.1402 372.287" stroke="white" stroke-linecap="round" stroke-linejoin="round"/>
<path d="M60.6674 366.488L50.8613 366.046" stroke="white" stroke-linecap="round" stroke-linejoin="round"/>
</g>
<path d="M152.183 359.999C152.183 372.456 142.312 382.559 142.312 382.559C142.312 382.559 132.458 372.456 132.458 359.999C132.458 347.543 142.328 337.439 142.328 337.439C142.328 337.439 152.183 347.535 152.183 359.999Z" fill="#7E57C2"/>
<path d="M159.017 379.218C154.198 384.623 146.055 385.209 146.055 385.209C146.055 385.209 145.661 377.025 150.456 371.62C155.25 366.215 163.418 365.629 163.418 365.629C163.418 365.629 163.78 373.813 159.017 379.218Z" fill="#7E57C2"/>
<path d="M133.872 371.436C138.899 376.616 138.875 384.808 138.875 384.808C138.875 384.808 130.691 384.591 125.656 379.403C120.62 374.215 120.652 366.031 120.652 366.031C120.652 366.031 128.836 366.248 133.872 371.436Z" fill="#7E57C2"/>
<g opacity="0.5">
<path d="M152.184 359.999C152.184 372.455 142.313 382.559 142.313 382.559C142.313 382.559 132.459 372.455 132.459 359.999C132.459 347.542 142.329 337.439 142.329 337.439C142.329 337.439 152.184 347.534 152.184 359.999Z" fill="white"/>
<path d="M142.312 382.559V337.439" stroke="white" stroke-linecap="round" stroke-linejoin="round"/>
<path d="M142.312 353.477L147.838 348.651" stroke="white" stroke-linecap="round" stroke-linejoin="round"/>
<path d="M142.223 360.931L135.381 351.02" stroke="white" stroke-linecap="round" stroke-linejoin="round"/>
<path d="M142.312 365.227L150.472 357.951" stroke="white" stroke-linecap="round" stroke-linejoin="round"/>
<path d="M142.224 371.018L134.152 363.83" stroke="white" stroke-linecap="round" stroke-linejoin="round"/>
<path d="M142.224 376.021L148.536 371.018" stroke="white" stroke-linecap="round" stroke-linejoin="round"/>
<path d="M159.018 379.218C154.199 384.623 146.056 385.209 146.056 385.209C146.056 385.209 145.662 377.025 150.457 371.62C155.251 366.215 163.419 365.629 163.419 365.629C163.419 365.629 163.781 373.813 159.018 379.218Z" fill="white"/>
<path d="M146.056 385.209L163.419 365.629" stroke="white" stroke-linecap="round" stroke-linejoin="round"/>
<path d="M157.251 372.592L161.499 372.624" stroke="white" stroke-linecap="round" stroke-linejoin="round"/>
<path d="M154.343 375.788L155.186 368.857" stroke="white" stroke-linecap="round" stroke-linejoin="round"/>
<path d="M152.721 377.692L159.065 377.667" stroke="white" stroke-linecap="round" stroke-linejoin="round"/>
<path d="M150.456 380.165L149.726 373.941" stroke="white" stroke-linecap="round" stroke-linejoin="round"/>
<path d="M148.537 382.333L153.203 382.599" stroke="white" stroke-linecap="round" stroke-linejoin="round"/>
<path d="M133.872 371.436C138.899 376.616 138.875 384.807 138.875 384.807C138.875 384.807 130.691 384.591 125.656 379.402C120.62 374.214 120.652 366.031 120.652 366.031C120.652 366.031 128.836 366.247 133.872 371.436Z" fill="white"/>
<path d="M138.875 384.807L120.652 366.031" stroke="white" stroke-linecap="round" stroke-linejoin="round"/>
<path d="M127.125 372.704L127.478 368.464" stroke="white" stroke-linecap="round" stroke-linejoin="round"/>
<path d="M130.105 375.844L123.255 374.479" stroke="white" stroke-linecap="round" stroke-linejoin="round"/>
<path d="M131.871 377.595L132.329 371.275" stroke="white" stroke-linecap="round" stroke-linejoin="round"/>
<path d="M134.176 380.037L127.912 380.31" stroke="white" stroke-linecap="round" stroke-linejoin="round"/>
<path d="M136.201 382.117L136.804 377.491" stroke="white" stroke-linecap="round" stroke-linejoin="round"/>
</g>
<path d="M142.312 382.559V337.439" stroke="#7E57C2" stroke-linecap="round" stroke-linejoin="round"/>
<path d="M142.312 353.478L147.838 348.651" stroke="#7E57C2" stroke-linecap="round" stroke-linejoin="round"/>
<path d="M142.223 360.931L135.381 351.02" stroke="#7E57C2" stroke-linecap="round" stroke-linejoin="round"/>
<path d="M142.312 365.227L150.472 357.951" stroke="#7E57C2" stroke-linecap="round" stroke-linejoin="round"/>
<path d="M142.224 371.018L134.152 363.83" stroke="#7E57C2" stroke-linecap="round" stroke-linejoin="round"/>
<path d="M142.225 376.022L148.537 371.018" stroke="#7E57C2" stroke-linecap="round" stroke-linejoin="round"/>
<g opacity="0.7">
<path d="M142.313 382.559V337.439" stroke="white" stroke-linecap="round" stroke-linejoin="round"/>
<path d="M142.313 353.477L147.839 348.651" stroke="white" stroke-linecap="round" stroke-linejoin="round"/>
<path d="M142.226 360.931L135.384 351.02" stroke="white" stroke-linecap="round" stroke-linejoin="round"/>
<path d="M142.313 365.227L150.473 357.951" stroke="white" stroke-linecap="round" stroke-linejoin="round"/>
<path d="M142.225 371.018L134.153 363.83" stroke="white" stroke-linecap="round" stroke-linejoin="round"/>
<path d="M142.226 376.021L148.538 371.018" stroke="white" stroke-linecap="round" stroke-linejoin="round"/>
</g>
<path d="M146.055 385.209L163.418 365.629" stroke="#7E57C2" stroke-linecap="round" stroke-linejoin="round"/>
<path d="M157.25 372.592L161.499 372.624" stroke="#7E57C2" stroke-linecap="round" stroke-linejoin="round"/>
<path d="M154.344 375.788L155.187 368.857" stroke="#7E57C2" stroke-linecap="round" stroke-linejoin="round"/>
<path d="M152.721 377.692L159.065 377.668" stroke="#7E57C2" stroke-linecap="round" stroke-linejoin="round"/>
<path d="M150.456 380.166L149.726 373.941" stroke="#7E57C2" stroke-linecap="round" stroke-linejoin="round"/>
<path d="M148.537 382.334L153.203 382.599" stroke="#7E57C2" stroke-linecap="round" stroke-linejoin="round"/>
<g opacity="0.7">
<path d="M146.056 385.209L163.419 365.629" stroke="white" stroke-linecap="round" stroke-linejoin="round"/>
<path d="M157.251 372.592L161.499 372.624" stroke="white" stroke-linecap="round" stroke-linejoin="round"/>
<path d="M154.345 375.789L155.188 368.858" stroke="white" stroke-linecap="round" stroke-linejoin="round"/>
<path d="M152.722 377.692L159.066 377.668" stroke="white" stroke-linecap="round" stroke-linejoin="round"/>
<path d="M150.457 380.166L149.727 373.941" stroke="white" stroke-linecap="round" stroke-linejoin="round"/>
<path d="M148.537 382.334L153.203 382.599" stroke="white" stroke-linecap="round" stroke-linejoin="round"/>
</g>
<path d="M138.875 384.808L120.652 366.031" stroke="#7E57C2" stroke-linecap="round" stroke-linejoin="round"/>
<path d="M127.126 372.705L127.479 368.464" stroke="#7E57C2" stroke-linecap="round" stroke-linejoin="round"/>
<path d="M130.105 375.845L123.255 374.479" stroke="#7E57C2" stroke-linecap="round" stroke-linejoin="round"/>
<path d="M131.872 377.596L132.33 371.275" stroke="#7E57C2" stroke-linecap="round" stroke-linejoin="round"/>
<path d="M134.176 380.037L127.912 380.31" stroke="#7E57C2" stroke-linecap="round" stroke-linejoin="round"/>
<path d="M136.201 382.117L136.804 377.491" stroke="#7E57C2" stroke-linecap="round" stroke-linejoin="round"/>
<g opacity="0.7">
<path d="M138.875 384.807L120.652 366.03" stroke="white" stroke-linecap="round" stroke-linejoin="round"/>
<path d="M127.125 372.704L127.478 368.464" stroke="white" stroke-linecap="round" stroke-linejoin="round"/>
<path d="M130.105 375.845L123.255 374.479" stroke="white" stroke-linecap="round" stroke-linejoin="round"/>
<path d="M131.871 377.595L132.329 371.275" stroke="white" stroke-linecap="round" stroke-linejoin="round"/>
<path d="M134.176 380.037L127.912 380.31" stroke="white" stroke-linecap="round" stroke-linejoin="round"/>
<path d="M136.201 382.117L136.804 377.491" stroke="white" stroke-linecap="round" stroke-linejoin="round"/>
</g>
<path d="M374.503 146.521H157.395C157.33 146.523 157.266 146.511 157.205 146.487C157.145 146.462 157.09 146.426 157.044 146.381C156.997 146.335 156.961 146.281 156.936 146.221C156.91 146.161 156.897 146.097 156.897 146.032C156.897 145.9 156.95 145.773 157.043 145.679C157.137 145.586 157.263 145.534 157.395 145.534H374.503C374.568 145.534 374.632 145.547 374.692 145.572C374.752 145.597 374.807 145.634 374.852 145.68C374.898 145.726 374.934 145.781 374.958 145.842C374.982 145.902 374.994 145.967 374.993 146.032C374.993 146.162 374.941 146.286 374.849 146.378C374.758 146.47 374.633 146.521 374.503 146.521Z" fill="#7E57C2"/>
<g opacity="0.3">
<path d="M374.504 146.521H157.396C157.331 146.523 157.267 146.511 157.206 146.487C157.146 146.462 157.091 146.426 157.045 146.381C156.998 146.335 156.962 146.281 156.936 146.221C156.911 146.161 156.898 146.097 156.898 146.032C156.898 145.9 156.951 145.773 157.044 145.679C157.138 145.586 157.264 145.534 157.396 145.534H374.504C374.569 145.534 374.633 145.547 374.693 145.572C374.753 145.597 374.808 145.634 374.853 145.68C374.899 145.726 374.935 145.781 374.959 145.842C374.983 145.902 374.995 145.967 374.994 146.032C374.994 146.162 374.942 146.286 374.85 146.378C374.759 146.47 374.634 146.521 374.504 146.521Z" fill="white"/>
</g>
<path d="M374.068 232.632H156.961C156.896 232.633 156.831 232.621 156.771 232.597C156.711 232.573 156.656 232.537 156.609 232.492C156.563 232.446 156.526 232.392 156.501 232.332C156.476 232.272 156.463 232.207 156.463 232.142C156.463 232.01 156.515 231.884 156.609 231.79C156.702 231.697 156.829 231.644 156.961 231.644H374.068C374.133 231.644 374.198 231.657 374.258 231.682C374.318 231.707 374.372 231.744 374.418 231.791C374.463 231.837 374.499 231.892 374.523 231.952C374.548 232.013 374.559 232.077 374.558 232.142C374.558 232.207 374.546 232.27 374.521 232.33C374.496 232.389 374.46 232.443 374.415 232.489C374.369 232.534 374.315 232.57 374.256 232.595C374.197 232.619 374.133 232.632 374.068 232.632Z" fill="#7E57C2"/>
<g opacity="0.3">
<path d="M374.068 232.632H156.961C156.896 232.633 156.831 232.621 156.771 232.597C156.711 232.573 156.656 232.537 156.609 232.492C156.563 232.446 156.526 232.392 156.501 232.332C156.476 232.272 156.463 232.207 156.463 232.142C156.463 232.01 156.515 231.884 156.609 231.79C156.702 231.697 156.829 231.644 156.961 231.644H374.068C374.133 231.644 374.198 231.657 374.258 231.682C374.318 231.707 374.372 231.744 374.418 231.791C374.463 231.837 374.499 231.892 374.523 231.952C374.548 232.013 374.559 232.077 374.558 232.142C374.558 232.207 374.546 232.27 374.521 232.33C374.496 232.389 374.46 232.443 374.415 232.489C374.369 232.534 374.315 232.57 374.256 232.595C374.197 232.619 374.133 232.632 374.068 232.632Z" fill="white"/>
</g>
<path d="M374.068 303.026H156.961C156.829 303.026 156.702 302.973 156.609 302.88C156.515 302.787 156.463 302.66 156.463 302.528C156.463 302.463 156.476 302.398 156.501 302.338C156.526 302.278 156.563 302.224 156.609 302.179C156.656 302.133 156.711 302.097 156.771 302.073C156.831 302.049 156.896 302.037 156.961 302.038H374.068C374.133 302.038 374.197 302.051 374.256 302.075C374.315 302.1 374.369 302.136 374.415 302.181C374.46 302.227 374.496 302.281 374.521 302.34C374.546 302.4 374.558 302.463 374.558 302.528C374.559 302.593 374.548 302.657 374.523 302.718C374.499 302.778 374.463 302.833 374.418 302.879C374.372 302.926 374.318 302.963 374.258 302.988C374.198 303.013 374.133 303.026 374.068 303.026Z" fill="#7E57C2"/>
<g opacity="0.3">
<path d="M374.068 303.026H156.961C156.829 303.026 156.702 302.973 156.609 302.88C156.515 302.787 156.463 302.66 156.463 302.528C156.463 302.463 156.476 302.398 156.501 302.338C156.526 302.278 156.563 302.224 156.609 302.179C156.656 302.133 156.711 302.097 156.771 302.073C156.831 302.049 156.896 302.037 156.961 302.038H374.068C374.133 302.038 374.197 302.051 374.256 302.075C374.315 302.1 374.369 302.136 374.415 302.181C374.46 302.227 374.496 302.281 374.521 302.34C374.546 302.4 374.558 302.463 374.558 302.528C374.559 302.593 374.548 302.657 374.523 302.718C374.499 302.778 374.463 302.833 374.418 302.879C374.372 302.926 374.318 302.963 374.258 302.988C374.198 303.013 374.133 303.026 374.068 303.026Z" fill="white"/>
</g>
<path d="M203.116 314.936V388.196" stroke="#263238" stroke-width="0.265171" stroke-miterlimit="10"/>
<path d="M213.582 314.936V388.196" stroke="#263238" stroke-width="0.265171" stroke-miterlimit="10"/>
<path d="M224.045 314.936V388.196" stroke="#263238" stroke-width="0.265171" stroke-miterlimit="10"/>
<path d="M234.511 314.936V388.196" stroke="#263238" stroke-width="0.265171" stroke-miterlimit="10"/>
<path d="M244.975 314.936V388.196" stroke="#263238" stroke-width="0.265171" stroke-miterlimit="10"/>
<path d="M255.44 314.936V388.196" stroke="#263238" stroke-width="0.265171" stroke-miterlimit="10"/>
<path d="M265.904 314.936V388.196" stroke="#263238" stroke-width="0.265171" stroke-miterlimit="10"/>
<path d="M276.369 314.936V388.196" stroke="#263238" stroke-width="0.265171" stroke-miterlimit="10"/>
<path d="M286.834 314.936V388.196" stroke="#263238" stroke-width="0.265171" stroke-miterlimit="10"/>
<path d="M297.298 314.936V388.196" stroke="#263238" stroke-width="0.265171" stroke-miterlimit="10"/>
<path d="M307.763 314.936V388.196" stroke="#263238" stroke-width="0.265171" stroke-miterlimit="10"/>
<path d="M318.228 314.936V388.196" stroke="#263238" stroke-width="0.265171" stroke-miterlimit="10"/>
<path d="M203.639 321.738H317.706" stroke="#263238" stroke-width="0.265171" stroke-miterlimit="10"/>
<path d="M203.639 331.681H317.706" stroke="#263238" stroke-width="0.265171" stroke-miterlimit="10"/>
<path d="M203.639 341.623H317.706" stroke="#263238" stroke-width="0.265171" stroke-miterlimit="10"/>
<path d="M203.639 351.566H317.706" stroke="#263238" stroke-width="0.265171" stroke-miterlimit="10"/>
<path d="M203.639 361.509H317.706" stroke="#263238" stroke-width="0.265171" stroke-miterlimit="10"/>
<path d="M203.639 371.451H317.706" stroke="#263238" stroke-width="0.265171" stroke-miterlimit="10"/>
<path d="M203.639 381.394H317.706" stroke="#263238" stroke-width="0.265171" stroke-miterlimit="10"/>
<path d="M227.603 340.636L212.296 387.827H244.356L229.041 340.636C228.992 340.484 228.896 340.351 228.767 340.257C228.638 340.162 228.482 340.112 228.322 340.112C228.162 340.112 228.007 340.162 227.877 340.257C227.748 340.351 227.652 340.484 227.603 340.636Z" fill="#7E57C2" stroke="#263238" stroke-width="1.06068" stroke-miterlimit="10"/>
<path d="M256.788 325.007L236.413 387.827H278.625L258.226 325.007C258.177 324.855 258.081 324.722 257.952 324.628C257.823 324.533 257.667 324.483 257.507 324.483C257.347 324.483 257.191 324.533 257.062 324.628C256.933 324.722 256.837 324.855 256.788 325.007Z" fill="#263238" stroke="#263238" stroke-width="1.06068" stroke-miterlimit="10"/>
<path d="M283.644 351.43L271.83 387.827H296.887L285.049 351.43C284.994 351.288 284.897 351.167 284.772 351.082C284.647 350.996 284.498 350.95 284.347 350.95C284.195 350.95 284.047 350.996 283.921 351.082C283.796 351.167 283.699 351.288 283.644 351.43Z" fill="#7E57C2" stroke="#263238" stroke-width="1.06068" stroke-miterlimit="10"/>
<path d="M299.827 363.926L292.077 387.827H309.015L301.265 363.926C301.216 363.774 301.12 363.641 300.991 363.547C300.862 363.453 300.706 363.402 300.546 363.402C300.386 363.402 300.23 363.453 300.101 363.547C299.972 363.641 299.876 363.774 299.827 363.926Z" fill="#263238" stroke="#263238" stroke-width="1.06068" stroke-miterlimit="10"/>
<path d="M201.736 291.782C197.144 291.782 192.655 290.42 188.836 287.869C185.018 285.318 182.042 281.692 180.285 277.449C178.528 273.207 178.068 268.538 178.964 264.034C179.86 259.53 182.071 255.393 185.318 252.146C188.565 248.899 192.702 246.688 197.206 245.792C201.71 244.896 206.378 245.356 210.621 247.113C214.864 248.87 218.49 251.846 221.041 255.665C223.592 259.483 224.954 263.972 224.954 268.564C224.948 274.72 222.499 280.622 218.147 284.975C213.794 289.328 207.892 291.776 201.736 291.782ZM201.736 252.164C198.493 252.166 195.323 253.129 192.627 254.932C189.931 256.735 187.83 259.297 186.59 262.294C185.35 265.29 185.027 268.588 185.66 271.768C186.294 274.949 187.856 277.87 190.15 280.163C192.444 282.456 195.366 284.017 198.547 284.649C201.728 285.281 205.025 284.956 208.022 283.715C211.018 282.473 213.579 280.371 215.38 277.674C217.182 274.978 218.144 271.807 218.144 268.564C218.139 264.214 216.409 260.044 213.333 256.969C210.256 253.895 206.085 252.166 201.736 252.164Z" fill="#263238" stroke="#263238" stroke-width="1.06068" stroke-miterlimit="10"/>
<path d="M201.736 291.782C198.602 291.792 195.5 291.162 192.618 289.932C189.736 288.701 187.135 286.896 184.975 284.626L189.898 279.912C191.423 281.516 193.26 282.791 195.295 283.659C197.331 284.528 199.523 284.972 201.736 284.964C203.889 284.964 206.022 284.539 208.012 283.715C210.001 282.891 211.809 281.683 213.332 280.16C214.855 278.637 216.063 276.83 216.887 274.84C217.711 272.85 218.135 270.718 218.135 268.564C218.135 266.41 217.711 264.278 216.887 262.288C216.063 260.298 214.855 258.49 213.332 256.968C211.809 255.445 210.001 254.237 208.012 253.413C206.022 252.588 203.889 252.164 201.736 252.164V245.346C204.785 245.346 207.804 245.946 210.621 247.113C213.438 248.28 215.997 249.99 218.153 252.146C220.309 254.302 222.02 256.862 223.187 259.679C224.353 262.496 224.954 265.515 224.954 268.564C224.954 271.613 224.353 274.632 223.187 277.449C222.02 280.266 220.309 282.826 218.153 284.982C215.997 287.138 213.438 288.848 210.621 290.015C207.804 291.182 204.785 291.782 201.736 291.782Z" fill="#7E57C2" stroke="#263238" stroke-width="1.06068" stroke-miterlimit="10"/>
<path d="M258.998 291.782C254.405 291.784 249.915 290.423 246.096 287.873C242.277 285.323 239.3 281.697 237.541 277.455C235.783 273.212 235.322 268.544 236.217 264.039C237.112 259.535 239.322 255.397 242.569 252.149C245.816 248.901 249.953 246.689 254.457 245.792C258.961 244.896 263.63 245.355 267.873 247.112C272.116 248.869 275.743 251.845 278.294 255.664C280.846 259.482 282.208 263.971 282.208 268.564C282.202 274.718 279.754 280.619 275.403 284.972C271.052 289.324 265.152 291.774 258.998 291.782ZM258.998 252.164C255.755 252.167 252.586 253.132 249.891 254.936C247.196 256.74 245.097 259.302 243.858 262.299C242.619 265.296 242.297 268.593 242.931 271.773C243.566 274.953 245.129 277.874 247.423 280.166C249.717 282.458 252.639 284.018 255.82 284.65C259.001 285.281 262.298 284.955 265.293 283.714C268.289 282.472 270.849 280.37 272.651 277.673C274.452 274.977 275.414 271.807 275.414 268.564C275.407 264.214 273.675 260.044 270.597 256.969C267.52 253.894 263.348 252.166 258.998 252.164Z" fill="#263238" stroke="#263238" stroke-width="1.06068" stroke-miterlimit="10"/>
<path d="M268.033 289.951L265.383 283.679C268.866 282.202 271.732 279.568 273.495 276.221C275.259 272.875 275.812 269.021 275.061 265.314C274.309 261.606 272.3 258.272 269.373 255.876C266.446 253.48 262.781 252.168 258.998 252.164V245.346C264.355 245.346 269.548 247.199 273.695 250.591C277.842 253.983 280.688 258.704 281.752 263.955C282.815 269.205 282.03 274.662 279.53 279.4C277.03 284.138 272.968 287.866 268.033 289.951Z" fill="#7E57C2" stroke="#263238" stroke-width="1.06068" stroke-miterlimit="10"/>
<path d="M316.252 291.782C311.66 291.782 307.171 290.42 303.353 287.869C299.535 285.318 296.559 281.692 294.802 277.449C293.044 273.207 292.584 268.538 293.48 264.034C294.376 259.53 296.588 255.393 299.835 252.146C303.082 248.899 307.219 246.688 311.723 245.792C316.227 244.896 320.895 245.356 325.138 247.113C329.38 248.87 333.006 251.846 335.558 255.665C338.109 259.483 339.471 263.972 339.471 268.564C339.464 274.72 337.016 280.622 332.663 284.975C328.31 289.328 322.408 291.776 316.252 291.782ZM316.252 252.164C313.009 252.164 309.838 253.126 307.141 254.928C304.444 256.73 302.342 259.291 301.101 262.288C299.86 265.285 299.535 268.582 300.168 271.763C300.801 274.945 302.363 277.867 304.656 280.16C306.95 282.454 309.872 284.016 313.053 284.649C316.234 285.281 319.532 284.957 322.528 283.715C325.525 282.474 328.086 280.372 329.888 277.675C331.69 274.978 332.652 271.807 332.652 268.564C332.648 264.216 330.919 260.047 327.844 256.972C324.769 253.898 320.601 252.168 316.252 252.164Z" fill="#263238" stroke="#263238" stroke-width="1.06068" stroke-miterlimit="10"/>
<path d="M332.331 265.295C331.569 261.595 329.556 258.269 326.631 255.878C323.706 253.486 320.047 252.175 316.269 252.164V245.346C321.62 245.359 326.803 247.215 330.947 250.601C335.09 253.987 337.942 258.697 339.021 263.938L332.331 265.295Z" fill="#7E57C2" stroke="#263238" stroke-width="1.06068" stroke-miterlimit="10"/>
<path d="M210.995 219.638H320.035" stroke="#263238" stroke-width="1.06068" stroke-miterlimit="10"/>
<path d="M210.995 219.638V217.317" stroke="#263238" stroke-width="1.06068" stroke-miterlimit="10"/>
<path d="M232.801 219.638V217.317" stroke="#263238" stroke-width="1.06068" stroke-miterlimit="10"/>
<path d="M254.611 219.638V217.317" stroke="#263238" stroke-width="1.06068" stroke-miterlimit="10"/>
<path d="M276.417 219.638V217.317" stroke="#263238" stroke-width="1.06068" stroke-miterlimit="10"/>
<path d="M298.223 219.638V217.317" stroke="#263238" stroke-width="1.06068" stroke-miterlimit="10"/>
<path d="M320.034 219.638V217.317" stroke="#263238" stroke-width="1.06068" stroke-miterlimit="10"/>
<path d="M229.748 188.646H214.047V207.238H229.748V188.646Z" fill="#7E57C2" stroke="#263238" stroke-width="1.06068" stroke-miterlimit="10"/>
<path d="M251.553 166.953H235.852V210.338H251.553V166.953Z" fill="#7E57C2" stroke="#263238" stroke-width="1.06068" stroke-miterlimit="10"/>
<path d="M273.365 136.587H257.664V184.935H273.365V136.587Z" fill="#7E57C2" stroke="#263238" stroke-width="1.06068" stroke-miterlimit="10"/>
<path d="M295.17 181.835H279.469V191.135H295.17V181.835Z" fill="#7E57C2" stroke="#263238" stroke-width="1.06068" stroke-miterlimit="10"/>
<path d="M316.975 176.253H301.274V200.427H316.975V176.253Z" fill="#7E57C2" stroke="#263238" stroke-width="1.06068" stroke-miterlimit="10"/>
<path d="M229.748 207.246H214.047V219.646H229.748V207.246Z" fill="#263238" stroke="#263238" stroke-width="1.06068" stroke-miterlimit="10"/>
<path d="M251.553 210.346H235.852V219.646H251.553V210.346Z" fill="#263238" stroke="#263238" stroke-width="1.06068" stroke-miterlimit="10"/>
<path d="M273.365 184.927H257.664V219.638H273.365V184.927Z" fill="#263238" stroke="#263238" stroke-width="1.06068" stroke-miterlimit="10"/>
<path d="M295.17 191.127H279.469V219.638H295.17V191.127Z" fill="#263238" stroke="#263238" stroke-width="1.06068" stroke-miterlimit="10"/>
<path d="M316.975 200.427H301.274V219.638H316.975V200.427Z" fill="#263238" stroke="#263238" stroke-width="1.06068" stroke-miterlimit="10"/>
<path d="M349.093 127.809C348.904 127.811 348.718 127.765 348.551 127.677C348.384 127.588 348.242 127.46 348.137 127.303L314.358 78.0398L280.089 114.582L245.097 91.7732L211.245 99.6277L176.863 127.552C176.625 127.746 176.319 127.837 176.013 127.806C175.708 127.774 175.427 127.622 175.233 127.384C175.039 127.145 174.948 126.839 174.98 126.534C175.011 126.228 175.163 125.947 175.402 125.753L210.201 97.4914L245.538 89.2915L279.735 111.586L314.647 74.3535L350.048 125.994C350.168 126.168 350.239 126.37 350.252 126.581C350.265 126.791 350.221 127.001 350.123 127.188C350.025 127.375 349.879 127.532 349.698 127.641C349.518 127.751 349.312 127.809 349.101 127.809H349.093Z" fill="#263238"/>
<path d="M179.039 126.652C179.039 127.22 178.871 127.774 178.556 128.245C178.241 128.717 177.793 129.084 177.269 129.301C176.745 129.518 176.169 129.575 175.612 129.465C175.056 129.354 174.545 129.081 174.144 128.68C173.743 128.279 173.47 127.768 173.36 127.212C173.249 126.656 173.306 126.079 173.523 125.555C173.74 125.031 174.107 124.584 174.579 124.269C175.05 123.954 175.605 123.785 176.172 123.785C176.932 123.785 177.662 124.087 178.199 124.625C178.737 125.163 179.039 125.892 179.039 126.652Z" fill="#7E57C2"/>
<path d="M210.723 101.427C212.306 101.427 213.59 100.143 213.59 98.5595C213.59 96.976 212.306 95.6924 210.723 95.6924C209.139 95.6924 207.855 96.976 207.855 98.5595C207.855 100.143 209.139 101.427 210.723 101.427Z" fill="#7E57C2"/>
<path d="M245.312 93.3952C246.896 93.3952 248.18 92.1115 248.18 90.5281C248.18 88.9446 246.896 87.6609 245.312 87.6609C243.729 87.6609 242.445 88.9446 242.445 90.5281C242.445 92.1115 243.729 93.3952 245.312 93.3952Z" fill="#7E57C2"/>
<path d="M279.903 115.947C281.487 115.947 282.77 114.663 282.77 113.08C282.77 111.496 281.487 110.213 279.903 110.213C278.32 110.213 277.036 111.496 277.036 113.08C277.036 114.663 278.32 115.947 279.903 115.947Z" fill="#7E57C2"/>
<path d="M317.361 76.2006C317.361 76.7677 317.193 77.322 316.878 77.7935C316.563 78.265 316.115 78.6325 315.591 78.8495C315.067 79.0665 314.491 79.1233 313.935 79.0127C313.379 78.902 312.868 78.629 312.467 78.228C312.066 77.827 311.793 77.3161 311.682 76.76C311.571 76.2038 311.628 75.6273 311.845 75.1034C312.062 74.5795 312.43 74.1317 312.901 73.8167C313.373 73.5016 313.927 73.3335 314.494 73.3335C315.255 73.3335 315.984 73.6355 316.521 74.1732C317.059 74.7109 317.361 75.4402 317.361 76.2006Z" fill="#7E57C2"/>
<path d="M351.95 126.652C351.95 127.22 351.782 127.774 351.467 128.245C351.152 128.717 350.704 129.084 350.18 129.301C349.656 129.518 349.08 129.575 348.524 129.465C347.967 129.354 347.457 129.081 347.056 128.68C346.655 128.279 346.382 127.768 346.271 127.212C346.16 126.656 346.217 126.079 346.434 125.555C346.651 125.031 347.019 124.584 347.49 124.269C347.962 123.954 348.516 123.785 349.083 123.785C349.843 123.785 350.573 124.087 351.11 124.625C351.648 125.163 351.95 125.892 351.95 126.652Z" fill="#7E57C2"/>
<path d="M410.917 399.923C441.531 399.923 466.348 396.589 466.348 392.478C466.348 388.366 441.531 385.033 410.917 385.033C380.303 385.033 355.485 388.366 355.485 392.478C355.485 396.589 380.303 399.923 410.917 399.923Z" fill="#7E57C2"/>
<path opacity="0.7" d="M410.917 399.923C441.531 399.923 466.348 396.589 466.348 392.478C466.348 388.366 441.531 385.033 410.917 385.033C380.303 385.033 355.485 388.366 355.485 392.478C355.485 396.589 380.303 399.923 410.917 399.923Z" fill="white"/>
<path d="M107.225 399.923C135.475 399.923 158.376 396.589 158.376 392.478C158.376 388.366 135.475 385.033 107.225 385.033C78.9752 385.033 56.0742 388.366 56.0742 392.478C56.0742 396.589 78.9752 399.923 107.225 399.923Z" fill="#7E57C2"/>
<path opacity="0.7" d="M107.225 399.923C135.475 399.923 158.376 396.589 158.376 392.478C158.376 388.366 135.475 385.033 107.225 385.033C78.9752 385.033 56.0742 388.366 56.0742 392.478C56.0742 396.589 78.9752 399.923 107.225 399.923Z" fill="white"/>
<path d="M395.271 130.202C395.271 130.202 416.329 128.162 417.534 131.672C418.739 135.182 418.337 143.197 418.337 143.197C419.398 143.472 420.432 143.841 421.429 144.297C421.71 144.57 424.826 146.61 421.919 149.959C421.16 150.808 420.24 151.499 419.212 151.991C417.93 152.558 416.711 153.258 415.574 154.079L411.35 158.874L412.153 165.05C412.153 165.05 414.04 166.415 416.345 171.178C416.345 171.178 421.79 174.39 424.987 176.213C427.615 177.594 430.349 178.765 433.163 179.715C433.163 179.715 434.624 180.189 434.52 181.241C434.415 182.293 427.244 206.137 427.244 206.137L423.469 218.184C423.397 219.665 423.204 221.137 422.891 222.585C422.353 225.179 420.329 226.882 418.233 226.352L418.441 235.186C418.441 235.186 408.595 240.109 392.356 239.274C392.356 239.274 384.71 238.535 379.056 234.351L378.952 213.711L352.899 208.667C352.899 208.667 349.598 207.968 351.292 204.997C352.987 202.025 358.681 194.653 358.681 194.653L376.984 172.262C376.984 172.262 378.245 170.776 378.711 170.302C379.177 169.828 380.317 169.499 384.839 169.122C389.36 168.744 394.428 167.869 394.428 167.869C394.428 167.869 397.175 165.507 397.568 165.507C397.962 165.507 398.042 161.974 398.042 161.974C396.653 160.971 395.498 159.68 394.656 158.188C393.815 156.696 393.307 155.039 393.167 153.332C392.774 147.598 395.287 134.162 395.287 134.162L395.271 130.202Z" fill="white"/>
<path d="M379.378 234.271C379.378 234.271 377.161 267.199 377.161 282.956C377.161 298.713 378.149 311.475 378.639 322.542C379.129 333.609 377.161 341.23 378.88 349.342C380.598 357.453 384.542 381.065 384.542 381.065L389.176 383.86C389.176 383.86 389.979 365.075 391.665 358.441C393.352 351.807 393.882 323.771 394.878 315.161C395.874 306.552 399.062 276.065 399.062 276.065C399.062 276.065 411.358 308.029 414.322 320.574C417.285 333.119 427.356 361.389 429.581 368.271C431.805 375.154 435.235 385.354 435.235 385.354C436.277 385.659 437.371 385.741 438.447 385.595C438.912 385.557 439.36 385.402 439.747 385.144C440.135 384.885 440.451 384.532 440.664 384.117C440.664 384.117 437.395 363.525 435.958 353.518C434.183 341.142 431.291 322.542 429.533 315.659C427.774 308.776 425.107 297.95 425.107 292.786C425.107 287.622 418.474 235.765 418.474 235.765C418.474 235.765 395.36 245.828 379.378 234.271Z" fill="#263238"/>
<path d="M399.047 276.065L389.185 264.564" stroke="white" stroke-width="0.530341" stroke-miterlimit="10" stroke-linecap="round"/>
<path d="M386.662 265.408L394.782 272.965" stroke="white" stroke-width="0.530341" stroke-miterlimit="10" stroke-linecap="round"/>
<path d="M404.018 266.251C406.097 260.991 409.96 256.629 414.932 253.931" stroke="white" stroke-width="0.530341" stroke-miterlimit="10" stroke-linecap="round"/>
<path d="M415.487 238.543C415.487 238.543 414.37 242.735 415.768 245.257C417.165 247.779 418.571 247.779 418.571 247.779C418.571 247.779 421.084 261.488 421.084 269.327C421.084 277.165 419.406 278.001 421.084 286.674C422.763 295.348 423.887 298.151 423.887 303.186C423.887 308.222 426.12 311.587 428.08 314.663C430.039 317.739 430.601 326.71 430.601 330.332C430.601 333.954 431.718 337.889 432.842 341.527C432.842 341.527 433.107 349.687 434.521 351.599C435.934 353.51 436.199 359.999 436.199 359.999" stroke="white" stroke-width="0.530341" stroke-miterlimit="10" stroke-linecap="round"/>
<path d="M397.023 274.925C397.023 274.925 397.577 281.35 395.617 292.553C393.657 303.757 392.26 306.825 391.979 319.699C391.698 332.573 392.822 334.813 392.26 341.527C391.698 348.241 388.341 358.851 388.341 363.669C388.341 368.488 388.855 383.892 388.855 383.892" stroke="white" stroke-width="0.530341" stroke-miterlimit="10" stroke-linecap="round"/>
<path d="M390.863 240.222L391.425 242.462L395.064 243.298L394.501 240.503" stroke="white" stroke-width="0.530341" stroke-miterlimit="10" stroke-linecap="round"/>
<path d="M395.078 243.298C395.078 243.298 401.792 243.017 405.149 241.9L404.346 239.66" stroke="white" stroke-width="0.530341" stroke-miterlimit="10" stroke-linecap="round"/>
<path d="M407.375 239.097L408.178 241.9C408.178 241.9 413.551 241.595 414.354 240.792" stroke="white" stroke-width="0.530341" stroke-miterlimit="10" stroke-linecap="round"/>
<path d="M391.425 242.462C389.569 242.404 387.751 241.923 386.109 241.057L383.587 239.66L384.39 237.7" stroke="white" stroke-width="0.530341" stroke-miterlimit="10" stroke-linecap="round"/>
<path d="M384.542 381.065C384.542 381.065 372.495 388.927 370.768 392.614C369.042 396.3 375.932 394.83 380.847 392.863C385.763 390.895 388.879 383.86 388.879 383.86L384.542 381.065Z" fill="white" stroke="#263238" stroke-width="1.06068" stroke-miterlimit="10" stroke-linecap="round"/>
<path d="M435.621 385.458C436.229 388.827 437.425 392.062 439.155 395.015C441.805 399.135 446.809 402.669 446.809 396.188C446.809 389.707 440.633 384.141 440.633 384.141C440.633 384.141 437.565 385.804 435.621 385.458Z" fill="white" stroke="#263238" stroke-width="1.06068" stroke-miterlimit="10" stroke-linecap="round"/>
<path d="M395.199 134.652C395.199 134.652 392.589 150.843 393.473 154.858C395.488 163.845 402.564 163.46 406.989 161.741C411.125 160.135 415.253 154.457 415.783 153.71C415.821 153.657 415.874 153.618 415.936 153.597C416.594 153.413 420.682 152.112 422.481 148.955C424.449 145.51 420.763 144.04 420.763 144.04" fill="white"/>
<g style="mix-blend-mode:multiply" opacity="0.5">
<path d="M411.945 157.878L415.848 153.589C415.848 153.589 420.466 152.167 422.482 148.915C423.662 147.011 423.012 145.349 422.297 144.899C421.318 144.369 420.307 143.9 419.269 143.494L417.96 146.377L416.844 146.57C416.844 146.57 417.31 143.598 415.961 141.839C414.611 140.081 414.306 134.989 414.306 134.989C414.306 134.989 412.419 145.14 412.186 149.389C412.126 151.753 411.387 154.05 410.058 156.006C410.058 156.006 410.299 158.601 410.764 161.195C410.821 161.5 410.877 161.958 410.933 162.528L411.575 161.5L411.929 162.48C411.527 160.793 411.343 159.002 411.945 157.878Z" fill="#7E57C2"/>
</g>
<path d="M395.199 134.652C395.199 134.652 392.589 150.843 393.473 154.858C395.488 163.845 402.564 163.46 406.989 161.741C411.125 160.135 415.253 154.457 415.783 153.71C415.821 153.657 415.874 153.618 415.936 153.597C416.594 153.413 420.682 152.112 422.481 148.955C424.449 145.51 420.763 144.04 420.763 144.04" stroke="#263238" stroke-width="1.06068" stroke-miterlimit="10" stroke-linecap="round"/>
<path d="M405.191 142.884C405.038 143.526 405.191 144.104 405.488 144.177C405.785 144.249 406.187 143.799 406.339 143.165C406.492 142.53 406.339 141.952 406.042 141.872C405.745 141.791 405.343 142.249 405.191 142.884Z" fill="#263238"/>
<path d="M398.291 141.205C398.139 141.848 398.291 142.426 398.589 142.498C398.886 142.57 399.287 142.121 399.44 141.486C399.593 140.852 399.44 140.265 399.143 140.193C398.846 140.121 398.436 140.563 398.291 141.205Z" fill="#263238"/>
<path d="M409.471 140.072C409.091 139.405 408.551 138.842 407.899 138.437C407.246 138.032 406.503 137.796 405.736 137.751" stroke="#263238" stroke-width="1.06068" stroke-miterlimit="10" stroke-linecap="round"/>
<path d="M400.452 137.872C399.82 137.596 399.118 137.518 398.441 137.65C397.764 137.782 397.143 138.117 396.661 138.611" stroke="#263238" stroke-width="1.06068" stroke-miterlimit="10" stroke-linecap="round"/>
<path d="M400.918 140.795C400.933 141.871 400.852 142.946 400.677 144.008C400.412 145.349 399.368 145.614 399.633 146.65C399.898 147.686 401.239 147.791 401.239 147.791" stroke="#263238" stroke-width="1.06068" stroke-miterlimit="10" stroke-linecap="round"/>
<path d="M402.637 151.975C403.205 152.156 403.806 152.211 404.398 152.138C404.99 152.064 405.559 151.864 406.066 151.549" stroke="#263238" stroke-width="1.06068" stroke-miterlimit="10" stroke-linecap="round"/>
<path d="M415.357 123.344C415.357 123.344 409.952 118.669 404.788 118.669C399.624 118.669 395.44 121.625 392.244 121.882C389.047 122.139 386.839 119.175 384.871 123.111C382.903 127.046 390.284 133.688 395.199 134.668C400.114 135.647 406.997 134.178 408.964 133.929C410.85 133.8 412.741 133.8 414.627 133.929C414.627 133.929 413.149 138.603 414.627 140.081C416.104 141.558 416.345 142.538 416.345 143.518C416.43 144.599 416.593 145.673 416.835 146.731L418.313 147.228L419.052 144.522C421.045 142.396 422.408 139.757 422.987 136.9C423.718 132.475 420.032 128.066 420.032 128.066L415.357 123.344Z" fill="#263238"/>
<path d="M394.654 132.652C394.654 132.652 403.063 134.258 409.649 131.519C416.234 128.781 410.556 123.344 410.556 123.344" stroke="white" stroke-width="0.530341" stroke-miterlimit="10" stroke-linecap="round"/>
<path d="M411.944 122.886C412.627 122.886 418.305 127.199 417.165 130.379C416.024 133.559 413.759 133.792 413.759 133.792" stroke="white" stroke-width="0.530341" stroke-miterlimit="10" stroke-linecap="round"/>
<path d="M411.014 220.441L403.914 216.698C402.09 216.597 400.275 216.361 398.485 215.992C396.831 215.518 379.853 213.896 379.853 213.896L379.596 217.911C379.596 217.911 398.959 220.513 402.967 220.987C406.974 221.461 410.524 223.348 411.231 224.529C411.937 225.709 413.359 226.89 412.652 230.151C411.945 233.411 407.223 238.182 407.223 238.182C406.998 237.845 418.579 237.009 418.467 235.773C418.218 233.315 416.909 226.135 416.909 226.135L411.014 220.441Z" fill="#7E57C2"/>
<path opacity="0.5" d="M411.014 220.441L403.914 216.698C402.09 216.597 400.275 216.361 398.485 215.992C396.831 215.518 379.853 213.896 379.853 213.896L379.596 217.911C379.596 217.911 398.959 220.513 402.967 220.987C406.974 221.461 410.524 223.348 411.231 224.529C411.937 225.709 413.359 226.89 412.652 230.151C411.945 233.411 407.223 238.182 407.223 238.182C407.038 237.82 418.603 237.001 418.467 235.773C418.089 232.64 416.909 226.135 416.909 226.135L411.014 220.441Z" fill="white"/>
<path d="M434.432 181.152C433.805 178.213 429.131 178.606 426.312 176.976C423.493 175.346 416.675 171.571 416.675 171.571L413.374 166.608C412.778 165.27 412.297 163.883 411.936 162.464L411.583 161.484L410.94 162.512C411.35 166.913 411.744 178.181 411.744 178.181L413.157 185.264C413.157 185.264 418.594 208.635 420.008 213.831C421.421 219.027 421.421 222.561 420.482 224.216C419.542 225.87 419.855 226.625 419.855 226.625C419.855 226.625 423.541 223.774 423.316 220.947C423.019 217.622 434.873 183.144 434.432 181.152Z" fill="#7E57C2"/>
<path opacity="0.5" d="M434.432 181.152C434.11 178.165 429.131 178.606 426.312 176.976C423.493 175.346 416.675 171.571 416.675 171.571L413.374 166.608C412.778 165.27 412.297 163.883 411.936 162.464L411.583 161.484L410.94 162.512C411.35 166.913 411.744 178.181 411.744 178.181L413.157 185.264C413.157 185.264 418.594 208.635 420.008 213.831C421.421 219.027 421.421 222.561 420.482 224.216C419.542 225.87 419.855 226.625 419.855 226.625C419.855 226.625 423.646 223.766 423.316 220.947C422.939 217.919 434.721 183.634 434.432 181.152Z" fill="white"/>
<path d="M413.8 178.205C413.8 178.205 412.322 164.929 411.583 161.484C410.844 158.038 411.342 156.079 408.146 156.079C404.949 156.079 401.014 155.581 401.721 157.308C402.428 159.034 407.343 157.549 408.146 158.287C408.949 159.026 408.387 160.745 408.387 160.745C408.387 160.745 401.962 161.243 401.962 162.962C401.962 164.68 402.211 169.387 403.44 169.844C404.668 170.302 405.158 167.636 405.158 167.636C405.158 167.636 405.407 173.258 406.636 175.257C407.419 176.492 408.326 177.644 409.343 178.695L413.8 178.205Z" fill="white" stroke="#263238" stroke-width="1.06068" stroke-miterlimit="10" stroke-linecap="round"/>
<path d="M409.375 181.891C409.375 181.891 408.636 212.41 409.864 217.301C411.093 222.192 417.735 228.858 421.172 225.661C424.61 222.465 422.899 215.582 422.899 212.386C422.899 209.189 415.029 185.586 415.029 183.859C414.912 182.425 414.578 181.017 414.041 179.683" stroke="#263238" stroke-width="1.06068" stroke-miterlimit="10" stroke-linecap="round"/>
<path d="M409.864 185.585L414.779 185.087" stroke="#263238" stroke-width="1.06068" stroke-miterlimit="10" stroke-linecap="round"/>
<path d="M378.43 200.845L379.378 173.691C379.378 173.691 378.197 172.984 377.723 175.579C377.249 178.173 377.016 183.377 377.016 183.377C377.016 183.377 371.346 179.835 372.768 181.955C374.189 184.076 376.543 188.806 376.543 188.806L367.772 197.536L371.788 199.19L378.43 200.845Z" fill="#7E57C2"/>
<path opacity="0.5" d="M378.43 200.845L379.378 173.691C379.378 173.691 378.197 172.984 377.723 175.579C377.249 178.173 377.016 183.377 377.016 183.377C377.016 183.377 371.346 179.835 372.768 181.955C374.189 184.076 376.543 188.806 376.543 188.806L367.772 197.536L371.788 199.19L378.43 200.845Z" fill="white"/>
<path d="M390.187 179.755C390.187 179.755 389.738 181.361 391.625 181.361C393.512 181.361 396.829 180.02 396.829 180.02L396.588 177.354C396.588 177.354 392.051 179.562 390.187 179.755Z" fill="#7E57C2"/>
<path opacity="0.5" d="M390.187 179.755C390.187 179.755 389.738 181.361 391.625 181.361C393.512 181.361 396.829 180.02 396.829 180.02L396.588 177.354C396.588 177.354 392.051 179.562 390.187 179.755Z" fill="white"/>
<path d="M398.292 161.797C398.292 161.797 395.834 176.253 397.312 179.466C398.79 182.678 400.998 181.923 402.717 180.453C404.435 178.984 406.652 175.289 406.652 175.289" stroke="#263238" stroke-width="1.06068" stroke-miterlimit="10" stroke-linecap="round"/>
<path d="M378.88 214.104L379.378 234.271C379.378 234.271 385 239.676 395.85 239.676C406.7 239.676 418.474 235.74 418.474 235.74V228.609" stroke="#263238" stroke-width="1.06068" stroke-miterlimit="10" stroke-linecap="round"/>
<path d="M412.081 164.68C412.081 164.68 416.506 169.105 416.506 173.29C416.506 177.474 415.767 178.454 415.767 178.454" stroke="#263238" stroke-width="1.06068" stroke-miterlimit="10" stroke-linecap="round"/>
<path d="M416.008 170.832C416.008 170.832 422.65 174.759 426.336 176.976C430.022 179.193 434.456 179.184 434.456 181.152C434.456 183.12 424.127 216.562 424.127 216.562" stroke="#263238" stroke-width="1.06068" stroke-miterlimit="10" stroke-linecap="round"/>
<path d="M420.192 181.891L417.734 191.729" stroke="#263238" stroke-width="1.06068" stroke-miterlimit="10" stroke-linecap="round"/>
<path d="M378.944 187.666L374.969 179.329" stroke="#263238" stroke-width="0.530341" stroke-miterlimit="10" stroke-linecap="round"/>
<path d="M378.945 190.051L372.985 186.477" stroke="#263238" stroke-width="0.530341" stroke-miterlimit="10" stroke-linecap="round"/>
<path d="M398.388 208.699L397.199 214.659" stroke="#263238" stroke-width="0.530341" stroke-miterlimit="10" stroke-linecap="round"/>
<path d="M430.536 180.919C430.536 180.919 424.585 182.108 419.027 188.854" stroke="#263238" stroke-width="0.530341" stroke-miterlimit="10" stroke-linecap="round"/>
<path d="M426.569 180.558C426.569 180.558 424.963 180.156 419.43 184.919" stroke="#263238" stroke-width="0.530341" stroke-miterlimit="10" stroke-linecap="round"/>
<path d="M398.387 182.51L396.01 201.158L397.993 201.56L399.584 195.608" stroke="#263238" stroke-width="0.530341" stroke-miterlimit="10" stroke-linecap="round"/>
<path d="M399.978 231.323C392.831 237.282 382.912 236.881 382.912 236.881" stroke="#263238" stroke-width="0.530341" stroke-miterlimit="10" stroke-linecap="round"/>
<path d="M369.773 198.933C369.773 198.933 364.914 194.484 358.031 200.146" stroke="#263238" stroke-width="0.530341" stroke-miterlimit="10" stroke-linecap="round"/>
<path d="M397.817 165.419C397.817 165.419 395.85 165.909 393.633 169.354C391.416 172.8 388.718 178.695 390.686 179.184C392.653 179.674 396.307 177.466 396.307 177.466" stroke="#263238" stroke-width="1.06068" stroke-miterlimit="10" stroke-linecap="round"/>
<path d="M405.439 178.454L407.897 180.662" stroke="#263238" stroke-width="1.06068" stroke-miterlimit="10" stroke-linecap="round"/>
<path d="M394.372 167.877C394.372 167.877 385.273 169.105 381.587 169.354C377.9 169.603 378.615 170.961 377.41 171.812C375.467 173.169 353.172 201.431 351.711 204.138C350.249 206.844 350.482 208.073 352.939 208.812C355.397 209.551 379.876 213.855 379.876 213.855L401.504 216.072L403.223 210.659C403.223 210.659 408.25 211.326 409.134 211.326" stroke="#263238" stroke-width="1.06068" stroke-miterlimit="10" stroke-linecap="round"/>
<path d="M400.766 208.667C395.992 207.283 391.378 205.398 387 203.045" stroke="#263238" stroke-width="1.06068" stroke-miterlimit="10" stroke-linecap="round"/>
<path d="M385.032 202.547C385.032 202.547 377.804 199.865 373.893 199.375C369.982 198.885 363.99 198.725 363.99 198.725" stroke="#263238" stroke-width="1.06068" stroke-miterlimit="10" stroke-linecap="round"/>
<path d="M378.391 199.351L379.13 179.923" stroke="#263238" stroke-width="1.06068" stroke-miterlimit="10" stroke-linecap="round"/>
<path d="M401.504 216.072C403.191 216.92 404.959 217.598 406.78 218.096" stroke="#263238" stroke-width="1.06068" stroke-miterlimit="10" stroke-linecap="round"/>
<path d="M79.7176 200.419L82.6169 184.574L100.968 177.346C100.968 177.346 101.86 172.422 102.759 172.206C103.659 171.989 104.542 169.965 104.542 169.965L104.1 165.909C104.1 165.909 105.779 159.484 114.22 164.488C114.22 164.488 111.666 166.19 112.108 166.897C112.549 167.604 111.618 169.852 112.734 169.852C113.85 169.852 116.107 171.274 117.248 172.422C118.046 173.28 118.751 174.22 119.352 175.225L128.853 175.771C129.826 175.78 130.795 175.912 131.736 176.165C131.896 171.523 131.326 167.981 130.202 165.227C126.114 155.284 118.661 151.734 117.593 146.755C116.525 141.775 117.063 141.253 117.063 141.253C118.149 140.149 118.944 138.793 119.377 137.305C119.81 135.818 119.868 134.247 119.544 132.732C118.484 127.408 114.396 123.673 99.6591 122.966C84.9219 122.26 87.0582 132.371 87.0582 132.371L87.2349 133.078C87.2349 133.078 77.8223 136.29 79.6052 148.168C81.3881 160.046 86.5281 165.21 86.3514 168.937C86.1747 172.663 80.6653 174.085 72.851 182.59C65.0366 191.095 63.4464 203.889 66.6428 212.233C68.2491 216.337 71.3893 219.758 75.3326 222.312L79.7176 200.419Z" fill="#263238"/>
<path d="M92.0211 201.986V205.568L85.2188 226.585C89.4693 227.71 93.9271 227.804 98.2212 226.858C100.645 226.227 102.962 225.239 105.096 223.927L92.0211 201.986Z" fill="#263238"/>
<path d="M111.577 166.769L112.38 170.383C112.38 170.383 114.789 167.973 119.495 175.29C119.495 175.29 129.277 175.057 131.944 176.39C131.944 176.39 132.498 176.551 134.305 178.47C136.112 180.39 142.906 186.501 142.906 186.501C142.906 186.501 151.628 194.597 152.496 195.223C153.363 195.85 156.616 198.958 159.049 200.042L165.57 185.192L168.478 177.844L170.084 171.796H170.598L170.71 166.921L170.317 161.107C170.381 160.811 170.516 160.535 170.71 160.304C171.384 159.37 171.902 158.334 172.244 157.236C172.244 156.689 171.69 153.461 171.69 153.461C171.69 153.461 171.417 152.658 172.011 152.561C172.606 152.465 174.798 153.228 175.071 154.762L175.875 154.489C176.54 152.9 177.369 151.384 178.348 149.967C179.649 148.281 180.982 147.221 181.81 147.767C182.037 147.923 182.2 148.156 182.271 148.422C182.342 148.689 182.315 148.972 182.195 149.22L179.609 153.975C179.609 153.975 178.469 155.509 179.882 156.055C179.882 156.055 182.942 158.023 183.143 159.749C183.344 161.476 182.235 162.962 181.255 164.231C180.276 165.5 178.549 168.246 178.549 168.246L176.541 170.021L175.738 173.081L176.686 174.262L175.272 180.39L174.252 184.983L173.738 187.77L170.526 198.773L167.313 208.362C167.313 208.362 165.659 213.856 161.651 213.703C157.644 213.55 153.251 211.382 151.829 210.675C150.408 209.969 138.69 203.849 138.69 203.849L136.281 202.708C136.602 203.805 136.741 204.948 136.69 206.089C136.65 208.21 134.369 212.884 133.703 213.944L133.309 222.232C133.154 223.67 133.181 225.122 133.389 226.553C133.743 228.713 135.55 240.937 135.943 242.463C135.943 242.463 132.04 245.997 120.411 247.675C108.782 249.354 103.337 246.631 103.337 246.631L98.1565 243.587L104.541 230.97C104.541 230.97 106.148 227.22 105.987 226.232C105.826 225.244 103.08 220.987 103.08 220.987L93.0005 203.046L92.5266 203.206L90.9605 208.443L85.2985 226.2L77.8456 248.366C77.8456 248.366 75.8057 253.988 74.9624 255.65L72.6092 262.822C72.7399 264.103 73.0565 265.358 73.5489 266.548L67.6299 262.717L68.682 257.096L69.9911 248.711L71.5973 239.596L73.0108 232.054L75.2676 221.999L76.0707 219.22L77.6769 211.366L80.5039 197.119L82.9133 184.919L99.7788 178.213L100.831 177.41C101.065 175.857 101.635 174.375 102.501 173.065C103.103 172.204 103.819 171.428 104.63 170.76C104.63 170.76 104.549 169.708 104.493 168.712C104.437 167.716 104.18 165.885 104.18 165.885C104.18 165.885 109.392 168.126 111.577 166.769Z" fill="white"/>
<path d="M88.9854 134.491C88.9854 134.491 92.1095 127.576 98.3578 127.576C104.606 127.576 117.544 139.848 117.544 139.848" stroke="white" stroke-width="0.530341" stroke-miterlimit="10" stroke-linecap="round"/>
<path d="M91.6602 135.583C91.6602 135.583 95.4509 131.568 100.141 133.126C104.831 134.684 105.498 140.265 105.498 140.265" stroke="white" stroke-width="0.530341" stroke-miterlimit="10" stroke-linecap="round"/>
<path d="M88.5362 136.274C88.5362 136.274 82.9625 139.398 82.5128 145.205C82.063 151.011 90.3191 157.918 91.4354 165.732C92.5518 173.547 86.7532 175.322 77.3808 181.795C68.0084 188.268 69.5745 202.764 71.5823 205.888" stroke="white" stroke-width="0.530341" stroke-miterlimit="10" stroke-linecap="round"/>
<path d="M72.6982 207.679C72.6982 207.679 74.0314 210.579 76.0392 211.47" stroke="white" stroke-width="0.530341" stroke-miterlimit="10" stroke-linecap="round"/>
<path d="M89.2108 151.445C88.9468 152.012 88.8284 152.635 88.8663 153.259C88.9041 153.883 89.0971 154.488 89.4276 155.019C90.5439 157.027 99.065 167.066 98.3583 171.756C97.6516 176.446 93.2264 179.337 93.2264 179.337" stroke="white" stroke-width="0.530341" stroke-miterlimit="10" stroke-linecap="round"/>
<path d="M93.4435 136.274C93.4435 136.274 88.3116 138.507 88.5365 143.639C88.7614 148.771 89.8777 150.112 89.8777 150.112" stroke="white" stroke-width="0.530341" stroke-miterlimit="10" stroke-linecap="round"/>
<path d="M117.545 153.252C119.14 156.862 121.328 160.179 124.018 163.066C128.034 167.082 128.475 172.888 128.475 172.888" stroke="white" stroke-width="0.530341" stroke-miterlimit="10" stroke-linecap="round"/>
<path d="M122.228 165.949C122.228 165.949 124.235 170.64 124.235 173.539" stroke="white" stroke-width="0.530341" stroke-miterlimit="10" stroke-linecap="round"/>
<path d="M111.119 167.194L104.815 172.872C104.815 172.872 104.14 174.591 102.871 177.346C101.602 180.1 101.811 185.377 101.811 185.377L105.698 193.111C105.698 193.111 98.2209 184.534 97.7952 183.473C97.3696 182.413 89.5472 184.325 88.0694 184.959C86.5917 185.594 84.6802 186.863 85.1059 188.766C85.5316 190.669 87.435 193.199 86.5837 193.625C85.7323 194.051 83.4113 192.99 83.4113 194.259C83.4113 195.528 86.166 200.395 84.8971 202.082C83.6282 203.768 75.5889 231.058 75.5889 231.058C75.5889 231.058 80.6646 226.826 79.3957 228.52C78.1268 230.215 71.999 243.956 71.999 243.956L69.6699 251.988L75.1713 223.445L79.8214 199.351L82.6162 184.574C85.3147 183.674 100.968 177.346 100.968 177.346C100.968 177.346 102.204 172.141 104.541 169.965L104.1 165.909C104.1 165.909 108.364 167.403 111.119 167.194Z" fill="#7E57C2"/>
<path opacity="0.5" d="M111.119 167.194L104.815 172.872C104.815 172.872 104.14 174.591 102.871 177.346C101.602 180.1 101.811 185.377 101.811 185.377L105.698 193.111C105.698 193.111 98.2209 184.534 97.7952 183.473C97.3696 182.413 89.5472 184.325 88.0694 184.959C86.5917 185.594 84.6802 186.863 85.1059 188.766C85.5316 190.669 87.435 193.199 86.5837 193.625C85.7323 194.051 83.4113 192.99 83.4113 194.259C83.4113 195.528 86.166 200.395 84.8971 202.082C83.6282 203.768 75.5889 231.058 75.5889 231.058C75.5889 231.058 80.6646 226.826 79.3957 228.52C78.1268 230.215 71.999 243.956 71.999 243.956L69.6699 251.988L75.1713 223.445L79.8214 199.351L82.6162 184.574C85.3147 183.674 100.968 177.346 100.968 177.346C100.968 177.346 101.305 172.527 104.55 170.84L104.1 165.909C104.1 165.909 108.364 167.403 111.119 167.194Z" fill="white"/>
<path d="M134.587 195.737C134.587 195.737 138.394 189.401 138.819 190.878C139.245 192.356 137.759 197.424 137.759 197.424C137.759 197.424 141.775 195.946 141.357 197.215C140.94 198.484 140.088 199.118 140.297 199.753C140.506 200.387 154.255 207.575 155.95 208.419C157.645 209.262 161.66 204.403 163.564 205.881C165.467 207.358 163.564 212.426 159.757 212.434C155.95 212.442 144.955 207.615 144.955 207.615L136.298 202.58" fill="#7E57C2"/>
<path opacity="0.5" d="M134.587 195.737C134.587 195.737 138.394 189.401 138.819 190.878C139.245 192.356 137.759 197.424 137.759 197.424C137.759 197.424 141.775 195.946 141.357 197.215C140.94 198.484 140.088 199.118 140.297 199.753C140.506 200.387 154.255 207.575 155.95 208.419C157.645 209.262 161.66 204.403 163.564 205.881C165.467 207.358 163.564 212.426 159.757 212.434C155.95 212.442 144.955 207.615 144.955 207.615L136.33 202.596" fill="white"/>
<path d="M111.754 221.324C111.754 221.324 136.474 208.217 132.458 213.076C128.443 217.935 115.135 223.445 111.754 221.324Z" fill="#7E57C2"/>
<path opacity="0.5" d="M111.754 221.324C111.754 221.324 136.474 208.217 132.458 213.076C128.443 217.935 115.135 223.445 111.754 221.324Z" fill="white"/>
<path d="M104.101 165.949C104.101 165.949 104.277 169.323 104.815 172.872C105.353 176.422 105.169 176.422 108.542 180.679C111.915 184.935 115.465 188.493 115.995 187.786" stroke="#263238" stroke-width="1.06068" stroke-miterlimit="10" stroke-linecap="round"/>
<path d="M116.171 186.541C116.171 186.541 116.524 180.325 115.287 176.245C114.05 172.165 112.267 170.736 112.267 169.82C112.207 168.866 112.089 167.917 111.914 166.977" stroke="#263238" stroke-width="1.06068" stroke-miterlimit="10" stroke-linecap="round"/>
<path d="M104.099 171.097C102.681 172.375 101.688 174.057 101.256 175.916C100.726 178.751 100.196 182.124 100.196 182.124L105.698 193.135C106.177 191.218 106.891 189.367 107.826 187.626C108.289 186.766 108.888 185.988 109.601 185.321" stroke="#263238" stroke-width="1.06068" stroke-miterlimit="10" stroke-linecap="round"/>
<path d="M117.416 183.522C117.804 183.425 118.208 183.406 118.604 183.466C119 183.527 119.379 183.666 119.721 183.875C121.142 184.59 123.985 188.316 123.985 188.316C123.985 188.316 122.034 179.081 118.661 174.294C115.288 169.507 112.975 169.853 112.975 169.853" stroke="#263238" stroke-width="1.06068" stroke-miterlimit="10" stroke-linecap="round"/>
<path d="M99.6592 178.021L82.6169 184.574C82.6169 184.574 76.4088 218.482 74.0958 227.533C71.7828 236.584 67.8877 262.155 67.8877 262.155L72.4976 263.039L74.1038 258.429" stroke="#263238" stroke-linecap="round" stroke-linejoin="round"/>
<path d="M74.9873 255.779C74.9873 255.779 76.0474 254.172 78.8905 245.338C81.7335 236.504 89.331 214.819 90.608 210.539C91.885 206.258 92.913 203.439 92.913 203.439" stroke="#263238" stroke-width="1.06068" stroke-miterlimit="10" stroke-linecap="round"/>
<path d="M89.8926 198.227C89.8926 198.227 104.268 223.927 105.513 225.035C106.758 226.144 104.983 229.115 104.622 230.713" stroke="#263238" stroke-width="1.06068" stroke-miterlimit="10" stroke-linecap="round"/>
<path d="M103.032 233.942L98.4219 243.531C98.4219 243.531 101.442 248.149 114.219 248.149C121.823 248.172 129.319 246.342 136.056 242.816C136.056 242.816 133.036 226.842 133.213 223.999C133.39 221.156 133.751 213.703 133.751 213.703C133.751 213.703 136.964 208.884 136.586 205.182C136.209 201.479 134.635 197.191 134.635 196.484C134.635 195.777 134.281 188.14 134.281 188.14" stroke="#263238" stroke-width="1.06068" stroke-miterlimit="10" stroke-linecap="round"/>
<path d="M114.195 218.16L126.917 210.354" stroke="#263238" stroke-width="0.530341" stroke-miterlimit="10" stroke-linecap="round"/>
<path d="M120.894 215.711L127.808 211.695" stroke="#263238" stroke-width="0.530341" stroke-miterlimit="10" stroke-linecap="round"/>
<path d="M158.961 200.21L156.367 206.563" stroke="#263238" stroke-width="0.530341" stroke-miterlimit="10" stroke-linecap="round"/>
<path d="M157.925 202.989L155.476 205.447" stroke="#263238" stroke-width="0.530341" stroke-miterlimit="10" stroke-linecap="round"/>
<path d="M85.4122 225.533C85.4122 225.533 81.1717 230.44 78.2725 232.448" stroke="#263238" stroke-width="0.530341" stroke-miterlimit="10" stroke-linecap="round"/>
<path d="M82.963 226.866C82.963 226.866 75.5984 232.665 73.8154 234.006" stroke="#263238" stroke-width="0.530341" stroke-miterlimit="10" stroke-linecap="round"/>
<path d="M84.2715 185.586C86.4916 188.725 88.5037 192.006 90.2949 195.408" stroke="#263238" stroke-width="0.530341" stroke-miterlimit="10" stroke-linecap="round"/>
<path d="M90.9932 196.966L92.5512 199.64" stroke="#263238" stroke-width="0.530341" stroke-miterlimit="10" stroke-linecap="round"/>
<path d="M134.635 196.484L136.586 186.542" stroke="#263238" stroke-width="0.530341" stroke-miterlimit="10" stroke-linecap="round"/>
<path d="M135.35 197.191L138.361 192.934" stroke="#263238" stroke-width="0.530341" stroke-miterlimit="10" stroke-linecap="round"/>
<path d="M92.9137 203.407L84.3926 198.789" stroke="#263238" stroke-width="0.530341" stroke-miterlimit="10" stroke-linecap="round"/>
<path d="M115.818 188.67C115.818 188.67 119.031 195.095 120.083 199.68" stroke="#263238" stroke-width="0.530341" stroke-miterlimit="10" stroke-linecap="round"/>
<path d="M168.543 177.482C169.393 177.42 170.246 177.53 171.052 177.806C171.858 178.082 172.6 178.518 173.233 179.089" stroke="#263238" stroke-width="0.530341" stroke-miterlimit="10" stroke-linecap="round"/>
<path d="M70.9727 257.746L73.1732 258.565" stroke="#263238" stroke-width="0.530341" stroke-miterlimit="10" stroke-linecap="round"/>
<path d="M67.8321 262.477C67.8597 265.53 67.6987 268.582 67.3502 271.616C66.8201 275.351 66.9968 283.872 67.7036 286.53C68.4103 289.188 68.7717 289.743 69.4785 288.136C70.1852 286.53 72.3215 277.134 72.3215 277.134C72.3215 277.134 72.6749 283.342 74.2731 282.812C75.8713 282.282 74.9879 279.262 74.9879 276.595C74.9879 273.929 75.1646 273.046 74.9879 270.917C74.8112 268.789 72.442 263.529 72.442 263.529" fill="white"/>
<path d="M67.8321 262.477C67.8597 265.53 67.6987 268.582 67.3502 271.616C66.8201 275.351 66.9968 283.872 67.7036 286.53C68.4103 289.188 68.7717 289.743 69.4785 288.136C70.1852 286.53 72.3215 277.134 72.3215 277.134C72.3215 277.134 72.6749 283.342 74.2731 282.812C75.8713 282.282 74.9879 279.262 74.9879 276.595C74.9879 273.929 75.1646 273.046 74.9879 270.917C74.8112 268.789 72.442 263.529 72.442 263.529" stroke="#263238" stroke-miterlimit="10" stroke-linecap="round"/>
<path d="M170.615 171.66C170.534 170.089 170.534 168.516 170.615 166.945C170.76 165.468 170.173 163.259 170.318 161.324C170.463 159.388 172.382 158.673 172.085 156.167C171.788 153.662 171.201 153.365 171.643 152.778C172.085 152.192 174.856 153.067 175.032 154.69C175.19 156.359 175.19 158.04 175.032 159.709C174.888 160.151 175.916 162.922 175.33 164.126C174.994 164.779 174.745 165.473 174.591 166.19" stroke="#263238" stroke-width="0.880843" stroke-miterlimit="10" stroke-linecap="round"/>
<path d="M175.626 154.561C175.626 154.561 179.015 147.783 180.935 147.63C182.854 147.478 182.26 149.236 181.665 150.136C181.071 151.035 179.16 154.264 179.015 155.597C178.871 156.93 177.096 161.339 177.096 161.339" stroke="#263238" stroke-width="0.880843" stroke-miterlimit="10" stroke-linecap="round"/>
<path d="M179.04 155.597C179.04 155.597 184.204 158.689 183.055 161.219C181.907 163.749 181.28 164.761 180.397 164.431C179.614 164.031 178.913 163.486 178.333 162.825" stroke="#263238" stroke-width="0.880843" stroke-miterlimit="10" stroke-linecap="round"/>
<path d="M180.935 164.44C180.935 164.44 179.602 166.648 178.574 167.981C177.983 168.751 177.282 169.431 176.494 169.997L175.867 172.174" stroke="#263238" stroke-width="0.880843" stroke-miterlimit="10" stroke-linecap="round"/>
<path d="M119.015 175.177C119.015 175.177 131.262 175.001 132.86 176.952C134.459 178.904 153.814 196.661 156.151 198.259C158.488 199.857 158.994 200.211 158.994 200.211C158.994 200.211 168.575 178.526 168.575 177.482C168.575 176.438 170.181 171.627 170.181 171.627C170.181 171.627 173.201 171.981 173.916 171.981C174.631 171.981 176.574 174.294 176.574 174.294C176.574 174.294 173.916 185.12 173.916 186.341C173.916 187.561 168.945 204.451 166.632 209.631C164.319 214.811 161.13 214.064 155.982 212.466C150.834 210.868 136.812 202.885 136.812 202.885" stroke="#263238" stroke-width="1.06068" stroke-miterlimit="10" stroke-linecap="round"/>
<path d="M98.4226 243.531C98.4226 243.531 91.315 261.312 89.3955 273.415C87.4761 285.518 88.2953 313.82 87.7411 316.848C87.187 319.876 79.4931 334.163 79.4931 341.038C79.4931 347.913 75.373 383.37 75.373 383.37L78.1197 385.017C78.1197 385.017 87.7572 355.301 91.315 347.632C94.8728 339.962 99.8361 321.795 101.209 318.221C102.583 314.647 112.212 286.056 112.758 282.482C113.304 278.908 116.605 270.114 116.605 270.114C116.605 270.114 123.753 313.82 125.126 322.895C126.5 331.971 136.121 381.17 136.121 381.17C136.753 381.324 137.399 381.416 138.049 381.443C138.852 381.443 139.149 380.07 139.149 380.07C139.149 380.07 142.996 345.158 141.896 335.81C140.795 326.461 137.502 314.928 137.502 311.62C137.502 308.311 142.45 279.736 142.45 269.857C142.45 259.979 136.025 242.832 136.025 242.832C136.025 242.832 113.224 254.333 98.4226 243.531Z" fill="#263238"/>
<path d="M137.398 313.435C137.398 313.435 134.949 323.923 131.6 329.497" stroke="white" stroke-width="0.530341" stroke-miterlimit="10" stroke-linecap="round"/>
<path d="M136.731 324.148C136.731 324.148 134.724 331.73 130.708 335.304" stroke="white" stroke-width="0.530341" stroke-miterlimit="10" stroke-linecap="round"/>
<path d="M89.2109 320.799C89.2109 320.799 90.769 329.947 92.5519 333.737" stroke="white" stroke-width="0.530341" stroke-miterlimit="10" stroke-linecap="round"/>
<path d="M88.7617 326.156C88.7617 326.156 90.1029 332.629 92.5524 336.42" stroke="white" stroke-width="0.530341" stroke-miterlimit="10" stroke-linecap="round"/>
<path d="M117.32 270.154L126.243 262.79" stroke="white" stroke-width="0.530341" stroke-miterlimit="10" stroke-linecap="round"/>
<path d="M121.561 267.03L132.049 262.34" stroke="white" stroke-width="0.530341" stroke-miterlimit="10" stroke-linecap="round"/>
<path d="M98.5752 254.533C98.5752 254.533 105.498 258.991 109.514 262.79" stroke="white" stroke-width="0.530341" stroke-miterlimit="10" stroke-linecap="round"/>
<path d="M75.6613 383.346C75.6613 383.346 65.2207 392.181 65.2207 396.566C65.2207 400.951 69.3407 400.686 73.7418 396.566C78.1429 392.446 78.3678 383.957 78.3678 383.957L75.6613 383.346Z" fill="white" stroke="#263238" stroke-width="1.06068" stroke-miterlimit="10" stroke-linecap="round"/>
<path d="M136.121 381.17C136.121 381.17 139.695 389.964 143.55 393.819C147.405 397.674 149.597 399.039 149.597 394.911C149.597 390.783 147.124 386.117 139.157 380.069C139.149 380.069 141.349 381.716 136.121 381.17Z" fill="white" stroke="#263238" stroke-width="1.06068" stroke-miterlimit="10" stroke-linecap="round"/>
<path d="M99.2423 137.752C98.5275 137.487 97.8529 137.166 97.1541 136.868C96.4554 136.571 95.1785 136.411 94.6966 138.603C93.9818 141.816 98.9531 144.466 97.3549 147.124C96.3607 148.741 94.8663 149.991 93.0984 150.682C92.8106 150.781 92.5107 150.84 92.2069 150.859C90.7854 151.035 88.4804 150.859 89.1872 153.34C89.8939 155.822 92.2069 157.958 93.6284 157.958H95.05C95.05 157.958 96.6562 162.777 102.68 165.411C108.703 168.046 112.799 167.901 114.221 164.528C115.642 161.155 116.71 158.312 116.71 153.87C116.71 149.429 115.104 141.976 115.104 141.976C115.104 141.976 113.682 143.936 108.181 141.446C104.543 139.8 101.138 138.467 99.2423 137.752Z" fill="white"/>
<g style="mix-blend-mode:multiply" opacity="0.5">
<path d="M108.188 141.446C108.188 141.446 99.699 140.972 98.4301 141.181C97.1612 141.39 98.6389 145.197 98.2213 149.004C97.8037 152.81 98.0045 158.946 99.699 160.85C101.699 162.812 103.818 164.649 106.044 166.351C106.044 166.351 99.5304 165.299 97.1612 162.544C94.792 159.789 94.4145 158.312 94.4145 158.312C94.4145 158.312 88.9131 155.099 88.4875 152.602C88.0618 150.104 91.7 151.429 93.4427 150.192C94.4225 149.518 98.4783 148.249 97.4583 144.867C96.4384 141.486 94.792 140.852 94.7277 138.587C94.6795 136.981 96.093 136.515 96.9604 136.37C97.3514 136.305 97.7533 136.364 98.1089 136.539L108.188 141.446Z" fill="#7E57C2"/>
</g>
<path d="M99.2423 137.752C98.5275 137.487 97.8529 137.166 97.1541 136.868C96.4554 136.571 95.1785 136.411 94.6966 138.603C93.9818 141.816 98.9531 144.466 97.3549 147.124C96.3607 148.741 94.8663 149.991 93.0984 150.682C92.8106 150.781 92.5107 150.84 92.2069 150.859C90.7854 151.035 88.4804 150.859 89.1872 153.34C89.8939 155.822 92.2069 157.958 93.6284 157.958H95.05C95.05 157.958 96.6562 162.777 102.68 165.411C108.703 168.046 112.799 167.901 114.221 164.528C115.642 161.155 116.71 158.312 116.71 153.87C116.71 149.429 115.104 141.976 115.104 141.976C115.104 141.976 113.682 143.936 108.181 141.446C104.543 139.8 101.138 138.467 99.2423 137.752Z" stroke="#263238" stroke-width="1.06068" stroke-miterlimit="10" stroke-linecap="round"/>
<path d="M105.514 148.273C105.627 148.947 105.442 149.542 105.097 149.598C104.752 149.654 104.398 149.148 104.294 148.474C104.189 147.799 104.374 147.197 104.711 147.14C105.049 147.084 105.402 147.63 105.514 148.273Z" fill="#263238"/>
<path d="M112.862 147.044C112.966 147.718 112.782 148.313 112.444 148.369C112.107 148.425 111.746 147.919 111.641 147.245C111.537 146.57 111.714 145.976 112.051 145.92C112.388 145.863 112.75 146.369 112.862 147.044Z" fill="#263238"/>
<path d="M101.257 144.996C101.706 144.328 102.316 143.783 103.03 143.411C103.744 143.04 104.54 142.853 105.345 142.868" stroke="#263238" stroke-width="1.06068" stroke-miterlimit="10" stroke-linecap="round"/>
<path d="M110.847 143.398C111.529 143.159 112.267 143.134 112.964 143.325C113.661 143.515 114.284 143.913 114.75 144.466" stroke="#263238" stroke-width="1.06068" stroke-miterlimit="10" stroke-linecap="round"/>
<path d="M110.141 146.418C110.042 147.54 110.042 148.669 110.141 149.791C110.317 151.212 111.377 151.566 111.024 152.634C110.671 153.702 109.249 153.694 109.249 153.694" stroke="#263238" stroke-width="1.06068" stroke-miterlimit="10" stroke-linecap="round"/>
<path d="M107.474 157.958C106.865 158.102 106.233 158.113 105.621 157.989C105.008 157.866 104.429 157.612 103.924 157.244" stroke="#263238" stroke-width="1.06068" stroke-miterlimit="10" stroke-linecap="round"/>
</svg>
