<svg width="106" height="37" viewBox="0 0 106 37" fill="none" xmlns="http://www.w3.org/2000/svg">
<path d="M0.794888 36.8182V0.818181H5.77216V5.0625H6.1983C6.49375 4.51705 6.91989 3.88636 7.47671 3.17045C8.03352 2.45454 8.80625 1.82954 9.79489 1.29545C10.7835 0.75 12.0903 0.477273 13.7153 0.477273C15.829 0.477273 17.7153 1.01136 19.3744 2.07955C21.0335 3.14773 22.3347 4.6875 23.2778 6.69886C24.2324 8.71023 24.7097 11.1307 24.7097 13.9602C24.7097 16.7898 24.2381 19.2159 23.2949 21.2386C22.3517 23.25 21.0563 24.8011 19.4085 25.892C17.7608 26.9716 15.8801 27.5114 13.7665 27.5114C12.1756 27.5114 10.8744 27.2443 9.86307 26.7102C8.86307 26.1761 8.07898 25.5511 7.5108 24.8352C6.94262 24.1193 6.50512 23.483 6.1983 22.9261H5.89148V36.8182H0.794888ZM5.78921 13.9091C5.78921 15.75 6.05625 17.3636 6.59034 18.75C7.12443 20.1364 7.89716 21.2216 8.90852 22.0057C9.91989 22.7784 11.1585 23.1648 12.6244 23.1648C14.1472 23.1648 15.4199 22.7614 16.4426 21.9545C17.4653 21.1364 18.2381 20.0284 18.7608 18.6307C19.2949 17.233 19.5619 15.6591 19.5619 13.9091C19.5619 12.1818 19.3006 10.6307 18.7778 9.25568C18.2665 7.88068 17.4938 6.79545 16.4597 6C15.4369 5.20455 14.1585 4.80682 12.6244 4.80682C11.1472 4.80682 9.89716 5.1875 8.87443 5.94886C7.86307 6.71023 7.09602 7.77273 6.5733 9.13636C6.05057 10.5 5.78921 12.0909 5.78921 13.9091ZM36.8392 27.5795C35.1801 27.5795 33.6801 27.2727 32.3392 26.6591C30.9983 26.0341 29.9358 25.1307 29.1517 23.9489C28.379 22.767 27.9926 21.3182 27.9926 19.6023C27.9926 18.125 28.2767 16.9091 28.8449 15.9545C29.4131 15 30.1801 14.2443 31.146 13.6875C32.1119 13.1307 33.1915 12.7102 34.3847 12.4261C35.5778 12.142 36.7938 11.9261 38.0324 11.7784C39.6006 11.5966 40.8733 11.4489 41.8506 11.3352C42.8278 11.2102 43.5381 11.0114 43.9813 10.7386C44.4244 10.4659 44.646 10.0227 44.646 9.40909V9.28977C44.646 7.80114 44.2256 6.64773 43.3847 5.82954C42.5551 5.01136 41.3165 4.60227 39.6688 4.60227C37.9528 4.60227 36.6006 4.98295 35.6119 5.74432C34.6347 6.49432 33.9585 7.32955 33.5835 8.25L28.7938 7.15909C29.3619 5.56818 30.1915 4.28409 31.2824 3.30682C32.3847 2.31818 33.6517 1.60227 35.0835 1.15909C36.5153 0.704545 38.021 0.477273 39.6006 0.477273C40.646 0.477273 41.754 0.602273 42.9244 0.852273C44.1063 1.09091 45.2085 1.53409 46.2313 2.18182C47.2653 2.82954 48.1119 3.75568 48.771 4.96023C49.4301 6.15341 49.7597 7.70455 49.7597 9.61364V27H44.7824V23.4205H44.5778C44.2483 24.0795 43.754 24.7273 43.0949 25.3636C42.4358 26 41.5892 26.5284 40.5551 26.9489C39.521 27.3693 38.2824 27.5795 36.8392 27.5795ZM37.9472 23.4886C39.3563 23.4886 40.5608 23.2102 41.5608 22.6534C42.5722 22.0966 43.3392 21.3693 43.8619 20.4716C44.396 19.5625 44.6631 18.5909 44.6631 17.5568V14.1818C44.4813 14.3636 44.129 14.5341 43.6063 14.6932C43.0949 14.8409 42.5097 14.9716 41.8506 15.0852C41.1915 15.1875 40.5494 15.2841 39.9244 15.375C39.2994 15.4545 38.7767 15.5227 38.3563 15.5795C37.3676 15.7045 36.4642 15.9148 35.646 16.2102C34.8392 16.5057 34.1915 16.9318 33.7028 17.4886C33.2256 18.0341 32.9869 18.7614 32.9869 19.6705C32.9869 20.9318 33.4528 21.8864 34.3847 22.5341C35.3165 23.1705 36.504 23.4886 37.9472 23.4886ZM55.348 27V0.818181H60.2741V4.97727H60.5469C61.0241 3.56818 61.8651 2.46023 63.0696 1.65341C64.2855 0.835226 65.6605 0.426135 67.1946 0.426135C67.5128 0.426135 67.8878 0.437499 68.3196 0.460227C68.7628 0.482953 69.1094 0.511362 69.3594 0.545454V5.42045C69.1548 5.36364 68.7912 5.30114 68.2685 5.23295C67.7457 5.15341 67.223 5.11364 66.7003 5.11364C65.4957 5.11364 64.4219 5.36932 63.4787 5.88068C62.5469 6.38068 61.8082 7.07954 61.2628 7.97727C60.7173 8.86364 60.4446 9.875 60.4446 11.0114V27H55.348ZM79.9548 27.5795C78.2957 27.5795 76.7957 27.2727 75.4548 26.6591C74.1139 26.0341 73.0514 25.1307 72.2673 23.9489C71.4946 22.767 71.1082 21.3182 71.1082 19.6023C71.1082 18.125 71.3923 16.9091 71.9605 15.9545C72.5287 15 73.2957 14.2443 74.2617 13.6875C75.2276 13.1307 76.3071 12.7102 77.5003 12.4261C78.6935 12.142 79.9094 11.9261 81.148 11.7784C82.7162 11.5966 83.9889 11.4489 84.9662 11.3352C85.9435 11.2102 86.6537 11.0114 87.0969 10.7386C87.5401 10.4659 87.7617 10.0227 87.7617 9.40909V9.28977C87.7617 7.80114 87.3412 6.64773 86.5003 5.82954C85.6707 5.01136 84.4321 4.60227 82.7844 4.60227C81.0685 4.60227 79.7162 4.98295 78.7276 5.74432C77.7503 6.49432 77.0742 7.32955 76.6992 8.25L71.9094 7.15909C72.4776 5.56818 73.3071 4.28409 74.398 3.30682C75.5003 2.31818 76.7673 1.60227 78.1992 1.15909C79.631 0.704545 81.1367 0.477273 82.7162 0.477273C83.7617 0.477273 84.8696 0.602273 86.0401 0.852273C87.2219 1.09091 88.3242 1.53409 89.3469 2.18182C90.381 2.82954 91.2276 3.75568 91.8867 4.96023C92.5457 6.15341 92.8753 7.70455 92.8753 9.61364V27H87.898V23.4205H87.6935C87.3639 24.0795 86.8696 24.7273 86.2105 25.3636C85.5514 26 84.7048 26.5284 83.6707 26.9489C82.6367 27.3693 81.398 27.5795 79.9548 27.5795ZM81.0628 23.4886C82.4719 23.4886 83.6764 23.2102 84.6764 22.6534C85.6878 22.0966 86.4548 21.3693 86.9776 20.4716C87.5117 19.5625 87.7787 18.5909 87.7787 17.5568V14.1818C87.5969 14.3636 87.2446 14.5341 86.7219 14.6932C86.2105 14.8409 85.6253 14.9716 84.9662 15.0852C84.3071 15.1875 83.6651 15.2841 83.0401 15.375C82.4151 15.4545 81.8923 15.5227 81.4719 15.5795C80.4832 15.7045 79.5798 15.9148 78.7617 16.2102C77.9548 16.5057 77.3071 16.9318 76.8185 17.4886C76.3412 18.0341 76.1026 18.7614 76.1026 19.6705C76.1026 20.9318 76.5685 21.8864 77.5003 22.5341C78.4321 23.1705 79.6196 23.4886 81.0628 23.4886ZM101.822 27.3239C100.89 27.3239 100.089 26.9943 99.4182 26.3352C98.7477 25.6648 98.4125 24.858 98.4125 23.9148C98.4125 22.983 98.7477 22.1875 99.4182 21.5284C100.089 20.858 100.89 20.5227 101.822 20.5227C102.753 20.5227 103.555 20.858 104.225 21.5284C104.895 22.1875 105.231 22.983 105.231 23.9148C105.231 24.5398 105.072 25.1136 104.753 25.6364C104.447 26.1477 104.037 26.5568 103.526 26.8636C103.015 27.1705 102.447 27.3239 101.822 27.3239ZM101.822 8.26704C100.89 8.26704 100.089 7.93182 99.4182 7.26136C98.7477 6.59091 98.4125 5.78977 98.4125 4.85795C98.4125 3.92614 98.7477 3.13068 99.4182 2.47159C100.089 1.80114 100.89 1.46591 101.822 1.46591C102.753 1.46591 103.555 1.80114 104.225 2.47159C104.895 3.13068 105.231 3.92614 105.231 4.85795C105.231 5.48295 105.072 6.05682 104.753 6.57954C104.447 7.09091 104.037 7.5 103.526 7.80682C103.015 8.11364 102.447 8.26704 101.822 8.26704Z" fill="url(#paint0_linear_2726_2810)"/>
<defs>
<linearGradient id="paint0_linear_2726_2810" x1="20.5" y1="61.5" x2="87.5" y2="2" gradientUnits="userSpaceOnUse">
<stop stop-color="#54277E"/>
<stop offset="1" stop-color="#D72B57"/>
</linearGradient>
</defs>
</svg>
